<?xml version="1.0" encoding="utf-8"?>
<svg xmlns="http://www.w3.org/2000/svg" xmlns:xlink="http://www.w3.org/1999/xlink" version= "1.1" width="720px" height="1404px" viewBox="0 0 720 1404">
<g id="layer1">
<g style="fill:rgb(251,205,135); fill-opacity:1.0; stroke-linejoin: miter">
<path d="M284.50964,656.6727L284.50958,656.67285L284.5095,656.673L284.5095,656.6739L284.5095,656.673L284.50958,656.67303L284.50964,656.674L284.50964,656.6727 Z"/>
</g>
<g style="fill:rgb(251,205,135); fill-opacity:1.0; stroke-linejoin: miter">
<path d="M284.5089,656.6727L284.5089,656.6732L284.5089,656.67377L284.50903,656.6736L284.50916,656.67346Q284.50916,656.67395,284.50916,656.67444Q284.50903,656.6736,284.5089,656.6727 Z"/>
</g>
<g style="fill:rgb(251,205,135); fill-opacity:1.0; stroke-linejoin: miter">
<path d="M284.5094,656.6729L284.5094,656.673L284.50937,656.6732L284.50943,656.67316L284.5095,656.673L284.50946,656.6729L284.5094,656.6739 Z"/>
</g>
<g style="fill:rgb(251,205,135); fill-opacity:1.0; stroke-linejoin: miter">
<path d="M284.50934,656.67316L284.50925,656.6733L284.50922,656.6734L284.5092,656.67346L284.50912,656.67444L284.50912,656.6754L284.50922,656.67413L284.50925,656.6738L284.5093,656.67346L284.50934,656.67316 Z"/>
</g>
<g style="fill:rgb(251,205,135); fill-opacity:1.0; stroke-linejoin: miter">
</g>
<g style="fill:rgb(251,205,135); fill-opacity:1.0; stroke-linejoin: miter">
</g>
<g style="fill:rgb(251,205,135); fill-opacity:1.0; stroke-linejoin: miter">
<path d="M326.42197,629.9163L326.40277,629.9205L326.24954,629.9541L326.27707,629.9652Q326.6796,630.1482,327.0822,630.33105Q327.1806,630.33673,327.27905,630.34235Q326.96478,630.1816,326.76947,630.0789L326.51895,629.9469Q326.52054,629.94684,326.52222,629.94684L326.42197,629.9163 Z"/>
</g>
<g style="fill:rgb(251,205,135); fill-opacity:1.0; stroke-linejoin: miter">
</g>
<g style="fill:rgb(251,205,135); fill-opacity:1.0; stroke-linejoin: miter">
</g>
<g style="fill:rgb(251,205,135); fill-opacity:1.0; stroke-linejoin: miter">
<path d="M325.21094,632.6639L325.21094,632.66437L325.21094,632.66486L325.2118,632.66455L325.21268,632.6643Q325.21268,632.6648,325.21268,632.6653L325.2118,632.66455L325.21094,632.6639 Z"/>
</g>
<g style="fill:rgb(251,205,135); fill-opacity:1.0; stroke-linejoin: miter">
<path d="M325.21417,632.6639L325.21344,632.66406Q325.2123,632.66394,325.21268,632.6653L325.22885,632.6685Q325.397,632.7116,325.541,632.7476L325.47296,632.6877L325.47348,632.6882L325.474,632.68866Q325.47583,632.6874,325.47617,632.6876Q325.34512,632.6758,325.21417,632.6639 Z"/>
</g>
<g style="fill:rgb(251,205,135); fill-opacity:1.0; stroke-linejoin: miter">
<path d="M332.36414,624.8114L332.37875,624.8428L332.39334,624.8741Q332.47177,624.91754,332.5502,624.9608Q332.43442,624.8664,332.36746,624.8114L332.36414,624.8124 Z"/>
</g>
<g style="fill:rgb(251,205,135); fill-opacity:1.0; stroke-linejoin: miter">
</g>
<g style="fill:rgb(251,205,135); fill-opacity:1.0; stroke-linejoin: miter">
</g>
<g style="fill:rgb(251,205,135); fill-opacity:1.0; stroke-linejoin: miter">
</g>
<g style="fill:rgb(251,205,135); fill-opacity:1.0; stroke-linejoin: miter">
</g>
<g style="fill:rgb(251,205,135); fill-opacity:1.0; stroke-linejoin: miter">
</g>
<g style="fill:rgb(251,205,135); fill-opacity:1.0; stroke-linejoin: miter">
</g>
<g style="fill:rgb(251,205,135); fill-opacity:1.0; stroke-linejoin: miter">
<path d="M332.62424,635.2155L332.85416,635.3428Q333.57794,635.7444,334.8654,636.43427Q337.0861,637.06085,339.63992,637.5543Q339.1254,637.3876,338.57043,637.17065Q337.58365,636.7751,337.12317,636.5557L335.6526,636.13873Q335.47043,636.31195,335.34497,636.31964Q335.2205,636.3501,335.01843,636.2895Q334.70587,636.16547,334.73993,636.1519Q334.66028,636.0645,334.59283,635.8288Q333.73322,635.57336,332.62424,635.2155 Z"/>
</g>
<g style="fill:rgb(251,205,135); fill-opacity:1.0; stroke-linejoin: miter">
<path d="M356.9939,641.65234L356.9958,641.65466L356.9977,641.65704L356.9977,641.658L356.99908,641.6573Q356.99982,641.657,357.00046,641.6567L357.00256,641.65594L357.00394,641.6556Q357.00577,641.65607,357.0075,641.65656Q357.0025,641.6544,356.99744,641.65234L356.99744,641.6524L356.99567,641.65234L356.9939,641.6533 Z"/>
</g>
<g style="fill:rgb(251,205,135); fill-opacity:1.0; stroke-linejoin: miter">
<path d="M340.74295,639.02356L341.77927,639.4256Q343.78296,640.1929,345.23532,640.6638Q345.9615,640.89954,346.54984,641.06104Q346.96228,641.19055,347.9405,641.37427Q346.40982,640.03516,345.3806,639.05066Q344.3503,639.1431,343.09677,639.1321Q341.99002,639.1211,340.74295,639.02356 Z"/>
</g>
<g style="fill:rgb(251,205,135); fill-opacity:1.0; stroke-linejoin: miter">
</g>
<g style="fill:rgb(251,205,135); fill-opacity:1.0; stroke-linejoin: miter">
</g>
<g style="fill:rgb(251,205,135); fill-opacity:1.0; stroke-linejoin: miter">
</g>
<g style="fill:rgb(251,205,135); fill-opacity:1.0; stroke-linejoin: miter">
</g>
<g style="fill:rgb(251,205,135); fill-opacity:1.0; stroke-linejoin: miter">
</g>
<g style="fill:rgb(251,205,135); fill-opacity:1.0; stroke-linejoin: miter">
</g>
<g style="fill:rgb(251,205,135); fill-opacity:1.0; stroke-linejoin: miter">
</g>
<g style="fill:rgb(251,205,135); fill-opacity:1.0; stroke-linejoin: miter">
</g>
<g style="fill:rgb(251,205,135); fill-opacity:1.0; stroke-linejoin: miter">
<path d="M293.3357,661.3185L293.33548,661.319L293.3353,661.31946Q293.33548,661.32,293.3357,661.3205Q293.3357,661.31946,293.3357,661.3185 Z"/>
</g>
<g style="fill:rgb(251,205,135); fill-opacity:1.0; stroke-linejoin: miter">
<path d="M293.32806,661.33026L293.32806,661.3312Q292.9032,661.91406,291.96112,663.43634Q291.76495,664.0491,291.56866,664.6618Q291.71127,664.7392,291.90417,664.92523L293.331,661.33026L293.32806,661.33124 Z"/>
</g>
<g style="fill:rgb(251,205,135); fill-opacity:1.0; stroke-linejoin: miter">
</g>
<g style="fill:rgb(251,205,135); fill-opacity:1.0; stroke-linejoin: miter">
<path d="M287.1928,720.5209L287.13184,720.5653L287.0709,720.60974Q287.07233,720.6103,287.07376,720.6107Q287.07745,720.6155,287.0772,720.617L287.1928,720.5209 Z"/>
</g>
<g style="fill:rgb(251,205,135); fill-opacity:1.0; stroke-linejoin: miter">
</g>
<g style="fill:rgb(251,205,135); fill-opacity:1.0; stroke-linejoin: miter">
</g>
<g style="fill:rgb(251,205,135); fill-opacity:1.0; stroke-linejoin: miter">
</g>
<g style="fill:rgb(251,205,135); fill-opacity:1.0; stroke-linejoin: miter">
</g>
<g style="fill:rgb(251,205,135); fill-opacity:1.0; stroke-linejoin: miter">
</g>
<g style="fill:rgb(251,205,135); fill-opacity:1.0; stroke-linejoin: miter">
</g>
<g style="fill:rgb(251,205,135); fill-opacity:1.0; stroke-linejoin: miter">
</g>
<g style="fill:rgb(251,205,135); fill-opacity:1.0; stroke-linejoin: miter">
</g>
<g style="fill:rgb(251,205,135); fill-opacity:1.0; stroke-linejoin: miter">
</g>
<g style="fill:rgb(251,205,135); fill-opacity:1.0; stroke-linejoin: miter">
<path d="M329.78613,735.59674L329.78555,735.5977L329.78476,735.5968L329.78384,735.5978Q329.78177,735.5969,329.7781,735.5971L329.77615,735.5981L329.77408,735.59717L329.77216,735.5973L329.77023,735.5975L329.7664,735.59766L329.76453,735.5978L329.76263,735.59796L329.7632,735.59894L329.77582,735.59814L329.7884,735.5972L329.7884,735.5982Q329.78726,735.59753,329.78613,735.59674 Z"/>
</g>
<g style="fill:rgb(251,205,135); fill-opacity:1.0; stroke-linejoin: miter">
<path d="M329.7967,735.5967L329.7925,735.5969L329.78836,735.5972L329.78836,735.5982Q329.78934,735.5979,329.79025,735.59766Q329.79187,735.5975,329.79343,735.5973L329.79672,735.59827L329.79672,735.5976L329.79672,735.59766L329.8185,735.5978L329.84027,735.59796L329.83783,735.5978L329.83542,735.59766L329.833,735.59753L329.83063,735.5975L329.82822,735.5973L329.82584,735.59717L329.81894,735.5969L329.81198,735.59674L329.80972,735.5967L329.8075,735.59766Q329.80316,735.59717,329.79877,735.59766L329.79877,735.5967L329.7967,735.59766 Z"/>
</g>
<g style="fill:rgb(251,205,135); fill-opacity:1.0; stroke-linejoin: miter">
</g>
<g style="fill:rgb(251,205,135); fill-opacity:1.0; stroke-linejoin: miter">
</g>
<g style="fill:rgb(251,205,135); fill-opacity:1.0; stroke-linejoin: miter">
</g>
<g style="fill:rgb(251,205,135); fill-opacity:1.0; stroke-linejoin: miter">
</g>
<g style="fill:rgb(251,205,135); fill-opacity:1.0; stroke-linejoin: miter">
<path d="M361.8854,688.83826L361.87524,688.8458Q361.8391,688.8718,361.82245,688.8814Q361.80063,688.8947,361.77774,688.9068Q361.732,688.9307,361.68225,688.9486Q361.7207,688.93524,361.77527,688.91174Q361.842,688.8814,361.87863,688.8595L361.88226,688.8605L361.88904,688.83826L361.8854,688.83923 Z"/>
</g>
<g style="fill:rgb(251,205,135); fill-opacity:1.0; stroke-linejoin: miter">
<path d="M356.817,707.67975L356.817,707.6798L356.81702,707.6803L356.81702,707.68085L356.81702,707.68036L356.817,707.68024L356.817,707.67975 Z"/>
</g>
<g style="fill:rgb(251,205,135); fill-opacity:1.0; stroke-linejoin: miter">
</g>
<g style="fill:rgb(251,205,135); fill-opacity:1.0; stroke-linejoin: miter">
</g>
<g style="fill:rgb(251,205,135); fill-opacity:1.0; stroke-linejoin: miter">
<path d="M318.84106,632.0308L318.01242,632.34186Q318.0722,631.9807,312.33276,635.2306Q311.11334,635.36017,309.5536,634.19385Q306.27353,635.5511,294.58582,645.25354L291.87836,651.4752Q294.27042,649.4087,291.9983,655.6335Q292.7166,653.8306,293.46863,654.0309L296.20322,649.3208Q296.8819,648.6672,297.27347,649.84406L292.04196,659.59753Q292.20795,659.3009,292.7728,659.8352L296.78885,655.09906Q297.83215,654.79486,298.02762,655.2221L293.4124,661.14014L293.355,661.2906Q293.76602,660.8444,294.2019,660.8941L294.5164,661.29987Q293.7273,664.46246,294.16397,664.11945L290.29147,674.40955L290.06473,676.6862L292.81155,678.578L293.15738,680.0494L290.44485,685.32104L290.17233,687.0649Q290.37,686.8841,290.7917,688.5112L290.10187,691.9906L293.62747,697.971Q294.00766,697.7517,295.28726,699.7251Q295.03168,699.4172,295.8911,702.3568L299.27942,713.02765Q305.05258,719.7378,304.74872,719.08606L305.7572,722.44556L312.75208,731.03076L312.64447,731.1308L315.65674,733.3869Q319.419,734.64844,323.46844,735.4743L337.66965,735.45605Q338.46942,735.4379,340.73096,734.64087L341.82578,734.20325L344.9503,731.36273Q344.9188,730.95026,345.72983,729.9509L348.55518,727.8149L353.08844,721.2124L355.9522,713.3739L356.785,707.2566Q356.88995,706.82306,357.3893,706.6938Q357.24017,705.5822,357.82834,705.37463L357.93887,702.7104Q358.26233,702.0323,358.92325,702.2333L359.80893,697.71515Q360.77628,696.1145,361.05948,696.343Q361.3352,692.4852,361.6415,692.916L361.71954,690.56824Q360.1583,687.92017,360.57687,686.8298Q360.77435,684.1196,362.18756,681.8736L361.86136,677.38385Q361.54114,677.15454,361.18494,675.8626Q360.12375,675.34125,359.89972,674.7694Q359.3015,673.4566,359.3282,672.3836Q359.39636,669.24164,359.87546,667.5368Q360.34686,665.3506,361.3597,664.8087Q361.211,663.65314,361.8359,663.2613L359.0836,654.5882L355.14563,646.88513L354.4486,646.17896L349.70148,642.84216Q349.09692,643.1667,339.8578,640.2457L327.5407,634.33374L318.84106,632.0308 Z"/>
</g>
<g style="fill:rgb(251,205,135); fill-opacity:1.0; stroke-linejoin: miter">
<path d="M354.7369,722.7789L354.7159,722.82904Q354.63202,723.02875,354.54837,723.22363Q354.62576,723.1506,354.75052,723.0349Q354.74557,722.93524,354.74048,722.7789L354.7369,722.77985 Z"/>
</g>
<g style="fill:rgb(251,205,135); fill-opacity:1.0; stroke-linejoin: miter">
</g>
<g style="fill:rgb(251,205,135); fill-opacity:1.0; stroke-linejoin: miter">
<path d="M307.3385,730.678L307.33356,730.6873L307.3286,730.69666L308.20193,731.86975L307.3385,730.678 Z"/>
</g>
<g style="fill:rgb(251,205,135); fill-opacity:1.0; stroke-linejoin: miter">
</g>
<g style="fill:rgb(251,205,135); fill-opacity:1.0; stroke-linejoin: miter">
</g>
<g style="fill:rgb(251,205,135); fill-opacity:1.0; stroke-linejoin: miter">
</g>
<g style="fill:rgb(251,205,135); fill-opacity:1.0; stroke-linejoin: miter">
</g>
<g style="fill:rgb(251,205,135); fill-opacity:1.0; stroke-linejoin: miter">
<path d="M322.3672,735.278L322.36893,735.2785L322.44467,735.3025Q322.50497,735.325,322.5595,735.3567L322.61227,735.3902Q322.6636,735.42615,322.70782,735.46936Q322.84198,735.6011,322.90024,735.7808L322.8748,735.6919L322.84106,735.61127L322.7989,735.5389L322.7484,735.47473L322.68954,735.4189L322.62228,735.37134L322.54672,735.3319L322.4627,735.30084L322.3672,735.278 Z"/>
</g>
<g style="fill:rgb(251,205,135); fill-opacity:1.0; stroke-linejoin: miter">
</g>
<g style="fill:rgb(251,205,135); fill-opacity:1.0; stroke-linejoin: miter">
<path d="M295.88974,703.5233L295.88974,703.5243L295.89725,703.5719Q296.14386,703.73157,296.33255,703.9466Q296.52277,704.16205,296.65005,704.4218L296.58997,704.2924Q296.5269,704.1669,296.45175,704.0559Q296.37668,703.945,296.28946,703.8488Q296.11664,703.65656,295.88974,703.5233 Z"/>
</g>
<g style="fill:rgb(251,205,135); fill-opacity:1.0; stroke-linejoin: miter">
<path d="M288.68713,720.0397L288.65207,720.0403L288.617,720.04095L288.54587,720.04486L288.47372,720.05133L288.40057,720.0604L288.32642,720.07214Q288.2888,720.0793,288.25125,720.08636L288.17508,720.1033L288.0979,720.12274L288.02252,720.144L288.02344,720.14496Q288.4661,720.0499,288.91156,720.144Q288.89392,720.09705,288.8763,720.0501L288.8792,720.05005Q288.7875,720.03986,288.68713,720.0397 Z"/>
</g>
<g style="fill:rgb(251,205,135); fill-opacity:1.0; stroke-linejoin: miter">
</g>
<g style="fill:rgb(251,205,135); fill-opacity:1.0; stroke-linejoin: miter">
</g>
<g style="fill:rgb(251,205,135); fill-opacity:1.0; stroke-linejoin: miter">
</g>
<g style="fill:rgb(251,205,135); fill-opacity:1.0; stroke-linejoin: miter">
<path d="M290.44272,649.8113L290.44257,649.81226L290.4424,649.8114L290.4424,649.81244L290.44266,649.8121Q290.443,649.8117,290.44324,649.8114L290.44324,649.81244L290.443,649.81177L290.44272,649.8113 Z"/>
</g>
<g style="fill:rgb(251,205,135); fill-opacity:1.0; stroke-linejoin: miter">
<path d="M290.44687,649.8105L290.4465,649.81055L290.4461,649.8115Q290.44574,649.811,290.4453,649.8115L290.4438,649.8107L290.44348,649.81104L290.4432,649.8114L290.4432,649.8124L290.44443,649.81226L290.44568,649.8122L290.44662,649.81116Q290.44675,649.8117,290.44687,649.81213L290.44687,649.8105 Z"/>
</g>
<g style="fill:rgb(251,205,135); fill-opacity:1.0; stroke-linejoin: miter">
<path d="M290.42673,649.8117L290.42545,649.81177L290.42416,649.8118L290.42334,649.8123L290.4225,649.81274L290.42224,649.81177L290.4219,649.8121L290.42157,649.8125Q290.42328,649.813,290.42502,649.8135Q290.42517,649.8129,290.42535,649.81256L290.42603,649.8121L290.42673,649.8117 Z"/>
</g>
<g style="fill:rgb(251,205,135); fill-opacity:1.0; stroke-linejoin: miter">
<path d="M290.44144,649.81085L290.44104,649.81134L290.44067,649.8118Q290.44028,649.81146,290.43988,649.8109L290.43896,649.811L290.43808,649.8111L290.43637,649.8112L290.4356,649.8122L290.4348,649.8113Q290.4336,649.8113,290.4325,649.81134L290.4315,649.8123Q290.43048,649.8114,290.42966,649.81146L290.42886,649.81244Q290.42813,649.8115,290.42752,649.8116L290.42697,649.81256L290.42673,649.8117L290.42673,649.8127L290.42673,649.8117L290.42673,649.8127L290.42883,649.8122L290.43097,649.8116Q290.4321,649.81213,290.43323,649.81256L290.4355,649.8121L290.4377,649.81146L290.43872,649.81244Q290.43918,649.8118,290.43973,649.8114Q290.44022,649.8118,290.4407,649.8124Q290.44156,649.8118,290.4424,649.8114L290.4424,649.8124L290.44144,649.81085 Z"/>
</g>
<g style="fill:rgb(251,205,135); fill-opacity:1.0; stroke-linejoin: miter">
<path d="M290.44797,649.8111L290.44745,649.81116L290.4469,649.81213L290.4469,649.8131L290.4469,649.81116L290.4469,649.81146L290.44797,649.8111 Z"/>
</g>
<g style="fill:rgb(251,205,135); fill-opacity:1.0; stroke-linejoin: miter">
<path d="M290.4209,649.8118L290.42023,649.81226L290.41956,649.81274L290.42044,649.8132L290.42133,649.8137L290.42108,649.81274L290.4209,649.8118 Z"/>
</g>
<g style="fill:rgb(251,205,135); fill-opacity:1.0; stroke-linejoin: miter">
<path d="M290.41898,649.8119L290.4181,649.81287Q290.41888,649.81335,290.41962,649.81384L290.4198,649.8137L290.42,649.8136L290.4206,649.81323Q290.42084,649.8131,290.421,649.813L290.4212,649.8129L290.4214,649.8128Q290.4204,649.8133,290.41946,649.8138Q290.41925,649.81287,290.41898,649.8119 Z"/>
</g>
<g style="fill:rgb(251,205,135); fill-opacity:1.0; stroke-linejoin: miter">
<path d="M284.09668,656.52203L284.09668,656.523 Z"/>
</g>
<g style="fill:rgb(251,205,135); fill-opacity:1.0; stroke-linejoin: miter">
<path d="M284.10324,656.50574L284.10278,656.5059Q284.10098,656.50684,284.10037,656.5067L284.0967,656.52185Q284.2492,656.5822,284.26578,656.5876Q284.3334,656.613,284.4325,656.64703L284.4325,656.648Q284.25073,656.57745,284.10324,656.50574 Z"/>
</g>
<g style="fill:rgb(251,205,135); fill-opacity:0.42352942; stroke-linejoin: miter">
<path d="M353.7675,681.9699Q352.56015,682.0194,351.49142,682.43915Q350.0293,683.17365,349.65732,683.84546Q348.62823,685.48694,349.93906,688.18494 Z"/>
</g>
<g style="fill:rgb(251,205,135); fill-opacity:1.0; stroke-linejoin: miter">
<path d="M352.5245,681.4727Q351.4523,683.3657,351.37878,683.9943Q351.29745,684.9609,351.8631,685.53076Q352.3189,685.7811,352.98743,685.189Q354.24997,683.8015,354.4719,682.96985Q354.724,682.1847,354.39606,681.9733Q354.11066,681.67816,353.34766,681.9533Q351.52136,682.8091,350.07986,684.58026Q348.8454,686.30695,348.9115,687.30927Q348.9958,688.2278,349.17395,688.3783Q349.45767,688.73676,350.08823,688.8313 Z"/>
</g>
<g style="fill:rgb(251,205,135); fill-opacity:1.0; stroke-linejoin: miter">
<path d="M352.06326,681.901L352.06326,681.90204Q351.63275,681.9803,351.0431,682.2635Q350.67032,682.47034,350.45505,682.6634Q350.33514,682.7595,349.98373,683.171Q349.8577,683.3317,349.77295,683.48083Q349.6036,683.77924,349.5996,684.03174Q349.5804,684.26874,349.7237,684.476Q349.79538,684.57965,349.90762,684.6759L350.03006,684.77026Q350.1627,684.86273,350.3359,684.94794Q351.19998,685.2418,351.681,684.8496Q352.0521,684.49005,352.17026,684.2232Q352.32178,683.9265,352.35367,683.60345Q352.38663,683.09393,352.26605,682.8047Q351.96866,682.3192,351.69482,682.24945L352.06674,681.901L352.06326,681.902 Z"/>
</g>
</g>
<g id="layer2">
<g style="fill:rgb(155,110,58); fill-opacity:1.0; stroke-linejoin: miter">
<path d="M316.77496,713.2012Q318.93076,714.6444,320.38602,714.9901Q322.58487,715.44836,324.2289,715.8423L326.1799,716.0613Q327.69205,715.9509,329.23654,715.6703L331.3183,715.7184Q333.4106,715.5948,336.91888,715.1829Q337.4993,715.24243,340.1245,713.837Q341.2406,713.0257,341.56088,712.6512Q342.9075,711.1204,342.63107,710.97504Q342.19522,708.20105,339.4578,707.63635L336.1603,706.9012L334.3455,706.8265Q331.35236,707.1178,330.729,707.24347Q328.6507,707.29846,327.6808,707.4495L325.94107,707.815L323.58978,708.6228 Z"/>
</g>
<g style="fill:rgb(255,185,93); fill-opacity:1.0; stroke-linejoin: miter">
<path d="M318.98398,693.79065Q316.5914,696.56433,315.48456,698.67834L314.03473,701.69037Q314.09177,701.9356,313.00867,704.1132Q312.94656,704.2943,312.99762,704.47235Q314.55246,705.63965,316.6999,702.5722Q316.85553,702.1749,317.61136,700.8528L318.26172,699.32336L318.93936,696.50714Q318.93976,696.5872,319.1932,694.8125Q319.22308,694.6685,319.2883,694.5894 Z"/>
</g>
<g style="fill:rgb(255,185,93); fill-opacity:1.0; stroke-linejoin: miter">
<path d="M337.19424,693.6898L338.74454,696.7389Q339.77518,698.0829,340.0125,698.5008L341.38934,700.8635L342.22882,702.03217Q342.6312,702.8841,344.1093,704.9937Q344.94754,705.5879,344.92868,703.78503Q344.81946,703.19836,344.79218,703.1587L343.12152,698.3591Q342.73505,697.3791,342.4191,696.7557Q341.12015,694.2891,340.27927,693.3296Q339.88095,692.85333,338.46756,691.52185Q337.3609,690.5461,335.80685,689.9158 Z"/>
</g>
<g style="fill:rgb(255,185,93); fill-opacity:1.0; stroke-linejoin: miter">
<path d="M294.66226,679.92035Q295.47986,680.62933,300.0384,687.1935Q301.1142,689.1485,301.64447,690.84827Q301.97083,691.8313,302.04315,693.73065Q301.974,694.8573,302.0273,696.2002L301.89716,699.2417L301.9207,700.5706L301.81784,702.8905Q301.01108,705.9145,301.0057,708.0656L301.48123,711.8061Q301.33044,712.1325,300.43005,711.4995Q299.8593,710.7852,298.72577,708.30884L297.2661,702.9301Q296.7275,699.4529,296.61594,699.30096Q296.44653,698.2453,296.46283,697.455L295.91763,694.7532Q295.79492,693.9346,295.8214,693.4591L295.6537,692.66144Q295.75082,692.4648,295.36154,689.91974Q294.80508,688.26666,294.84723,687.2474 Z"/>
</g>
<g style="fill:rgb(251,182,105); fill-opacity:1.0; stroke-linejoin: miter">
<path d="M333.83676,640.0633L335.81815,651.4841Q336.17795,652.7733,335.9564,661.3281Q336.31442,664.61176,337.14664,666.55524Q337.71756,667.5194,339.85077,668.03906Q348.29932,669.19055,348.0624,669.4431Q350.06186,670.26526,353.0403,671.89215L356.06363,672.8672Q358.5316,672.80914,359.6242,669.0655Q360.68576,666.75226,359.40298,660.3822L356.59665,652.3176L355.24915,649.5112Q353.27725,645.86365,347.83536,642.20386 Z"/>
</g>
<g style="fill:rgb(255,186,109); fill-opacity:1.0; stroke-linejoin: miter">
<path d="M329.67297,681.30225L329.69983,681.4343Q329.79196,682.1187,329.70764,682.91187Q329.6886,683.1075,329.36588,684.744L329.2765,685.68805Q329.27637,685.8435,329.4227,687.01215Q329.56485,687.6435,329.77985,688.2863Q330.4944,689.532,331.22977,691.1137L331.68796,691.80566Q331.9526,692.1711,332.1172,692.29767L332.19205,692.3438L332.69882,692.4708Q333.2429,692.5581,334.43338,692.30164Q335.39822,691.99744,335.69016,691.69324Q336.25604,690.98975,336.15567,690.5444Q336.1399,690.36346,335.95734,689.9591Q335.12787,688.57513,334.69986,687.6687Q333.87244,686.77386,333.56793,686.3198L333.46387,686.1419L333.00055,685.18207Q332.49017,684.63354,331.97324,684.1444Q331.57684,683.462,331.37775,683.2283Q330.66644,682.52466,330.19376,682.16455L329.67297,681.30225 Z"/>
</g>
<g style="fill:rgb(182,178,176); fill-opacity:1.0; stroke-linejoin: miter">
<path d="M318.57874,677.2334L318.63815,677.25525Q319.09772,677.4242,319.7823,677.68445L319.863,677.7014Q319.09528,677.378,318.80878,677.27374Q318.65952,677.24396,318.57874,677.2334 Z"/>
</g>
<g style="fill:rgb(182,178,176); fill-opacity:1.0; stroke-linejoin: miter">
<path d="M319.20514,682.0854L319.23846,682.13605Q319.3736,682.339,319.53937,682.5433L319.53766,682.4858L319.54086,682.4857Q319.45877,682.3826,319.33835,682.2391Q319.3209,682.2179,319.20834,682.0854L319.20514,682.08636 Z"/>
</g>
<g style="fill:rgb(182,178,176); fill-opacity:1.0; stroke-linejoin: miter">
<path d="M315.62573,685.25195L315.6324,685.25275Q315.70734,685.2613,315.7855,685.2917Q315.81918,685.3051,315.85086,685.3221Q315.86673,685.33057,315.88205,685.34Q315.89,685.3441,315.92694,685.37036L315.9298,685.37134L315.8984,685.3469L315.8665,685.32605L315.83405,685.30774L315.80112,685.292L315.76767,685.2788Q315.75064,685.2736,315.7337,685.2682Q315.71643,685.2643,315.69922,685.26025L315.6642,685.2548L315.62573,685.25195 Z"/>
</g>
<g style="fill:rgb(182,178,176); fill-opacity:1.0; stroke-linejoin: miter">
<path d="M312.21487,679.09503L311.75513,679.2178Q309.54745,679.77155,309.3441,679.71814L309.03452,680.0235L307.71527,680.99884L307.50134,681.2449L306.69318,682.242Q306.65048,682.9779,306.794,683.5808L307.37167,684.2979Q308.05853,684.4067,310.30484,685.0496L311.07062,685.47925Q311.311,685.22906,312.5649,685.1166Q313.75418,685.0508,315.59564,685.24854L316.3369,685.0993Q316.56155,685.087,316.76544,685.1977Q317.05762,685.03467,317.25528,685.08527L317.56628,684.83453Q317.68747,684.5497,318.07028,684.1471Q318.42572,683.7792,318.74908,683.51215Q318.1578,682.82416,317.73224,682.01575Q317.55368,681.6424,317.4145,680.65393Q316.26453,680.6705,315.51248,680.4957Q313.8894,679.9088,313.28754,679.3195Q312.3719,679.2814,312.21487,679.09503 Z"/>
</g>
<g style="fill:rgb(182,178,176); fill-opacity:1.0; stroke-linejoin: miter">
</g>
<g style="fill:rgb(182,178,176); fill-opacity:1.0; stroke-linejoin: miter">
</g>
<g style="fill:rgb(182,178,176); fill-opacity:1.0; stroke-linejoin: miter">
<path d="M349.67758,677.82526L349.7121,677.89056Q349.84714,678.15094,349.9346,678.3965L350.37106,678.69434L350.3057,678.58826L350.2375,678.4838L350.16647,678.38196Q350.09402,678.2815,350.01596,678.18604Q349.93787,678.0907,349.85416,678.0005Q349.77213,677.9102,349.67758,677.82526 Z"/>
</g>
<g style="fill:rgb(182,178,176); fill-opacity:1.0; stroke-linejoin: miter">
<path d="M342.9885,678.1036L342.75018,678.13605Q341.68924,678.27576,341.20053,678.4847Q340.92456,678.43256,340.77258,678.28076L337.901,679.3336Q337.46454,679.6334,337.4332,679.60016L336.35315,680.74146L336.44968,682.315L336.44464,682.7076Q337.40323,683.1197,338.19824,683.5767Q338.39325,683.35236,338.8475,683.37726Q339.35083,683.7156,339.32242,683.8684Q339.47607,683.80084,339.71115,683.855L342.43893,684.739Q342.89734,684.30597,343.0483,684.3471Q343.29062,684.3264,343.59686,684.552Q343.82434,684.5133,344.11932,684.5267L344.7092,684.6787Q345.16818,684.4164,346.10446,683.72235L347.6196,682.3348Q347.65002,681.70844,347.72217,681.3027Q347.36542,680.6842,347.28735,680.35565Q345.2511,679.0734,345.1865,678.7891Q345.0871,678.7704,344.7992,678.64575Q344.43353,678.5831,344.00473,678.55963Q343.8959,678.5549,343.7034,678.39813Q343.4611,678.41455,343.31592,678.3658Q343.1092,678.28217,342.9885,678.1036 Z"/>
</g>
<g style="fill:rgb(182,178,176); fill-opacity:1.0; stroke-linejoin: miter">
<path d="M347.9779,681.6992L347.9779,681.7002Q347.9683,681.7056,347.94565,681.7201Q347.9457,681.7197,347.91968,681.73785Q347.92462,681.73474,347.9294,681.73145L347.9393,681.72534Q347.9543,681.71625,347.96976,681.7079L347.98013,681.70245Q347.98184,681.703,347.9836,681.7034Q347.9823,681.70026,347.98138,681.6992L347.9779,681.7002 Z"/>
</g>
<g style="fill:rgb(182,178,176); fill-opacity:1.0; stroke-linejoin: miter">
<path d="M347.72684,681.9364L347.71524,681.95636Q347.67062,682.0368,347.65524,682.1291Q347.65884,682.11206,347.6633,682.0949Q347.67523,682.05286,347.6789,682.0452L347.68494,682.02893Q347.69125,682.0128,347.6984,681.99713Q347.7127,681.9659,347.73032,681.9364L347.72684,681.9374 Z"/>
</g>
</g>
<g id="layer3">
<g style="fill:rgb(0,0,0); fill-opacity:1.0; stroke-linejoin: miter">
<path d="M293.5374,645.5215L293.34497,645.8712Q291.28265,649.8026,290.70917,651.95355L289.75958,655.0299Q289.55264,656.1277,289.51028,657.69006Q289.4532,659.47626,289.5012,662.6227Q289.60233,665.56287,289.96826,670.08325L290.11707,675.0415Q290.1247,676.22235,290.0984,677.70044Q291.17398,677.67737,292.11728,677.7415L297.42722,657.7339Q295.2121,656.30945,294.3014,653.65027Q293.72366,651.77637,293.68967,650.2682Q293.5566,648.5459,293.99814,646.9257L293.5374,645.5215 Z"/>
</g>
<g style="fill:rgb(0,0,0); fill-opacity:1.0; stroke-linejoin: miter">
</g>
<g style="fill:rgb(0,0,0); fill-opacity:1.0; stroke-linejoin: miter">
</g>
<g style="fill:rgb(0,0,0); fill-opacity:1.0; stroke-linejoin: miter">
</g>
<g style="fill:rgb(0,0,0); fill-opacity:1.0; stroke-linejoin: miter">
</g>
<g style="fill:rgb(0,0,0); fill-opacity:1.0; stroke-linejoin: miter">
</g>
<g style="fill:rgb(0,0,0); fill-opacity:1.0; stroke-linejoin: miter">
</g>
<g style="fill:rgb(0,0,0); fill-opacity:1.0; stroke-linejoin: miter">
</g>
<g style="fill:rgb(0,0,0); fill-opacity:1.0; stroke-linejoin: miter">
</g>
<g style="fill:rgb(0,0,0); fill-opacity:1.0; stroke-linejoin: miter">
</g>
<g style="fill:rgb(0,0,0); fill-opacity:1.0; stroke-linejoin: miter">
</g>
<g style="fill:rgb(0,0,0); fill-opacity:1.0; stroke-linejoin: miter">
</g>
<g style="fill:rgb(0,0,0); fill-opacity:1.0; stroke-linejoin: miter">
</g>
<g style="fill:rgb(0,0,0); fill-opacity:1.0; stroke-linejoin: miter">
</g>
<g style="fill:rgb(0,0,0); fill-opacity:1.0; stroke-linejoin: miter">
</g>
<g style="fill:rgb(0,0,0); fill-opacity:1.0; stroke-linejoin: miter">
</g>
<g style="fill:rgb(0,0,0); fill-opacity:1.0; stroke-linejoin: miter">
</g>
<g style="fill:rgb(0,0,0); fill-opacity:1.0; stroke-linejoin: miter">
<path d="M292.29733,675.2772L291.85162,676.4917L291.4059,677.7063Q291.77158,677.7186,291.99298,677.7338Q292.04434,677.2638,292.29733,675.2772 Z"/>
</g>
<g style="fill:rgb(0,0,0); fill-opacity:1.0; stroke-linejoin: miter">
<path d="M294.3913,669.5713L293.12665,673.0174Q293.23486,672.5023,293.23422,672.2714Q293.23764,672.1786,293.04077,672.2039Q292.92422,672.2475,292.822,672.4451Q292.64813,672.8443,292.58905,673.1808Q292.43484,674.26263,292.3019,675.2647L293.12286,673.03577L293.07486,673.25977Q292.7753,674.13684,292.6227,674.66846Q292.56735,674.837,292.39188,675.5958Q292.28458,676.0752,292.20792,676.54407Q292.13248,677.2354,292.07205,677.73785Q292.85477,677.78766,293.5666,677.89124L294.26367,678.00903L294.6011,678.09064L294.3678,678.0312L294.8521,678.14417Q294.73486,676.73083,294.69525,675.92645Q294.67462,674.2771,294.70316,672.2655Q294.6954,671.78534,294.67783,671.4755Q294.57535,670.0011,294.3913,669.5713 Z"/>
</g>
<g style="fill:rgb(0,0,0); fill-opacity:1.0; stroke-linejoin: miter">
</g>
<g style="fill:rgb(0,0,0); fill-opacity:1.0; stroke-linejoin: miter">
</g>
<g style="fill:rgb(0,0,0); fill-opacity:1.0; stroke-linejoin: miter">
<path d="M354.7765,646.2626L354.65344,646.53796Q354.14157,647.64026,353.31482,648.75366L356.7425,650.3904L356.77277,650.119L356.74094,649.8009L356.64706,649.4359L356.4911,649.0241L356.27304,648.5654Q355.7766,647.6013,354.7765,646.2626 Z"/>
</g>
<g style="fill:rgb(0,0,0); fill-opacity:1.0; stroke-linejoin: miter">
</g>
<g style="fill:rgb(0,0,0); fill-opacity:1.0; stroke-linejoin: miter">
<path d="M352.72293,649.50397L352.58795,649.66376Q351.13272,651.3148,350.40427,651.7952Q350.93835,652.14105,351.28424,652.45764Q351.64886,652.7915,351.9547,653.3076Q351.94913,653.18823,352.05457,653.3285Q352.31818,653.66785,353.76047,657.08624Q355.31586,660.82446,356.31174,663.4731Q356.4764,664.0776,356.5094,664.3501Q356.5741,667.03375,356.70892,667.7648L358.8464,670.85077Q359.25638,672.6858,360.37738,675.7406L361.5405,674.7327Q360.48846,672.892,360.5127,671.9719Q360.5888,670.7379,360.72324,669.9442Q361.6851,666.20465,361.74194,665.8722Q361.79727,665.761,361.8747,664.8061Q361.96527,663.0685,361.8542,661.9596L361.30905,659.37006Q360.44623,657.2079,358.53015,654.0631Q356.83072,651.42975,355.43677,649.71826L352.72293,649.50397 Z"/>
</g>
<g style="fill:rgb(0,0,0); fill-opacity:1.0; stroke-linejoin: miter">
<path d="M363.41962,678.5672L363.39398,678.6176L363.36832,678.66797L363.42334,678.5855L363.42697,678.5865L363.42325,678.5672L363.41962,678.5682 Z"/>
</g>
<g style="fill:rgb(0,0,0); fill-opacity:1.0; stroke-linejoin: miter">
<path d="M353.93143,647.85596L353.7676,648.1092Q353.09613,649.1228,352.1621,650.14545Q354.40817,652.55475,355.6557,654.3002Q356.1223,654.95776,357.43506,657.5696Q357.95627,658.4073,358.38605,658.86646Q358.99777,659.51843,360.8325,660.0745L361.56635,660.76245L361.59494,660.7537L360.6274,655.99207Q360.60745,655.8582,360.64316,655.7498Q360.43762,655.5371,360.283,655.3522L359.48538,654.0058Q358.67844,652.50354,357.91257,650.8793L357.7296,650.56525Q357.1707,649.642,356.52692,648.639L353.93143,647.85596 Z"/>
</g>
<g style="fill:rgb(0,0,0); fill-opacity:1.0; stroke-linejoin: miter">
<path d="M353.54434,648.43616L353.54434,648.4372Q353.4796,648.53815,353.0929,649.04584Q352.93454,649.2491,352.76572,649.4527Q352.42804,649.86,352.04846,650.2688Q352.3582,650.3176,352.50214,650.2576Q352.71234,650.18494,352.9653,649.9084Q353.20294,649.58765,353.36072,649.2045Q353.43552,649.0186,353.48224,648.8282Q353.5207,648.66125,353.52963,648.5884L353.54752,648.4428Q353.54984,648.4328,353.54434,648.43616 Z"/>
</g>
<g style="fill:rgb(0,0,0); fill-opacity:1.0; stroke-linejoin: miter">
<path d="M360.92618,675.97815L360.94138,676.1725L360.95657,676.3669L360.95657,676.36786Q360.95505,676.32623,360.95465,676.31824L360.9532,676.2856Q360.9516,676.2531,360.94974,676.2214L360.94882,676.20123Q360.94556,676.1459,360.9441,676.1307Q360.94174,676.09534,360.92978,675.97815L360.92618,675.9791 Z"/>
</g>
<g style="fill:rgb(0,0,0); fill-opacity:1.0; stroke-linejoin: miter">
<path d="M360.95776,676.4288L360.9596,676.5219Q360.96826,676.9053,360.97437,677.0064Q361.042,678.1503,361.0842,678.9872Q361.09653,679.2363,361.10577,679.81287Q361.11087,679.9567,361.12122,680.09045L361.1705,680.5826Q361.1883,680.8009,361.1973,681.0141Q361.20804,681.13495,361.2128,681.1657Q361.22662,681.263,361.244,681.33405L361.38956,681.90247L360.9614,676.4288L360.95776,676.42975 Z"/>
</g>
<g style="fill:rgb(0,0,0); fill-opacity:1.0; stroke-linejoin: miter">
<path d="M361.71497,675.62366Q362.50967,676.3046,362.6241,678.8357Q362.64676,679.47687,362.27032,681.75494Q362.01767,682.8669,361.97345,682.9417L361.30338,684.1304Q361.23074,684.3227,361.4137,684.573Q361.42258,684.658,361.38336,684.7543Q361.2672,685.2797,360.43558,684.53973Q358.95847,682.9283,358.88733,682.2518Q358.73706,681.5659,358.74814,681.362L358.8871,680.66797Q358.95804,679.63617,359.03152,679.40393L359.03452,678.59906Q358.95657,678.0719,358.96225,677.52454L358.6726,675.9931Q358.49582,674.0852,358.60306,673.6156Q358.61398,673.64465,358.54395,673.1415Q358.49347,672.83636,358.0216,672.2706L356.35773,670.6258Q355.83118,669.7053,355.91156,668.67957Q355.81113,667.5626,356.63663,666.37866Q356.79486,666.15955,356.94022,666.05365Q357.6571,665.8363,358.822,664.79504 Z"/>
</g>
<g style="fill:rgb(0,0,0); fill-opacity:1.0; stroke-linejoin: miter">
</g>
<g style="fill:rgb(0,0,0); fill-opacity:1.0; stroke-linejoin: miter">
<path d="M326.0389,701.1038L325.9966,701.23944Q325.95587,701.37695,325.92178,701.52216Q325.88766,701.66736,325.86008,701.8202L325.8342,701.975Q325.76053,702.4534,325.74927,702.96747Q325.79764,702.73083,325.83292,702.5316L325.86932,702.3242Q325.9046,702.1174,325.9356,701.91284Q325.96658,701.7083,325.99326,701.5061Q326.01984,701.3038,326.0422,701.1038L326.0389,701.1048 M323.41013,704.6105L323.42313,704.6343L323.433,704.65515L323.43985,704.67334L323.44357,704.6886L323.44424,704.7012L323.4418,704.71094L323.43634,704.718L323.4278,704.7221L323.41617,704.7235L323.33502,704.8007L323.40692,704.6105L323.41013,704.61145 M325.80066,701.5663L325.29355,702.30554Q325.03384,703.14246,323.67438,705.4636Q324.0976,704.0754,324.29608,703.0668Q323.6332,703.7923,323.4082,704.6081Q323.36057,704.5289,323.30185,704.4535Q323.02036,704.83704,322.9225,705.0019Q322.78403,705.2211,322.6668,705.4425L323.33502,704.8017Q322.20364,706.93,322.03232,707.544Q322.04163,706.7246,322.66342,705.4479L320.40335,707.6117Q319.86923,708.0342,319.0404,708.5201Q318.54822,708.7527,319.009,708.08936Q319.4248,707.5339,319.59406,707.3664Q320.6779,706.5332,320.79065,706.369Q320.8756,706.27826,320.90714,706.2164L320.49652,706.4812Q320.0444,706.75256,316.60333,709.8623Q316.53937,709.8987,316.57162,709.8236L317.3339,708.4376Q317.40796,708.29974,317.3984,708.17285Q316.9996,708.17426,316.42056,708.64984Q316.29477,708.76746,316.17657,708.91345L315.1131,710.28986L315.00546,710.49005Q314.68195,711.3464,314.7006,712.6689Q314.66714,713.2719,315.08084,714.54663L325.57693,709.2931Q325.61884,708.74115,325.7583,708.33325L325.8039,705.7606L325.90262,705.1491Q325.71124,703.706,325.749,702.97876Q325.62628,703.3332,325.16177,704.1115Q325.03442,704.3069,325.03296,703.8887Q325.09634,703.064,325.16266,703.0661Q325.43307,702.2555,325.80066,701.5663 Z"/>
</g>
<g style="fill:rgb(0,0,0); fill-opacity:1.0; stroke-linejoin: miter">
<path d="M335.7896,703.8529L335.79352,703.8593L335.82513,703.91095L335.85733,703.9537L335.85733,703.95465L335.793,703.8529L335.7896,703.8539 Z"/>
</g>
<g style="fill:rgb(0,0,0); fill-opacity:1.0; stroke-linejoin: miter">
<path d="M343.05838,705.84424L343.05667,705.8452Q343.05014,705.84467,343.04587,705.8479L343.7436,706.6156Q343.82486,706.76086,344.0243,707.0698Q343.93555,706.8839,343.80884,706.6798Q343.57388,706.31647,343.4325,706.14136Q343.29688,706.00934,343.20795,705.93585Q343.1069,705.8571,343.10068,705.8588Q343.0737,705.8443,343.05838,705.84424 Z"/>
</g>
<g style="fill:rgb(0,0,0); fill-opacity:1.0; stroke-linejoin: miter">
<path d="M333.29355,703.0244L333.3344,703.0582Q333.65063,703.3169,334.01495,703.6751Q333.8466,703.6316,333.45532,703.4853Q333.699,704.1358,333.8907,704.5103Q333.54025,704.075,332.82538,703.26056Q332.82727,703.24274,332.75043,703.1045Q333.10245,703.33813,333.45416,703.48114L333.309,703.078Q333.29968,703.0512,333.29022,703.0244Q333.2952,703.0263,333.29355,703.0244 M334.13654,702.06793L334.0931,702.10345Q334.09543,702.8115,334.91336,704.5984L333.37656,702.6627Q333.27554,702.6932,333.1777,702.6947L333.2889,703.02167Q332.7299,702.5659,332.1395,702.2206L332.746,703.0969Q332.4427,702.93634,331.98004,702.30804L332.49234,704.8702Q332.24854,704.68787,331.92285,704.2461Q331.12143,702.7912,330.9678,702.5932Q330.69818,702.17975,330.59927,702.16504Q330.53616,702.82086,330.69135,703.5043Q330.83554,704.133,331.459,705.8028Q331.4351,706.4438,331.5082,706.592L345.49475,712.79156Q345.5339,709.2672,345.15073,708.6493Q344.44693,707.7094,344.04715,707.1032Q344.2295,707.552,344.21887,707.7327Q343.99396,707.59314,343.2136,706.6884Q342.70416,706.05316,341.6693,704.31555Q341.40186,704.4251,341.3822,704.81445Q340.6341,704.2767,340.324,704.21014L341.56754,706.4048L339.67624,704.2507Q339.0805,703.6553,338.84164,703.6553Q338.7354,704.1511,340.41586,706.52527Q338.94873,705.3059,337.466,703.0861Q337.2505,703.1596,337.59036,703.8539Q336.71088,703.18713,336.41113,703.0575Q337.55142,704.358,338.11066,704.8264L337.60028,703.8659Q337.85406,704.04645,338.5487,704.6731Q338.89227,705.29065,338.1205,704.83795Q338.43155,705.422,338.78632,705.9482Q336.81342,703.79706,336.2404,702.8997Q336.00586,702.71106,335.8938,702.7165Q336.97656,704.95557,336.9066,705.26385Q336.8365,705.24884,335.89996,704.0104L336.3127,704.6741Q334.31686,702.15765,334.13654,702.06793 Z"/>
</g>
<g style="fill:rgb(0,0,0); fill-opacity:1.0; stroke-linejoin: miter">
<path d="M334.99582,702.6402L334.99554,702.6412Q334.99005,702.64545,335.02078,702.6989Q335.02664,702.701,335.0423,702.7161Q335.0652,702.7406,335.08636,702.76666Q335.11578,702.80493,335.13483,702.83136Q335.1823,702.89734,335.18933,702.90955L335.04517,702.68195Q335.03073,702.6657,335.01083,702.64844Q335.0005,702.6403,334.99582,702.6402 Z"/>
</g>
<g style="fill:rgb(0,0,0); fill-opacity:1.0; stroke-linejoin: miter">
<path d="M335.197,702.9206L335.1973,702.9211L335.1976,702.9216Q335.1976,702.9211,335.1976,702.9206L335.197,702.9216 Z"/>
</g>
<g style="fill:rgb(0,0,0); fill-opacity:1.0; stroke-linejoin: miter">
<path d="M335.2561,703.0122L335.4599,703.33136L335.6637,703.6505L335.66513,703.6514L335.55844,703.47943L335.41617,703.25354Q335.3284,703.1158,335.25946,703.0122L335.2561,703.0132 Z"/>
</g>
<g style="fill:rgb(0,0,0); fill-opacity:1.0; stroke-linejoin: miter">
<path d="M328.70044,701.1998L328.72717,701.5229Q328.75958,702.1011,328.6718,702.5637Q328.62793,702.7951,328.5541,702.9975Q328.3432,703.4784,328.26498,703.5399Q327.44415,702.0357,327.2929,701.9815Q327.23508,701.95734,327.21902,702.0147Q327.19547,702.7258,327.10593,703.0487Q326.94284,703.6546,326.78162,703.83875Q326.6972,703.8499,326.66367,703.7574Q326.41257,702.9719,326.22705,702.4394Q326.12756,702.15436,326.0935,702.1134Q326.06158,702.0706,326.01764,702.1272Q325.8753,702.3645,325.77853,702.5677Q325.59915,703.10175,325.5749,703.68616L325.7266,705.00793Q325.69562,704.9401,325.61713,708.2083L332.29364,707.3795L332.07968,706.52893Q331.6105,706.1575,331.1495,705.5595Q330.8199,705.06445,330.5769,704.5154Q330.44733,703.49817,330.58875,702.38824L331.0188,703.09894L331.0311,703.0809Q331.08588,703.0642,330.7984,702.1494Q330.64844,702.0283,330.58942,702.385Q330.08887,701.58374,330.07336,701.6631L330.04895,702.8936Q330.01422,703.0526,329.93518,703.0079Q329.15662,702.2373,328.70044,701.1998 Z"/>
</g>
<g style="fill:rgb(0,0,0); fill-opacity:1.0; stroke-linejoin: miter">
<path d="M334.9942,707.04266L333.64398,707.2109L332.2938,707.379Q332.3676,707.72363,332.37466,707.8278Q332.39185,707.98224,332.38278,708.0971L332.7779,708.5722Q332.85242,708.6261,332.9603,708.61945Q333.12448,708.59326,333.27634,708.3358Q333.3653,708.1811,333.57867,707.5432Q333.62253,707.45886,333.67215,707.4235Q333.90567,707.28033,334.00333,707.2859Q334.33563,707.36224,334.66794,707.43866Q334.69913,707.44305,334.82468,707.2968L334.90585,707.18536L334.99756,707.04266L334.9942,707.04364 Z"/>
</g>
<g style="fill:rgb(0,0,0); fill-opacity:1.0; stroke-linejoin: miter">
<path d="M330.27032,703.33295L330.25925,703.3557Q330.25223,703.3676,330.22885,703.4232Q330.2207,703.44495,330.2126,703.4668L330.1992,703.5093L330.18875,703.5507L330.1813,703.5912L330.1768,703.63055Q330.17603,703.6498,330.17523,703.6689Q330.1759,703.68805,330.1766,703.7071Q330.2061,703.58344,330.2228,703.5189Q330.26578,703.3555,330.27365,703.33295L330.27032,703.3339 Z"/>
</g>
<g style="fill:rgb(0,0,0); fill-opacity:1.0; stroke-linejoin: miter">
<path d="M330.64612,703.0006L330.6378,703.0007Q330.35764,702.9736,330.282,703.29926Q330.36044,703.1346,330.8076,704.4901Q330.6822,704.38544,330.53217,704.21L330.4635,704.1767Q330.35028,704.15704,330.2621,704.33215Q330.25555,704.2646,330.17752,703.71625Q330.1216,703.867,330.1226,704.169Q330.14328,705.0304,330.22186,705.4547Q330.2281,705.4955,330.3049,705.55023Q330.39645,705.56946,330.48462,705.57764L330.6159,707.4232Q330.63995,707.38605,330.6485,707.14856Q330.65814,706.6643,330.6456,706.2421L330.5171,705.5807Q330.89154,705.621,331.27045,705.3787Q331.5013,705.21625,331.7658,704.7535Q331.47574,704.8063,331.079,704.64386Q330.93896,704.2132,330.69116,703.5281Q330.66196,703.3237,330.72626,703.27435Q330.94543,703.21204,331.34564,703.7015L331.77655,704.7363L331.9103,704.4966L332.02863,704.67194Q331.96564,704.6992,331.78186,704.74927L331.77628,704.73773L331.76672,704.75287L331.78217,704.75Q331.78003,704.7991,332.1623,705.5226Q332.37283,705.906,332.4084,705.92896Q332.53983,706.0574,332.70612,705.8688Q332.8154,705.7423,332.8151,705.4868Q332.7715,705.0238,332.4734,704.3666Q332.33282,704.52954,332.106,704.63824L331.94516,704.4274L332.19632,703.9212Q332.35364,704.12396,332.47214,704.3649L332.52423,704.2934Q332.63797,704.1042,332.64642,703.9545Q332.65646,703.68146,332.6425,703.6153Q332.6295,703.55756,332.56107,703.469Q332.41437,703.33765,332.34845,703.42883Q332.34125,703.43646,332.32858,703.4676Q332.29077,703.63666,332.2381,703.82294Q332.21082,703.9129,332.19763,703.91956Q331.85208,703.483,331.46417,703.27216Q330.92487,703.0013,330.64612,703.0006 Z M330.36084,704.8274L330.3644,704.8314Q330.39175,704.8624,330.4319,704.9003L330.4601,705.28735L330.39783,704.96674L330.35754,704.8274L330.36084,704.8284L330.36084,704.8274 Z"/>
</g>
<g style="fill:rgb(0,0,0); fill-opacity:1.0; stroke-linejoin: miter">
<path d="M350.6727,704.01416Q350.67267,703.8194,350.70154,703.59595Q350.71594,703.48425,350.73758,703.36523L350.761,703.2445Q350.78625,703.1218,350.8187,702.9921 Z"/>
</g>
<g style="fill:rgb(0,0,0); fill-opacity:1.0; stroke-linejoin: miter">
<path d="M328.06976,703.2454L327.99133,703.2534Q325.43622,704.11926,325.09164,705.0239Q324.9243,705.32794,325.0599,705.3559Q325.1924,705.41034,326.0305,705.4106Q326.64374,705.5075,326.63834,705.588Q327.128,705.88824,327.20093,706.29333Q325.30988,707.9351,325.01718,708.36597Q324.28992,709.6808,324.53253,709.9136L326.73657,709.0232Q327.6941,708.82294,328.5166,708.73444L330.22928,708.6475Q331.04486,708.7262,331.96625,708.69995L334.10498,708.5527L334.44406,708.5618Q335.40845,708.59,335.7383,708.629Q336.76752,708.8065,337.65033,708.989L328.09998,703.39526Q328.21207,703.263,328.06976,703.2454 Z"/>
</g>
<g style="fill:rgb(0,0,0); fill-opacity:1.0; stroke-linejoin: miter">
<path d="M337.6522,708.9892L343.91003,712.6539Q343.78983,712.2881,343.1165,711.7112Q342.77982,711.4228,342.30484,711.0815Q342.15378,710.9439,340.56885,709.939L338.42645,709.1597L337.6522,708.9892 Z"/>
</g>
<g style="fill:rgb(0,0,0); fill-opacity:1.0; stroke-linejoin: miter">
<path d="M319.20132,709.5054Q319.57123,707.327,320.55423,705.70685Q320.97626,704.97595,320.95197,705.62134L320.32672,707.3945Q320.2122,707.7448,320.22766,707.81104Q320.18304,707.7825,321.0871,706.02515Q321.20517,705.7737,321.48895,705.09674Q321.78668,704.6495,321.9144,704.59424Q321.98364,704.54553,321.91055,704.80853Q321.0544,707.05304,321.0092,707.39557Q321.0021,707.5019,321.6961,706.5056Q322.62128,705.026,322.8399,704.6046Q323.0544,704.2755,323.08298,704.3126Q323.15485,704.3068,323.02716,704.6462Q322.71817,705.42914,322.4192,706.0704L322.2979,706.70776Q322.2776,706.8227,322.30127,706.8633Q322.3297,706.91486,322.42093,706.93567Q323.4407,707.0501,324.07056,707.26404L324.8028,707.3445 Z"/>
</g>
<g style="fill:rgb(0,0,0); fill-opacity:1.0; stroke-linejoin: miter">
<path d="M320.00156,706.2127L320.00003,706.2132L319.35266,706.9036Q319.14108,707.1974,319.10718,707.26215Q319.22165,706.6889,319.21796,706.4447Q319.1807,706.3483,318.9883,706.5684L318.9294,706.6449L318.6456,707.088Q318.35022,707.4824,318.04312,707.9348Q317.66885,708.4883,317.55173,708.695Q316.8633,709.8224,316.76935,710.20886L320.1673,709.05896Q319.8699,708.9296,319.8431,708.88885Q319.75546,708.82275,319.69507,708.7442Q319.5743,708.58716,319.56244,708.38007Q319.555,708.15704,319.59705,707.9519Q320.0922,706.2014,320.00156,706.2127 Z"/>
</g>
<g style="fill:rgb(0,0,0); fill-opacity:1.0; stroke-linejoin: miter">
<path d="M324.20834,675.58954L324.19522,675.6244L324.1793,675.6753L324.1668,675.7257Q324.16232,675.7507,324.15775,675.77563Q324.15488,675.80035,324.1521,675.8251L324.19205,675.8225Q324.19333,675.79785,324.19568,675.77356Q324.19815,675.74915,324.20166,675.7252L324.2055,675.7013L324.2099,675.6775Q324.21463,675.65375,324.22043,675.6303L324.22653,675.60693L324.22977,675.6079Q324.22275,675.6002,324.21164,675.58954L324.20834,675.5905 Z"/>
</g>
<g style="fill:rgb(0,0,0); fill-opacity:1.0; stroke-linejoin: miter">
<path d="M321.9877,674.994L321.80865,674.99695Q321.38025,674.97186,320.50363,675.2353L320.95474,678.62964Q321.87137,678.9184,322.15125,679.06305Q322.5086,678.82275,322.9605,678.79755Q323.01733,678.79395,323.0762,678.8018Q323.7261,678.9287,324.17603,678.98224Q324.54514,678.00757,324.77798,677.5696Q324.71622,677.2751,324.3144,676.3545L323.52194,675.7599Q323.1173,675.38354,323.05328,675.089Q322.7542,675.0032,321.9877,674.994 Z"/>
</g>
<g style="fill:rgb(0,0,0); fill-opacity:1.0; stroke-linejoin: miter">
<path d="M324.1515,675.8335L324.15073,675.8596L324.1499,675.8857Q324.15112,675.9115,324.15222,675.9373Q324.1553,675.96295,324.15845,675.98846L324.16858,676.039L324.18265,676.08905L324.2006,676.13855L324.22247,676.18744Q324.23538,676.21155,324.2483,676.23584L324.27795,676.28357Q324.23044,676.17633,324.2089,676.0638Q324.20172,676.0265,324.19736,675.98883Q324.19562,675.9699,324.19373,675.95105Q324.19083,675.91345,324.19077,675.8756Q324.19104,675.85675,324.19135,675.8379L324.19464,675.8378L324.1515,675.8335 Z"/>
</g>
<g style="fill:rgb(0,0,0); fill-opacity:1.0; stroke-linejoin: miter">
<path d="M312.70737,673.2958L312.68713,673.29584L312.0154,673.33954L311.2714,673.5015L309.8794,673.90515Q309.58868,674.0248,309.4683,674.11487L309.48474,675.80414Q309.52774,676.0895,309.5478,676.1102Q309.5697,676.1544,309.6845,676.1578L323.265,675.4843Q322.5082,675.2346,321.7189,674.8968Q321.21826,674.7923,320.2097,674.5181Q319.25494,674.2553,317.76013,673.7862Q317.4467,673.72705,316.69702,673.6888Q316.3633,673.64307,316.02505,673.5763L315.77762,673.5836L314.69843,673.45166L313.86307,673.3996Q313.72095,673.3805,313.48676,673.32947Q313.14136,673.3036,312.70737,673.2958 Z"/>
</g>
<g style="fill:rgb(0,0,0); fill-opacity:1.0; stroke-linejoin: miter">
<path d="M322.6186,675.1557L310.73337,675.42706Q310.23627,675.3455,309.714,675.4503L310.73062,675.4271L310.85532,675.4499Q311.44272,675.66876,311.96967,675.80804Q313.1071,675.9672,313.19415,676.00214Q314.55743,676.4587,314.75482,676.508Q315.53876,676.6417,316.764,676.9275Q317.1316,676.95264,317.28214,676.98Q317.51382,677.0743,318.28284,677.2066Q318.84235,677.3708,319.08823,677.52765L320.00674,678.3623Q320.544,678.5048,320.80927,678.58563Q321.3562,678.20013,321.99225,677.65717Q322.45544,676.4438,322.7634,676.12897Q322.6109,675.504,322.6186,675.1557 Z"/>
</g>
<g style="fill:rgb(0,0,0); fill-opacity:1.0; stroke-linejoin: miter">
<path d="M320.51105,677.4463L320.50745,677.44727Q320.30405,677.4495,320.10318,677.5129Q319.96832,677.5709,319.8248,677.68896Q319.79312,677.7576,319.81387,677.8406Q319.9359,678.105,320.03378,678.36957Q320.7051,678.54694,321.18295,678.7005Q321.33264,678.74255,321.79095,678.91754Q321.95734,678.9856,322.07538,679.0474L322.15234,679.06244Q322.367,678.93665,322.53223,678.8766Q322.7269,678.8254,322.82437,678.8139L323.03784,678.30963Q322.76685,678.04626,322.4647,677.879Q321.9931,677.7601,321.33795,677.6894Q320.92862,677.5932,320.70404,677.46387Q320.54807,677.4444,320.51105,677.4463 Z"/>
</g>
<g style="fill:rgb(0,0,0); fill-opacity:1.0; stroke-linejoin: miter">
</g>
<g style="fill:rgb(0,0,0); fill-opacity:1.0; stroke-linejoin: miter">
</g>
<g style="fill:rgb(0,0,0); fill-opacity:1.0; stroke-linejoin: miter">
</g>
<g style="fill:rgb(0,0,0); fill-opacity:1.0; stroke-linejoin: miter">
</g>
<g style="fill:rgb(0,0,0); fill-opacity:1.0; stroke-linejoin: miter">
<path d="M309.81546,674.0564L309.71954,674.065Q309.2551,674.1339,307.49786,674.7539Q306.43362,675.19464,306.0671,675.3895Q304.94473,676.05536,303.79117,676.92224L303.12216,677.502Q303.01416,677.65283,303.1587,677.6348L303.8684,677.52625Q305.24402,677.18176,306.61966,676.8376L307.84363,676.6182L309.4933,676.1445Q309.7747,675.9797,309.97348,675.91266Q310.0783,675.8744,310.3518,675.88965L309.8509,674.05896Q309.83218,674.0561,309.81546,674.0564 Z"/>
</g>
<g style="fill:rgb(0,0,0); fill-opacity:1.0; stroke-linejoin: miter">
<path d="M336.85095,672.7301L336.5495,672.7774Q335.73703,672.8883,335.0401,673.1211Q333.29968,673.25745,332.4638,673.40173Q330.80685,674.42554,329.41553,675.83624L329.2855,675.9681L328.995,677.1835Q329.42007,678.00696,329.76492,678.40564L330.1342,678.58405L330.59116,678.68L334.10022,676.7005Q334.51865,676.50793,334.76907,676.4112Q335.21783,676.20856,336.1236,675.99304Q336.86658,675.8364,337.54898,675.92004L337.6069,675.876Q337.85397,675.65717,338.34296,674.75525Q338.50354,674.4054,338.41257,674.0423Q338.32254,673.5765,337.65143,672.91797Q337.27283,672.7314,336.85095,672.7301 Z"/>
</g>
<g style="fill:rgb(0,0,0); fill-opacity:1.0; stroke-linejoin: miter">
<path d="M336.08273,673.5422Q336.46133,673.00696,337.12677,672.6721L338.15918,672.21796Q338.84058,672.07104,338.9531,672.10156Q339.48923,672.15125,339.97137,672.16547Q342.05093,672.47516,342.4076,672.4457Q343.17407,672.4522,343.11823,672.44354Q343.8261,672.39746,344.1589,672.3168L344.54086,672.33636Q344.86783,672.27356,345.4334,672.31464Q346.23184,672.55066,346.6159,672.82086Q346.94946,673.13873,347.19714,673.51733Q347.31802,673.65027,347.79495,673.8945Q348.10938,674.32294,347.7799,674.7989Q347.30133,675.43335,346.82825,675.46576Q346.7239,675.51556,345.69556,675.41626L344.99582,675.2632L343.5772,675.05334Q343.4963,675.0386,343.117,675.0238Q342.79858,674.9162,342.0816,674.8351L341.65375,674.8375Q341.32043,674.8942,341.03015,674.8922Q340.38702,675.0001,340.02692,674.99896L339.5718,675.0757L339.22592,675.0944L337.97195,675.332 Z"/>
</g>
<g style="fill:rgb(0,0,0); fill-opacity:1.0; stroke-linejoin: miter">
<path d="M345.04153,672.77515Q345.97424,672.576,346.56982,673.01935L347.84445,673.7261L349.8962,675.2852L350.80737,676.5454Q351.45645,678.0928,351.3752,678.1076Q351.45703,678.13086,351.62656,680.31934Q351.56766,680.7587,351.3753,680.6825Q351.1235,680.57526,350.83932,680.203L350.2079,678.88525Q349.99695,678.49615,349.688,678.2091L349.27243,677.8511Q348.93463,677.7069,348.40335,677.2091L347.07346,675.79346Q346.15402,675.06525,345.5148,674.93964 Z"/>
</g>
<g style="fill:rgb(0,0,0); fill-opacity:1.0; stroke-linejoin: miter">
<path d="M292.33527,649.3543L293.3901,646.192L294.02762,645.1342Q294.9424,644.0341,295.5971,642.78485Q297.15317,640.88403,298.0436,640.2161Q299.67413,639.1628,300.55054,639.51385Q301.60965,639.50836,302.39764,641.8096Q302.9114,643.78876,302.81247,644.6226Q302.88846,646.4679,302.30542,648.4902L300.107,652.7764L298.6383,656.00555Q297.8413,657.4374,297.56726,657.61L296.06802,660.4194 Z"/>
</g>
<g style="fill:rgb(0,0,0); fill-opacity:1.0; stroke-linejoin: miter">
<path d="M329.04028,639.2404L329.1427,639.248Q329.29312,639.25903,329.44293,639.276Q329.5677,639.2906,329.59256,639.29425Q329.71503,639.3108,329.7458,639.31647Q329.7547,639.3166,329.76035,639.31775Q330.07547,639.27985,330.39743,639.2664L330.3941,639.2674Q330.32333,639.269,330.25186,639.27203L330.18027,639.2757Q330.10858,639.27985,330.0362,639.2855Q329.89145,639.29694,329.74432,639.3152Q329.5423,639.2854,329.50372,639.2817Q329.42465,639.27185,329.34723,639.26404Q329.1939,639.2484,329.04028,639.2404 Z"/>
</g>
<g style="fill:rgb(0,0,0); fill-opacity:1.0; stroke-linejoin: miter">
<path d="M329.7403,639.31573L329.62283,639.33136Q329.15137,639.39764,328.65512,639.53265Q329.01706,639.43445,329.38623,639.37195Q329.5707,639.34076,329.75647,639.31824L329.81653,639.32715Q329.82324,639.3279,329.82385,639.329Q329.79962,639.3241,329.76175,639.31793L329.75818,639.319Q329.75015,639.31604,329.7403,639.31573 Z"/>
</g>
<g style="fill:rgb(0,0,0); fill-opacity:1.0; stroke-linejoin: miter">
<path d="M319.89212,639.6468L318.77823,640.1526L317.80527,640.7465L316.97324,641.4287L316.28214,642.19904L315.7319,643.05756L315.32263,644.0043L315.05426,645.0391L314.92682,646.16223L314.94196,647.37445L314.94434,646.5477L315.03192,645.7348L315.2016,644.9418L315.45007,644.1741L315.77432,643.4379L316.17093,642.73865L316.63693,642.08234L317.16904,641.4747L317.76416,640.9215L318.41904,640.4287L319.13046,640.0018L319.89212,639.6468 Z"/>
</g>
<g style="fill:rgb(0,0,0); fill-opacity:1.0; stroke-linejoin: miter">
<path d="M320.0841,630.7207L319.34583,630.7524Q317.39236,630.75287,311.70615,632.0232Q310.319,632.4704,308.70633,633.46375Q304.01538,636.2826,300.8125,639.1763Q299.02505,640.7973,298.47934,641.44073Q297.04312,643.7047,295.96637,644.87787Q303.14056,648.579,308.0954,649.5526Q307.3518,643.3499,314.48526,640.3623Q315.31122,640.0158,316.25604,639.8352L318.77237,639.4243L321.1057,639.15155L322.63263,639.0768Q323.77158,639.17303,326.09622,639.0371L330.54126,639.2591Q331.71472,639.2502,332.96036,639.0343L334.4959,636.38586L334.6034,635.9081Q334.96054,634.0724,334.15372,633.4447L332.43518,633.0561Q329.05792,632.8823,328.70312,632.73236Q327.56775,632.50336,325.92178,631.6988Q321.93896,630.8499,320.0841,630.7207 Z"/>
</g>
<g style="fill:rgb(0,0,0); fill-opacity:1.0; stroke-linejoin: miter">
<path d="M314.95215,647.5265L314.9719,647.81476Q314.99423,648.10016,315.02698,648.3741L315.06232,648.6451Q315.13828,649.1814,315.2558,649.6717L315.31714,649.915L315.47964,649.88074Q315.25146,649.2964,315.11386,648.6673Q315.04898,648.36896,315.0077,648.0709Q314.98694,647.92206,314.97202,647.7733Q314.97284,647.7737,314.9737,647.77423L314.95532,647.5265L314.95215,647.52747 Z"/>
</g>
<g style="fill:rgb(0,0,0); fill-opacity:1.0; stroke-linejoin: miter">
<path d="M338.9874,638.61365L338.98065,638.6137L338.97394,638.6138L338.96725,638.61475L338.9337,638.61414L338.92697,638.61426L338.93036,638.6153L338.9424,638.6151L338.95444,638.61487L338.9665,638.61584L338.9785,638.61475L338.9906,638.61487L339.00262,638.61584L339.0387,638.6153L339.0748,638.6159L339.06552,638.6156L339.0562,638.6153L339.0469,638.61505Q339.03754,638.61475,339.02823,638.6145L338.99075,638.61365L338.9874,638.6146 Z"/>
</g>
<g style="fill:rgb(0,0,0); fill-opacity:1.0; stroke-linejoin: miter">
<path d="M329.04028,639.2404L329.1427,639.248Q329.29312,639.25903,329.44293,639.276Q329.5677,639.2906,329.59256,639.29425Q329.71503,639.3108,329.7458,639.31647Q329.7547,639.3166,329.76035,639.31775Q330.07547,639.27985,330.39743,639.2664L330.3941,639.2674Q330.32333,639.269,330.25186,639.27203L330.18027,639.2757Q330.10858,639.27985,330.0362,639.2855Q329.89145,639.29694,329.74432,639.3152Q329.5423,639.2854,329.50372,639.2817Q329.42465,639.27185,329.34723,639.26404Q329.1939,639.2484,329.04028,639.2404 Z"/>
</g>
<g style="fill:rgb(0,0,0); fill-opacity:1.0; stroke-linejoin: miter">
<path d="M329.7403,639.31573L329.62283,639.33136Q329.15137,639.39764,328.65512,639.53265Q329.01706,639.43445,329.38623,639.37195Q329.5707,639.34076,329.75647,639.31824L329.81653,639.32715Q329.82324,639.3279,329.82385,639.329Q329.79962,639.3241,329.76175,639.31793L329.75818,639.319Q329.75015,639.31604,329.7403,639.31573 Z"/>
</g>
<g style="fill:rgb(0,0,0); fill-opacity:1.0; stroke-linejoin: miter">
<path d="M330.01624,633.68286L325.18457,639.065L326.29144,639.04193Q329.3683,639.30835,330.54126,639.25903Q331.65744,639.2557,333.075,639.0234L334.60886,638.9375Q337.3244,638.4818,338.1132,638.55206L340.52197,638.65875Q341.536,638.7936,342.45724,639.169Q345.29257,640.3596,346.64548,643.1327Q348.11505,646.3815,346.70953,649.7309Q349.1366,651.181,351.31,652.143Q354.19034,652.60175,354.55847,652.05286Q354.84534,651.7378,354.69394,651.04297L353.597,648.63983Q355.05725,646.93365,354.67896,645.91797Q354.2921,645.36273,351.8201,643.25446Q350.8051,641.9446,350.0932,641.2384Q349.7501,641.11487,349.1092,640.5627Q347.91278,639.5351,346.4083,638.07025Q343.22647,636.44965,342.5588,635.94666L340.44217,635.2467L337.4167,634.4798Q336.74368,634.3874,334.58316,634.40936L330.01624,633.68286 Z"/>
</g>
<g style="fill:rgb(0,0,0); fill-opacity:1.0; stroke-linejoin: miter">
<path d="M338.87048,638.61237L338.7645,638.6133L338.65695,638.61597L338.54788,638.62036L338.4372,638.62665L338.32495,638.6346Q338.09894,638.65247,337.86044,638.6844Q338.10605,638.6515,338.3519,638.63403Q338.43387,638.6283,338.51575,638.6241L338.59766,638.6205Q338.6795,638.6171,338.76138,638.6156L338.84317,638.6145L338.84656,638.6155Q338.86124,638.6139,338.88834,638.6124Q338.89005,638.6129,338.8917,638.6134Q338.87875,638.61224,338.87048,638.61237 Z"/>
</g>
<g style="fill:rgb(0,0,0); fill-opacity:1.0; stroke-linejoin: miter">
<path d="M335.5049,638.898L335.4369,638.8983L335.36945,638.8991L335.30258,638.9006L335.23636,638.9026L335.1707,638.905L335.10562,638.9082L335.04117,638.9118Q334.977,638.9159,334.91403,638.92084Q335.16214,638.90717,335.17535,638.90686Q335.2114,638.9052,335.24728,638.9039Q335.28336,638.90283,335.3193,638.9016Q335.3553,638.90063,335.39133,638.89996Q335.42734,638.8994,335.46332,638.899Q335.47806,638.8987,335.5779,638.89874Q335.59927,638.899,335.62045,638.8991L335.70563,638.90045Q335.79083,638.9026,335.7908,638.9028Q335.75845,638.90173,335.7264,638.9009Q335.64645,638.89905,335.6307,638.8989Q335.56726,638.8981,335.5049,638.898 Z"/>
</g>
<g style="fill:rgb(0,0,0); fill-opacity:1.0; stroke-linejoin: miter">
<path d="M339.1884,638.61505L339.19522,638.61584Q341.26572,638.7146,342.97028,639.734L342.57214,639.50714L342.16858,639.30585L341.7596,639.1302L341.34518,638.9802L340.92535,638.85596L340.5001,638.75726L340.06943,638.68427L339.6333,638.63684L339.1884,638.61505 Z"/>
</g>
<g style="fill:rgb(0,0,0); fill-opacity:1.0; stroke-linejoin: miter">
<path d="M331.71384,633.37244Q331.99786,633.26544,332.57135,633.35614Q334.2555,633.7644,334.22873,633.7992Q334.4282,633.87195,335.3946,634.331Q335.307,634.34796,337.4257,635.3761Q338.8713,636.3366,339.86877,636.8338Q340.19016,637.03235,341.34915,637.2287 Z"/>
</g>
<g style="fill:rgb(0,0,0); fill-opacity:1.0; stroke-linejoin: miter">
<path d="M304.1748,648.12274Q304.59506,648.09125,305.1591,648.2514Q305.5656,648.5062,309.05942,649.6694Q309.1486,649.74146,310.28174,649.79755L311.7755,649.6197Q312.84247,649.36664,316.81512,648.60596L323.93582,647.8985Q327.79114,647.2335,331.03793,646.29193L334.39752,645.9123L338.02985,645.17224Q342.06757,643.972,344.03864,642.2844Q344.1812,639.85913,340.16403,638.7633Q338.58633,638.3365,336.4584,638.0505L332.30066,637.7282Q331.55914,637.47766,328.2203,637.1911L326.72815,636.89844L324.6366,636.8675Q315.21228,637.695,308.35922,643.1418 Z"/>
</g>
<g style="fill:rgb(0,0,0); fill-opacity:1.0; stroke-linejoin: miter">
<path d="M348.34406,650.36743Q347.23724,650.41614,346.36163,649.27655Q345.33694,648.1179,344.85208,647.203Q344.67737,646.90936,344.1854,645.3575Q344.02,644.99115,343.9401,644.8705Q343.34665,644.1788,342.61282,643.6491Q342.39307,643.4573,342.38962,643.1909Q342.37228,642.97626,342.4586,642.8087Q342.78116,642.162,343.06052,641.8806Q343.6211,641.2471,344.29364,640.9757Q346.18396,640.4815,347.64154,640.7882 Z"/>
</g>
<g style="fill:rgb(0,0,0); fill-opacity:1.0; stroke-linejoin: miter">
<path d="M338.02896,639.2877Q338.17758,639.3492,338.38168,639.471L340.73962,641.0034Q341.05197,641.26434,342.98828,641.8868Q344.51788,642.3909,345.4046,641.4423Q346.15085,640.06384,344.42477,638.89764Q343.2779,638.3542,342.54205,638.27527Q341.58215,638.15784,341.55063,638.1827Q341.16565,638.179,340.61533,638.2677Q340.1266,638.2903,340.11664,638.2743Q339.2928,638.16705,339.05756,637.9626 Z"/>
</g>
<g style="fill:rgb(0,0,0); fill-opacity:1.0; stroke-linejoin: miter">
<path d="M294.73532,677.08527L294.70618,678.69867Q294.7384,678.9541,294.77838,679.8399L294.67612,681.5047L294.8198,683.055Q294.9629,683.6113,295.07794,685.0605L295.06485,686.1653Q294.98712,686.8805,295.0113,687.0526L294.86163,687.9458L294.84445,689.0318Q294.92532,690.20123,295.07416,691.0053L295.1305,691.78174Q295.1745,692.82526,295.05173,693.5743Q294.84106,693.90027,294.36194,693.229L293.89084,692.4297Q293.60114,691.8574,293.49564,691.1219L293.3157,689.55347Q293.33585,689.0731,293.3759,688.9472Q293.61743,688.1731,293.6371,688.21643Q293.81912,688.0849,294.48624,686.99176Q294.72427,686.40393,294.65366,686.0542Q294.52374,685.4584,294.3466,685.022Q293.87506,683.84796,293.45175,683.5146Q293.0956,683.2645,292.42084,683.6071L291.478,684.56586Q291.3611,684.6829,291.1318,685.2765Q291.0864,685.314,290.86603,686.34467Q290.8351,687.8654,290.71478,688.8001Q290.80447,689.51526,290.70654,690.08154L290.4538,690.8499Q290.40768,690.9262,290.35886,690.89105Q290.11343,690.2877,290.10907,689.9991Q289.96603,688.54626,290.0437,687.42316L290.31934,685.77386Q290.409,685.3513,290.69968,684.339Q290.72302,684.3001,290.754,683.81757Q290.7322,683.37726,290.60757,682.72174L290.60455,681.28674L290.4546,679.47516L290.467,678.65125Q290.29733,677.5367,290.30328,676.5169Q290.33636,676.0884,290.35086,676.0756Q290.55365,675.4937,290.70563,674.60736Q290.75153,674.38885,290.85513,674.2509 Z"/>
</g>
<g style="fill:rgb(0,0,0); fill-opacity:1.0; stroke-linejoin: miter">
<path d="M312.85947,679.03485L312.38913,679.04596L311.9912,679.0692Q311.5983,679.1015,311.22552,679.16974Q310.85275,679.238,310.50012,679.34216Q309.81473,679.5385,309.1307,679.92645Q308.97583,680.0206,308.87515,680.0989L307.16287,681.66547L306.09708,682.8717L306.88297,682.6648Q306.95865,682.6419,307.1588,682.53107Q308.7857,681.046,310.23163,680.3999L310.922,680.1749Q311.12637,680.1947,311.90384,680.0248Q311.9769,680.01733,312.33878,680.0211Q312.48102,680.0301,312.56424,680.0561Q312.8098,680.16364,313.33722,680.32983L314.63956,680.54974Q315.88028,680.85974,316.1453,680.9713Q316.4895,681.0916,317.60437,682.0443Q318.28574,682.398,318.91086,682.8521Q319.35132,683.0836,319.41248,683.0616Q319.5161,683.0315,319.47556,682.948Q319.03766,682.249,318.88644,682.07544Q317.7504,680.84235,316.95828,680.2615L316.63065,680.08765L315.33728,679.59186L313.98187,679.1651Q313.97424,679.1356,312.85947,679.03485 Z"/>
</g>
<g style="fill:rgb(0,0,0); fill-opacity:1.0; stroke-linejoin: miter">
<path d="M337.10672,681.67303L337.05984,681.83246Q337.10803,681.742,337.1401,681.6846L337.14346,681.6855Q337.1364,681.6824,337.11288,681.67395Q337.1104,681.67255,337.10672,681.67303 Z"/>
</g>
<g style="fill:rgb(0,0,0); fill-opacity:1.0; stroke-linejoin: miter">
<path d="M347.7657,681.93176L347.76587,681.9318L347.76602,681.9319Q347.76587,681.9318,347.76572,681.93176L347.7657,681.93274 Z"/>
</g>
<g style="fill:rgb(0,0,0); fill-opacity:1.0; stroke-linejoin: miter">
<path d="M347.59055,681.8804L347.58887,681.88086Q347.5863,681.88104,347.58716,681.88226Q347.59967,681.9657,347.6102,682.05115Q347.63657,682.09045,347.66592,682.0827Q347.69125,682.0762,347.7151,682.0365Q347.73447,682.0077,347.76224,681.93176L347.7657,681.93274Q347.76407,681.9319,347.76254,681.9309Q347.76263,681.9314,347.7627,681.9319L347.59055,681.8804 Z"/>
</g>
<g style="fill:rgb(0,0,0); fill-opacity:1.0; stroke-linejoin: miter">
<path d="M347.58704,681.8803L347.58704,681.88086L347.58704,681.8813L347.5871,681.88226L347.58716,681.8812Q347.58716,681.8817,347.58716,681.8822L347.5871,681.8813L347.58704,681.8803 Z"/>
</g>
<g style="fill:rgb(0,0,0); fill-opacity:1.0; stroke-linejoin: miter">
</g>
<g style="fill:rgb(0,0,0); fill-opacity:1.0; stroke-linejoin: miter">
</g>
<g style="fill:rgb(0,0,0); fill-opacity:1.0; stroke-linejoin: miter">
<path d="M307.0803,682.6057Q309.5522,684.379,310.23874,684.4518Q310.7964,684.6058,310.97827,684.62286L312.2678,684.6141Q312.2175,684.6479,314.2347,684.82294Q314.261,684.8338,314.7277,684.8051L315.25613,684.7123Q315.83853,684.6913,315.88123,684.67206Q315.95682,684.6808,316.6731,684.4526L317.50705,684.0261Q318.20703,683.61005,318.75436,683.11273Q318.81003,683.07416,318.81815,683.12524Q318.86398,684.015,317.336,685.0165Q317.03174,685.2602,316.35385,685.5082Q315.71417,685.64594,315.31058,685.62286L313.2398,685.4331Q312.8593,685.43994,312.63037,685.41595Q312.23883,685.4106,311.85947,685.5035L311.07953,685.53326L309.14978,685.07465Q306.42902,684.30865,307.18332,683.0015 Z"/>
</g>
<g style="fill:rgb(0,0,0); fill-opacity:1.0; stroke-linejoin: miter">
<path d="M336.1946,682.1085Q337.8361,683.3492,338.96533,683.5639L340.15164,683.754L340.4866,683.77936Q340.71097,683.84863,341.39035,683.9407L343.39127,683.94867Q344.29623,683.848,345.19592,683.4285L346.4979,682.8181Q347.38763,682.3127,347.62894,682.0969Q347.6217,682.39276,346.142,683.86066Q345.2762,684.4907,344.00052,684.9732Q343.87015,685.0106,343.67566,684.98395L342.2231,684.6611Q341.80154,684.5899,341.38156,684.58386L340.5725,684.46765Q339.99692,684.3856,338.41208,683.903L337.56082,683.5763L336.324,682.80206Q335.92944,682.54553,335.8338,682.2168 Z"/>
</g>
<g style="fill:rgb(0,0,0); fill-opacity:1.0; stroke-linejoin: miter">
<path d="M336.31494,682.1636Q336.82715,681.0975,339.11746,679.1925Q339.53333,678.7794,341.02637,678.4445Q343.15707,678.277,344.34152,678.84924Q344.43307,678.8656,345.3271,679.4768L346.75677,680.68097Q347.9762,681.8838,348.0394,682.0988Q347.95673,681.3283,347.55573,680.58124Q347.3238,680.2291,347.1897,680.1344Q346.42365,679.66046,345.89658,679.1964Q345.98013,679.1953,344.8383,678.6307Q343.73807,678.2374,343.3899,678.19763Q342.65607,678.02155,341.30792,678.0637Q341.0945,678.064,340.78882,678.15106Q339.77536,678.45044,339.32916,678.64044Q338.3362,679.04193,337.74292,679.4258Q337.12778,679.8261,337.06027,679.91797L335.79434,681.32513 Z"/>
</g>
<g style="fill:rgb(0,0,0); fill-opacity:1.0; stroke-linejoin: miter">
<path d="M311.6182,680.0548Q310.65845,681.1458,310.5514,681.6817Q310.4087,682.02844,310.62015,683.0017Q310.6747,683.3712,311.23013,683.7487L312.5432,684.41315Q312.64108,684.4665,312.90613,684.4732Q313.25647,684.4614,313.6185,684.30255Q313.86404,684.18695,314.0605,684.0438Q314.70895,683.78925,314.77957,683.7033Q315.15958,683.4628,315.48297,682.5509Q315.78082,681.38293,315.4205,680.5804Q315.3789,680.4368,315.00482,680.1645Q314.76462,680.05664,314.74628,680.059Q314.18515,679.99646,314.08218,679.9274 Z"/>
</g>
<g style="fill:rgb(0,0,0); fill-opacity:1.0; stroke-linejoin: miter">
<path d="M341.15182,678.53894Q340.02838,678.9254,339.70752,679.7631Q339.5456,680.0363,339.50558,681.26404Q339.5646,681.83307,339.7413,682.34064Q340.2253,683.02155,341.13718,683.257Q341.64688,683.3761,342.46896,683.3956Q343.18277,683.2546,343.5123,682.9885Q344.38638,681.874,344.56097,681.34503Q344.59415,681.1191,344.5538,680.9647Q344.46048,680.6732,344.22903,680.1543L344.13376,679.7584Q344.1618,679.6948,343.62955,678.83136Q343.4274,678.5658,343.31342,678.5046Q341.8056,678.05005,341.64734,678.1759 Z"/>
</g>
<g style="fill:rgb(0,0,0); fill-opacity:0.20784314; stroke-linejoin: miter">
<path d="M322.3772,677.4005Q322.826,677.4197,323.20856,678.83636L323.35492,679.40985Q323.3732,680.3108,323.60898,681.1221Q323.64706,681.30554,323.56497,681.5806Q323.38242,682.45215,322.58704,683.2986Q321.34692,684.4559,320.91815,684.1624Q320.66757,684.09766,320.31573,683.8055Q317.62274,680.99066,317.745,681.0592Q317.57172,680.8266,316.57483,680.0457L316.2792,679.6974Q316.14325,679.58453,315.56366,678.1757Q315.35886,677.6315,315.1116,676.46063L314.57925,675.1406 Z"/>
</g>
<g style="fill:rgb(0,0,0); fill-opacity:0.20784314; stroke-linejoin: miter">
<path d="M330.94257,676.89355Q330.56137,678.01105,332.16623,681.1451Q333.75943,684.366,334.66656,683.9802Q334.7864,683.97314,335.0592,683.6812L335.7734,682.2748Q336.68262,680.7485,337.28583,680.1387Q339.95648,677.54126,342.11124,676.1161L343.76263,674.0962Q343.83136,673.87964,343.83295,673.55365 Z"/>
</g>
<g style="fill:rgb(0,0,0); fill-opacity:0.20784314; stroke-linejoin: miter">
<path d="M322.41983,697.1936L322.32022,697.19727Q321.7423,697.27856,321.42535,697.54816Q321.18475,697.7716,320.98865,698.0376Q320.91873,698.1344,320.59628,698.8089L320.52652,699.0852Q320.4776,699.34717,320.51166,699.55164Q320.54575,699.7562,320.66287,699.90326L320.80078,700.03595L320.9802,700.14Q321.18042,700.22974,321.46368,700.2619Q321.64886,700.2475,321.74976,700.2286Q322.4662,700.0254,322.92203,699.8369Q323.85168,699.35254,324.20673,699.22485Q324.88907,698.8591,325.07077,698.7463L325.15604,698.8936L325.30084,698.5943Q325.2734,698.6222,325.07315,698.74585Q324.73328,698.19196,324.55774,698.0145Q324.16504,697.5741,323.93954,697.47595Q323.79993,697.40704,323.67538,697.37994L322.508,697.19653L322.41983,697.1936 Z"/>
</g>
<g style="fill:rgb(0,0,0); fill-opacity:0.20784314; stroke-linejoin: miter">
<path d="M334.02567,696.60785L333.94827,696.60944Q333.5375,696.63824,333.14163,696.7425Q332.57092,696.9378,332.4231,697.0649Q332.04767,697.4027,331.3909,698.6437Q332.0286,698.8872,332.44904,699.0977L333.37244,699.6069Q333.9438,699.6145,334.3185,699.5878L335.26898,699.72125Q335.96936,699.38745,336.46396,699.2205Q336.58298,698.7036,336.7292,698.251Q336.73624,698.0913,336.70096,698.0207Q336.44928,697.55707,335.93015,697.26874L334.79825,696.87506L334.24988,696.6271Q334.1522,696.60803,334.02567,696.60785 Z"/>
</g>
<g style="fill:rgb(0,0,0); fill-opacity:0.5019608; stroke-linejoin: miter">
<path d="M323.83673,720.15594Q323.60852,720.0821,323.22736,720.0353Q322.4984,720.06555,321.31628,719.902Q320.0713,719.62665,320.17416,719.571Q318.63022,718.51416,319.985,717.35864Q320.19458,717.22235,320.63586,717.1202Q321.12637,717.1894,324.5233,716.4653L326.23984,715.8532L328.18048,715.37836L328.72433,715.18024Q331.3873,714.70966,331.7467,714.7394Q335.211,715.0149,337.3585,717.3334Q338.52585,718.7147,336.97144,719.8139L335.1241,720.61597Q334.73486,720.7674,334.49457,720.75946Q333.94485,720.76434,333.88846,720.74664Q333.05783,720.572,332.51724,720.5443Q332.06854,720.5271,331.53522,720.5872Q330.93228,720.52924,330.81482,720.5542Q330.30865,720.5826,329.3589,720.71564L327.606,720.6668L324.4112,720.40173L323.19064,720.16473Q323.1096,720.14996,323.0174,720.0697 Z"/>
</g>
<g style="fill:rgb(0,0,0); fill-opacity:1.0; stroke-linejoin: miter">
<path d="M290.5398,689.8879Q290.3851,690.3471,290.35086,691.3095Q290.4787,692.2268,290.74713,692.6805L292.18857,694.6505L293.31738,696.4469L294.48987,697.5154Q294.74088,697.7372,295.36108,698.0478Q295.4344,698.0886,295.43323,698.1711Q295.27615,698.236,294.93466,697.9546L293.79828,696.5891Q293.63397,696.4008,292.8046,695.7763Q292.75052,695.75275,292.1818,695.06464Q291.9782,694.6897,291.06662,693.5155L290.89267,693.1963Q290.4627,692.3331,290.22205,691.2442 Z"/>
</g>
<g style="fill:rgb(0,0,0); fill-opacity:1.0; stroke-linejoin: miter">
<path d="M295.78336,700.1321Q297.5998,709.3067,299.55234,712.3586Q299.3556,712.5009,306.40042,720.5661Q310.30786,723.6694,311.3235,723.4194Q308.05298,721.80237,306.7282,720.46735Q303.8243,717.74457,302.45416,716.7438Q300.45517,714.9279,300.27448,714.4087Q299.06668,712.5058,298.53918,711.31537L297.6327,707.5585Q297.60745,706.0966,296.5017,701.978 Z"/>
</g>
<g style="fill:rgb(0,0,0); fill-opacity:1.0; stroke-linejoin: miter">
<path d="M361.22076,684.9292Q361.33572,685.4415,361.46884,687.3135Q361.49234,687.73804,361.48996,687.8192Q361.46405,688.3715,361.48502,688.8349L361.46442,689.18884Q361.46005,689.1788,361.48218,689.5236Q361.57904,689.86804,361.72473,691.1906L361.6569,692.05237Q361.67502,693.0114,361.68982,693.08124Q361.6928,693.2908,361.6847,693.45386L361.57202,694.5703L361.5005,694.89575Q361.3733,696.2774,361.2831,696.5369Q361.25482,696.6941,361.01068,697.0869Q360.79514,697.6933,359.53314,698.0036Q359.48578,698.0093,359.54156,697.9378Q359.79022,697.68536,360.02603,697.33527L360.4497,696.55884Q360.54898,696.1339,360.68945,695.8354L361.04456,694.3991Q361.06024,694.41986,361.1278,693.7029L361.1656,692.2969L361.23117,691.5578L361.23724,690.39166Q361.25015,690.3206,361.10764,689.35455Q361.09766,689.2189,360.90448,688.7712L360.85806,688.42706Q360.7212,687.91223,360.68222,687.62823Q360.67648,687.2542,360.54816,686.24915L360.5307,685.76984Q360.45288,685.2876,360.454,684.9624 Z"/>
</g>
<g style="fill:rgb(0,0,0); fill-opacity:1.0; stroke-linejoin: miter">
<path d="M359.88327,698.0643L359.45676,698.4434Q357.62674,700.1313,357.07672,702.2148Q357.00992,702.4732,356.9702,702.7085Q356.9466,703.37085,356.9428,703.82104Q356.9395,704.90967,357.09406,706.4397L356.72516,708.4481Q356.72464,708.8427,356.7107,709.2347L357.72797,707.4196L359.88327,698.0643 Z"/>
</g>
<g style="fill:rgb(0,0,0); fill-opacity:1.0; stroke-linejoin: miter">
<path d="M356.7032,709.248L356.1739,710.1924Q356.0059,710.6093,355.8401,711.1321Q355.71512,711.49457,355.4293,712.60455Q355.84836,712.83887,356.0483,713.4131Q356.2647,712.6904,356.3887,712.22833L356.45218,711.8393Q356.57208,711.0756,356.6357,710.4278Q356.6676,710.1038,356.6853,709.80896L356.6996,709.5212L356.7068,709.248L356.7032,709.24896 Z"/>
</g>
<g style="fill:rgb(0,0,0); fill-opacity:1.0; stroke-linejoin: miter">
<path d="M355.45633,715.1584L354.9512,715.8019Q354.89963,716.2226,354.786,716.3974Q354.10773,717.264,353.88184,717.90344L353.4256,718.50006Q353.5057,718.64923,353.2844,719.26575Q352.4254,720.4777,351.91614,721.3688L350.08514,724.847Q349.21243,725.75854,348.9103,725.67175L347.38602,727.6993L341.70407,733.641Q341.98294,733.6281,344.0045,731.7321L345.92407,729.9094Q346.34695,729.29944,347.0445,728.5672Q348.23648,727.44135,348.62717,727.2618Q348.73288,727.1773,349.04337,726.78015Q350.81216,724.5464,352.59494,721.7213Q355.34015,716.1456,355.45633,715.1584 Z"/>
</g>
<g style="fill:rgb(0,0,0); fill-opacity:1.0; stroke-linejoin: miter">
<path d="M313.20035,730.93463L313.28644,731.0477L314.50845,732.71545Q315.3798,733.34283,317.0012,733.99194Q317.53873,734.2183,318.7345,734.57196Q321.62006,735.07965,323.12018,735.2223Q325.9911,735.34827,326.87213,735.3082L327.96198,735.3719Q328.94122,735.38104,329.39902,735.32056Q330.2652,735.4325,330.39084,735.43365L331.74734,735.4294Q332.21957,735.371,332.93607,735.3626Q334.47467,735.4603,334.8544,735.43207L336.86218,735.2502Q337.47986,735.04266,338.1133,734.9258Q339.22723,734.7526,339.72147,734.77563Q340.08243,734.6832,341.2161,734.3024L341.91544,734.1575L339.99014,733.4733Q339.5567,733.61035,338.84995,734.1189L337.81055,734.53625Q336.4336,734.8533,335.24683,735.045L334.1798,735.05365L333.62872,735.11163Q332.65482,735.0818,331.88132,735.17676L330.46036,735.1767L328.65524,734.9951Q327.9636,734.9873,327.27206,734.9792Q325.73102,734.7505,325.2824,734.7755Q324.48364,734.635,323.3111,734.35034Q320.16876,733.9092,318.5544,733.55084L315.58624,732.73315Q314.79758,732.53564,313.20035,730.93463 Z"/>
</g>
<g style="fill:rgb(0,0,0); fill-opacity:1.0; stroke-linejoin: miter">
<path d="M312.5231,730.1527L312.5219,730.1529Q312.50848,730.14246,312.83356,730.5198Q312.94254,730.6451,313.15897,730.8803Q312.60867,730.16174,312.5231,730.1527 Z"/>
</g>
<g style="fill:rgb(0,0,0); fill-opacity:1.0; stroke-linejoin: miter">
<path d="M305.54028,722.0804L307.43195,724.3739L309.32358,726.6676Q308.42422,725.1855,308.38922,725.1947Q308.3618,725.1683,308.35886,725.17804L306.73804,723.23676Q306.48444,723.0193,305.54028,722.0804 Z"/>
</g>
<g style="fill:rgb(0,0,0); fill-opacity:1.0; stroke-linejoin: miter">
<path d="M309.33197,726.6815L309.38223,726.7649L309.82974,727.51276Q310.01932,727.7169,310.7228,728.733L312.72882,731.21985Q313.9405,732.5342,313.12634,731.1486L312.90936,730.792L312.1613,729.85724L310.76102,728.4284Q310.639,728.2891,310.56143,728.16846L309.33197,726.6815 Z"/>
</g>
<g style="fill:rgb(0,0,0); fill-opacity:0.3019608; stroke-linejoin: miter">
<path d="M357.8568,670.3392L357.7934,670.50366Q357.67017,670.79663,357.47275,671.0933Q357.20966,671.465,357.1348,671.5405Q357.00824,671.6903,356.8631,671.841L357.6055,673.1269Q357.63098,672.4593,357.6934,671.77124Q357.72742,671.4011,357.75958,671.1301Q357.79694,670.79083,357.8604,670.3392L357.8568,670.34015 Z"/>
</g>
<g style="fill:rgb(0,0,0); fill-opacity:0.3019608; stroke-linejoin: miter">
</g>
<g style="fill:rgb(0,0,0); fill-opacity:0.3019608; stroke-linejoin: miter">
<path d="M340.18964,734.78546L340.1927,734.78564Q340.19278,734.7857,340.20496,734.78595L340.2118,734.7863Q340.22284,734.7866,340.2394,734.7874L340.2506,734.7878L340.35367,734.7923L340.41708,734.7987L340.41708,734.7996L340.26758,734.79095Q340.23917,734.7891,340.22134,734.7881L340.19525,734.7864Q340.1953,734.7869,340.1953,734.7874L340.18625,734.78546L340.18964,734.78644 M357.6053,673.1325L357.5898,673.75134Q357.42432,674.67,358.04773,678.3791Q358.04092,679.14874,356.4979,681.47314Q356.23764,682.3116,356.3065,682.7677Q356.79236,684.2804,359.29443,687.3764Q359.32376,688.11554,358.4524,690.22375Q359.0267,691.94135,359.63754,692.35803Q354.07126,699.3009,351.87714,706.84406Q348.61633,710.10333,347.17017,712.7577Q343.59875,714.9855,340.9071,717.8619Q340.51865,719.2443,340.7006,720.2683Q340.8723,721.2143,341.85455,723.10547L341.69315,723.4752Q341.5185,723.8024,340.77707,724.0393Q336.8287,724.9611,334.9498,725.2098Q331.18118,725.8104,323.99316,725.7357L320.7655,726.70764Q317.18762,728.1916,317.06522,731.4345Q317.29517,734.3146,317.51172,734.69727Q319.65234,734.6642,322.9208,735.6224Q324.45682,735.2786,325.38028,735.31445Q326.70865,735.33795,328.54056,735.7946Q330.49216,735.13184,334.72952,735.9498L338.19324,734.91125L339.50375,734.7783Q340.28198,734.7905,339.81992,734.77606L340.17993,734.7845L339.99295,734.7849L341.03333,734.86035L341.50455,734.6498Q345.21082,730.56824,345.2734,730.95905Q345.92377,729.7346,347.1397,728.4654Q348.41068,727.28186,349.5011,726.7584L352.9053,723.17847Q352.4867,720.72345,356.26965,715.4922Q356.11926,713.0248,356.72748,711.4353Q356.83282,710.8035,358.579,708.0883Q358.33377,706.57385,358.9135,703.84955Q360.30896,698.62476,361.43597,697.381Q361.45944,696.27405,362.39136,690.34644Q361.13385,685.5834,362.84348,682.19965L357.6053,673.1325 Z"/>
</g>
<g style="fill:rgb(0,0,0); fill-opacity:0.3019608; stroke-linejoin: miter">
<path d="M330.1486,736.2524L330.11804,736.2545Q330.07217,736.25745,329.96625,736.2657L329.87585,736.2731Q329.8914,736.2783,329.90637,736.2851L329.97446,736.27704Q329.98306,736.2763,330.02567,736.2714L330.07684,736.26605L330.11102,736.2627L330.11435,736.2636Q330.13724,736.2562,330.1519,736.2524L330.1486,736.25336 Z"/>
</g>
<g style="fill:rgb(0,0,0); fill-opacity:1.0; stroke-linejoin: miter">
<path d="M322.74353,691.3373Q320.89417,691.7028,319.9834,693.22205L319.0666,695.24963L318.76392,696.3209L318.721,696.75366L318.7496,698.3281Q318.8359,698.9492,319.0362,699.2008Q319.45428,699.649,320.26416,700.0881Q320.82367,700.4068,321.16373,700.52856Q321.81723,700.6917,322.24765,700.70935Q322.906,700.99365,323.12592,701.0044Q323.1006,701.13245,324.5525,700.88995Q324.4785,700.97675,323.819,701.195Q322.57953,701.5179,320.5149,701.10547Q319.88174,700.9662,319.17178,700.26953Q318.90143,700.05585,318.5825,699.2291Q318.45474,698.40485,318.4908,697.95435Q318.47943,697.9133,318.5527,697.7032Q318.539,697.29095,318.58954,696.9793Q318.79178,696.12946,318.78622,695.54944L319.13007,694.3007Q319.33224,694.0773,319.7052,693.0212Q319.72452,692.9615,319.99265,692.668Q320.41284,692.2813,321.8549,691.65466 Z"/>
</g>
<g style="fill:rgb(0,0,0); fill-opacity:1.0; stroke-linejoin: miter">
<path d="M333.32852,690.90216Q334.38367,691.06885,334.9111,691.4885Q334.95724,691.58984,335.7465,692.28033L336.87424,693.5119Q337.3953,694.1819,337.55045,694.5644Q337.77365,695.33844,337.86157,695.47656L338.00436,696.08673Q338.00732,696.5005,338.0374,696.6033Q337.82553,698.12177,337.73102,698.0946Q337.6741,698.3382,337.26154,698.69543L336.23627,699.5304Q336.07266,699.6697,335.9577,699.8576L335.0086,700.5067Q333.03613,700.96124,332.55957,700.7237Q332.903,700.8222,333.7937,700.7928Q333.76294,700.9344,336.03345,700.2491Q336.65567,699.9931,337.09583,699.64606Q338.4654,698.40607,338.63788,696.63Q338.67496,696.2372,338.56366,695.7585Q338.4698,695.3595,337.8926,694.4362L337.37674,693.162Q337.2808,692.9363,336.95688,692.4187Q336.764,692.123,336.45288,691.9002Q335.01105,691.1526,334.90137,690.8322 Z"/>
</g>
<g style="fill:rgb(0,0,0); fill-opacity:1.0; stroke-linejoin: miter">
<path d="M320.2629,697.4501L322.04236,696.3143Q322.23837,696.1551,323.5756,696.2651L324.39944,696.66284Q325.19507,697.3304,325.27997,697.34827Q326.8206,698.93286,326.8376,698.86566Q327.82645,699.35736,327.86826,699.34033Q327.94073,699.3903,328.83432,699.45264Q329.1208,699.47046,329.30576,699.3934Q330.1772,699.1023,330.81326,698.76227L332.73102,696.5267Q332.69098,696.4319,333.73285,695.9489L334.17,695.8294Q334.2188,695.79846,334.69662,695.86896L336.26648,696.6415Q336.83646,696.96936,337.16693,697.55835L335.8801,696.0747Q335.4475,695.8003,334.8707,695.7041Q334.46823,695.6343,334.09644,695.69824Q333.4774,695.7447,332.6572,696.41754Q331.95853,697.00397,331.0282,698.1131L330.50153,698.53876Q330.03934,698.79645,329.67548,698.87854L328.69598,698.94946L328.1086,699.0454Q326.95825,698.80383,326.48294,698.4045Q326.01648,698.1913,324.734,696.3673Q324.49472,696.11285,324.04044,695.9559Q323.2651,695.815,323.33362,695.84784Q322.23526,695.8607,322.19434,695.94574L321.15262,696.491Q320.8886,696.90375,320.98383,696.9427 Z"/>
</g>
<g style="fill:rgb(0,0,0); fill-opacity:0.5019608; stroke-linejoin: miter">
<path d="M319.92877,714.97363L323.83392,713.3297Q326.0146,712.77856,328.61755,711.8861Q329.7492,711.6289,330.35788,711.57886Q331.01263,711.4545,333.40698,711.8436Q337.60016,712.6585,337.71716,712.59033L338.50037,712.8015Q340.35748,713.50183,340.41998,713.4543Q341.29886,713.65546,341.37494,713.3913Q341.1405,711.69336,338.54855,710.8982Q338.14423,710.77264,337.76318,710.73334Q335.7235,710.53284,335.55957,710.5606Q334.899,710.422,334.1,710.3552Q331.98334,710.31696,332.00107,710.36066Q331.6205,710.3888,331.15228,710.49536Q330.5499,710.51245,330.3691,710.5598Q328.62094,710.9087,326.91568,711.5028L321.8426,713.8187Q321.6699,713.86035,319.8114,715.1497 Z"/>
</g>
</g>
<g id="layer4">
<g style="fill:url(#grad0); fill-opacity:0.5058824; stroke-linejoin: miter">
<path d="M378.70483,680.51636C380.12402,711.57336,358.12952,737.8077,329.57867,739.11237C301.02783,740.41705,276.73236,716.298,275.31317,685.24097C273.89398,654.1839,295.8885,627.9496,324.43933,626.6449C352.99017,625.3402,377.28564,649.4593,378.70483,680.51636 Z"/>
</g>
</g>
<defs>
<radialGradient id="grad0" gradientUnits="userSpaceOnUse" cx="263.1006" cy="690.3738" r="127.94608" >
<stop offset="0.0%" style="stop-color:rgb(255,133,0); stop-opacity:1.0" />
<stop offset="51.973682%" style="stop-color:rgb(255,196,0); stop-opacity:1.0" />
<stop offset="100.0%" style="stop-color:rgb(255,227,0); stop-opacity:1.0" />
</radialGradient>
</defs>
</svg>