<svg width="104" height="115" viewBox="0 0 104 115" fill="none" xmlns="http://www.w3.org/2000/svg">
<path d="M9.26147 31.8613L9.26141 31.8615L9.26132 31.8616V31.8625V31.8616L9.26141 31.8616L9.26147 31.8626V31.8613Z" fill="#FBCD87"/>
<path d="M9.26074 31.8613V31.8618V31.8624L9.26086 31.8622L9.26099 31.8621C9.26099 31.8624 9.26099 31.8627 9.26099 31.863C9.2609 31.8625 9.26083 31.8619 9.26074 31.8613Z" fill="#FBCD87"/>
<path d="M9.26123 31.8615V31.8616L9.2612 31.8618L9.26126 31.8618L9.26132 31.8616L9.26129 31.8615L9.26123 31.8625V31.8615Z" fill="#FBCD87"/>
<path d="M9.26117 31.8618L9.26108 31.8619L9.26105 31.862L9.26102 31.8621L9.26096 31.863V31.864L9.26105 31.8627L9.26108 31.8624L9.26114 31.8621L9.26117 31.8618Z" fill="#FBCD87"/>
<path d="M51.1738 5.10492L51.1546 5.10907L51.0014 5.1427L51.0289 5.15381C51.2973 5.27581 51.5656 5.39775 51.834 5.51965C51.8996 5.52344 51.9653 5.5272 52.0309 5.53094C51.8214 5.42378 51.6515 5.33598 51.5213 5.26752L51.2708 5.1355C51.2718 5.13546 51.2729 5.13544 51.274 5.13544L51.1738 5.10492Z" fill="#FBCD87"/>
<path d="M49.9628 7.85248V7.85297V7.85345L49.9636 7.85315L49.9645 7.85291C49.9645 7.85324 49.9645 7.85355 49.9645 7.85388L49.9636 7.85315L49.9628 7.85248Z" fill="#FBCD87"/>
<path d="M49.966 7.85248L49.9653 7.85266C49.9645 7.85258 49.9643 7.85298 49.9645 7.85388L49.9807 7.85712C50.0928 7.88585 50.1968 7.91222 50.2928 7.93622L50.2248 7.87628L50.2253 7.87677L50.2258 7.87726C50.2271 7.87642 50.2278 7.87609 50.228 7.87622C50.1406 7.86835 50.0533 7.86041 49.966 7.85248Z" fill="#FBCD87"/>
<path d="M57.116 0L57.1306 0.0313721L57.1452 0.0626831C57.1975 0.0916431 57.2497 0.120574 57.302 0.149414C57.2248 0.0864807 57.1639 0.0366667 57.1193 0L57.116 0.000976562V0Z" fill="#FBCD87"/>
<path d="M57.3761 10.4041L57.606 10.5314C58.0885 10.7991 58.7589 11.163 59.6172 11.6229C61.0977 12.0406 62.6892 12.414 64.3918 12.7429C64.0487 12.6318 63.6922 12.5039 63.3223 12.3593C62.6644 12.0956 62.182 11.8906 61.875 11.7443L60.4044 11.3273C60.283 11.4428 60.1804 11.5031 60.0968 11.5082C60.0138 11.5285 59.905 11.5185 59.7703 11.4781C59.5619 11.3954 59.4691 11.3496 59.4918 11.3405C59.4387 11.2822 59.3896 11.1745 59.3447 11.0174C58.7716 10.8471 58.1154 10.6427 57.3761 10.4041Z" fill="#FBCD87"/>
<path d="M81.7457 16.8409L81.7476 16.8433L81.7495 16.8456V16.8466L81.7509 16.8459C81.7514 16.8457 81.7519 16.8455 81.7523 16.8453L81.7544 16.8445L81.7558 16.8442C81.757 16.8445 81.7582 16.8448 81.7593 16.8452C81.756 16.8437 81.7526 16.8423 81.7493 16.8409V16.841L81.7475 16.8409L81.7457 16.8419V16.8409Z" fill="#FBCD87"/>
<path d="M65.4948 14.2122L66.5311 14.6142C67.8669 15.1257 69.0189 15.5385 69.9872 15.8524C70.4713 16.0096 70.9094 16.142 71.3017 16.2496C71.5766 16.336 72.0402 16.4404 72.6923 16.5629C71.6719 15.6701 70.8186 14.8956 70.1324 14.2393C69.4456 14.3009 68.6843 14.328 67.8486 14.3207C67.1108 14.3133 66.3262 14.2772 65.4948 14.2122Z" fill="#FBCD87"/>
<path d="M18.0875 36.5071L18.0873 36.5076L18.0871 36.5081C18.0872 36.5084 18.0874 36.5088 18.0875 36.5091C18.0875 36.5084 18.0875 36.5077 18.0875 36.5071Z" fill="#FBCD87"/>
<path d="M18.0799 36.5189V36.5198C17.7967 36.9083 17.341 37.6101 16.713 38.6249C16.5822 39.0334 16.4514 39.4419 16.3205 39.8504C16.4156 39.902 16.5274 39.9898 16.656 40.1138L18.0828 36.5189L18.0799 36.5198V36.5189Z" fill="#FBCD87"/>
<path d="M11.9446 95.7095L11.8837 95.7539L11.8227 95.7983C11.8237 95.7987 11.8246 95.799 11.8256 95.7993C11.8281 95.8025 11.8292 95.8046 11.829 95.8056L11.9446 95.7095Z" fill="#FBCD87"/>
<path d="M54.538 110.785L54.5374 110.786L54.5366 110.785L54.5357 110.786C54.5343 110.786 54.5324 110.786 54.5299 110.786L54.528 110.787L54.5259 110.786L54.524 110.786L54.5221 110.786L54.5182 110.786L54.5164 110.786L54.5145 110.787L54.515 110.788L54.5276 110.787L54.5402 110.786V110.787C54.5395 110.786 54.5387 110.786 54.538 110.785Z" fill="#FBCD87"/>
<path d="M54.5485 110.785L54.5443 110.786L54.5402 110.786V110.787C54.5408 110.787 54.5415 110.786 54.5421 110.786C54.5432 110.786 54.5442 110.786 54.5453 110.786L54.5486 110.787V110.786V110.786L54.5703 110.786L54.5921 110.787L54.5897 110.786L54.5872 110.786L54.5848 110.786L54.5825 110.786L54.58 110.786L54.5777 110.786L54.5708 110.786L54.5638 110.785L54.5616 110.785L54.5593 110.786C54.5564 110.786 54.5535 110.786 54.5506 110.786V110.785L54.5485 110.786V110.785Z" fill="#FBCD87"/>
<path d="M86.6372 64.0269L86.6271 64.0344C86.603 64.0518 86.5854 64.0636 86.5743 64.07C86.5597 64.0789 86.5448 64.0873 86.5296 64.0954C86.4991 64.1113 86.4672 64.1253 86.4341 64.1372C86.4597 64.1283 86.4907 64.116 86.5271 64.1003C86.5716 64.0801 86.606 64.0627 86.6305 64.0481L86.6341 64.0491L86.6409 64.0269L86.6372 64.0278V64.0269Z" fill="#FBCD87"/>
<path d="M81.5688 82.8683V82.8684L81.5688 82.8689V82.8694V82.869L81.5688 82.8688V82.8683Z" fill="#FBCD87"/>
<path d="M43.5929 7.21942L42.7643 7.53046C42.8041 7.28968 40.9109 8.25259 37.0846 10.4192C36.2716 10.5056 35.3452 10.16 34.3054 9.38245C32.1187 10.2873 27.1295 13.9738 19.3376 20.4421L16.6302 26.6638C18.2249 25.2862 18.2649 26.6722 16.7501 30.8221C17.229 29.6201 17.7191 29.0859 18.2205 29.2195L20.955 24.5094C21.4075 24.0737 21.7643 24.2481 22.0253 25.0327L16.7938 34.7861C16.9045 34.5884 17.1481 34.6676 17.5246 35.0238L21.5407 30.2877C22.2362 30.0849 22.6491 30.1259 22.7794 30.4107L18.1642 36.3287L18.1068 36.4792C18.3809 36.1817 18.6631 36.0496 18.9537 36.0827L19.2682 36.4885C18.7422 38.5969 18.6247 39.5367 18.9158 39.308L15.0433 49.5981L14.8166 51.8748L17.5634 53.7666L17.9092 55.238L15.1967 60.5096L14.9242 62.2535C15.0559 62.1329 15.2624 62.6151 15.5435 63.6998L14.8537 67.1792L18.3793 73.1596C18.6328 73.0134 19.186 73.5981 20.0391 74.9137C19.8687 74.7084 20.07 75.5857 20.6429 77.5454L24.0312 88.2162C27.88 92.6897 29.7031 94.7092 29.5005 94.2747L30.509 97.6342L37.5039 106.219L37.3963 106.319L40.4086 108.576C42.9167 109.417 45.5206 110.112 48.2203 110.663L62.4215 110.645C62.9547 110.633 63.9751 110.361 65.4828 109.829L66.5776 109.392L69.7021 106.551C69.6811 106.276 69.941 105.806 70.4817 105.14L73.307 103.003L77.8403 96.401L80.704 88.5625L81.5368 82.4452C81.6068 82.1562 81.8082 81.9686 82.1411 81.8824C82.0417 81.1413 82.1881 80.7016 82.5802 80.5632L82.6907 77.899C82.9063 77.4469 83.2345 77.2879 83.6751 77.4219L84.5608 72.9037C85.2057 71.8366 85.6225 71.3793 85.8113 71.5316C85.9951 68.9597 86.1891 67.8174 86.3933 68.1046L86.4714 65.7568C85.4305 63.9915 85.0497 62.7453 85.3287 62.0184C85.4604 60.2116 85.9973 58.5595 86.9394 57.0622L86.6132 52.5724C86.3997 52.4196 86.1742 51.9125 85.9368 51.0512C85.2293 50.7036 84.8009 50.3392 84.6516 49.958C84.2527 49.0828 84.0622 48.2875 84.08 47.5722C84.1255 45.4776 84.3079 43.862 84.6273 42.7254C84.9416 41.2679 85.4363 40.3586 86.1115 39.9973C86.0124 39.2269 86.1711 38.7111 86.5877 38.4499L83.8354 29.7768L79.8975 22.0737L79.2004 21.3676L74.4533 18.0308C74.0503 18.2471 70.769 17.3817 64.6096 15.4343L52.2925 9.52234L43.5929 7.21942Z" fill="#FBCD87"/>
<path d="M79.4887 97.9675L79.4677 98.0176C79.4118 98.1508 79.356 98.2823 79.3002 98.4122C79.3518 98.3635 79.4192 98.3006 79.5023 98.2235C79.499 98.1571 79.4957 98.0717 79.4923 97.9675L79.4887 97.9684V97.9675Z" fill="#FBCD87"/>
<path d="M32.0903 105.867L32.0854 105.876L32.0804 105.885L32.9538 107.058L32.0903 105.867Z" fill="#FBCD87"/>
<path d="M47.119 110.467L47.1208 110.467L47.1965 110.491C47.2367 110.506 47.275 110.524 47.3113 110.545L47.3641 110.579C47.3983 110.603 47.4302 110.629 47.4597 110.658C47.5491 110.746 47.6132 110.85 47.6521 110.969L47.6266 110.88L47.5929 110.8L47.5507 110.727L47.5002 110.663L47.4414 110.607L47.3741 110.56L47.2986 110.521L47.2145 110.489L47.119 110.467Z" fill="#FBCD87"/>
<path d="M20.6416 78.7119V78.7129L20.6491 78.7605C20.8135 78.8669 20.9586 78.9918 21.0844 79.1352C21.2112 79.2788 21.317 79.4372 21.4019 79.6104L21.3418 79.481C21.2998 79.3974 21.2537 79.3185 21.2036 79.2445C21.1535 79.1706 21.0994 79.1015 21.0413 79.0374C20.9261 78.9093 20.7928 78.8008 20.6416 78.7119Z" fill="#FBCD87"/>
<path d="M13.439 95.2283L13.4039 95.2289L13.3688 95.2296L13.2977 95.2335L13.2256 95.2399L13.1524 95.249L13.0782 95.2607C13.0532 95.2655 13.0281 95.2703 13.0031 95.275L12.9269 95.2919L12.8497 95.3113L12.7744 95.3326L12.7753 95.3336C13.0704 95.2702 13.3664 95.2698 13.6634 95.3326C13.6516 95.3013 13.6399 95.27 13.6281 95.2387L13.631 95.2386C13.5699 95.2319 13.5059 95.2284 13.439 95.2283Z" fill="#FBCD87"/>
<path d="M15.1945 24.9999L15.1944 25.0009L15.1942 25V25.001L15.1945 25.0007C15.1947 25.0004 15.1949 25.0002 15.1951 25V25.001L15.1948 25.0004L15.1945 24.9999Z" fill="#FBCD87"/>
<path d="M15.1987 24.9991L15.1983 24.9991L15.1979 25.0001C15.1977 24.9998 15.1974 24.9998 15.1971 25.0001L15.1956 24.9993L15.1953 24.9996L15.195 25V25.001L15.1963 25.0009L15.1975 25.0008L15.1985 24.9998C15.1985 25.0001 15.1986 25.0004 15.1987 25.0007V24.9991Z" fill="#FBCD87"/>
<path d="M15.1786 25.0003L15.1773 25.0004L15.176 25.0004L15.1752 25.0009L15.1743 25.0013L15.1741 25.0004L15.1737 25.0007L15.1734 25.0011C15.1745 25.0014 15.1757 25.0017 15.1768 25.0021C15.1769 25.0017 15.1771 25.0014 15.1772 25.0012L15.1779 25.0007L15.1786 25.0003Z" fill="#FBCD87"/>
<path d="M15.1933 24.9995L15.1929 24.9999L15.1925 25.0004C15.1922 25.0002 15.192 24.9999 15.1917 24.9995L15.1908 24.9996L15.1899 24.9997L15.1882 24.9998L15.1874 25.0008L15.1866 24.9999C15.1858 24.9999 15.1851 24.9999 15.1843 24.9999L15.1833 25.0009C15.1826 25.0003 15.182 25 15.1815 25.0001L15.1807 25.001C15.1802 25.0004 15.1798 25.0001 15.1794 25.0002L15.1788 25.0012L15.1786 25.0003V25.0013V25.0003V25.0013L15.1807 25.0008L15.1828 25.0002C15.1836 25.0005 15.1843 25.0009 15.1851 25.0012L15.1873 25.0007L15.1895 25.0001L15.1906 25.001C15.1909 25.0006 15.1912 25.0003 15.1916 25C15.1919 25.0003 15.1922 25.0006 15.1925 25.001C15.1931 25.0006 15.1937 25.0003 15.1942 25V25.001L15.1933 24.9995Z" fill="#FBCD87"/>
<path d="M15.1998 24.9997L15.1993 24.9998L15.1987 25.0007V25.0017V24.9998V25.0001L15.1998 24.9997Z" fill="#FBCD87"/>
<path d="M15.1727 25.0004L15.1721 25.0009L15.1714 25.0013L15.1723 25.0018L15.1732 25.0023L15.1729 25.0013L15.1727 25.0004Z" fill="#FBCD87"/>
<path d="M15.1708 25.0005L15.1699 25.0015C15.1704 25.0018 15.171 25.0021 15.1714 25.0024L15.1716 25.0023L15.1718 25.0022L15.1724 25.0018C15.1726 25.0017 15.1727 25.0017 15.1728 25.0016L15.173 25.0015L15.1732 25.0014C15.1726 25.0017 15.1719 25.002 15.1713 25.0024C15.1712 25.0018 15.171 25.0011 15.1708 25.0005Z" fill="#FBCD87"/>
<path d="M8.85507 31.6943L8.85461 31.6945C8.85341 31.6951 8.85261 31.6954 8.8522 31.6953L8.84854 31.7104C8.95021 31.7507 9.00656 31.7726 9.01761 31.7762C9.06269 31.7931 9.11826 31.8129 9.18433 31.8356V31.8366C9.06315 31.7896 8.9534 31.7421 8.85507 31.6943Z" fill="#FBCD87"/>
<path d="M78.5193 57.1585C77.7144 57.1915 76.9557 57.3479 76.2432 57.6277C75.2685 58.1174 74.6571 58.5862 74.4091 59.0341C73.7231 60.1284 73.817 61.5749 74.6909 63.3735L78.5193 57.1585Z" fill="#FBCD87" fill-opacity="0.423529"/>
<path d="M77.2763 56.6613C76.5615 57.9233 76.1796 58.7639 76.1306 59.1829C76.0764 59.8273 76.2378 60.3395 76.6149 60.7194C76.9188 60.8863 77.2936 60.7724 77.7393 60.3776C78.581 59.4526 79.0758 58.7129 79.2237 58.1584C79.3918 57.635 79.3665 57.3029 79.1479 57.1619C78.9576 56.9652 78.6082 56.9585 78.0995 57.1419C76.882 57.7124 75.7927 58.5881 74.8317 59.7689C74.0087 60.92 73.6193 61.8297 73.6633 62.4979C73.7195 63.1102 73.807 63.4666 73.9258 63.5669C74.1149 63.8059 74.4197 63.9569 74.8401 64.0199L77.2763 56.6613Z" fill="#FBCD87"/>
<path d="M76.8151 57.0896V57.0906C76.5281 57.1428 76.188 57.2633 75.7949 57.4521C75.5464 57.59 75.3504 57.7233 75.2069 57.852C75.1269 57.9161 74.9698 58.0853 74.7356 58.3596C74.6516 58.4668 74.5813 58.57 74.5248 58.6694C74.4119 58.8684 74.3541 59.052 74.3515 59.2203C74.3387 59.3783 74.38 59.5264 74.4755 59.6646C74.5233 59.7337 74.5846 59.8003 74.6595 59.8645L74.7819 59.9589C74.8703 60.0205 74.9723 60.0797 75.0877 60.1365C75.6638 60.3324 76.1122 60.2997 76.4328 60.0382C76.6802 59.7985 76.8433 59.5897 76.9221 59.4118C77.0231 59.214 77.0843 59.0074 77.1055 58.7921C77.1275 58.4524 77.0983 58.1861 77.0179 57.9933C76.8196 57.6696 76.6292 57.4845 76.4467 57.438L76.8186 57.0896L76.8151 57.0906V57.0896Z" fill="#FBCD87"/>
<path d="M41.5268 88.3898C42.964 89.3519 44.1676 89.9482 45.1378 90.1787C46.6037 90.4842 47.8847 90.7683 48.9807 91.0309L50.9317 91.2499C51.9398 91.1763 52.9587 91.046 53.9883 90.8589L56.0701 90.907C57.465 90.8246 59.3318 90.6461 61.6707 90.3715C62.0576 90.4112 63.1262 89.9625 64.8763 89.0256C65.6204 88.4847 66.0992 88.0894 66.3127 87.8398C67.2104 86.8192 67.5672 86.2605 67.3829 86.1636C67.0923 84.3143 66.0345 83.2014 64.2096 82.825L60.9121 82.0898L59.0973 82.0151C57.1019 82.2093 55.8964 82.3483 55.4808 82.4321C54.0953 82.4687 53.0792 82.5374 52.4326 82.6381L50.6929 83.0036L48.3416 83.8114L41.5268 88.3898Z" fill="#9B6E3A"/>
<path d="M43.7358 68.9792C42.1407 70.8284 40.9742 72.4576 40.2364 73.8669L38.7865 76.879C38.8246 77.0425 38.4825 77.8501 37.7605 79.3018C37.7191 79.4226 37.7154 79.5422 37.7494 79.6609C38.786 80.4391 40.0201 79.8058 41.4517 77.7608C41.5554 77.4959 41.8593 76.9228 42.3632 76.0414L43.0135 74.512L43.6912 71.6957C43.6914 71.7491 43.776 71.1842 43.945 70.0011C43.9649 69.9051 43.9966 69.8307 44.0401 69.778L43.7358 68.9792Z" fill="#FFB95D"/>
<path d="M61.946 68.8784L63.4963 71.9275C64.1834 72.8235 64.6061 73.4108 64.7643 73.6894L66.1411 76.0521L66.9806 77.2208C67.2489 77.7887 67.8757 78.7759 68.8611 80.1823C69.4199 80.5784 69.6931 80.1755 69.6805 78.9736C69.6077 78.5825 69.5622 78.3737 69.544 78.3473L67.8733 73.5477C67.6157 72.8943 67.3815 72.3599 67.1709 71.9443C66.3049 70.2999 65.5917 69.1579 65.0311 68.5182C64.7655 68.2007 64.1616 67.5981 63.2194 66.7104C62.4816 66.0599 61.5947 65.5246 60.5587 65.1044L61.946 68.8784Z" fill="#FFB95D"/>
<path d="M19.4141 55.1089C19.9591 55.5816 21.7512 58.006 24.7902 62.3821C25.5074 63.6854 26.0428 64.9037 26.3963 66.0369C26.6138 66.6922 26.7467 67.653 26.795 68.9193C26.7489 69.6704 26.7436 70.4935 26.7791 71.3888L26.649 74.4303L26.6725 75.7592L26.5696 78.0791C26.0318 80.0951 25.7611 81.8201 25.7575 83.2542L26.233 86.9947C26.1325 87.2123 25.7821 87.1101 25.1819 86.6881C24.8014 86.2119 24.2333 85.1483 23.4776 83.4974L22.0179 78.1187C21.6588 75.8006 21.4421 74.5909 21.3677 74.4896C21.2548 73.7858 21.2038 73.1705 21.2146 72.6436L20.6694 69.9418C20.5876 69.396 20.5556 68.9647 20.5732 68.6477L20.4055 67.85C20.4702 67.7189 20.3729 66.805 20.1133 65.1083C19.7424 64.0063 19.5709 63.1155 19.599 62.436L19.4141 55.1089Z" fill="#FFB95D"/>
<path d="M58.5886 15.2519L60.5699 26.6727C60.8098 27.5321 60.8559 30.8135 60.7082 36.5167C60.9469 38.7058 61.3436 40.4482 61.8984 41.7438C62.2791 42.3866 63.1804 42.8812 64.6026 43.2277C70.2349 43.9953 72.9722 44.4633 72.8142 44.6317C74.1472 45.1798 75.8065 45.9962 77.7921 47.0807L80.8154 48.0558C82.4607 48.0171 83.6476 46.7498 84.376 44.2541C85.0837 42.7119 85.01 39.8175 84.1548 35.5708L81.3484 27.5062L80.0009 24.6998C78.6863 22.2681 76.2151 19.8323 72.5872 17.3925L58.5886 15.2519Z" fill="#FBB669"/>
<path d="M54.4248 56.4908L54.4516 56.6229C54.513 57.0792 54.5157 57.5717 54.4594 58.1005C54.4467 58.2309 54.3328 58.8416 54.1177 59.9326L54.0283 60.8766C54.0282 60.9803 54.0769 61.4216 54.1745 62.2007C54.2693 62.6216 54.3883 63.0464 54.5316 63.4749C55.008 64.3054 55.4913 65.2478 55.9816 66.3023L56.4398 66.9943C56.6162 67.2379 56.7593 67.4019 56.869 67.4863L56.9438 67.5324L57.4506 67.6594C57.8133 67.7176 58.3915 67.6612 59.1852 67.4902C59.8284 67.2874 60.2473 67.0846 60.442 66.8818C60.8192 66.4128 60.9744 66.0299 60.9075 65.733C60.897 65.6123 60.8308 65.4173 60.7091 65.1477C60.1562 64.2251 59.737 63.4616 59.4517 62.8573C58.9 62.2607 58.5227 61.8111 58.3197 61.5084L58.2157 61.3305L57.7523 60.3707C57.4121 60.005 57.0697 59.6591 56.725 59.333C56.4608 58.8781 56.2623 58.5727 56.1295 58.4169C55.6553 57.9478 55.2607 57.5932 54.9456 57.3531L54.4248 56.4908Z" fill="#FFBA6D"/>
<path d="M43.3305 52.422L43.39 52.4438C43.6963 52.5565 44.0777 52.6995 44.5341 52.873L44.6148 52.89C44.103 52.6744 43.7516 52.5318 43.5606 52.4623C43.4611 52.4425 43.3844 52.429 43.3305 52.422Z" fill="#B6B2B0"/>
<path d="M43.9569 57.274L43.9903 57.3246C44.0804 57.4599 44.1807 57.5957 44.2912 57.7319L44.2895 57.6744L44.2927 57.6743C44.2379 57.6056 44.1704 57.5233 44.0901 57.4277C44.0785 57.4135 44.0352 57.3623 43.9601 57.274L43.9569 57.275V57.274Z" fill="#B6B2B0"/>
<path d="M40.3775 60.4406L40.3842 60.4413C40.4341 60.447 40.4852 60.46 40.5373 60.4803C40.5597 60.4892 40.5815 60.4993 40.6027 60.5107C40.6132 60.5163 40.6236 60.5223 40.6339 60.5286C40.6392 60.5314 40.6541 60.5415 40.6787 60.559L40.6816 60.5599L40.6502 60.5355L40.6183 60.5146L40.5858 60.4963L40.5529 60.4806L40.5195 60.4674C40.5081 60.4639 40.4968 60.4604 40.4855 60.4568C40.474 60.4542 40.4625 60.4516 40.451 60.4489L40.416 60.4434L40.3775 60.4406Z" fill="#B6B2B0"/>
<path d="M36.9667 54.2836L36.5069 54.4064C35.0351 54.7755 34.2314 54.9423 34.0959 54.9067L33.7863 55.2121L32.4671 56.1874L32.2531 56.4335L31.445 57.4306C31.4165 57.9212 31.4501 58.3675 31.5458 58.7694L32.1235 59.4865C32.5814 59.559 33.5591 59.8096 35.0566 60.2382L35.8224 60.6678C35.9827 60.5011 36.4808 60.3801 37.3167 60.3052C38.1096 60.2613 39.1198 60.3053 40.3474 60.4371L41.0887 60.2879C41.2385 60.2797 41.3813 60.3125 41.5172 60.3863C41.712 60.2776 41.8753 60.2401 42.0071 60.2739L42.3181 60.0231C42.3989 59.8332 42.5669 59.6041 42.8221 59.3357C43.059 59.0904 43.2853 58.8788 43.5009 58.7007C43.1067 58.2421 42.7677 57.7433 42.484 57.2043C42.365 56.9554 42.2591 56.5015 42.1663 55.8425C41.3996 55.8536 40.7656 55.8009 40.2643 55.6843C39.1822 55.2931 38.4406 54.901 38.0393 54.5081C37.4289 54.4827 37.0714 54.4079 36.9667 54.2836Z" fill="#B6B2B0"/>
<path d="M74.4294 53.0139L74.4639 53.0792C74.5539 53.2527 74.6281 53.4214 74.6864 53.5851L75.1229 53.8829L75.0575 53.7769L74.9893 53.6724L74.9183 53.5706C74.87 53.5036 74.8198 53.4383 74.7678 53.3746C74.7157 53.3111 74.6618 53.2492 74.606 53.1891C74.5513 53.1289 74.4924 53.0705 74.4294 53.0139Z" fill="#B6B2B0"/>
<path d="M67.7403 53.2922L67.502 53.3246C66.7947 53.4178 66.2781 53.534 65.9523 53.6733C65.7684 53.6385 65.6257 53.5706 65.5244 53.4694L62.6528 54.5222C62.3618 54.7221 62.2059 54.8109 62.185 54.7888L61.1049 55.9301L61.2015 57.5036L61.1964 57.8962C61.8355 58.1709 62.42 58.4607 62.95 58.7653C63.08 58.6158 63.2965 58.5493 63.5993 58.5659C63.9349 58.7914 64.0932 58.9551 64.0742 59.057C64.1767 59.012 64.3062 59.0075 64.463 59.0436L67.1907 59.9276C67.4963 59.6389 67.6995 59.5083 67.8001 59.5357C67.9617 59.5219 68.1445 59.5902 68.3487 59.7406C68.5003 59.7148 68.6745 59.7063 68.8711 59.7153L69.461 59.8673C69.767 59.6924 70.2321 59.3736 70.8563 58.9109L72.3714 57.5234C72.3917 57.1058 72.4259 56.7618 72.474 56.4913C72.2361 56.0789 72.0912 55.7633 72.0392 55.5443C70.6817 54.6894 69.9814 54.1673 69.9383 53.9777C69.872 53.9653 69.7429 53.9175 69.551 53.8344C69.3072 53.7926 69.0424 53.7639 68.7565 53.7482C68.684 53.7451 68.5835 53.6912 68.4552 53.5867C68.2937 53.5977 68.1645 53.5869 68.0677 53.5544C67.9299 53.4986 67.8208 53.4112 67.7403 53.2922Z" fill="#B6B2B0"/>
<path d="M72.7297 56.8878V56.8888C72.7233 56.8924 72.7125 56.899 72.6974 56.9087C72.6975 56.9084 72.6888 56.9144 72.6715 56.9265C72.6748 56.9244 72.678 56.9222 72.6812 56.92L72.6911 56.9139C72.7011 56.9079 72.7113 56.9021 72.7216 56.8965L72.7319 56.8911C72.7331 56.8914 72.7342 56.8918 72.7354 56.892C72.7345 56.8899 72.7338 56.8885 72.7332 56.8878L72.7297 56.8888V56.8878Z" fill="#B6B2B0"/>
<path d="M72.4786 57.125L72.467 57.145C72.4373 57.1986 72.4173 57.2562 72.407 57.3177C72.4094 57.3063 72.4121 57.2949 72.4151 57.2835C72.4231 57.2555 72.4282 57.2389 72.4307 57.2338L72.4367 57.2175C72.4409 57.2068 72.4454 57.1962 72.4502 57.1857C72.4597 57.1649 72.4704 57.1447 72.4821 57.125L72.4786 57.126V57.125Z" fill="#B6B2B0"/>
<path d="M18.2892 20.7101L18.0968 21.0598C16.7219 23.6807 15.8433 25.7082 15.461 27.1422L14.5114 30.2185C14.3734 30.9504 14.2903 31.8371 14.2621 32.8787C14.224 34.0695 14.221 35.7137 14.253 37.8113C14.3204 39.7714 14.4761 42.2583 14.7201 45.2719L14.8689 50.2301C14.874 51.0173 14.8677 51.9036 14.8502 52.889C15.5673 52.8737 16.2402 52.8874 16.8691 52.9301L22.179 32.9225C20.7023 31.9729 19.6603 30.6117 19.0532 28.8389C18.668 27.5896 18.4641 26.4622 18.4415 25.4568C18.3528 24.3086 18.4556 23.1945 18.7499 22.1143L18.2892 20.7101Z" fill="black"/>
<path d="M17.0491 50.4658L16.6034 51.6803L16.1577 52.8949C16.4015 52.9031 16.5972 52.9123 16.7448 52.9224C16.779 52.6091 16.8805 51.7902 17.0491 50.4658Z" fill="black"/>
<path d="M19.1431 44.7599L17.8784 48.206C17.9506 47.8626 17.9864 47.614 17.986 47.46C17.9883 47.3982 17.9238 47.3757 17.7926 47.3925C17.7149 47.4216 17.6419 47.502 17.5738 47.6337C17.4579 47.8999 17.3802 48.1451 17.3409 48.3694C17.238 49.0906 17.1423 49.7853 17.0537 50.4533L17.8747 48.2244L17.8267 48.4484C17.627 49.0331 17.4762 49.5026 17.3745 49.8571C17.3376 49.9694 17.2607 50.2786 17.1437 50.7844C17.0721 51.104 17.0108 51.4201 16.9597 51.7327C16.9094 52.1936 16.8641 52.5915 16.8239 52.9265C17.3457 52.9597 17.8438 53.0108 18.3184 53.0798L19.0155 53.1976L19.3529 53.2792L19.1196 53.2198L19.6039 53.3328C19.5258 52.3905 19.4735 51.6513 19.4471 51.1151C19.4333 50.0155 19.4359 48.7952 19.455 47.4541C19.4498 47.134 19.4413 46.8707 19.4296 46.6641C19.3613 45.6812 19.2658 45.0464 19.1431 44.7599Z" fill="black"/>
<path d="M79.5283 21.4512L79.4052 21.7266C79.064 22.4614 78.6178 23.2 78.0666 23.9423L81.4943 25.579L81.5246 25.3076L81.4927 24.9895L81.3989 24.6245L81.2429 24.2127L81.0248 23.754C80.6939 23.1113 80.195 22.3436 79.5283 21.4512Z" fill="black"/>
<path d="M77.4747 24.6926L77.3398 24.8524C76.3696 25.953 75.6417 26.6636 75.1561 26.9838C75.5121 27.2144 75.8054 27.4352 76.036 27.6462C76.2791 27.8688 76.5026 28.1521 76.7065 28.4962C76.7028 28.4166 76.7361 28.4236 76.8064 28.5171C76.9821 28.7433 77.5507 29.9959 78.5123 32.2748C79.5492 34.767 80.3996 36.8959 81.0635 38.6617C81.1733 39.0647 81.2392 39.357 81.2612 39.5387C81.3043 41.3278 81.3708 42.466 81.4607 42.9534L83.5982 46.0394C83.8715 47.2627 84.3818 48.8927 85.1292 50.9292L86.2923 49.9213C85.5909 48.6942 85.2483 47.7739 85.2645 47.1605C85.3152 46.3379 85.3854 45.6619 85.475 45.1328C86.1163 42.6398 86.4559 41.2824 86.4937 41.0608C86.5306 40.9867 86.5749 40.6313 86.6265 39.9947C86.6869 38.8363 86.68 37.8875 86.606 37.1482L86.0609 34.5587C85.4856 33.1172 84.5593 31.3482 83.282 29.2517C82.149 27.4961 81.1179 26.0479 80.1886 24.9069L77.4747 24.6926Z" fill="black"/>
<path d="M88.1714 53.7558L88.1458 53.8062L88.1201 53.8566L88.1751 53.7741L88.1788 53.7751L88.175 53.7558L88.1714 53.7568V53.7558Z" fill="black"/>
<path d="M78.6832 23.0446L78.5194 23.2978C78.0718 23.9735 77.5366 24.6523 76.9139 25.334C78.4113 26.9402 79.5758 28.3251 80.4075 29.4888C80.7186 29.9271 81.3117 31.017 82.1869 32.7582C82.5343 33.3166 82.8513 33.7489 83.1378 34.0551C83.5457 34.4897 84.3611 34.8924 85.5843 35.2631L86.3181 35.951L86.3467 35.9423L85.3792 31.1807C85.3659 31.0914 85.3712 31.0107 85.395 30.9384C85.2579 30.7966 85.1379 30.664 85.0348 30.5408L84.2372 29.1944C83.6992 28.1929 83.1749 27.1507 82.6644 26.0679L82.4814 25.7538C82.1088 25.1383 81.7079 24.4962 81.2787 23.8276L78.6832 23.0446Z" fill="black"/>
<path d="M78.2961 23.6247V23.6258C78.253 23.6931 78.1025 23.896 77.8447 24.2344C77.7391 24.3699 77.6301 24.5056 77.5175 24.6413C77.2924 24.9128 77.0533 25.1849 76.8003 25.4574C77.0068 25.4899 77.158 25.4862 77.2539 25.4462C77.3941 25.3978 77.5485 25.2813 77.7171 25.097C77.8755 24.8831 78.0073 24.6485 78.1125 24.3931C78.1624 24.2692 78.2029 24.1437 78.234 24.0168C78.2597 23.9055 78.2755 23.8255 78.2814 23.777L78.2993 23.6314C78.3009 23.6247 78.2998 23.6225 78.2961 23.6247Z" fill="black"/>
<path d="M85.678 51.1667L85.6932 51.3611L85.7084 51.5555V51.5565C85.7074 51.5287 85.7067 51.5122 85.7065 51.5068L85.705 51.4742C85.7039 51.4525 85.7028 51.4311 85.7015 51.41L85.7006 51.3898C85.6984 51.3529 85.6969 51.3294 85.6959 51.3193C85.6943 51.2957 85.6896 51.2449 85.6816 51.1667L85.678 51.1677V51.1667Z" fill="black"/>
<path d="M85.7096 51.6174L85.7114 51.7105C85.7172 51.9661 85.7221 52.1276 85.7262 52.195C85.7713 52.9576 85.8079 53.6178 85.836 54.1758C85.8442 54.3418 85.8514 54.6171 85.8576 55.0015C85.861 55.0974 85.8661 55.1899 85.873 55.2791L85.9223 55.7712C85.9342 55.9167 85.9431 56.0606 85.9491 56.2027C85.9563 56.2833 85.9614 56.3338 85.9646 56.3543C85.9738 56.4192 85.9842 56.4753 85.9958 56.5226L86.1414 57.0911L85.7132 51.6174L85.7096 51.6183V51.6174Z" fill="black"/>
<path d="M86.4668 50.8123C86.9966 51.2662 87.2996 52.3369 87.3759 54.0243C87.391 54.4517 87.2731 55.4248 87.0221 56.9435C86.8537 57.6848 86.7547 58.0804 86.7252 58.1303L86.0552 59.319C86.0067 59.4472 86.0435 59.5947 86.1655 59.7616C86.1714 59.8183 86.1613 59.8787 86.1352 59.9429C86.0577 60.2931 85.7418 60.2216 85.1874 59.7283C84.2026 58.654 83.6866 57.8914 83.6391 57.4404C83.5389 56.9831 83.4926 56.6865 83.4999 56.5506L83.6389 55.8566C83.6862 55.1687 83.7343 54.7474 83.7833 54.5925L83.7863 53.7877C83.7343 53.4362 83.7103 53.078 83.714 52.7131L83.4244 51.1817C83.3066 49.9098 83.2834 49.1173 83.3549 48.8042C83.3621 48.8236 83.3424 48.6655 83.2957 48.3301C83.2621 48.1267 83.088 47.8364 82.7734 47.4592L81.1095 45.8144C80.7585 45.2007 80.6098 44.552 80.6634 43.8682C80.5964 43.1235 80.8381 42.3566 81.3884 41.5673C81.4939 41.4212 81.5951 41.3128 81.692 41.2422C82.1699 41.0973 82.7972 40.6778 83.5738 39.9836L86.4668 50.8123Z" fill="black"/>
<path d="M50.7907 76.2924L50.7484 76.428C50.7213 76.5197 50.6963 76.6139 50.6736 76.7108C50.6508 76.8076 50.6303 76.9069 50.6119 77.0088L50.586 77.1636C50.5369 77.4825 50.5086 77.8134 50.5011 78.1561C50.5333 77.9983 50.5612 77.853 50.5847 77.7202L50.6211 77.5128C50.6446 77.375 50.6667 77.2378 50.6874 77.1014C50.7081 76.9651 50.7273 76.8295 50.7451 76.6947C50.7628 76.5598 50.7791 76.4258 50.794 76.2924L50.7907 76.2934V76.2924ZM48.1619 79.7991L48.1749 79.8229L48.1848 79.8438L48.1917 79.8619L48.1954 79.8772L48.196 79.8898L48.1936 79.8995L48.1881 79.9066L48.1796 79.9107L48.168 79.9121L48.0868 79.9893L48.1587 79.7991L48.1619 79.8V79.7991ZM50.5525 76.7549L50.0454 77.4941C49.8722 78.0521 49.3325 79.1048 48.4262 80.6522C48.7083 79.7268 48.9156 78.9278 49.0479 78.2554C48.606 78.739 48.31 79.2528 48.16 79.7967C48.1283 79.7439 48.0928 79.6924 48.0537 79.6421C47.866 79.8978 47.7395 80.0806 47.6743 80.1905C47.582 80.3366 47.4968 80.4835 47.4186 80.6311L48.0868 79.9903C47.3326 81.4092 46.8983 82.3233 46.7841 82.7326C46.7903 82.1863 47.0007 81.4876 47.4152 80.6365L45.1552 82.8003C44.7991 83.082 44.3448 83.3847 43.7922 83.7087C43.4641 83.8637 43.4536 83.7202 43.7608 83.278C44.038 82.9076 44.233 82.6667 44.3459 82.555C45.0684 81.9995 45.4673 81.6671 45.5425 81.5576C45.5991 81.4971 45.6379 81.4462 45.6589 81.405L45.2483 81.6698C44.9469 81.8507 43.6492 82.9777 41.3551 85.0509C41.3125 85.0752 41.3019 85.0623 41.3234 85.0122L42.0857 83.6262C42.1351 83.5343 42.1566 83.446 42.1502 83.3615C41.8843 83.3624 41.5584 83.5214 41.1724 83.8384C41.0885 83.9169 41.0072 84.0047 40.9284 84.1021L39.8649 85.4785L39.7573 85.6786C39.5416 86.2495 39.44 86.9758 39.4524 87.8575C39.4301 88.2595 39.5568 88.8854 39.8326 89.7352L50.3287 84.4817C50.3567 84.1137 50.4171 83.7938 50.5101 83.5219L50.5557 80.9492L50.6544 80.3377C50.5268 79.3756 50.4756 78.6522 50.5008 78.1674C50.419 78.4037 50.2232 78.7812 49.9136 79.3001C49.8287 79.4304 49.7857 79.3561 49.7848 79.0773C49.827 78.5275 49.8702 78.2533 49.9145 78.2547C50.0947 77.7143 50.3074 77.2143 50.5525 76.7549Z" fill="black"/>
<path d="M60.5414 79.0415L60.5453 79.0479L60.5769 79.0995L60.6091 79.1423V79.1432L60.5448 79.0415L60.5414 79.0425V79.0415Z" fill="black"/>
<path d="M67.8102 81.0328L67.8085 81.0338C67.8041 81.0335 67.8005 81.0343 67.7977 81.0365L68.4954 81.8042C68.5496 81.901 68.6431 82.0525 68.7761 82.2584C68.7169 82.1345 68.6451 82.0045 68.5606 81.8684C68.404 81.6262 68.2785 81.4467 68.1843 81.33C68.0939 81.2419 68.019 81.1734 67.9597 81.1245C67.8924 81.072 67.8566 81.0463 67.8525 81.0474C67.8345 81.0378 67.8204 81.0329 67.8102 81.0328Z" fill="black"/>
<path d="M58.0453 78.213L58.0862 78.2468C58.297 78.4193 58.5239 78.6249 58.7668 78.8637C58.6545 78.8347 58.468 78.7714 58.2071 78.6739C58.3696 79.1076 58.5147 79.4492 58.6425 79.6989C58.4089 79.4087 58.0538 78.9921 57.5772 78.4492C57.5784 78.4373 57.5535 78.3853 57.5022 78.2931C57.7369 78.4488 57.9715 78.5744 58.206 78.6697L58.0608 78.2666C58.0546 78.2487 58.0483 78.2309 58.042 78.213C58.0453 78.2143 58.0464 78.2143 58.0453 78.213ZM58.8883 77.2565L58.8449 77.2921C58.8465 77.7641 59.1199 78.5957 59.6652 79.787L58.1284 77.8513C58.061 77.8717 57.9947 77.8823 57.9295 77.8833L58.0407 78.2103C57.668 77.9064 57.2849 77.6394 56.8913 77.4092L57.4978 78.2855C57.2956 78.1785 57.0403 77.9155 56.7318 77.4966L57.2441 80.0588C57.0816 79.9372 56.8918 79.7292 56.6746 79.4347C56.1404 78.4648 55.822 77.9138 55.7196 77.7818C55.5399 77.5062 55.417 77.3634 55.3511 77.3536C55.309 77.7909 55.3397 78.2372 55.4431 78.6929C55.5393 79.112 55.7952 79.8782 56.2108 80.9914C56.1949 81.4187 56.2113 81.6818 56.26 81.7806L70.2465 87.9802C70.2726 85.6306 70.158 84.2498 69.9025 83.8379C69.4333 83.2113 69.0655 82.6959 68.7989 82.2918C68.9205 82.591 68.9778 82.8009 68.9707 82.9213C68.8207 82.8283 68.4856 82.4802 67.9654 81.877C67.6258 81.4535 67.111 80.6626 66.4211 79.5042C66.2428 79.5772 66.1471 79.7435 66.134 80.0031C65.6353 79.6446 65.2825 79.4431 65.0758 79.3987L66.3193 81.5934L64.428 79.4393C64.0309 79.0423 63.7527 78.8439 63.5934 78.8439C63.5226 79.1744 64.0474 80.1311 65.1677 81.7139C64.1896 80.901 63.2063 79.7546 62.2178 78.2747C62.0741 78.3237 62.1156 78.5796 62.3422 79.0425C61.7558 78.598 61.3628 78.3325 61.1629 78.2461C61.9231 79.1131 62.4896 79.7027 62.8625 80.015L62.3521 79.0545C62.5213 79.1749 62.8374 79.4439 63.3005 79.8617C63.5296 80.2734 63.3868 80.3284 62.8723 80.0266C63.0797 80.4159 63.3016 80.786 63.5381 81.1368C62.2228 79.7027 61.3742 78.6866 60.9922 78.0883C60.8358 77.9626 60.7203 77.9015 60.6456 77.9051C61.3674 79.3978 61.705 80.2469 61.6584 80.4525C61.6117 80.4424 61.2761 80.0246 60.6518 79.199L61.0645 79.8627C59.734 78.185 59.0085 77.3163 58.8883 77.2565Z" fill="black"/>
<path d="M59.7476 77.8288L59.7474 77.8298C59.7437 77.8326 59.7521 77.8519 59.7726 77.8875C59.7765 77.8889 59.7837 77.8947 59.7941 77.9047C59.8094 77.9211 59.8241 77.9379 59.8382 77.9553C59.8578 77.9808 59.8739 78.0023 59.8866 78.02C59.9183 78.0639 59.9365 78.09 59.9411 78.0981L59.797 77.8705C59.7873 77.8597 59.7759 77.8485 59.7626 77.837C59.7558 77.8316 59.7507 77.8289 59.7476 77.8288Z" fill="black"/>
<path d="M59.9488 78.1092L59.9491 78.1097L59.9494 78.1102C59.9494 78.1098 59.9494 78.1095 59.9494 78.1092L59.9488 78.1102V78.1092Z" fill="black"/>
<path d="M60.0079 78.2008L60.2117 78.52L60.4155 78.8391L60.4169 78.84L60.3102 78.668L60.168 78.4421C60.1095 78.3503 60.0572 78.2699 60.0113 78.2008L60.0079 78.2018V78.2008Z" fill="black"/>
<path d="M53.4522 76.3884L53.479 76.7115C53.5006 77.097 53.4821 77.4439 53.4236 77.7523C53.3944 77.9066 53.3551 78.0512 53.3059 78.1861C53.1653 78.5067 53.0689 78.6875 53.0168 78.7285C52.4696 77.7257 52.1455 77.2062 52.0447 77.1701C52.0062 77.154 51.9815 77.1651 51.9708 77.2033C51.9551 77.6774 51.9174 78.022 51.8577 78.2373C51.749 78.6412 51.6409 78.9046 51.5334 79.0273C51.4771 79.0348 51.4378 79.0077 51.4155 78.946C51.2481 78.4223 51.1025 77.983 50.9789 77.628C50.9125 77.438 50.868 77.3293 50.8453 77.302C50.824 77.2735 50.7987 77.2781 50.7694 77.3158C50.6745 77.474 50.5948 77.6208 50.5303 77.7563C50.4107 78.1123 50.3429 78.4851 50.3267 78.8748L50.4784 80.1965C50.4577 80.1513 50.4213 81.2181 50.3689 83.3969L57.0454 82.5681L56.8315 81.7175C56.5187 81.4699 56.2086 81.1468 55.9013 80.7481C55.6816 80.4181 55.4907 80.07 55.3287 79.704C55.2423 79.0258 55.2463 78.3168 55.3405 77.5768L55.7706 78.2875L55.7829 78.2695C55.8194 78.2583 55.7419 77.9479 55.5502 77.338C55.4502 77.2573 55.3806 77.3358 55.3412 77.5736C55.0075 77.0394 54.8355 76.7988 54.8252 76.8517L54.8008 78.0822C54.7776 78.1882 54.7397 78.2263 54.687 78.1965C54.1679 77.6827 53.7564 77.0801 53.4522 76.3884Z" fill="black"/>
<path d="M59.746 82.2313L58.3958 82.3995L57.0456 82.5676C57.0948 82.7974 57.1218 82.947 57.1265 83.0164C57.1379 83.1194 57.1406 83.2091 57.1346 83.2857L57.5297 83.7608C57.5794 83.7967 57.6402 83.8125 57.7121 83.808C57.8216 83.7906 57.9269 83.6961 58.0281 83.5244C58.0874 83.4213 58.1882 83.1571 58.3305 82.7318C58.3597 82.6756 58.3909 82.6357 58.424 82.6121C58.5796 82.5167 58.69 82.4708 58.7551 82.4745C58.9767 82.5254 59.1982 82.5763 59.4197 82.6273C59.4405 82.6302 59.4928 82.5829 59.5765 82.4854L59.6577 82.374L59.7494 82.2313L59.746 82.2322V82.2313Z" fill="black"/>
<path d="M55.0221 78.5215L55.011 78.5443C55.0064 78.5522 54.9962 78.5747 54.9807 78.6118C54.9752 78.6263 54.9698 78.6408 54.9644 78.6554L54.951 78.6979L54.9406 78.7393L54.9331 78.7798L54.9286 78.8192C54.9281 78.832 54.9276 78.8447 54.927 78.8575C54.9275 78.8702 54.9279 78.883 54.9284 78.8957C54.9481 78.8133 54.9635 78.7505 54.9746 78.7075C55.0033 78.5986 55.0202 78.5366 55.0255 78.5215L55.0221 78.5225V78.5215Z" fill="black"/>
<path d="M55.3979 78.1892L55.3896 78.1893C55.2028 78.1712 55.0842 78.2708 55.0338 78.4879C55.0861 78.3781 55.2613 78.7751 55.5594 79.6787C55.4758 79.6089 55.384 79.5156 55.284 79.3986L55.2153 79.3653C55.1398 79.3522 55.0727 79.404 55.0139 79.5208C55.0095 79.4757 54.9813 79.2704 54.9293 78.9049C54.892 79.0054 54.8737 79.1563 54.8744 79.3576C54.8882 79.9319 54.9213 80.3605 54.9737 80.6433C54.9778 80.6705 55.0055 80.7024 55.0567 80.7388C55.1177 80.7517 55.1776 80.7608 55.2364 80.7662L55.3677 82.6118C55.3837 82.5871 55.3946 82.4955 55.4003 82.3372C55.4067 82.0143 55.4057 81.7122 55.3974 81.4307L55.2689 80.7693C55.5185 80.7962 55.7696 80.7289 56.0222 80.5673C56.1761 80.459 56.3413 80.2506 56.5176 79.9421C56.3242 79.9773 56.0953 79.9408 55.8308 79.8325C55.7374 79.5454 55.6081 79.1734 55.4429 78.7167C55.4235 78.5804 55.4352 78.4959 55.478 78.463C55.6242 78.4214 55.8306 78.5638 56.0974 78.8901L56.5283 79.9249L56.6621 79.6852L56.7804 79.8605C56.7384 79.8787 56.6562 79.9045 56.5336 79.9379L56.5281 79.9263L56.5185 79.9415L56.534 79.9386C56.5325 79.9713 56.6592 80.2289 56.9141 80.7112C57.0544 80.9668 57.1365 81.1023 57.1602 81.1176C57.2478 81.2032 57.347 81.1831 57.4579 81.0574C57.5308 80.973 57.5671 80.8458 57.5669 80.6754C57.5378 80.3668 57.4239 79.9933 57.2252 79.5552C57.1315 79.6638 57.009 79.7544 56.8578 79.8268L56.6969 79.616L56.9481 79.1098C57.053 79.245 57.1449 79.3929 57.2239 79.5535L57.276 79.482C57.3518 79.3559 57.3926 79.2429 57.3982 79.1431C57.4049 78.9611 57.4036 78.848 57.3943 78.8039C57.3856 78.7654 57.3585 78.7166 57.3129 78.6576C57.2151 78.57 57.1442 78.5567 57.1002 78.6174C57.0954 78.6225 57.0888 78.6354 57.0804 78.6562C57.0552 78.7689 57.025 78.8874 56.9899 79.0115C56.9717 79.0715 56.9582 79.1037 56.9494 79.1082C56.7191 78.8171 56.4746 78.6013 56.216 78.4608C55.8564 78.2802 55.5837 78.1897 55.3979 78.1892ZM55.1126 80.016L55.1162 80.02C55.1344 80.0407 55.1569 80.0637 55.1837 80.0889L55.2119 80.476L55.1496 80.1553L55.1093 80.016L55.1126 80.017V80.016Z" fill="black"/>
<path d="M75.4245 79.2028C75.4245 79.0729 75.4341 78.9335 75.4533 78.7845C75.4629 78.7101 75.475 78.6332 75.4894 78.5538L75.5128 78.4331C75.5296 78.3513 75.5489 78.2672 75.5705 78.1807L75.4245 79.2028Z" fill="black"/>
<path d="M52.8216 78.434L52.7431 78.442C51.0397 79.0193 50.0732 79.6094 49.8434 80.2125C49.7319 80.4152 49.7213 80.5259 49.8117 80.5445C49.9 80.5808 50.2235 80.599 50.7823 80.5992C51.1911 80.6638 51.3937 80.7229 51.3901 80.7766C51.7166 80.9768 51.9041 81.2119 51.9527 81.4819C50.692 82.5764 49.9641 83.2673 49.769 83.5546C49.2841 84.4311 49.1226 84.947 49.2843 85.1022L51.4884 84.2118C52.1267 84.0783 52.7201 83.982 53.2684 83.923L54.9811 83.8361C55.5248 83.8886 56.1038 83.906 56.718 83.8885L58.8568 83.7413L59.1959 83.7504C59.8388 83.7692 60.2702 83.7916 60.4901 83.8176C61.1762 83.936 61.8136 84.0559 62.4021 84.1776L52.8518 78.5839C52.9265 78.4957 52.9164 78.4458 52.8216 78.434Z" fill="black"/>
<path d="M62.404 84.1778L68.6618 87.8425C68.5817 87.5986 68.3172 87.2844 67.8683 86.8998C67.6438 86.7075 67.3733 86.4976 67.0566 86.2701C66.9559 86.1783 66.3773 85.7976 65.3206 85.1276L63.1783 84.3483L62.404 84.1778Z" fill="black"/>
<path d="M43.9531 84.6939C44.1997 83.2417 44.6507 81.9755 45.306 80.8954C45.5874 80.4082 45.72 80.3797 45.7038 80.8099L45.0785 82.583C45.0022 82.8166 44.9692 82.9554 44.9795 82.9996C44.9497 82.9806 45.2362 82.3853 45.8389 81.2137C45.9176 81.0461 46.0516 80.7366 46.2408 80.2853C46.4392 79.9872 46.5811 79.8197 46.6662 79.7828C46.7124 79.7503 46.7111 79.8218 46.6624 79.9971C46.0916 81.4934 45.7911 82.3558 45.761 82.5841C45.7563 82.655 45.9852 82.3584 46.4479 81.6942C47.0647 80.7078 47.446 80.0741 47.5917 79.7932C47.7347 79.5738 47.8157 79.4765 47.8348 79.5012C47.8827 79.4973 47.8641 79.6085 47.779 79.8348C47.573 80.3567 47.3703 80.8314 47.171 81.2589L47.0497 81.8963C47.0362 81.973 47.0373 82.0248 47.0531 82.0519C47.072 82.0862 47.1119 82.1104 47.1727 82.1242C47.8526 82.2005 48.4025 82.31 48.8224 82.4526L49.5546 82.5331L43.9531 84.6939Z" fill="black"/>
<path d="M44.7534 81.4013L44.7518 81.4018L44.1045 82.0922C43.9634 82.2881 43.8816 82.4076 43.859 82.4508C43.9353 82.0686 43.9722 81.7961 43.9698 81.6333C43.9449 81.569 43.8684 81.6103 43.7401 81.757L43.6812 81.8335L43.3974 82.2766C43.2005 82.5396 42.9997 82.8218 42.7949 83.1234C42.5454 83.4924 42.3816 83.7458 42.3035 83.8836C41.8446 84.6352 41.5838 85.1398 41.5211 85.3975L44.9191 84.2476C44.7208 84.1613 44.6128 84.1046 44.5949 84.0775C44.5365 84.0334 44.4871 83.9852 44.4469 83.9328C44.3664 83.8281 44.3221 83.7067 44.3142 83.5687C44.3093 83.42 44.3208 83.2773 44.3488 83.1405C44.6789 81.9735 44.8138 81.3938 44.7534 81.4013Z" fill="black"/>
<path d="M48.9601 50.7781L48.947 50.813L48.9311 50.8639L48.9186 50.9143C48.9156 50.931 48.9126 50.9476 48.9095 50.9642C48.9076 50.9807 48.9058 50.9972 48.9039 51.0137L48.9438 51.0111C48.9447 50.9947 48.9459 50.9784 48.9475 50.9622C48.9491 50.9459 48.9511 50.9298 48.9535 50.9138L48.9573 50.8899L48.9617 50.8661C48.9649 50.8503 48.9684 50.8345 48.9722 50.8189L48.9783 50.7955L48.9816 50.7965C48.9769 50.7914 48.9708 50.7852 48.9634 50.7781L48.9601 50.7791V50.7781Z" fill="black"/>
<path d="M46.7395 50.1826L46.5605 50.1855C46.2749 50.1688 45.8398 50.2483 45.2554 50.4239L45.7065 53.8182C46.3176 54.0107 46.7165 54.1552 46.903 54.2516C47.1413 54.0914 47.411 54.0029 47.7123 53.9861C47.7502 53.9837 47.7888 53.9852 47.828 53.9904C48.2613 54.075 48.6279 54.1351 48.9278 54.1708C49.1739 53.5211 49.3746 53.0502 49.5298 52.7582C49.4886 52.5618 49.3341 52.1568 49.0662 51.5431L48.2737 50.9485C48.004 50.6976 47.8478 50.4739 47.8051 50.2776C47.6057 50.2204 47.2505 50.1888 46.7395 50.1826Z" fill="black"/>
<path d="M48.9033 51.0221L48.9025 51.0482L48.9017 51.0743C48.9025 51.0915 48.9033 51.1087 48.904 51.1259C48.9061 51.143 48.9081 51.1601 48.9102 51.1771L48.9204 51.2276L48.9344 51.2776L48.9524 51.3271L48.9743 51.376C48.9829 51.3921 48.9915 51.4082 49.0001 51.4244L49.0298 51.4722C48.9981 51.4007 48.9751 51.3274 48.9607 51.2524C48.9559 51.2275 48.9521 51.2025 48.9492 51.1774C48.948 51.1648 48.9468 51.1522 48.9455 51.1396C48.9436 51.1146 48.9426 51.0894 48.9426 51.0642C48.9427 51.0516 48.9429 51.0391 48.9431 51.0265L48.9464 51.0264L48.9033 51.0221Z" fill="black"/>
<path d="M37.4592 48.4844L37.4389 48.4844L36.7672 48.5281L36.0232 48.6901L34.6312 49.0938C34.4374 49.1735 34.3003 49.2434 34.2201 49.3035L34.2365 50.9927C34.2652 51.183 34.2862 51.285 34.2996 51.2988C34.3142 51.3283 34.3598 51.3441 34.4363 51.3464L48.0168 50.6729C47.5123 50.5064 46.9969 50.3106 46.4707 50.0854C46.1369 50.0157 45.6339 49.8895 44.9615 49.7067C44.325 49.5315 43.5085 49.2875 42.5119 48.9748C42.303 48.9354 41.9486 48.9029 41.4488 48.8774C41.2263 48.8469 41.0024 48.8094 40.7769 48.7649L40.5294 48.7722L39.4502 48.6403L38.6149 48.5882C38.5201 48.5755 38.3947 48.5521 38.2386 48.5181C38.0083 48.5008 37.7485 48.4896 37.4592 48.4844Z" fill="black"/>
<path d="M47.3704 50.3443L35.4852 50.6157C35.1538 50.5613 34.814 50.569 34.4658 50.6389L35.4824 50.6157L35.6071 50.6385C35.9987 50.7844 36.3702 50.9038 36.7215 50.9966C37.4798 51.1027 37.8879 51.1674 37.946 51.1907C38.8548 51.4951 39.375 51.6637 39.5066 51.6966C40.0292 51.7857 40.699 51.9256 41.5158 52.1161C41.7609 52.1328 41.9336 52.1503 42.0339 52.1686C42.1884 52.2314 42.522 52.307 43.0346 52.3952C43.4076 52.5047 43.6761 52.6117 43.84 52.7162L44.7585 53.5509C45.1167 53.6459 45.3842 53.7203 45.5611 53.7742C45.9257 53.5172 46.32 53.2077 46.744 52.8458C47.0528 52.0369 47.3099 51.5275 47.5152 51.3176C47.4135 50.9009 47.3653 50.5765 47.3704 50.3443Z" fill="black"/>
<path d="M45.2629 52.6349L45.2593 52.6358C45.1237 52.6373 44.9889 52.6592 44.855 52.7015C44.7651 52.7401 44.6723 52.7988 44.5766 52.8775C44.5555 52.9233 44.5518 52.9738 44.5657 53.0292C44.647 53.2054 44.7203 53.3818 44.7856 53.5582C45.2331 53.6764 45.6162 53.7867 45.9348 53.8891C46.0346 53.9171 46.2372 53.9895 46.5428 54.1061C46.6537 54.1515 46.7485 54.1948 46.8272 54.236L46.9041 54.251C47.0473 54.1672 47.1739 54.1052 47.284 54.0652C47.4138 54.031 47.5112 54.0102 47.5762 54.0025L47.7896 53.4982C47.609 53.3226 47.4179 53.1791 47.2165 53.0676C46.9021 52.9883 46.5265 52.9251 46.0898 52.878C45.8169 52.8138 45.6056 52.7387 45.4558 52.6525C45.3519 52.6395 45.2875 52.6336 45.2629 52.6349Z" fill="black"/>
<path d="M34.5672 49.245L34.4713 49.2536C34.1617 49.2996 33.4211 49.5292 32.2497 49.9425C31.5402 50.2364 31.0632 50.4482 30.8189 50.5782C30.0706 51.0221 29.312 51.5329 28.543 52.1109L27.8739 52.6906C27.8019 52.7912 27.8141 52.8355 27.9105 52.8235L28.6202 52.7149C29.5373 52.4852 30.4544 52.2557 31.3714 52.0262L32.5954 51.8069L34.2451 51.3331C34.4327 51.2232 34.5927 51.146 34.7253 51.1013C34.7951 51.0758 34.9213 51.0681 35.1036 51.0783L34.6027 49.2476C34.5902 49.2457 34.5784 49.2448 34.5672 49.245Z" fill="black"/>
<path d="M61.6028 47.9187L61.3013 47.966C60.7597 48.0399 60.2565 48.1545 59.7919 48.3097C58.6316 48.4006 57.7729 48.4941 57.2156 48.5903C56.111 49.2729 55.0949 50.0844 54.1673 51.0248L54.0373 51.1567L53.7468 52.3721C54.0302 52.921 54.2868 53.3285 54.5167 53.5942L54.886 53.7726L55.343 53.8686L58.852 51.8891C59.131 51.7607 59.3539 51.6643 59.5209 51.5998C59.82 51.4647 60.2716 51.3253 60.8754 51.1816C61.3707 51.0772 61.8458 51.0529 62.3008 51.1086L62.3587 51.0646C62.5234 50.9187 62.7688 50.5451 63.0948 49.9438C63.2018 49.7106 63.225 49.473 63.1644 49.2309C63.1043 48.9204 62.8506 48.5456 62.4032 48.1066C62.1508 47.9822 61.884 47.9196 61.6028 47.9187Z" fill="black"/>
<path d="M60.8345 48.7308C61.0869 48.3739 61.4349 48.084 61.8786 47.8607L62.911 47.4066C63.3652 47.3086 63.6299 47.2698 63.7049 47.2902C64.0623 47.3233 64.4017 47.3446 64.7232 47.3541C66.1095 47.5605 66.9216 47.6539 67.1594 47.6343C67.6704 47.6386 67.9073 47.6379 67.87 47.6321C68.3419 47.6014 68.6888 47.5591 68.9107 47.5054L69.2927 47.525C69.5106 47.4831 69.8082 47.4758 70.1852 47.5032C70.7175 47.6606 71.1117 47.8293 71.3677 48.0095C71.5901 48.2214 71.7838 48.4535 71.9489 48.7059C72.0295 48.7946 72.2288 48.9202 72.5468 49.0831C72.7564 49.3687 72.7514 49.6702 72.5317 49.9875C72.2127 50.4105 71.8954 50.6328 71.58 50.6544C71.5105 50.6876 71.1329 50.6711 70.4474 50.6049L69.7476 50.4518L68.329 50.2419C68.2751 50.2321 68.1217 50.2223 67.8688 50.2124C67.6565 50.1407 67.3114 50.0777 66.8334 50.0237L66.4055 50.0261C66.1833 50.0639 65.9755 50.0821 65.782 50.0808C65.3532 50.1527 65.0188 50.1883 64.7787 50.1876L64.3236 50.2643L63.9777 50.283L62.7238 50.5206L60.8345 48.7308Z" fill="black"/>
<path d="M69.7933 47.9638C70.4151 47.831 70.9246 47.9124 71.3216 48.208L72.5963 48.9147L74.648 50.4738L75.5592 51.734C75.9919 52.7656 76.1812 53.2864 76.127 53.2962C76.1816 53.3117 76.2653 54.049 76.3784 55.508C76.3391 55.8009 76.2553 55.9219 76.1271 55.8711C75.9592 55.7996 75.7806 55.6398 75.5911 55.3916L74.9597 54.0739C74.8191 53.8145 74.6458 53.5891 74.4398 53.3977L74.0242 53.0397C73.799 52.9436 73.5093 52.7296 73.1552 52.3977L71.8253 50.9821C71.2123 50.4966 70.6927 50.212 70.2666 50.1283L69.7933 47.9638Z" fill="black"/>
<path d="M17.0871 24.5429L18.1419 21.3806L18.7794 20.3228C19.3893 19.5894 19.9124 18.8063 20.3489 17.9734C21.3863 16.7062 22.2018 15.85 22.7954 15.4047C23.8824 14.7025 24.7181 14.4684 25.3023 14.7024C26.0084 14.6988 26.6241 15.464 27.1494 16.9982C27.492 18.3176 27.6302 19.2553 27.5643 19.8112C27.6149 21.0414 27.4459 22.3306 27.0572 23.6788L24.8588 27.965L23.3901 31.1941C22.8588 32.1487 22.5018 32.6835 22.3191 32.7986L20.8198 35.608L17.0871 24.5429Z" fill="black"/>
<path d="M53.7921 14.429L53.8945 14.4366C53.9948 14.4439 54.0949 14.4533 54.1947 14.4646C54.2779 14.4743 54.3278 14.4804 54.3444 14.4828C54.426 14.4939 54.4771 14.5013 54.4976 14.5051C54.5035 14.5052 54.5084 14.5056 54.5121 14.5063C54.7222 14.4811 54.9346 14.464 55.1492 14.455L55.1459 14.456C55.0987 14.4571 55.0513 14.4586 55.0037 14.4606L54.9321 14.4643C54.8843 14.4671 54.8362 14.4704 54.788 14.4741C54.6915 14.4817 54.5942 14.4916 54.4961 14.5038C54.3614 14.4839 54.2812 14.4727 54.2555 14.4703C54.2028 14.4637 54.1506 14.4578 54.099 14.4526C53.9968 14.4422 53.8945 14.4343 53.7921 14.429Z" fill="black"/>
<path d="M54.4921 14.5043L54.3746 14.52C54.0603 14.5641 53.7378 14.6312 53.4069 14.7213C53.6482 14.6558 53.8919 14.6022 54.138 14.5605C54.261 14.5398 54.3844 14.5218 54.5083 14.5068L54.5683 14.5157C54.5728 14.5162 54.5752 14.5168 54.5757 14.5176C54.5595 14.5143 54.5388 14.5106 54.5135 14.5065L54.51 14.5076C54.5046 14.5056 54.4987 14.5045 54.4921 14.5043Z" fill="black"/>
<path d="M44.6439 14.8354L43.53 15.3412L42.5571 15.9351L41.725 16.6173L41.0339 17.3876L40.4837 18.2462L40.0744 19.1929L39.8061 20.2277L39.6786 21.3508L39.6938 22.563L39.6961 21.7363L39.7837 20.9234L39.9534 20.1304L40.2019 19.3627L40.5261 18.6265L40.9227 17.9272L41.3887 17.2709L41.9208 16.6633L42.516 16.1101L43.1708 15.6173L43.8823 15.1904L44.6439 14.8354Z" fill="black"/>
<path d="M44.8359 5.9093L44.0976 5.94098C42.7953 5.94129 40.2488 6.36491 36.4579 7.21179C35.5332 7.50993 34.5332 7.99011 33.4581 8.65234C30.3308 10.5316 27.6996 12.4357 25.5643 14.3649C24.3727 15.4455 23.5949 16.2004 23.2311 16.6293C22.2737 18.1386 21.436 19.2844 20.7182 20.0665C25.501 22.5339 29.544 24.0921 32.8472 24.7412C32.3515 20.6061 34.4814 17.5426 39.2371 15.5509C39.7877 15.3199 40.378 15.1442 41.0078 15.0238L43.5242 14.6129L45.8575 14.3401L47.3844 14.2654C48.1437 14.3295 49.2983 14.3163 50.848 14.2257L55.2931 14.4477C56.0754 14.4418 56.8817 14.3668 57.7122 14.2229L59.2477 11.5745L59.3552 11.0967C59.5933 9.87288 59.4434 9.05177 58.9055 8.6333L57.187 8.24469C54.9355 8.12882 53.6915 8.02092 53.4549 7.92096C52.698 7.76829 51.7709 7.42376 50.6736 6.88739C48.0184 6.32146 46.0725 5.99544 44.8359 5.9093Z" fill="black"/>
<path d="M39.7039 22.7151L39.7237 23.0034C39.7386 23.1936 39.7569 23.3801 39.7788 23.5627L39.8141 23.8337C39.8648 24.1912 39.9293 24.5334 40.0076 24.8603L40.0689 25.1036L40.2314 25.0693C40.0793 24.6798 39.9574 24.2753 39.8657 23.8559C39.8224 23.657 39.787 23.4582 39.7595 23.2595C39.7457 23.1603 39.7338 23.0611 39.7238 22.9619C39.7244 22.9622 39.7249 22.9625 39.7255 22.9628L39.7071 22.7151L39.7039 22.7161V22.7151Z" fill="black"/>
<path d="M63.7392 13.8022L63.7325 13.8023L63.7257 13.8024L63.7191 13.8033L63.6855 13.8027L63.6788 13.8029L63.6822 13.8039L63.6942 13.8037L63.7062 13.8035L63.7183 13.8044L63.7303 13.8033L63.7424 13.8035L63.7544 13.8044L63.7905 13.8039L63.8266 13.8045L63.8173 13.8042L63.808 13.8039L63.7987 13.8036C63.7925 13.8034 63.7862 13.8033 63.78 13.8031L63.7426 13.8022L63.7392 13.8032V13.8022Z" fill="black"/>
<path d="M53.7921 14.429L53.8945 14.4366C53.9948 14.4439 54.0949 14.4533 54.1947 14.4646C54.2779 14.4743 54.3278 14.4804 54.3444 14.4828C54.426 14.4939 54.4771 14.5013 54.4976 14.5051C54.5035 14.5052 54.5084 14.5056 54.5121 14.5063C54.7222 14.4811 54.9346 14.464 55.1492 14.455L55.1459 14.456C55.0987 14.4571 55.0513 14.4586 55.0037 14.4606L54.9321 14.4643C54.8843 14.4671 54.8362 14.4704 54.788 14.4741C54.6915 14.4817 54.5942 14.4916 54.4961 14.5038C54.3614 14.4839 54.2812 14.4727 54.2555 14.4703C54.2028 14.4637 54.1506 14.4578 54.099 14.4526C53.9968 14.4422 53.8945 14.4343 53.7921 14.429Z" fill="black"/>
<path d="M54.4921 14.5043L54.3746 14.52C54.0603 14.5641 53.7378 14.6312 53.4069 14.7213C53.6482 14.6558 53.8919 14.6022 54.138 14.5605C54.261 14.5398 54.3844 14.5218 54.5083 14.5068L54.5683 14.5157C54.5728 14.5162 54.5752 14.5168 54.5757 14.5176C54.5595 14.5143 54.5388 14.5106 54.5135 14.5065L54.51 14.5076C54.5046 14.5056 54.4987 14.5045 54.4921 14.5043Z" fill="black"/>
<path d="M54.768 8.87146L49.9364 14.2536L51.0432 14.2305C53.0945 14.4081 54.5111 14.4805 55.2931 14.4476C56.0372 14.4454 56.8818 14.3668 57.8268 14.212L59.3607 14.1261C61.171 13.8223 62.3391 13.6938 62.865 13.7407L65.2738 13.8474C65.9498 13.9373 66.5949 14.1073 67.209 14.3576C69.0993 15.1513 70.4953 16.4726 71.3973 18.3213C72.377 20.4872 72.3983 22.6866 71.4613 24.9195C73.0794 25.8862 74.6129 26.6903 76.0618 27.3316C77.982 27.6374 79.0649 27.6074 79.3103 27.2415C79.5015 27.0314 79.5467 26.6948 79.4457 26.2316L78.3488 23.8284C79.3223 22.691 79.6829 21.7837 79.4308 21.1066C79.1728 20.7364 78.2199 19.8486 76.5719 18.4431C75.8952 17.5698 75.3196 16.8978 74.845 16.427C74.6163 16.3446 74.2883 16.1194 73.861 15.7513C73.0634 15.0662 72.1631 14.2354 71.1601 13.2589C69.0389 12.1785 67.7557 11.4706 67.3106 11.1353L65.194 10.4353L62.1685 9.6684C61.7198 9.6068 60.7753 9.58332 59.335 9.59796L54.768 8.87146Z" fill="black"/>
<path d="M63.6223 13.801L63.5163 13.8019L63.4088 13.8046L63.2997 13.809L63.189 13.8153L63.0768 13.8232C62.9261 13.8351 62.7712 13.8517 62.6122 13.873C62.776 13.8511 62.9398 13.8343 63.1037 13.8226C63.1583 13.8188 63.213 13.8155 63.2675 13.8127L63.3495 13.8091C63.404 13.8068 63.4586 13.8052 63.5132 13.8042L63.595 13.8031L63.5984 13.8041C63.6081 13.803 63.6221 13.802 63.6401 13.801C63.6413 13.8014 63.6424 13.8017 63.6435 13.802C63.6349 13.8012 63.6278 13.8009 63.6223 13.801Z" fill="black"/>
<path d="M60.2567 14.0866L60.1887 14.0869L60.1212 14.0877L60.0544 14.0892L59.9882 14.0912L59.9225 14.0936L59.8574 14.0968L59.793 14.1004C59.7502 14.1031 59.7078 14.1061 59.6658 14.1094C59.8312 14.1003 59.9183 14.0957 59.9272 14.0955C59.9512 14.0944 59.9752 14.0933 59.9991 14.0925C60.0231 14.0918 60.0471 14.091 60.0711 14.0902C60.0951 14.0896 60.1191 14.089 60.1431 14.0886C60.1671 14.0882 60.1911 14.0879 60.2151 14.0876C60.2249 14.0874 60.2632 14.0873 60.3297 14.0873C60.344 14.0875 60.3581 14.0876 60.3723 14.0877L60.4574 14.0891C60.5142 14.0905 60.5426 14.0912 60.5426 14.0914C60.521 14.0907 60.4996 14.09 60.4782 14.0895C60.4249 14.0882 60.393 14.0876 60.3825 14.0875C60.3402 14.087 60.2983 14.0867 60.2567 14.0866Z" fill="black"/>
<path d="M63.9402 13.8036L63.947 13.8044C65.3274 13.8703 66.5857 14.243 67.7221 14.9226L67.3239 14.6957L66.9204 14.4944L66.5114 14.3188L66.097 14.1688L65.6772 14.0446L65.2519 13.9459L64.8212 13.8729L64.3851 13.8254L63.9402 13.8036Z" fill="black"/>
<path d="M56.4656 8.56102C56.655 8.48969 56.9408 8.48426 57.3232 8.54473C58.4459 8.8169 58.9984 8.96458 58.9805 8.98778C59.1135 9.03628 59.5021 9.21355 60.1464 9.51958C60.088 9.53089 60.765 9.87926 62.1775 10.5647C63.1412 11.205 63.9556 11.6909 64.6206 12.0224C64.8348 12.1548 65.3283 12.2864 66.101 12.4173L56.4656 8.56102Z" fill="black"/>
<path d="M28.9266 23.3113C29.2068 23.2903 29.5349 23.3332 29.9109 23.44C30.1819 23.6099 31.482 24.0825 33.8112 24.858C33.8707 24.906 34.2781 24.9488 35.0335 24.9861L36.5273 24.8083C37.2386 24.6396 38.9185 24.3017 41.5669 23.7946L48.6876 23.0871C51.2578 22.6438 53.6252 22.1082 55.7897 21.4805L59.1493 21.1009L62.7816 20.3608C65.4735 19.5607 67.4764 18.5981 68.7904 17.473C68.8855 15.8562 67.5939 14.6825 64.9158 13.9519C63.864 13.6674 62.6288 13.4297 61.2102 13.2391L57.0525 12.9168C56.5581 12.7498 55.198 12.5707 52.9721 12.3797L51.4799 12.087L49.3884 12.0561C43.1055 12.6078 37.6797 14.6992 33.111 18.3304L28.9266 23.3113Z" fill="black"/>
<path d="M73.0959 25.556C72.358 25.5885 71.6972 25.2249 71.1134 24.4652C70.4303 23.6927 69.9271 23.0016 69.6039 22.3916C69.4874 22.1959 69.2652 21.5807 68.9372 20.5461C68.8269 20.3019 68.7452 20.1395 68.6919 20.0591C68.2963 19.598 67.8538 19.1909 67.3646 18.8377C67.2181 18.7099 67.1437 18.5571 67.1414 18.3795C67.1299 18.2364 67.1528 18.109 67.2104 17.9973C67.4254 17.5662 67.6261 17.2568 67.8123 17.0692C68.186 16.6469 68.5971 16.3453 69.0454 16.1643C70.3057 15.8349 71.4216 15.7724 72.3933 15.9768L73.0959 25.556Z" fill="black"/>
<path d="M62.7808 14.4763C62.8798 14.5173 62.9974 14.5784 63.1335 14.6596L65.4914 16.192C65.6997 16.366 66.4492 16.6604 67.7401 17.0754C68.7598 17.4114 69.5653 17.2633 70.1564 16.6309C70.6539 15.7119 70.3273 14.8637 69.1766 14.0862C68.412 13.7239 67.7844 13.5165 67.2939 13.4639C66.6539 13.3856 66.3234 13.3547 66.3024 13.3713C66.0458 13.3688 65.734 13.3972 65.3671 13.4563C65.0413 13.4714 64.8751 13.4736 64.8684 13.4629C64.3192 13.3914 63.9662 13.2875 63.8094 13.1512L62.7808 14.4763Z" fill="black"/>
<path d="M19.4871 52.2739L19.458 53.8873C19.4794 54.0576 19.5035 54.438 19.5302 55.0285L19.4279 56.6933L19.5716 58.2436C19.667 58.6145 19.753 59.283 19.8297 60.2491L19.8166 61.3539C19.7648 61.8307 19.747 62.1265 19.7631 62.2412L19.6134 63.1344L19.5962 64.2204C19.6502 65 19.7267 65.6579 19.8259 66.1939L19.8823 66.9703C19.9116 67.666 19.8854 68.2635 19.8035 68.7629C19.6631 68.9802 19.4331 68.8651 19.1137 68.4176L18.6426 67.6183C18.4495 67.2368 18.3178 66.8008 18.2474 66.3105L18.0675 64.7421C18.0809 64.4218 18.101 64.2197 18.1277 64.1358C18.2887 63.6197 18.3758 63.3761 18.3889 63.405C18.5102 63.3173 18.7933 62.9091 19.238 62.1804C19.3967 61.7885 19.4525 61.476 19.4054 61.2428C19.3188 60.8456 19.2165 60.5015 19.0984 60.2106C18.784 59.4279 18.4857 58.9254 18.2035 58.7032C17.9661 58.5365 17.6225 58.5673 17.1726 58.7957L16.2298 59.7545C16.1519 59.8325 16.0365 60.0694 15.8836 60.4651C15.8533 60.4901 15.7647 60.8462 15.6178 61.5333C15.5972 62.5471 15.5468 63.3656 15.4666 63.9887C15.5264 64.4655 15.5236 64.8926 15.4583 65.2701L15.2056 66.0385C15.1748 66.0894 15.1432 66.1031 15.1106 66.0797C14.947 65.6774 14.8638 65.3801 14.8609 65.1877C14.7655 64.2191 14.7437 63.3605 14.7955 62.6118L15.0711 60.9625C15.1309 60.6808 15.2577 60.2025 15.4515 59.5276C15.467 59.5017 15.4851 59.3279 15.5058 59.0062C15.4913 58.7126 15.4425 58.3474 15.3594 57.9103L15.3563 56.4753L15.2064 54.6638L15.2188 53.8398C15.1057 53.0968 15.0511 52.3854 15.0551 51.7055C15.0771 51.4198 15.093 51.2728 15.1027 51.2642C15.2378 50.8763 15.3561 50.3869 15.4574 49.796C15.488 49.6503 15.5379 49.5315 15.6069 49.4395L19.4871 52.2739Z" fill="black"/>
<path d="M37.6113 54.2234L37.1409 54.2346L36.743 54.2578C36.4811 54.2793 36.2258 54.3128 35.9773 54.3583C35.7288 54.4038 35.487 54.4613 35.2519 54.5308C34.795 54.6617 34.3385 54.8564 33.8825 55.1151C33.7793 55.1778 33.6941 55.2353 33.627 55.2875L31.9147 56.8541L30.8489 58.0603L31.6348 57.8534C31.6852 57.8381 31.7772 57.7936 31.9106 57.7197C32.9952 56.7296 34.0195 56.0192 34.9834 55.5885L35.6738 55.3635C35.81 55.3767 36.1373 55.3266 36.6556 55.2134C36.7043 55.2084 36.8493 55.2072 37.0906 55.2097C37.1854 55.2157 37.2606 55.2274 37.316 55.2447C37.4797 55.3164 37.7374 55.4076 38.089 55.5184L39.3914 55.7383C40.2185 55.945 40.7204 56.0855 40.8971 56.1599C41.1266 56.2401 41.6129 56.5978 42.3562 57.2329C42.8104 57.4687 43.2459 57.738 43.6627 58.0407C43.9563 58.195 44.1235 58.2648 44.1643 58.2502C44.2334 58.2301 44.2544 58.1923 44.2274 58.1366C43.9354 57.6706 43.7391 57.3797 43.6382 57.264C42.8809 56.442 42.2382 55.8373 41.7101 55.4501L41.3824 55.2762L40.0891 54.7805L38.7337 54.3537C38.7286 54.334 38.3544 54.2906 37.6113 54.2234Z" fill="black"/>
<path d="M61.8585 56.8616L61.8116 57.0211C61.8438 56.9608 61.8705 56.9114 61.8919 56.8732L61.8953 56.8741C61.8906 56.872 61.8804 56.8682 61.8647 56.8626C61.863 56.8616 61.861 56.8613 61.8585 56.8616Z" fill="black"/>
<path d="M72.5175 57.1204L72.5177 57.1204L72.5178 57.1205C72.5177 57.1204 72.5176 57.1204 72.5175 57.1204L72.5175 57.1213V57.1204Z" fill="black"/>
<path d="M72.3423 57.069L72.3407 57.0695C72.339 57.0696 72.3384 57.07 72.339 57.0709C72.3473 57.1265 72.355 57.1828 72.362 57.2397C72.3796 57.2659 72.3982 57.2765 72.4177 57.2713C72.4346 57.267 72.451 57.2516 72.4669 57.2251C72.4798 57.2059 72.4955 57.171 72.514 57.1204L72.5175 57.1213C72.5164 57.1208 72.5154 57.1202 72.5143 57.1195C72.5144 57.1198 72.5145 57.1202 72.5145 57.1205L72.3423 57.069Z" fill="black"/>
<path d="M72.3388 57.0689V57.0695V57.0699L72.3389 57.0709L72.339 57.0698C72.339 57.0702 72.339 57.0705 72.339 57.0708L72.3389 57.0699L72.3388 57.0689Z" fill="black"/>
<path d="M31.8321 57.7943C33.48 58.9765 34.5328 59.5918 34.9905 59.6404C35.3623 59.743 35.6088 59.8001 35.7301 59.8115L37.0196 59.8027C36.9861 59.8252 37.6417 59.8948 38.9865 60.0115C39.004 60.0188 39.1684 60.0128 39.4795 59.9937L40.0079 59.9009C40.3962 59.8869 40.6046 59.8735 40.633 59.8607C40.6834 59.8665 40.9474 59.7933 41.4249 59.6412L42.2589 59.2147C42.7255 58.9374 43.1413 58.6329 43.5062 58.3013C43.5433 58.2756 43.5645 58.2798 43.5699 58.3138C43.6005 58.907 43.1065 59.5374 42.0878 60.2051C41.885 60.3675 41.5576 60.5314 41.1057 60.6968C40.6792 60.7886 40.3314 60.8268 40.0624 60.8115L37.9916 60.6217C37.7379 60.6263 37.5348 60.6205 37.3822 60.6046C37.1211 60.601 36.8642 60.6301 36.6113 60.6921L35.8313 60.7219L33.9016 60.2632C32.0877 59.7526 31.4323 59.0616 31.9351 58.1901L31.8321 57.7943Z" fill="black"/>
<path d="M60.9464 57.2971C62.0407 58.1243 62.9643 58.6094 63.7171 58.7525L64.9034 58.9426L65.2384 58.968C65.388 59.0141 65.6892 59.0679 66.1422 59.1293L68.1431 59.1373C68.7464 59.0702 69.3479 58.8968 69.9477 58.6171L71.2497 58.0067C71.8428 57.6698 72.2199 57.4294 72.3807 57.2855C72.3759 57.4828 71.8803 58.0707 70.8938 59.0493C70.3166 59.4693 69.6028 59.8401 68.7523 60.1618C68.6654 60.1867 68.5571 60.1903 68.4275 60.1725L66.9749 59.8497C66.6939 59.8022 66.4133 59.7765 66.1334 59.7725L65.3243 59.6562C64.9406 59.6016 64.2204 59.4133 63.1639 59.0916L62.3126 58.7649L61.0758 57.9907C60.8128 57.8196 60.6494 57.6245 60.5856 57.4054L60.9464 57.2971Z" fill="black"/>
<path d="M61.0667 57.3522C61.4082 56.6415 62.3424 55.6511 63.8693 54.3811C64.1465 54.1057 64.7828 53.8564 65.7782 53.6331C67.1986 53.5215 68.3037 53.6564 69.0933 54.0379C69.1544 54.0488 69.4829 54.258 70.0789 54.6654L71.5086 55.8696C72.3215 56.6715 72.7491 57.1441 72.7912 57.2874C72.7361 56.7738 72.5749 56.2679 72.3075 55.7699C72.1529 55.5351 72.0309 55.3862 71.9415 55.323C71.4308 55.0071 70.9998 54.6944 70.6484 54.385C70.7041 54.3843 70.3513 54.1957 69.5901 53.8193C68.8566 53.5571 68.3738 53.4128 68.1417 53.3863C67.6525 53.2689 66.9585 53.2242 66.0597 53.2523C65.9174 53.2525 65.7444 53.2816 65.5406 53.3397C64.865 53.5393 64.3784 53.7024 64.081 53.8291C63.419 54.0967 62.8902 54.3585 62.4947 54.6144C62.0846 54.8813 61.8571 55.0453 61.8121 55.1066L60.5461 56.5138L61.0667 57.3522Z" fill="black"/>
<path d="M36.37 55.2434C35.7302 55.9707 35.3746 56.513 35.3032 56.8703C35.2081 57.1015 35.231 57.5415 35.372 58.1903C35.4083 58.4366 35.6116 58.6857 35.9819 58.9373L37.295 59.6017C37.3603 59.6373 37.4812 59.6573 37.6579 59.6618C37.8915 59.6539 38.1289 59.597 38.3703 59.4911C38.534 59.4141 38.6813 59.3279 38.8123 59.2324C39.2446 59.0627 39.4843 58.9492 39.5314 58.8919C39.7847 58.7316 40.0192 58.3474 40.2348 57.7395C40.4333 56.9609 40.4125 56.304 40.1723 55.769C40.1446 55.6732 40.006 55.5346 39.7566 55.3531C39.5965 55.2812 39.5103 55.246 39.4981 55.2476C39.124 55.2059 38.9026 55.1621 38.834 55.116L36.37 55.2434Z" fill="black"/>
<path d="M65.9036 53.7275C65.1547 53.9852 64.6732 54.3933 64.4593 54.9517C64.3514 55.1339 64.2841 55.6342 64.2574 56.4526C64.2967 56.832 64.3753 57.1909 64.4931 57.5292C64.8158 57.9832 65.2811 58.2887 65.889 58.4456C66.2288 58.525 66.6727 58.5712 67.2208 58.5842C67.6966 58.4902 68.0444 58.3545 68.2641 58.1771C68.8468 57.4341 69.1964 56.8863 69.3128 56.5336C69.3349 56.383 69.3325 56.2563 69.3056 56.1533C69.2434 55.959 69.1351 55.6888 68.9808 55.3429L68.8856 54.947C68.9043 54.9046 68.7362 54.5956 68.3813 54.02C68.2466 53.8429 68.1412 53.734 68.0652 53.6932C67.06 53.3902 66.5046 53.2806 66.3991 53.3645L65.9036 53.7275Z" fill="black"/>
<path d="M47.129 52.5891C47.4282 52.6019 47.7053 53.0805 47.9604 54.025L48.1067 54.5984C48.1189 55.1991 48.2036 55.7698 48.3608 56.3107C48.3862 56.433 48.3715 56.5859 48.3168 56.7692C48.1951 57.3503 47.8691 57.9229 47.3388 58.4872C46.5121 59.2587 45.9558 59.5467 45.67 59.351C45.5029 59.3079 45.3021 59.1889 45.0675 58.9941C43.2722 57.1175 42.4153 56.2021 42.4968 56.2478C42.3813 56.0927 41.9912 55.7549 41.3266 55.2343L41.031 54.886C40.9404 54.8107 40.7019 54.3035 40.3155 53.3643C40.1789 53.0015 40.0282 52.4298 39.8634 51.6492L39.3311 50.3292L47.129 52.5891Z" fill="black" fill-opacity="0.207843"/>
<path d="M55.6944 52.0822C55.4402 52.8272 55.8481 54.2443 56.918 56.3337C57.9801 58.4809 58.8136 59.426 59.4184 59.1688C59.4982 59.1641 59.6291 59.0644 59.811 58.8698L60.5252 57.4634C61.1313 56.4458 61.6355 55.7338 62.0376 55.3273C63.818 53.5956 65.4265 52.2548 66.863 51.3047L68.5144 49.2848C68.5602 49.1404 68.5837 48.9596 68.5847 48.7422L55.6944 52.0822Z" fill="black" fill-opacity="0.207843"/>
<path d="M47.1716 72.3822L47.072 72.3859C46.6867 72.4401 46.3885 72.557 46.1772 72.7368C46.0168 72.8857 45.8712 73.0489 45.7405 73.2262C45.6938 73.2907 45.5631 73.5478 45.3481 73.9975L45.2783 74.2738C45.2457 74.4485 45.2408 74.6039 45.2635 74.7402C45.2862 74.8766 45.3366 74.9938 45.4147 75.0919L45.5526 75.2245L45.732 75.3286C45.8655 75.3884 46.0266 75.4291 46.2155 75.4505C46.3389 75.4409 46.4343 75.4298 46.5016 75.4172C46.9792 75.2817 47.3699 75.1512 47.6738 75.0255C48.2936 74.7026 48.7218 74.4986 48.9585 74.4135C49.4134 74.1696 49.7014 74.0101 49.8226 73.9349L49.9078 74.0822L50.0526 73.7829C50.0344 73.8015 49.9585 73.852 49.825 73.9344C49.5984 73.5652 49.4266 73.3214 49.3095 73.2031C49.0477 72.9095 48.8417 72.73 48.6913 72.6646C48.5983 72.6186 48.5102 72.5866 48.4272 72.5685L47.2598 72.3851L47.1716 72.3822Z" fill="black" fill-opacity="0.207843"/>
<path d="M58.7775 71.7964L58.7001 71.798C58.4262 71.8172 58.1573 71.8616 57.8934 71.9311C57.513 72.0613 57.2734 72.1687 57.1749 72.2535C56.9246 72.4787 56.5805 73.0049 56.1427 73.8323C56.5678 73.9946 56.9205 74.146 57.2008 74.2863L58.1242 74.7955C58.5051 74.8005 58.8205 74.7942 59.0703 74.7764L60.0208 74.9099C60.4877 74.6873 60.886 74.5204 61.2158 74.4091C61.2951 74.0645 61.3835 73.7413 61.481 73.4396C61.4857 73.3331 61.4763 73.2564 61.4528 73.2093C61.285 72.9002 61.028 72.6496 60.6819 72.4573L59.55 72.0637L59.0017 71.8157C58.9366 71.803 58.8618 71.7966 58.7775 71.7964Z" fill="black" fill-opacity="0.207843"/>
<path d="M48.5885 95.3445C48.4364 95.2953 48.2333 95.2551 47.9792 95.2239C47.4932 95.244 46.8562 95.1996 46.0681 95.0906C45.2381 94.907 44.8574 94.7967 44.926 94.7596C43.8967 94.055 43.8336 93.3176 44.7368 92.5472C44.8765 92.4564 45.0935 92.3769 45.3877 92.3088C45.7147 92.3549 47.0105 92.1366 49.2751 91.6539L50.9916 91.0418L52.9323 90.567L53.4761 90.3688C55.2514 90.0551 56.2589 89.9081 56.4985 89.928C58.808 90.1116 60.6786 90.9763 62.1103 92.522C62.8885 93.4428 62.7595 94.2697 61.7232 95.0025L59.8759 95.8046C59.6164 95.9055 59.4066 95.9534 59.2464 95.9481C58.8799 95.9513 58.6779 95.947 58.6403 95.9352C58.0865 95.8188 57.6294 95.7514 57.269 95.7329C56.9699 95.7214 56.6426 95.7357 56.287 95.7758C55.8851 95.7372 55.6449 95.7262 55.5666 95.7428C55.2292 95.7617 54.7439 95.8155 54.1107 95.9042L52.3578 95.8554L49.163 95.5903L47.9424 95.3533C47.8884 95.3435 47.8307 95.3118 47.7692 95.2583L48.5885 95.3445Z" fill="black" fill-opacity="0.501961"/>
<path d="M15.2916 65.0765C15.1885 65.3826 15.1255 65.8565 15.1027 66.4981C15.1879 67.1096 15.32 67.5666 15.4989 67.8691L16.9404 69.8391L18.0692 71.6355L19.2417 72.704C19.409 72.8518 19.6994 73.0293 20.1129 73.2364C20.1618 73.2636 20.1858 73.3047 20.185 73.3597C20.0803 73.4029 19.9141 73.3308 19.6865 73.1432L18.5501 71.7777C18.4405 71.6522 18.1093 71.3812 17.5564 70.9649C17.5203 70.9492 17.3127 70.712 16.9336 70.2532C16.7979 70.0033 16.4261 69.4869 15.8184 68.7041L15.6445 68.3849C15.3578 67.8094 15.1343 67.1587 14.9738 66.4328L15.2916 65.0765Z" fill="black"/>
<path d="M20.5352 75.3207C21.7461 81.4371 23.0024 85.5126 24.3041 87.5472C24.173 87.642 26.4557 90.3779 31.1522 95.7547C33.7572 97.8236 35.3982 98.7746 36.0753 98.608C33.8949 97.53 32.3632 96.546 31.48 95.6559C29.5441 93.8408 28.1194 92.5996 27.206 91.9324C25.8733 90.7218 25.1467 89.9434 25.0263 89.5973C24.2211 88.3287 23.6427 87.2976 23.291 86.504L22.3845 82.7471C22.3677 81.7725 21.9907 79.9124 21.2535 77.1666L20.5352 75.3207Z" fill="black"/>
<path d="M85.9726 60.1178C86.0492 60.4593 86.1319 61.2541 86.2206 62.5021C86.2363 62.7851 86.2433 62.9537 86.2417 63.0078C86.2245 63.376 86.2228 63.7146 86.2368 64.0235L86.2162 64.3774C86.2133 64.3707 86.2192 64.4824 86.234 64.7122C86.2985 64.9418 86.3794 65.4975 86.4765 66.3792L86.4087 67.241C86.4208 67.8803 86.4317 68.2233 86.4416 68.2698C86.4436 68.4095 86.4419 68.5337 86.4365 68.6425L86.3238 69.7589L86.2523 70.0844C86.1675 71.0055 86.095 71.5525 86.0349 71.7255C86.016 71.8303 85.9252 72.0136 85.7625 72.2755C85.6188 72.6798 85.1263 72.9853 84.2849 73.1922C84.2534 73.196 84.2562 73.1741 84.2934 73.1264C84.4591 72.9581 84.6206 72.7573 84.7778 72.5239L85.2015 71.7474C85.2677 71.4641 85.3476 71.223 85.4412 71.024L85.7963 69.5877C85.8068 69.6015 85.8346 69.3695 85.8796 68.8915L85.9174 67.4855L85.983 66.7464L85.989 65.5803C85.9976 65.5329 85.9544 65.1872 85.8594 64.5432C85.8528 64.4527 85.7851 64.2582 85.6563 63.9598L85.6098 63.6157C85.5186 63.2724 85.46 63.0062 85.434 62.8168C85.4302 62.5675 85.3855 62.1078 85.2999 61.4377L85.2825 60.9584C85.2306 60.6369 85.2051 60.3678 85.2058 60.151L85.9726 60.1178Z" fill="black"/>
<path d="M84.6351 73.2529L84.2086 73.632C82.9885 74.7573 82.1952 76.0144 81.8285 77.4034C81.784 77.5756 81.7485 77.7402 81.722 77.8971C81.7063 78.3387 81.6971 78.7095 81.6946 79.0096C81.6924 79.7354 81.7428 80.6083 81.8459 81.6283L81.477 83.6367C81.4766 83.8998 81.4718 84.1619 81.4625 84.4233L82.4798 82.6082L84.6351 73.2529Z" fill="black"/>
<path d="M81.455 84.4366L80.9257 85.381C80.8137 85.6589 80.7024 85.9721 80.5919 86.3207C80.5086 86.5623 80.3716 87.0532 80.1811 87.7932C80.4605 87.9494 80.6668 88.2189 80.8001 88.6017C80.9444 88.1199 81.0578 87.725 81.1405 87.4169L81.204 87.0279C81.2839 86.5188 81.3451 86.0483 81.3875 85.6164C81.4088 85.4004 81.4253 85.1941 81.4371 84.9976L81.4514 84.7098L81.4586 84.4366L81.455 84.4376V84.4366Z" fill="black"/>
<path d="M80.2081 90.347L79.703 90.9905C79.6686 91.2709 79.6136 91.4695 79.5378 91.586C79.0856 92.1637 78.7842 92.6657 78.6336 93.092L78.1774 93.6887C78.2308 93.7881 78.1837 94.0433 78.0362 94.4543C77.4635 95.2623 77.0074 95.9633 76.6679 96.5574L74.8369 100.036C74.2551 100.643 73.8635 100.918 73.6621 100.86L72.1378 102.888L66.4559 108.83C66.6418 108.821 67.4086 108.185 68.7563 106.921L70.6759 105.098C70.9578 104.691 71.3313 104.244 71.7963 103.756C72.5909 103.005 73.1185 102.57 73.379 102.45C73.4494 102.394 73.5882 102.234 73.7952 101.969C74.9744 100.48 76.1582 98.7933 77.3467 96.9099C79.1769 93.1928 80.1307 91.0051 80.2081 90.347Z" fill="black"/>
<path d="M37.9521 106.123L38.0382 106.236L39.2603 107.904C39.8412 108.322 40.6721 108.748 41.753 109.181C42.1113 109.331 42.6891 109.525 43.4863 109.761C45.41 110.099 46.8719 110.316 47.872 110.411C49.7859 110.495 51.0366 110.524 51.6239 110.497L52.7138 110.56C53.3666 110.567 53.8456 110.549 54.1508 110.509C54.7283 110.584 55.0589 110.621 55.1426 110.622L56.4991 110.618C56.814 110.579 57.2102 110.557 57.6879 110.551C58.7136 110.616 59.353 110.639 59.6062 110.621L61.614 110.439C62.0258 110.3 62.4428 110.192 62.8651 110.114C63.6077 109.999 64.1438 109.949 64.4733 109.964C64.7139 109.903 65.2121 109.745 65.9679 109.491L66.6672 109.346L64.7419 108.662C64.453 108.753 64.0729 108.968 63.6017 109.307L62.5623 109.725C61.6444 109.936 60.7898 110.106 59.9986 110.234L58.9316 110.242L58.3805 110.3C57.7313 110.28 57.1488 110.302 56.6331 110.365L55.2122 110.365L53.407 110.184C52.946 110.179 52.4849 110.173 52.0239 110.168C50.9965 110.015 50.3333 109.947 50.0342 109.964C49.5017 109.87 48.8446 109.729 48.0629 109.539C45.968 109.245 44.3825 108.978 43.3062 108.739L40.338 107.922C39.8123 107.79 39.017 107.191 37.9521 106.123Z" fill="black"/>
<path d="M37.2749 105.341L37.2737 105.341C37.2648 105.335 37.3687 105.457 37.5854 105.708C37.658 105.792 37.7665 105.912 37.9108 106.069C37.5439 105.59 37.332 105.347 37.2749 105.341Z" fill="black"/>
<path d="M30.2921 97.269L32.1837 99.5625L34.0754 101.856C33.4758 100.868 33.1644 100.377 33.141 100.383C33.1227 100.366 33.1126 100.36 33.1107 100.367L31.4898 98.4254C31.3208 98.2804 30.9215 97.8949 30.2921 97.269Z" fill="black"/>
<path d="M34.0838 101.87L34.134 101.953L34.5815 102.701C34.7079 102.837 35.0056 103.244 35.4746 103.922L37.4806 106.408C38.2884 107.285 38.4209 107.261 37.8781 106.337L37.6612 105.981L36.9131 105.046L35.5128 103.617C35.4315 103.524 35.3649 103.437 35.3132 103.357L34.0838 101.87Z" fill="black"/>
<path d="M82.6086 45.5278L82.5452 45.6923C82.463 45.8876 82.3562 46.0841 82.2245 46.2819C82.0492 46.5297 81.9365 46.6788 81.8866 46.7291C81.8022 46.829 81.7117 46.9291 81.6149 47.0296L82.3573 48.3155C82.3743 47.8704 82.4036 47.4185 82.4452 46.9598C82.4679 46.7131 82.4899 46.4994 82.5114 46.3187C82.5363 46.0925 82.5699 45.8289 82.6122 45.5278L82.6086 45.5287V45.5278Z" fill="black" fill-opacity="0.301961"/>
<path d="M64.9414 109.974L64.9445 109.974C64.9445 109.974 64.9486 109.974 64.9568 109.975L64.9636 109.975C64.971 109.975 64.9802 109.975 64.9912 109.976L65.0024 109.976L65.1055 109.981L65.1689 109.987V109.988L65.0194 109.98C65.0004 109.978 64.985 109.977 64.9731 109.977L64.9471 109.975C64.9471 109.975 64.9471 109.976 64.9471 109.976L64.938 109.974L64.9414 109.975V109.974ZM82.3571 48.3211L82.3416 48.9399C82.2313 49.5524 82.3839 51.095 82.7995 53.5677C82.795 54.0808 82.2784 55.1121 81.2497 56.6617C81.0762 57.2207 81.0124 57.6522 81.0583 57.9563C81.3822 58.9648 82.3782 60.501 84.0462 62.565C84.0658 63.0578 83.7851 64.0069 83.2042 65.4124C83.5871 66.5574 83.9821 67.2688 84.3893 67.5466C80.6785 72.1752 78.0917 77.0039 76.6289 82.0327C74.4551 84.2055 72.8861 86.1767 71.922 87.9463C69.541 89.4315 67.4533 91.1329 65.6589 93.0505C65.3999 93.9721 65.3311 94.7742 65.4524 95.4569C65.5669 96.0876 65.9515 97.0333 66.6064 98.2941L66.4449 98.6638C66.3285 98.882 66.0232 99.07 65.5289 99.2279C62.8966 99.8424 60.9542 100.233 59.7016 100.398C57.1892 100.799 53.537 100.974 48.745 100.924L45.5173 101.896C43.1321 102.886 41.8986 104.461 41.817 106.623C41.9703 108.543 42.1192 109.631 42.2635 109.886C43.6906 109.864 45.4936 110.172 47.6726 110.811C48.6966 110.582 49.5164 110.479 50.1321 110.503C51.0177 110.519 52.0711 110.679 53.2924 110.983C54.5934 110.541 56.6564 110.593 59.4813 111.138L62.945 110.1L64.2556 109.967C64.7744 109.975 64.8798 109.974 64.5717 109.965L64.9317 109.973L64.7448 109.974L65.7851 110.049L66.2563 109.838C68.7272 107.117 69.9835 105.887 70.0252 106.148C70.4588 105.331 71.0809 104.5 71.8915 103.654C72.7388 102.865 73.526 102.296 74.2529 101.947L77.6571 98.3671C77.378 96.7304 78.4995 94.1683 81.0215 90.6808C80.9212 89.0359 81.0738 87.6836 81.4793 86.6239C81.5495 86.2027 82.1667 85.087 83.3308 83.2769C83.1673 82.2673 83.2788 80.8543 83.6653 79.0381C84.5956 75.555 85.4364 73.3988 86.1878 72.5696C86.2034 71.8316 86.5219 69.4868 87.1432 65.535C86.3048 62.3597 86.4555 59.6441 87.5953 57.3882L82.3571 48.3211Z" fill="black" fill-opacity="0.301961"/>
<path d="M54.9004 111.441L54.8698 111.443C54.8393 111.445 54.7887 111.449 54.718 111.454L54.6277 111.462C54.638 111.465 54.6482 111.469 54.6582 111.474L54.7263 111.466C54.732 111.465 54.7491 111.463 54.7775 111.46L54.8286 111.455L54.8628 111.451L54.8661 111.452C54.8814 111.447 54.8939 111.444 54.9037 111.441L54.9004 111.442V111.441Z" fill="black" fill-opacity="0.301961"/>
<path d="M47.4953 66.5259C46.2624 66.7695 45.3424 67.3978 44.7352 68.4106L43.8184 70.4382L43.5157 71.5095L43.4728 71.9423L43.5014 73.5167C43.5589 73.9308 43.6545 74.2217 43.788 74.3894C44.0667 74.6882 44.476 74.9839 45.016 75.2767C45.389 75.4891 45.6888 75.636 45.9155 75.7172C46.3512 75.8259 46.7125 75.8862 46.9995 75.8979C47.4384 76.0875 47.7311 76.1858 47.8777 76.193C47.8608 76.2784 48.3364 76.2402 49.3043 76.0786C49.255 76.1364 49.0105 76.2381 48.5708 76.3836C47.7445 76.5989 46.6431 76.569 45.2667 76.2941C44.8446 76.2012 44.3969 75.9226 43.9236 75.4581C43.7434 75.3157 43.5469 74.9689 43.3343 74.4177C43.2491 73.8682 43.2186 73.4433 43.2426 73.1429C43.235 73.1156 43.2557 73.0319 43.3045 72.8918C43.2954 72.617 43.3077 72.3757 43.3413 72.1679C43.4762 71.6013 43.5417 71.1247 43.538 70.738L43.8819 69.4893C44.0167 69.3404 44.2084 68.9138 44.457 68.2098C44.4699 68.17 44.5657 68.0523 44.7445 67.8566C45.0246 67.5988 45.6453 67.261 46.6067 66.8433L47.4953 66.5259Z" fill="black"/>
<path d="M58.0803 66.0908C58.7838 66.2019 59.3113 66.3974 59.6629 66.6771C59.6937 66.7447 59.9721 67.0086 60.4983 67.4689L61.626 68.7005C61.9734 69.1472 62.1988 69.498 62.3022 69.753C62.451 70.269 62.5548 70.5731 62.6134 70.6652L62.7562 71.2753C62.7581 71.5512 62.7692 71.7233 62.7892 71.7919C62.648 72.8042 62.5458 73.3013 62.4828 73.2832C62.4449 73.4456 62.2884 73.6459 62.0133 73.884L60.9881 74.719C60.879 74.8119 60.7861 74.9209 60.7095 75.0462L59.7604 75.6953C58.4454 75.9983 57.6291 76.0707 57.3114 75.9123C57.5403 75.978 57.9517 76.001 58.5455 75.9814C58.525 76.0758 59.2716 75.8945 60.7852 75.4377C61.2001 75.267 61.5542 75.066 61.8476 74.8347C62.7607 74.008 63.2747 73.0027 63.3897 71.8186C63.4144 71.5567 63.3897 71.2662 63.3155 70.9471C63.2529 70.6811 63.0292 70.2404 62.6444 69.6248L62.1285 68.3506C62.0646 68.2001 61.9246 67.9524 61.7087 67.6073C61.5801 67.4102 61.4121 67.2373 61.2047 67.0888C60.2435 66.5904 59.7263 66.2344 59.6532 66.0208L58.0803 66.0908Z" fill="black"/>
<path d="M45.0147 72.6387L46.7942 71.5029C46.9248 71.3967 47.4359 71.3803 48.3274 71.4537L49.1512 71.8514C49.6817 72.2965 49.9752 72.5249 50.0318 72.5369C51.0589 73.5932 51.5781 74.0991 51.5894 74.0543C52.2486 74.3821 52.5922 74.5403 52.6201 74.5289C52.6684 74.5622 52.9904 74.5997 53.5861 74.6412C53.7771 74.6531 53.9342 74.6333 54.0576 74.582C54.6385 74.3879 55.141 74.1775 55.5651 73.9509L57.4828 71.7153C57.4561 71.6521 57.7901 71.4595 58.4846 71.1375L58.9218 71.018C58.9543 70.9974 59.1299 71.0105 59.4484 71.0575L61.0183 71.8301C61.3983 72.0486 61.6984 72.3543 61.9187 72.7469L60.6319 71.2633C60.3435 71.0804 60.007 70.9568 59.6225 70.8927C59.3542 70.8462 59.0961 70.8442 58.8482 70.8868C58.4355 70.9178 57.9558 71.1576 57.409 71.6061C56.9432 71.9971 56.4002 72.5623 55.78 73.3017L55.2533 73.7273C54.9452 73.8991 54.6698 74.0124 54.4273 74.0671L53.4478 74.1381L52.8604 74.234C52.0935 74.073 51.5516 73.8593 51.2347 73.5931C50.9238 73.4509 50.3408 72.7719 49.4858 71.5559C49.3263 71.3863 49.0951 71.2491 48.7922 71.1445C48.2753 71.0505 48.0397 71.0145 48.0854 71.0364C47.3532 71.045 46.9734 71.0776 46.9461 71.1343L45.9044 71.6796C45.7284 71.9548 45.6721 72.1053 45.7356 72.1313L45.0147 72.6387Z" fill="black"/>
<path d="M44.6806 90.1622L48.5857 88.5183C50.0395 88.1509 51.6341 87.6697 53.3694 87.0747C54.1238 86.9032 54.7039 86.8008 55.1097 86.7674C55.5462 86.6845 56.5625 86.7728 58.1588 87.0322C60.9542 87.5755 62.391 87.8244 62.469 87.7789L63.2522 87.9901C64.4902 88.457 65.1301 88.6745 65.1718 88.6429C65.7577 88.777 66.076 88.756 66.1267 88.5799C65.9704 87.4479 65.0283 86.6169 63.3004 86.0868C63.0308 86.0031 62.769 85.9481 62.515 85.9219C61.1552 85.7882 60.4207 85.7307 60.3114 85.7492C59.871 85.6568 59.3845 85.5883 58.8518 85.5438C57.4407 85.5183 56.741 85.5201 56.7529 85.5492C56.4992 85.568 56.2162 85.6129 55.9041 85.6839C55.5025 85.6953 55.2414 85.7168 55.1209 85.7484C53.9555 85.981 52.8043 86.2953 51.6675 86.6914L46.5944 89.0073C46.4793 89.0351 45.8022 89.4787 44.5632 90.3383L44.6806 90.1622Z" fill="black" fill-opacity="0.501961"/>
<path d="M103.457 55.705C104.876 86.762 82.8813 112.996 54.3305 114.301C25.7797 115.606 1.48418 91.4866 0.0649938 60.4296C-1.3542 29.3725 20.6403 3.13819 49.1912 1.83349C77.742 0.528792 102.037 24.6479 103.457 55.705Z" fill="url(#paint0_radial)" fill-opacity="0.505882"/>
<defs>
<radialGradient id="paint0_radial" cx="0" cy="0" r="1" gradientUnits="userSpaceOnUse" gradientTransform="translate(-12.1476 65.5624) scale(127.946)">
<stop stop-color="#FF8500"/>
<stop offset="0.519737" stop-color="#FFC400"/>
<stop offset="1" stop-color="#FFE300"/>
</radialGradient>
</defs>
</svg>
