<svg width="720" height="263" viewBox="0 0 720 263" fill="none" xmlns="http://www.w3.org/2000/svg">
<path d="M719.4 240.783H0.600006V262.4H719.4V240.783Z" fill="#227B36" stroke="#227B36"/>
<path d="M0 1.20091C0 0.537666 0.537258 0 1.2 0H718.8C719.462 0 720 0.537667 720 1.20091V238.982C720 239.645 719.462 240.183 718.8 240.183H1.2C0.537257 240.183 0 239.645 0 238.982V1.20091Z" fill="#7CBB2B"/>
<g filter="url(#filter0_i)">
<path d="M46.8 37.2283C46.8 36.565 47.3372 36.0273 48 36.0273H672C672.662 36.0273 673.2 36.565 673.2 37.2283V202.954C673.2 203.617 672.662 204.155 672 204.155H48C47.3372 204.155 46.8 203.617 46.8 202.954V37.2283Z" fill="#227B36"/>
</g>
<path d="M360 168.128C386.51 168.128 408 146.621 408 120.091C408 93.5615 386.51 72.0548 360 72.0548C333.49 72.0548 312 93.5615 312 120.091C312 146.621 333.49 168.128 360 168.128Z" fill="#7CBB2B"/>
<path d="M634.8 144.11C648.055 144.11 658.8 133.356 658.8 120.091C658.8 106.826 648.055 96.073 634.8 96.073C621.545 96.073 610.8 106.826 610.8 120.091C610.8 133.356 621.545 144.11 634.8 144.11Z" fill="#7CBB2B"/>
<path d="M104.4 146.511C117.655 146.511 128.4 135.758 128.4 122.493C128.4 109.228 117.655 98.4749 104.4 98.4749C91.1452 98.4749 80.4 109.228 80.4 122.493C80.4 135.758 91.1452 146.511 104.4 146.511Z" fill="#7CBB2B"/>
<path d="M673.2 228.173C686.455 228.173 697.2 217.42 697.2 204.155C697.2 190.89 686.455 180.137 673.2 180.137C659.945 180.137 649.2 190.89 649.2 204.155C649.2 217.42 659.945 228.173 673.2 228.173Z" fill="#7CBB2B"/>
<path d="M673.2 60.0457C686.455 60.0457 697.2 49.2923 697.2 36.0274C697.2 22.7625 686.455 12.0092 673.2 12.0092C659.945 12.0092 649.2 22.7625 649.2 36.0274C649.2 49.2923 659.945 60.0457 673.2 60.0457Z" fill="#7CBB2B"/>
<path d="M46.8 228.173C60.0548 228.173 70.8 217.42 70.8 204.155C70.8 190.89 60.0548 180.137 46.8 180.137C33.5452 180.137 22.8 190.89 22.8 204.155C22.8 217.42 33.5452 228.173 46.8 228.173Z" fill="#7CBB2B"/>
<path d="M46.8 60.0457C60.0548 60.0457 70.8 49.2923 70.8 36.0274C70.8 22.7625 60.0548 12.0092 46.8 12.0092C33.5452 12.0092 22.8 22.7625 22.8 36.0274C22.8 49.2923 33.5452 60.0457 46.8 60.0457Z" fill="#7CBB2B"/>
<path d="M367.078 130.713C367.078 128.914 366.443 127.4 365.174 126.169C363.924 124.937 361.805 123.823 358.817 122.826C354.656 121.555 351.619 119.904 349.705 117.871C347.81 115.819 346.864 113.219 346.864 110.072C346.864 106.867 347.791 104.238 349.646 102.185C351.522 100.133 354.09 98.9116 357.352 98.5207V92.0997H361.717V98.55C364.998 98.9995 367.547 100.378 369.364 102.684C371.2 104.99 372.118 108.147 372.118 112.154H366.726C366.726 109.398 366.072 107.209 364.764 105.587C363.455 103.964 361.687 103.153 359.461 103.153C357.137 103.153 355.36 103.759 354.128 104.971C352.898 106.163 352.283 107.834 352.283 109.984C352.283 111.978 352.927 113.571 354.217 114.763C355.525 115.936 357.664 117.011 360.632 117.989C363.622 118.946 365.945 120.012 367.606 121.184C369.286 122.337 370.516 123.686 371.297 125.23C372.097 126.774 372.498 128.583 372.498 130.655C372.498 133.958 371.502 136.616 369.51 138.63C367.537 140.643 364.764 141.835 361.189 142.206V147.806H356.854V142.206C353.221 141.874 350.369 140.584 348.299 138.336C346.248 136.068 345.223 133 345.223 129.129H350.642C350.642 131.847 351.355 133.938 352.781 135.404C354.208 136.87 356.228 137.603 358.846 137.603C361.404 137.603 363.416 136.987 364.88 135.756C366.346 134.525 367.078 132.844 367.078 130.713Z" fill="#227B36"/>
<path d="M365.174 126.169L364.332 127.024L364.339 127.031L365.174 126.169ZM358.817 122.826L359.196 121.687L359.182 121.683L359.167 121.678L358.817 122.826ZM349.705 117.871L348.823 118.686L348.832 118.695L349.705 117.871ZM349.646 102.185L348.761 101.375L348.757 101.38L349.646 102.185ZM357.352 98.5206L357.494 99.713L358.552 99.5863V98.5206H357.352ZM357.352 92.0997V90.8988H356.152V92.0997H357.352ZM361.717 92.0997H362.917V90.8988H361.717V92.0997ZM361.717 98.5499H360.517V99.5976L361.554 99.7398L361.717 98.5499ZM369.364 102.684L368.42 103.427L368.425 103.432L369.364 102.684ZM372.118 112.154V113.355H373.318V112.154H372.118ZM366.726 112.154H365.526V113.355H366.726V112.154ZM354.128 104.971L354.964 105.834L354.971 105.827L354.128 104.971ZM354.217 114.763L353.402 115.645L353.41 115.652L353.417 115.658L354.217 114.763ZM360.632 117.989L360.258 119.129L360.266 119.132L360.632 117.989ZM367.606 121.184L366.913 122.165L366.926 122.175L367.606 121.184ZM371.297 125.23L370.226 125.773L370.231 125.784L371.297 125.23ZM369.51 138.63L368.657 137.784L368.653 137.788L369.51 138.63ZM361.189 142.206L361.066 141.011L359.989 141.123V142.206H361.189ZM361.189 147.806V149.007H362.389V147.806H361.189ZM356.854 147.806H355.654V149.007H356.854V147.806ZM356.854 142.206H358.054V141.11L356.963 141.01L356.854 142.206ZM348.299 138.336L347.41 139.141L347.417 139.15L348.299 138.336ZM345.223 129.129V127.928H344.023V129.129H345.223ZM350.642 129.129H351.842V127.928H350.642V129.129ZM352.781 135.404L351.922 136.241L352.781 135.404ZM368.278 130.713C368.278 128.596 367.516 126.768 366.008 125.306L364.339 127.031C365.371 128.032 365.878 129.234 365.878 130.713H368.278ZM366.016 125.313C364.57 123.887 362.24 122.702 359.196 121.687L358.436 123.965C361.369 124.943 363.278 125.987 364.332 127.024L366.016 125.313ZM359.167 121.678C355.104 120.437 352.291 118.866 350.579 117.048L348.832 118.695C350.947 120.942 354.208 122.674 358.466 123.975L359.167 121.678ZM350.586 117.056C348.923 115.254 348.064 112.958 348.064 110.072H345.664C345.664 113.48 346.698 116.384 348.823 118.686L350.586 117.056ZM348.064 110.072C348.064 107.114 348.912 104.788 350.537 102.991L348.757 101.38C346.67 103.688 345.664 106.619 345.664 110.072H348.064ZM350.532 102.996C352.178 101.193 354.463 100.076 357.494 99.713L357.209 97.3283C353.717 97.7468 350.864 99.0732 348.761 101.375L350.532 102.996ZM358.552 98.5206V92.0997H356.152V98.5206H358.552ZM357.352 93.3006H361.717V90.8988H357.352V93.3006ZM360.517 92.0997V98.5499H362.917V92.0997H360.517ZM361.554 99.7398C364.571 100.153 366.822 101.397 368.42 103.427L370.306 101.941C368.272 99.3578 365.425 97.846 361.879 97.3601L361.554 99.7398ZM368.425 103.432C370.039 105.461 370.918 108.322 370.918 112.154H373.318C373.318 107.972 372.359 104.52 370.302 101.936L368.425 103.432ZM372.118 110.953H366.726V113.355H372.118V110.953ZM367.926 112.154C367.926 109.212 367.226 106.728 365.698 104.832L363.83 106.341C364.918 107.689 365.526 109.584 365.526 112.154H367.926ZM365.698 104.832C364.144 102.906 362.022 101.952 359.461 101.952V104.354C361.354 104.354 362.766 105.023 363.83 106.341L365.698 104.832ZM359.461 101.952C356.934 101.952 354.811 102.614 353.287 104.115L354.971 105.827C355.908 104.904 357.34 104.354 359.461 104.354V101.952ZM353.294 104.108C351.774 105.581 351.083 107.597 351.083 109.984H353.483C353.483 108.072 354.023 106.745 354.964 105.834L353.294 104.108ZM351.083 109.984C351.083 112.263 351.833 114.194 353.402 115.645L355.031 113.882C354.023 112.948 353.483 111.693 353.483 109.984H351.083ZM353.417 115.658C354.91 116.996 357.235 118.134 360.258 119.129L361.008 116.848C358.093 115.888 356.141 114.876 355.018 113.869L353.417 115.658ZM360.266 119.132C363.194 120.071 365.392 121.09 366.913 122.165L368.298 120.203C366.499 118.933 364.048 117.822 360.998 116.845L360.266 119.132ZM366.926 122.175C368.47 123.234 369.551 124.439 370.226 125.773L372.367 124.688C371.48 122.934 370.1 121.441 368.285 120.195L366.926 122.175ZM370.231 125.784C370.928 127.127 371.298 128.739 371.298 130.655H373.698C373.698 128.427 373.267 126.423 372.362 124.678L370.231 125.784ZM371.298 130.655C371.298 133.698 370.39 136.033 368.657 137.784L370.362 139.474C372.614 137.198 373.698 134.218 373.698 130.655H371.298ZM368.653 137.788C366.925 139.552 364.44 140.661 361.066 141.011L361.313 143.401C365.088 143.008 368.149 141.733 370.367 139.47L368.653 137.788ZM359.989 142.206V147.806H362.389V142.206H359.989ZM361.189 146.605H356.854V149.007H361.189V146.605ZM358.054 147.806V142.206H355.654V147.806H358.054ZM356.963 141.01C353.566 140.699 351.012 139.51 349.181 137.523L347.417 139.15C349.726 141.657 352.876 143.048 356.744 143.402L356.963 141.01ZM349.188 137.53C347.387 135.537 346.423 132.784 346.423 129.129H344.023C344.023 133.216 345.109 136.6 347.41 139.141L349.188 137.53ZM345.223 130.33H350.642V127.928H345.223V130.33ZM349.442 129.129C349.442 132.054 350.214 134.485 351.922 136.241L353.641 134.566C352.498 133.39 351.842 131.639 351.842 129.129H349.442ZM351.922 136.241C353.632 138.001 356 138.804 358.846 138.804V136.402C356.456 136.402 354.782 135.739 353.641 134.566L351.922 136.241ZM358.846 138.804C361.591 138.804 363.908 138.142 365.653 136.676L364.109 134.836C362.924 135.833 361.218 136.402 358.846 136.402V138.804ZM365.653 136.676C367.422 135.188 368.278 133.154 368.278 130.713H365.878C365.878 132.534 365.269 133.861 364.109 134.836L365.653 136.676Z" fill="#227B36"/>
<defs>
<filter id="filter0_i" x="46.8" y="36.0273" width="626.4" height="172.128" filterUnits="userSpaceOnUse" color-interpolation-filters="sRGB">
<feFlood flood-opacity="0" result="BackgroundImageFix"/>
<feBlend mode="normal" in="SourceGraphic" in2="BackgroundImageFix" result="shape"/>
<feColorMatrix in="SourceAlpha" type="matrix" values="0 0 0 0 0 0 0 0 0 0 0 0 0 0 0 0 0 0 127 0" result="hardAlpha"/>
<feOffset dy="4"/>
<feGaussianBlur stdDeviation="2"/>
<feComposite in2="hardAlpha" operator="arithmetic" k2="-1" k3="1"/>
<feColorMatrix type="matrix" values="0 0 0 0 0 0 0 0 0 0 0 0 0 0 0 0 0 0 0.25 0"/>
<feBlend mode="normal" in2="shape" result="effect1_innerShadow"/>
</filter>
</defs>
</svg>
