<svg width="80" height="113" viewBox="0 0 80 113" fill="none" xmlns="http://www.w3.org/2000/svg">
<path d="M0.509644 32.6727L0.509583 32.6729L0.509491 32.673V32.6739V32.673L0.509583 32.673L0.509644 32.674V32.6727Z" fill="#FBCD87"/>
<path d="M0.508911 32.6727V32.6732V32.6738L0.509033 32.6736L0.509155 32.6735C0.509155 32.6738 0.509155 32.6741 0.509155 32.6744C0.509069 32.6739 0.508998 32.6733 0.508911 32.6727Z" fill="#FBCD87"/>
<path d="M0.509399 32.6729V32.673L0.509369 32.6732L0.50943 32.6732L0.509491 32.673L0.50946 32.6729L0.509399 32.6739V32.6729Z" fill="#FBCD87"/>
<path d="M0.509338 32.6732L0.509247 32.6733L0.509216 32.6734L0.509186 32.6735L0.509125 32.6744V32.6754L0.509216 32.6741L0.509247 32.6738L0.509308 32.6735L0.509338 32.6732Z" fill="#FBCD87"/>
<path d="M42.422 5.91632L42.4028 5.92047L42.2495 5.9541L42.2771 5.96521C42.5454 6.08721 42.8138 6.20915 43.0822 6.33105C43.1478 6.33484 43.2134 6.3386 43.2791 6.34235C43.0695 6.23518 42.8997 6.14739 42.7695 6.07892L42.519 5.9469C42.52 5.94686 42.5211 5.94684 42.5222 5.94684L42.422 5.91632Z" fill="#FBCD87"/>
<path d="M41.2109 8.66388V8.66437V8.66486L41.2118 8.66455L41.2127 8.66431C41.2127 8.66464 41.2127 8.66495 41.2127 8.66528L41.2118 8.66455L41.2109 8.66388Z" fill="#FBCD87"/>
<path d="M41.2142 8.66388L41.2134 8.66406C41.2127 8.66398 41.2124 8.66438 41.2127 8.66528L41.2289 8.66852C41.341 8.69725 41.445 8.72362 41.541 8.74762L41.473 8.68768L41.4735 8.68817L41.474 8.68866C41.4752 8.68782 41.4759 8.68749 41.4762 8.68762C41.3888 8.67976 41.3015 8.67181 41.2142 8.66388Z" fill="#FBCD87"/>
<path d="M48.3641 0.811401L48.3788 0.842773L48.3933 0.874084C48.4456 0.903044 48.4979 0.931975 48.5502 0.960815C48.473 0.897882 48.4121 0.848068 48.3675 0.811401L48.3641 0.812378V0.811401Z" fill="#FBCD87"/>
<path d="M48.6242 11.2155L48.8542 11.3428C49.3367 11.6105 50.0071 11.9744 50.8654 12.4343C52.3459 12.852 53.9374 13.2254 55.6399 13.5543C55.2969 13.4432 54.9404 13.3153 54.5704 13.1707C53.9126 12.907 53.4302 12.702 53.1232 12.5557L51.6526 12.1387C51.5311 12.2542 51.4286 12.3145 51.345 12.3196C51.262 12.3399 51.1531 12.3299 51.0184 12.2895C50.8101 12.2068 50.7172 12.161 50.7399 12.1519C50.6868 12.0936 50.6378 11.9859 50.5928 11.8288C50.0198 11.6585 49.3636 11.4541 48.6242 11.2155Z" fill="#FBCD87"/>
<path d="M72.9939 17.6523L72.9958 17.6547L72.9977 17.657V17.658L72.9991 17.6573C72.9996 17.6571 73 17.6569 73.0005 17.6567L73.0026 17.6559L73.0039 17.6556C73.0052 17.6559 73.0064 17.6562 73.0075 17.6566C73.0042 17.6551 73.0008 17.6537 72.9974 17.6523V17.6524L72.9957 17.6523L72.9939 17.6533V17.6523Z" fill="#FBCD87"/>
<path d="M56.743 15.0236L57.7793 15.4256C59.1151 15.9371 60.2671 16.3499 61.2353 16.6638C61.7194 16.821 62.1576 16.9534 62.5498 17.061C62.8248 17.1474 63.2883 17.2518 63.9405 17.3743C62.92 16.4815 62.0668 15.707 61.3806 15.0507C60.6937 15.1123 59.9325 15.1394 59.0968 15.1321C58.3589 15.1247 57.5743 15.0886 56.743 15.0236Z" fill="#FBCD87"/>
<path d="M9.33569 37.3185L9.33548 37.319L9.3353 37.3195C9.33542 37.3198 9.33555 37.3202 9.33569 37.3205C9.33569 37.3198 9.33569 37.3191 9.33569 37.3185Z" fill="#FBCD87"/>
<path d="M9.32806 37.3303V37.3312C9.04482 37.7198 8.58917 38.4215 7.96112 39.4363C7.83034 39.8448 7.69952 40.2533 7.56866 40.6618C7.66374 40.7134 7.77557 40.8012 7.90417 40.9252L9.33099 37.3303L9.32806 37.3312V37.3303Z" fill="#FBCD87"/>
<path d="M3.19281 96.5209L3.13184 96.5653L3.07089 96.6097C3.07185 96.6101 3.07281 96.6105 3.07376 96.6107C3.07622 96.6139 3.07738 96.616 3.07721 96.617L3.19281 96.5209Z" fill="#FBCD87"/>
<path d="M45.7861 111.597L45.7856 111.598L45.7848 111.597L45.7838 111.598C45.7825 111.597 45.7806 111.597 45.7781 111.597L45.7762 111.598L45.7741 111.597L45.7722 111.597L45.7702 111.597L45.7664 111.598L45.7645 111.598L45.7626 111.598L45.7632 111.599L45.7758 111.598L45.7884 111.597V111.598C45.7876 111.598 45.7869 111.597 45.7861 111.597Z" fill="#FBCD87"/>
<path d="M45.7967 111.597L45.7925 111.597L45.7884 111.597V111.598C45.789 111.598 45.7896 111.598 45.7903 111.598C45.7913 111.598 45.7924 111.597 45.7934 111.597L45.7967 111.598V111.598V111.598L45.8185 111.598L45.8403 111.598L45.8378 111.598L45.8354 111.598L45.833 111.598L45.8306 111.597L45.8282 111.597L45.8258 111.597L45.8189 111.597L45.812 111.597L45.8097 111.597L45.8075 111.598C45.8046 111.597 45.8017 111.597 45.7988 111.598V111.597L45.7967 111.598V111.597Z" fill="#FBCD87"/>
<path d="M77.8854 64.8383L77.8752 64.8458C77.8512 64.8632 77.8335 64.875 77.8224 64.8814C77.8079 64.8903 77.793 64.8987 77.7777 64.9068C77.7472 64.9227 77.7154 64.9367 77.6823 64.9486C77.7079 64.9397 77.7389 64.9274 77.7753 64.9117C77.8198 64.8915 77.8542 64.8741 77.8786 64.8595L77.8823 64.8605L77.889 64.8383L77.8854 64.8392V64.8383Z" fill="#FBCD87"/>
<path d="M72.817 83.6797V83.6798L72.817 83.6803V83.6808V83.6804L72.817 83.6802V83.6797Z" fill="#FBCD87"/>
<path d="M34.8411 8.03082L34.0124 8.34186C34.0523 8.10108 32.1591 9.06399 28.3328 11.2306C27.5198 11.317 26.5934 10.9714 25.5536 10.1938C23.3669 11.0987 18.3776 14.7852 10.5858 21.2535L7.87836 27.4752C9.47306 26.0976 9.51304 27.4836 7.99829 31.6335C8.47716 30.4316 8.96727 29.8974 9.46863 30.0309L12.2032 25.3208C12.6557 24.8851 13.0124 25.0595 13.2735 25.8441L8.04196 35.5975C8.15262 35.3998 8.39623 35.479 8.7728 35.8352L12.7888 31.0991C13.4844 30.8963 13.8973 30.9373 14.0276 31.2221L9.41241 37.1401L9.35501 37.2906C9.62902 36.9931 9.91132 36.861 10.2019 36.8941L10.5164 37.2999C9.99032 39.4083 9.87286 40.3481 10.164 40.1194L6.29147 50.4095L6.06473 52.6862L8.81155 54.578L9.15738 56.0494L6.44485 61.321L6.17233 63.0649C6.30411 62.9443 6.51055 63.4265 6.79169 64.5112L6.10187 67.9906L9.62747 73.971C9.88093 73.8248 10.4342 74.4095 11.2873 75.7251C11.1169 75.5198 11.3182 76.3971 11.8911 78.3568L15.2794 89.0276C19.1282 93.5011 20.9513 95.5206 20.7487 95.0861L21.7572 98.4456L28.7521 107.031L28.6445 107.131L31.6567 109.387C34.1649 110.228 36.7688 110.924 39.4684 111.474L53.6696 111.456C54.2028 111.444 55.2233 111.172 56.731 110.641L57.8258 110.203L60.9503 107.363C60.9293 107.088 61.1891 106.617 61.7298 105.951L64.5552 103.815L69.0884 97.2124L71.9522 89.3739L72.785 83.2566C72.855 82.9676 73.0564 82.78 73.3893 82.6938C73.2899 81.9527 73.4362 81.513 73.8283 81.3746L73.9389 78.7104C74.1545 78.2583 74.4826 78.0993 74.9232 78.2333L75.8089 73.7151C76.4538 72.648 76.8707 72.1907 77.0595 72.343C77.2433 69.7712 77.4373 68.6288 77.6415 68.916L77.7195 66.5682C76.6787 64.8029 76.2978 63.5567 76.5769 62.8298C76.7085 61.023 77.2454 59.3709 78.1876 57.8736L77.8614 53.3839C77.6479 53.231 77.4224 52.7239 77.1849 51.8626C76.4775 51.515 76.0491 51.1506 75.8997 50.7694C75.5009 49.8942 75.3104 49.0989 75.3282 48.3836C75.3736 46.289 75.5561 44.6734 75.8755 43.5368C76.1897 42.0793 76.6845 41.17 77.3597 40.8087C77.2606 40.0383 77.4193 39.5225 77.8359 39.2613L75.0836 30.5882L71.1456 22.8851L70.4486 22.179L65.7015 18.8422C65.2984 19.0585 62.0172 18.1931 55.8578 16.2457L43.5407 10.3337L34.8411 8.03082Z" fill="#FBCD87"/>
<path d="M70.7369 98.7789L70.7159 98.829C70.66 98.9622 70.6041 99.0937 70.5484 99.2236C70.6 99.1749 70.6673 99.112 70.7505 99.0349C70.7472 98.9685 70.7439 98.8831 70.7405 98.7789L70.7369 98.7798V98.7789Z" fill="#FBCD87"/>
<path d="M23.3385 106.678L23.3336 106.687L23.3286 106.697L24.2019 107.87L23.3385 106.678Z" fill="#FBCD87"/>
<path d="M38.3672 111.278L38.3689 111.279L38.4447 111.302C38.4849 111.317 38.5232 111.336 38.5595 111.357L38.6123 111.39C38.6465 111.414 38.6783 111.441 38.7078 111.469C38.7973 111.557 38.8614 111.661 38.9002 111.781L38.8748 111.692L38.8411 111.611L38.7989 111.539L38.7484 111.475L38.6895 111.419L38.6223 111.371L38.5467 111.332L38.4627 111.301L38.3672 111.278Z" fill="#FBCD87"/>
<path d="M11.8897 79.5233V79.5243L11.8972 79.5719C12.0617 79.6783 12.2068 79.8032 12.3326 79.9466C12.4594 80.0902 12.5652 80.2486 12.6501 80.4218L12.59 80.2924C12.5479 80.2088 12.5019 80.1299 12.4518 80.0559C12.4017 79.982 12.3476 79.9129 12.2895 79.8488C12.1742 79.7207 12.041 79.6122 11.8897 79.5233Z" fill="#FBCD87"/>
<path d="M4.68713 96.0397L4.65207 96.0403L4.617 96.041L4.54587 96.0449L4.47372 96.0513L4.40057 96.0604L4.32642 96.0721C4.30134 96.0769 4.27628 96.0817 4.25125 96.0864L4.17508 96.1033L4.0979 96.1227L4.02252 96.144L4.02344 96.145C4.31854 96.0816 4.61459 96.0812 4.91156 96.144C4.8998 96.1127 4.88806 96.0814 4.87631 96.0501L4.87921 96.05C4.81808 96.0433 4.75405 96.0398 4.68713 96.0397Z" fill="#FBCD87"/>
<path d="M6.44272 25.8113L6.44257 25.8123L6.44241 25.8114V25.8124L6.44266 25.8121C6.44288 25.8118 6.44308 25.8116 6.44324 25.8114V25.8124L6.44299 25.8118L6.44272 25.8113Z" fill="#FBCD87"/>
<path d="M6.44687 25.8105L6.4465 25.8105L6.44611 25.8115C6.44587 25.8112 6.44561 25.8112 6.44531 25.8115L6.44379 25.8107L6.44348 25.811L6.44321 25.8114V25.8124L6.44443 25.8123L6.44568 25.8122L6.44662 25.8112C6.44671 25.8115 6.44679 25.8118 6.44687 25.8121V25.8105Z" fill="#FBCD87"/>
<path d="M6.42673 25.8117L6.42545 25.8118L6.42416 25.8118L6.42334 25.8123L6.42249 25.8127L6.42224 25.8118L6.42191 25.8121L6.42157 25.8125C6.42271 25.8128 6.42386 25.8131 6.42502 25.8135C6.42512 25.8131 6.42523 25.8128 6.42535 25.8126L6.42603 25.8121L6.42673 25.8117Z" fill="#FBCD87"/>
<path d="M6.44144 25.8109L6.44104 25.8113L6.44067 25.8118C6.44041 25.8116 6.44015 25.8113 6.43988 25.8109L6.43896 25.811L6.43808 25.8111L6.43637 25.8112L6.43561 25.8122L6.43481 25.8113C6.43401 25.8113 6.43323 25.8113 6.4325 25.8113L6.43149 25.8123C6.43081 25.8117 6.4302 25.8114 6.42966 25.8115L6.42886 25.8124C6.42838 25.8118 6.42793 25.8115 6.42752 25.8116L6.42697 25.8126L6.42673 25.8117V25.8127V25.8117V25.8127L6.42883 25.8122L6.43097 25.8116C6.43172 25.8119 6.43247 25.8123 6.43323 25.8126L6.43549 25.8121L6.43771 25.8115L6.43872 25.8124C6.43903 25.812 6.43936 25.8117 6.43973 25.8114C6.44005 25.8117 6.44038 25.812 6.4407 25.8124C6.44128 25.812 6.44185 25.8117 6.44241 25.8114V25.8124L6.44144 25.8109Z" fill="#FBCD87"/>
<path d="M6.44797 25.8111L6.44745 25.8112L6.4469 25.8121V25.8131V25.8112V25.8115L6.44797 25.8111Z" fill="#FBCD87"/>
<path d="M6.4209 25.8118L6.42023 25.8123L6.41956 25.8127L6.42044 25.8132L6.42133 25.8137L6.42108 25.8127L6.4209 25.8118Z" fill="#FBCD87"/>
<path d="M6.41898 25.8119L6.41809 25.8129C6.41861 25.8132 6.41912 25.8135 6.41962 25.8138L6.4198 25.8137L6.42001 25.8136L6.42059 25.8132C6.42075 25.8131 6.42088 25.8131 6.42099 25.813L6.4212 25.8129L6.42139 25.8128C6.42072 25.8131 6.42009 25.8134 6.41946 25.8138C6.41932 25.8132 6.41916 25.8125 6.41898 25.8119Z" fill="#FBCD87"/>
<path d="M0.103241 32.5057L0.102783 32.5059C0.101583 32.5065 0.100779 32.5068 0.100372 32.5067L0.0967102 32.5219C0.198377 32.5621 0.254724 32.584 0.265778 32.5876C0.310858 32.6045 0.366428 32.6243 0.432495 32.647V32.648C0.311315 32.601 0.201568 32.5535 0.103241 32.5057Z" fill="#FBCD87"/>
<path d="M69.7675 57.9699C68.9626 58.0029 68.2039 58.1593 67.4914 58.4391C66.5167 58.9288 65.9053 59.3976 65.6573 59.8455C64.9712 60.9398 65.0652 62.3863 65.939 64.1849L69.7675 57.9699Z" fill="#FBCD87" fill-opacity="0.423529"/>
<path d="M68.5245 57.4727C67.8097 58.7347 67.4278 59.5753 67.3788 59.9943C67.3246 60.6387 67.486 61.1509 67.8631 61.5308C68.167 61.6977 68.5417 61.5838 68.9874 61.189C69.8291 60.264 70.3239 59.5243 70.4719 58.9698C70.64 58.4464 70.6147 58.1143 70.3961 57.9733C70.2058 57.7766 69.8563 57.7699 69.3477 57.9533C68.1301 58.5238 67.0409 59.3995 66.0799 60.5803C65.2569 61.7314 64.8674 62.6411 64.9115 63.3093C64.9677 63.9216 65.0552 64.278 65.174 64.3783C65.3631 64.6173 65.6679 64.7683 66.0882 64.8313L68.5245 57.4727Z" fill="#FBCD87"/>
<path d="M68.0633 57.901V57.902C67.7763 57.9542 67.4362 58.0747 67.0431 58.2635C66.7946 58.4014 66.5986 58.5347 66.4551 58.6634C66.3751 58.7275 66.218 58.8967 65.9837 59.171C65.8997 59.2782 65.8295 59.3814 65.773 59.4808C65.6601 59.6798 65.6023 59.8634 65.5996 60.0317C65.5868 60.1897 65.6282 60.3378 65.7237 60.476C65.7715 60.5451 65.8328 60.6117 65.9076 60.6759L66.0301 60.7703C66.1185 60.8319 66.2205 60.8911 66.3359 60.9479C66.912 61.1438 67.3603 61.1111 67.681 60.8496C67.9284 60.6099 68.0915 60.4011 68.1703 60.2232C68.2713 60.0254 68.3324 59.8188 68.3537 59.6035C68.3757 59.2638 68.3464 58.9975 68.2661 58.8047C68.0678 58.481 67.8774 58.296 67.6948 58.2495L68.0668 57.901L68.0633 57.902V57.901Z" fill="#FBCD87"/>
<path d="M32.775 89.2012C34.2122 90.1633 35.4158 90.7596 36.386 90.9901C37.8519 91.2956 39.1329 91.5797 40.2289 91.8423L42.1799 92.0613C43.188 91.9877 44.2069 91.8574 45.2365 91.6703L47.3183 91.7184C48.7132 91.636 50.58 91.4575 52.9189 91.1829C53.3058 91.2226 54.3744 90.7739 56.1245 89.837C56.8686 89.2961 57.3474 88.9009 57.5609 88.6512C58.4586 87.6307 58.8154 87.0719 58.6311 86.975C58.3405 85.1257 57.2827 84.0128 55.4578 83.6364L52.1603 82.9012L50.3455 82.8265C48.3501 83.0207 47.1446 83.1597 46.729 83.2435C45.3435 83.2801 44.3274 83.3488 43.6808 83.4495L41.9411 83.815L39.5898 84.6228L32.775 89.2012Z" fill="#9B6E3A"/>
<path d="M34.984 69.7906C33.3889 71.6398 32.2224 73.269 31.4846 74.6783L30.0347 77.6904C30.0728 77.8539 29.7307 78.6615 29.0087 80.1132C28.9673 80.234 28.9636 80.3537 28.9976 80.4724C30.0342 81.2506 31.2683 80.6172 32.6999 78.5722C32.8036 78.3073 33.1075 77.7342 33.6114 76.8528L34.2617 75.3234L34.9394 72.5071C34.9396 72.5605 35.0242 71.9956 35.1932 70.8125C35.2131 70.7165 35.2448 70.6421 35.2883 70.5894L34.984 69.7906Z" fill="#FFB95D"/>
<path d="M53.1942 69.6898L54.7445 72.7389C55.4316 73.6349 55.8543 74.2222 56.0125 74.5008L57.3893 76.8635L58.2288 78.0322C58.4971 78.6001 59.1239 79.5873 60.1093 80.9937C60.6681 81.3898 60.9413 80.9869 60.9287 79.785C60.8559 79.3939 60.8104 79.1851 60.7922 79.1587L59.1215 74.3591C58.8639 73.7057 58.6297 73.1713 58.4191 72.7557C57.5531 71.1113 56.8399 69.9693 56.2793 69.3296C56.0137 69.0121 55.4098 68.4095 54.4676 67.5219C53.7298 66.8714 52.8429 66.336 51.8069 65.9158L53.1942 69.6898Z" fill="#FFB95D"/>
<path d="M10.6623 55.9203C11.2073 56.393 12.9994 58.8174 16.0384 63.1935C16.7556 64.4968 17.291 65.7151 17.6445 66.8483C17.862 67.5036 17.9949 68.4644 18.0432 69.7307C17.9971 70.4818 17.9918 71.3049 18.0273 72.2002L17.8972 75.2417L17.9207 76.5706L17.8178 78.8905C17.28 80.9065 17.0093 82.6315 17.0057 84.0656L17.4812 87.8061C17.3807 88.0237 17.0303 87.9215 16.4301 87.4995C16.0496 87.0233 15.4815 85.9597 14.7258 84.3088L13.2661 78.9301C12.907 76.612 12.6903 75.4023 12.6159 75.301C12.503 74.5972 12.452 73.9819 12.4628 73.455L11.9176 70.7532C11.8358 70.2074 11.8038 69.7761 11.8214 69.4591L11.6537 68.6614C11.7184 68.5303 11.6211 67.6164 11.3615 65.9197C10.9906 64.8177 10.8191 63.9269 10.8472 63.2474L10.6623 55.9203Z" fill="#FFB95D"/>
<path d="M49.8368 16.0633L51.8181 27.4841C52.058 28.3435 52.1041 31.6249 51.9564 37.3281C52.1951 39.5172 52.5918 41.2596 53.1466 42.5552C53.5273 43.198 54.4286 43.6926 55.8508 44.0391C61.4831 44.8067 64.2204 45.2747 64.0624 45.4431C65.3954 45.9912 67.0547 46.8076 69.0403 47.8922L72.0636 48.8672C73.7089 48.8285 74.8958 47.5613 75.6242 45.0655C76.3319 43.5233 76.2582 40.6289 75.403 36.3822L72.5966 28.3176L71.2491 25.5112C69.9345 23.0795 67.4633 20.6437 63.8354 18.2039L49.8368 16.0633Z" fill="#FBB669"/>
<path d="M45.673 57.3022L45.6998 57.4343C45.7612 57.8906 45.7639 58.3831 45.7076 58.9119C45.6949 59.0423 45.581 59.653 45.3659 60.744L45.2765 61.688C45.2764 61.7917 45.3251 62.233 45.4227 63.0121C45.5175 63.433 45.6365 63.8578 45.7798 64.2863C46.2562 65.1168 46.7395 66.0592 47.2298 67.1137L47.688 67.8057C47.8644 68.0493 48.0075 68.2133 48.1172 68.2977L48.192 68.3438L48.6988 68.4708C49.0615 68.529 49.6397 68.4726 50.4334 68.3016C51.0766 68.0988 51.4955 67.896 51.6902 67.6932C52.0674 67.2242 52.2226 66.8413 52.1557 66.5444C52.1452 66.4237 52.079 66.2287 51.9573 65.9591C51.4044 65.0365 50.9852 64.273 50.6999 63.6687C50.1482 63.0721 49.7709 62.6225 49.5679 62.3198L49.4639 62.1419L49.0005 61.1821C48.6603 60.8164 48.3179 60.4705 47.9732 60.1444C47.709 59.6895 47.5105 59.3841 47.3777 59.2283C46.9035 58.7592 46.5089 58.4046 46.1938 58.1646L45.673 57.3022Z" fill="#FFBA6D"/>
<path d="M34.5787 53.2334L34.6382 53.2552C34.9445 53.3679 35.3259 53.5109 35.7823 53.6844L35.863 53.7014C35.3512 53.4858 34.9998 53.3432 34.8088 53.2737C34.7093 53.2539 34.6326 53.2404 34.5787 53.2334Z" fill="#B6B2B0"/>
<path d="M35.2051 58.0854L35.2385 58.136C35.3286 58.2713 35.4289 58.4071 35.5394 58.5433L35.5377 58.4858L35.5409 58.4857C35.4861 58.417 35.4186 58.3347 35.3383 58.2391C35.3267 58.2249 35.2834 58.1737 35.2083 58.0854L35.2051 58.0864V58.0854Z" fill="#B6B2B0"/>
<path d="M31.6257 61.252L31.6324 61.2527C31.6823 61.2584 31.7334 61.2714 31.7855 61.2917C31.8079 61.3006 31.8297 61.3107 31.8509 61.3221C31.8614 61.3277 31.8718 61.3337 31.882 61.34C31.8873 61.3428 31.9023 61.3529 31.9269 61.3704L31.9298 61.3713L31.8984 61.3469L31.8665 61.326L31.834 61.3077L31.8011 61.292L31.7677 61.2788C31.7563 61.2753 31.745 61.2718 31.7337 61.2682C31.7222 61.2656 31.7107 61.263 31.6992 61.2603L31.6642 61.2548L31.6257 61.252Z" fill="#B6B2B0"/>
<path d="M28.2149 55.095L27.7551 55.2178C26.2833 55.5869 25.4796 55.7537 25.3441 55.7181L25.0345 56.0235L23.7153 56.9988L23.5013 57.2449L22.6932 58.242C22.6647 58.7326 22.6983 59.1789 22.794 59.5808L23.3717 60.2979C23.8296 60.3704 24.8073 60.621 26.3048 61.0496L27.0706 61.4792C27.2309 61.3125 27.729 61.1916 28.5649 61.1166C29.3578 61.0727 30.368 61.1167 31.5956 61.2485L32.3369 61.0993C32.4867 61.0911 32.6295 61.1239 32.7654 61.1977C32.9602 61.089 33.1235 61.0515 33.2553 61.0853L33.5663 60.8345C33.6471 60.6446 33.8151 60.4155 34.0703 60.1471C34.3072 59.9018 34.5335 59.6902 34.7491 59.5121C34.3549 59.0535 34.0159 58.5547 33.7322 58.0157C33.6132 57.7668 33.5073 57.3129 33.4145 56.6539C32.6478 56.665 32.0138 56.6123 31.5125 56.4957C30.4304 56.1045 29.6888 55.7124 29.2875 55.3195C28.6771 55.2941 28.3196 55.2193 28.2149 55.095Z" fill="#B6B2B0"/>
<path d="M65.6776 53.8253L65.7121 53.8906C65.8021 54.0642 65.8763 54.2328 65.9346 54.3965L66.3711 54.6943L66.3057 54.5883L66.2375 54.4838L66.1665 54.382C66.1182 54.315 66.068 54.2497 66.016 54.186C65.9639 54.1225 65.91 54.0606 65.8542 54.0005C65.7995 53.9403 65.7406 53.8819 65.6776 53.8253Z" fill="#B6B2B0"/>
<path d="M58.9885 54.1036L58.7502 54.136C58.0429 54.2292 57.5263 54.3454 57.2005 54.4847C57.0166 54.4499 56.8739 54.382 56.7726 54.2808L53.901 55.3336C53.61 55.5335 53.4541 55.6223 53.4332 55.6002L52.3531 56.7415L52.4497 58.315L52.4446 58.7076C53.0837 58.9823 53.6682 59.2721 54.1982 59.5767C54.3282 59.4272 54.5447 59.3607 54.8475 59.3773C55.1831 59.6028 55.3414 59.7665 55.3224 59.8684C55.4249 59.8234 55.5544 59.8189 55.7112 59.855L58.4389 60.739C58.7445 60.4503 58.9477 60.3197 59.0483 60.3471C59.2099 60.3333 59.3927 60.4016 59.5969 60.552C59.7485 60.5262 59.9227 60.5177 60.1193 60.5267L60.7092 60.6787C61.0152 60.5038 61.4803 60.1851 62.1045 59.7224L63.6196 58.3348C63.6399 57.9172 63.6741 57.5732 63.7222 57.3027C63.4843 56.8903 63.3394 56.5747 63.2874 56.3557C61.9299 55.5008 61.2296 54.9787 61.1865 54.7891C61.1202 54.7767 60.9911 54.7289 60.7992 54.6458C60.5554 54.604 60.2906 54.5753 60.0047 54.5596C59.9322 54.5565 59.8317 54.5026 59.7034 54.3981C59.5419 54.4091 59.4127 54.3983 59.3159 54.3658C59.1781 54.31 59.069 54.2226 58.9885 54.1036Z" fill="#B6B2B0"/>
<path d="M63.9779 57.6992V57.7002C63.9715 57.7038 63.9607 57.7104 63.9456 57.7201C63.9457 57.7198 63.937 57.7258 63.9197 57.7379C63.923 57.7358 63.9262 57.7336 63.9294 57.7314L63.9393 57.7253C63.9493 57.7193 63.9595 57.7135 63.9698 57.7079L63.9801 57.7025C63.9813 57.7028 63.9824 57.7032 63.9836 57.7034C63.9827 57.7013 63.982 57.6999 63.9814 57.6992L63.9779 57.7002V57.6992Z" fill="#B6B2B0"/>
<path d="M63.7268 57.9364L63.7152 57.9564C63.6855 58.01 63.6655 58.0676 63.6552 58.1291C63.6576 58.1177 63.6603 58.1063 63.6633 58.0949C63.6713 58.0669 63.6764 58.0503 63.6789 58.0452L63.6849 58.0289C63.6891 58.0182 63.6936 58.0076 63.6984 57.9971C63.7079 57.9763 63.7186 57.9561 63.7303 57.9364L63.7268 57.9374V57.9364Z" fill="#B6B2B0"/>
<path d="M9.53742 21.5215L9.34498 21.8712C7.9701 24.4921 7.0915 26.5196 6.70918 27.9536L5.75959 31.0299C5.62163 31.7618 5.53853 32.6485 5.51029 33.6901C5.47224 34.8809 5.4692 36.5251 5.5012 38.6227C5.56862 40.5828 5.72432 43.0697 5.96827 46.0833L6.11707 51.0415C6.12216 51.8287 6.11593 52.715 6.0984 53.7004C6.81545 53.6851 7.48842 53.6988 8.11729 53.7415L13.4272 33.7339C11.9505 32.7843 10.9085 31.4231 10.3014 29.6503C9.91624 28.401 9.71233 27.2736 9.68967 26.2682C9.60096 25.12 9.70379 24.0059 9.99815 22.9257L9.53742 21.5215Z" fill="black"/>
<path d="M8.29733 51.2772L7.85162 52.4917L7.40591 53.7063C7.6497 53.7145 7.84538 53.7237 7.99298 53.7338C8.02722 53.4205 8.12867 52.6016 8.29733 51.2772Z" fill="black"/>
<path d="M10.3913 45.5713L9.12665 49.0174C9.19879 48.674 9.23465 48.4254 9.23422 48.2714C9.2365 48.2096 9.17202 48.1871 9.04077 48.2039C8.96307 48.233 8.89014 48.3134 8.82199 48.4451C8.70608 48.7113 8.62844 48.9565 8.58905 49.1808C8.48624 49.902 8.39054 50.5967 8.30191 51.2647L9.12286 49.0358L9.07486 49.2598C8.87515 49.8445 8.72444 50.314 8.62271 50.6685C8.58581 50.7808 8.50886 51.09 8.39188 51.5958C8.32034 51.9154 8.25902 52.2315 8.20792 52.5441C8.15762 53.005 8.11234 53.4029 8.07205 53.7379C8.59387 53.7711 9.09204 53.8222 9.56659 53.8912L10.2637 54.009L10.6011 54.0906L10.3678 54.0312L10.8521 54.1442C10.774 53.2019 10.7217 52.4627 10.6953 51.9265C10.6815 50.8269 10.6841 49.6066 10.7032 48.2655C10.698 47.9454 10.6895 47.6821 10.6778 47.4755C10.6095 46.4926 10.514 45.8578 10.3913 45.5713Z" fill="black"/>
<path d="M70.7765 22.2626L70.6534 22.538C70.3122 23.2728 69.866 24.0114 69.3148 24.7537L72.7425 26.3904L72.7728 26.119L72.7409 25.8009L72.6471 25.4359L72.4911 25.0241L72.273 24.5654C71.9421 23.9227 71.4432 23.155 70.7765 22.2626Z" fill="black"/>
<path d="M68.7229 25.504L68.588 25.6638C67.6178 26.7645 66.8899 27.475 66.4043 27.7952C66.7603 28.0258 67.0536 28.2466 67.2842 28.4576C67.5273 28.6802 67.7508 28.9636 67.9547 29.3076C67.951 29.228 67.9843 29.235 68.0546 29.3285C68.2303 29.5547 68.7989 30.8073 69.7605 33.0862C70.7974 35.5784 71.6478 37.7073 72.3117 39.4731C72.4215 39.8761 72.4874 40.1684 72.5094 40.3501C72.5525 42.1392 72.619 43.2774 72.7089 43.7648L74.8464 46.8508C75.1197 48.0741 75.63 49.7041 76.3774 51.7406L77.5405 50.7327C76.8391 49.5056 76.4965 48.5853 76.5127 47.9719C76.5634 47.1493 76.6336 46.4733 76.7232 45.9442C77.3645 43.4512 77.7041 42.0938 77.7419 41.8722C77.7788 41.7981 77.8231 41.4427 77.8747 40.8061C77.9351 39.6477 77.9282 38.6989 77.8542 37.9596L77.3091 35.3701C76.7338 33.9286 75.8075 32.1596 74.5302 30.0631C73.3972 28.3075 72.3661 26.8593 71.4368 25.7183L68.7229 25.504Z" fill="black"/>
<path d="M79.4196 54.5672L79.394 54.6176L79.3683 54.668L79.4233 54.5855L79.427 54.5865L79.4232 54.5672L79.4196 54.5682V54.5672Z" fill="black"/>
<path d="M69.9314 23.856L69.7676 24.1092C69.32 24.7849 68.7848 25.4637 68.1621 26.1454C69.6595 27.7516 70.824 29.1365 71.6557 30.3002C71.9668 30.7385 72.5599 31.8284 73.4351 33.5696C73.7825 34.128 74.0995 34.5603 74.386 34.8665C74.7939 35.3011 75.6093 35.7038 76.8325 36.0745L77.5663 36.7625L77.5949 36.7537L76.6274 31.9921C76.6141 31.9028 76.6194 31.8221 76.6432 31.7498C76.5061 31.608 76.3861 31.4754 76.283 31.3522L75.4854 30.0058C74.9474 29.0043 74.4231 27.9621 73.9126 26.8793L73.7296 26.5652C73.357 25.9497 72.9561 25.3076 72.5269 24.639L69.9314 23.856Z" fill="black"/>
<path d="M69.5443 24.4361V24.4372C69.5012 24.5045 69.3507 24.7074 69.0929 25.0458C68.9873 25.1813 68.8783 25.317 68.7657 25.4527C68.5406 25.7242 68.3015 25.9963 68.0485 26.2688C68.255 26.3013 68.4062 26.2976 68.5021 26.2576C68.6423 26.2092 68.7967 26.0927 68.9653 25.9084C69.1237 25.6945 69.2555 25.46 69.3607 25.2045C69.4106 25.0806 69.4511 24.9551 69.4822 24.8282C69.5079 24.7169 69.5237 24.6369 69.5296 24.5884L69.5475 24.4428C69.5491 24.4361 69.548 24.4339 69.5443 24.4361Z" fill="black"/>
<path d="M76.9262 51.9781L76.9414 52.1725L76.9566 52.3669V52.3679C76.9556 52.3401 76.9549 52.3236 76.9547 52.3182L76.9532 52.2856C76.9521 52.2639 76.951 52.2425 76.9497 52.2214L76.9488 52.2012C76.9466 52.1643 76.9451 52.1408 76.9441 52.1307C76.9425 52.1071 76.9378 52.0563 76.9298 51.9781L76.9262 51.9791V51.9781Z" fill="black"/>
<path d="M76.9578 52.4288L76.9596 52.5219C76.9654 52.7775 76.9703 52.939 76.9744 53.0064C77.0195 53.769 77.0561 54.4292 77.0842 54.9872C77.0924 55.1532 77.0996 55.4285 77.1058 55.8129C77.1092 55.9088 77.1143 56.0013 77.1212 56.0905L77.1705 56.5826C77.1824 56.7281 77.1913 56.872 77.1973 57.0141C77.2045 57.0947 77.2096 57.1452 77.2128 57.1657C77.222 57.2306 77.2324 57.2867 77.244 57.334L77.3896 57.9025L76.9614 52.4288L76.9578 52.4297V52.4288Z" fill="black"/>
<path d="M77.715 51.6237C78.2448 52.0776 78.5478 53.1483 78.6241 54.8357C78.6392 55.2631 78.5213 56.2362 78.2703 57.7549C78.1019 58.4963 78.0029 58.8918 77.9734 58.9417L77.3034 60.1304C77.2549 60.2586 77.2917 60.4061 77.4137 60.573C77.4196 60.6297 77.4095 60.6901 77.3834 60.7543C77.3059 61.1045 76.99 61.033 76.4356 60.5397C75.4508 59.4654 74.9348 58.7028 74.8873 58.2518C74.7871 57.7945 74.7408 57.4979 74.7481 57.362L74.8871 56.668C74.9344 55.9801 74.9825 55.5588 75.0315 55.4039L75.0345 54.5991C74.9825 54.2476 74.9585 53.8894 74.9622 53.5245L74.6726 51.9931C74.5548 50.7212 74.5316 49.9287 74.6031 49.6156C74.6103 49.635 74.5906 49.4769 74.5439 49.1415C74.5103 48.9381 74.3362 48.6478 74.0216 48.2706L72.3577 46.6258C72.0067 46.0121 71.858 45.3634 71.9116 44.6796C71.8446 43.9349 72.0863 43.168 72.6366 42.3787C72.7421 42.2326 72.8433 42.1242 72.9402 42.0536C73.4181 41.9087 74.0454 41.4892 74.822 40.795L77.715 51.6237Z" fill="black"/>
<path d="M42.0389 77.1038L41.9966 77.2394C41.9695 77.3311 41.9445 77.4253 41.9218 77.5222C41.899 77.619 41.8785 77.7183 41.8601 77.8202L41.8342 77.975C41.7851 78.2939 41.7568 78.6248 41.7493 78.9675C41.7815 78.8097 41.8094 78.6644 41.8329 78.5316L41.8693 78.3242C41.8928 78.1864 41.9149 78.0492 41.9356 77.9128C41.9563 77.7765 41.9755 77.6409 41.9933 77.5061C42.011 77.3712 42.0273 77.2372 42.0422 77.1038L42.0389 77.1048V77.1038ZM39.4101 80.6105L39.4231 80.6343L39.433 80.6552L39.4399 80.6733L39.4436 80.6886L39.4442 80.7012L39.4418 80.7109L39.4363 80.718L39.4278 80.7221L39.4162 80.7235L39.335 80.8007L39.4069 80.6105L39.4101 80.6115V80.6105ZM41.8007 77.5663L41.2935 78.3055C41.1204 78.8635 40.5807 79.9162 39.6744 81.4636C39.9565 80.5382 40.1638 79.7392 40.2961 79.0668C39.8542 79.5504 39.5582 80.0642 39.4082 80.6081C39.3765 80.5553 39.341 80.5038 39.3019 80.4535C39.1142 80.7092 38.9877 80.892 38.9225 81.0019C38.8302 81.148 38.745 81.2949 38.6668 81.4425L39.335 80.8017C38.5808 82.2206 38.1465 83.1347 38.0323 83.544C38.0385 82.9977 38.2489 82.299 38.6634 81.4479L36.4034 83.6117C36.0473 83.8934 35.593 84.1961 35.0404 84.5201C34.7123 84.6751 34.7018 84.5316 35.009 84.0894C35.2862 83.719 35.4812 83.4781 35.5941 83.3664C36.3166 82.8109 36.7155 82.4785 36.7907 82.369C36.8473 82.3085 36.8861 82.2576 36.9071 82.2164L36.4965 82.4812C36.1951 82.6621 34.8974 83.7891 32.6033 85.8623C32.5607 85.8866 32.5501 85.8737 32.5716 85.8236L33.3339 84.4376C33.3833 84.3457 33.4048 84.2574 33.3984 84.1729C33.1325 84.1738 32.8066 84.3328 32.4206 84.6498C32.3367 84.7283 32.2554 84.8161 32.1766 84.9135L31.1131 86.2899L31.0055 86.4901C30.7898 87.061 30.6882 87.7872 30.7006 88.6689C30.6783 89.0709 30.805 89.6968 31.0808 90.5466L41.5769 85.2931C41.6049 84.9251 41.6653 84.6052 41.7583 84.3333L41.8039 81.7606L41.9026 81.1491C41.775 80.187 41.7238 79.4636 41.749 78.9788C41.6672 79.2151 41.4714 79.5926 41.1618 80.1115C41.0769 80.2418 41.0339 80.1675 41.033 79.8887C41.0752 79.3389 41.1184 79.0647 41.1627 79.0661C41.3429 78.5257 41.5556 78.0258 41.8007 77.5663Z" fill="black"/>
<path d="M51.7896 79.8529L51.7935 79.8593L51.8251 79.9109L51.8573 79.9537V79.9547L51.793 79.8529L51.7896 79.8539V79.8529Z" fill="black"/>
<path d="M59.0584 81.8442L59.0567 81.8452C59.0523 81.8449 59.0487 81.8457 59.0459 81.8479L59.7436 82.6156C59.7978 82.7124 59.8913 82.8639 60.0243 83.0698C59.9651 82.9459 59.8933 82.8159 59.8088 82.6798C59.6522 82.4376 59.5267 82.2581 59.4325 82.1414C59.3421 82.0533 59.2672 81.9848 59.2079 81.9359C59.1406 81.8834 59.1048 81.8577 59.1007 81.8588C59.0827 81.8492 59.0686 81.8443 59.0584 81.8442Z" fill="black"/>
<path d="M49.2935 79.0244L49.3344 79.0582C49.5452 79.2307 49.7721 79.4363 50.015 79.6751C49.9027 79.6461 49.7162 79.5828 49.4553 79.4853C49.6178 79.919 49.7629 80.2606 49.8907 80.5103C49.657 80.2201 49.302 79.8035 48.8254 79.2606C48.8266 79.2487 48.8017 79.1967 48.7504 79.1045C48.9851 79.2602 49.2197 79.3858 49.4542 79.4811L49.309 79.078C49.3028 79.0601 49.2965 79.0423 49.2902 79.0244C49.2935 79.0257 49.2946 79.0257 49.2935 79.0244ZM50.1365 78.0679L50.0931 78.1035C50.0947 78.5755 50.3681 79.4071 50.9134 80.5984L49.3766 78.6627C49.3092 78.6831 49.2429 78.6937 49.1777 78.6947L49.2889 79.0217C48.9162 78.7178 48.5331 78.4508 48.1395 78.2206L48.746 79.0969C48.5438 78.9899 48.2885 78.7269 47.98 78.308L48.4923 80.8702C48.3298 80.7486 48.14 80.5406 47.9228 80.2461C47.3886 79.2762 47.0702 78.7252 46.9678 78.5932C46.7881 78.3176 46.6652 78.1748 46.5993 78.165C46.5572 78.6023 46.5879 79.0486 46.6913 79.5043C46.7875 79.9234 47.0434 80.6896 47.459 81.8028C47.4431 82.2301 47.4595 82.4932 47.5082 82.592L61.4947 88.7916C61.5208 86.442 61.4062 85.0612 61.1507 84.6493C60.6815 84.0227 60.3137 83.5073 60.0471 83.1032C60.1687 83.4024 60.226 83.6123 60.2189 83.7327C60.0689 83.6397 59.7338 83.2916 59.2136 82.6884C58.874 82.2649 58.3592 81.474 57.6693 80.3156C57.491 80.3886 57.3953 80.5549 57.3822 80.8145C56.8835 80.456 56.5307 80.2545 56.324 80.2101L57.5675 82.4048L55.6762 80.2507C55.2791 79.8537 55.0009 79.6553 54.8416 79.6553C54.7708 79.9858 55.2956 80.9425 56.4159 82.5253C55.4378 81.7124 54.4545 80.566 53.466 79.0861C53.3223 79.1351 53.3638 79.391 53.5904 79.8539C53.004 79.4094 52.611 79.1439 52.4111 79.0575C53.1713 79.9245 53.7378 80.5141 54.1107 80.8264L53.6003 79.8659C53.7695 79.9863 54.0856 80.2553 54.5487 80.6731C54.7777 81.0848 54.635 81.1398 54.1205 80.838C54.3279 81.2273 54.5498 81.5974 54.7863 81.9482C53.471 80.5141 52.6224 79.498 52.2404 78.8997C52.084 78.774 51.9685 78.7129 51.8938 78.7165C52.6156 80.2092 52.9532 81.0583 52.9066 81.2639C52.8598 81.2538 52.5243 80.836 51.9 80.0104L52.3127 80.6741C50.9822 78.9964 50.2567 78.1277 50.1365 78.0679Z" fill="black"/>
<path d="M50.9958 78.6402L50.9956 78.6412C50.9919 78.644 51.0003 78.6633 51.0208 78.6989C51.0247 78.7003 51.0319 78.7061 51.0423 78.7161C51.0576 78.7325 51.0723 78.7493 51.0864 78.7667C51.106 78.7922 51.1221 78.8137 51.1348 78.8314C51.1665 78.8753 51.1847 78.9014 51.1893 78.9095L51.0452 78.6819C51.0355 78.6711 51.0241 78.6599 51.0108 78.6484C51.004 78.643 50.9989 78.6403 50.9958 78.6402Z" fill="black"/>
<path d="M51.197 78.9206L51.1973 78.9211L51.1976 78.9216C51.1976 78.9212 51.1976 78.9209 51.1976 78.9206L51.197 78.9216V78.9206Z" fill="black"/>
<path d="M51.2561 79.0122L51.4599 79.3314L51.6637 79.6505L51.6651 79.6514L51.5584 79.4794L51.4162 79.2535C51.3577 79.1617 51.3054 79.0813 51.2595 79.0122L51.2561 79.0132V79.0122Z" fill="black"/>
<path d="M44.7004 77.1998L44.7272 77.5229C44.7488 77.9084 44.7303 78.2553 44.6718 78.5637C44.6426 78.718 44.6033 78.8626 44.5541 78.9975C44.4135 79.3181 44.3171 79.4989 44.265 79.5399C43.7178 78.5371 43.3937 78.0176 43.2929 77.9815C43.2544 77.9654 43.2297 77.9765 43.219 78.0147C43.2033 78.4888 43.1656 78.8334 43.1059 79.0487C42.9972 79.4526 42.8891 79.716 42.7816 79.8387C42.7253 79.8462 42.686 79.8191 42.6637 79.7574C42.4963 79.2337 42.3507 78.7944 42.2271 78.4394C42.1607 78.2494 42.1162 78.1407 42.0935 78.1134C42.0722 78.0849 42.0469 78.0895 42.0176 78.1272C41.9227 78.2854 41.843 78.4322 41.7785 78.5677C41.6589 78.9237 41.5911 79.2966 41.5749 79.6862L41.7266 81.0079C41.7059 80.9627 41.6695 82.0295 41.6171 84.2083L48.2936 83.3795L48.0797 82.5289C47.7669 82.2813 47.4568 81.9582 47.1495 81.5595C46.9298 81.2295 46.7389 80.8814 46.5769 80.5154C46.4905 79.8372 46.4945 79.1282 46.5887 78.3882L47.0188 79.0989L47.0311 79.0809C47.0676 79.0697 46.9901 78.7593 46.7984 78.1494C46.6984 78.0687 46.6288 78.1472 46.5894 78.385C46.2557 77.8508 46.0837 77.6102 46.0734 77.6631L46.049 78.8936C46.0258 78.9996 45.9879 79.0377 45.9352 79.0079C45.4161 78.4941 45.0046 77.8915 44.7004 77.1998Z" fill="black"/>
<path d="M50.9942 83.0427L49.644 83.2109L48.2938 83.379C48.343 83.6088 48.37 83.7584 48.3747 83.8278C48.3861 83.9308 48.3888 84.0205 48.3828 84.0971L48.7779 84.5722C48.8276 84.6081 48.8884 84.6239 48.9603 84.6194C49.0697 84.602 49.1751 84.5075 49.2763 84.3358C49.3356 84.2327 49.4364 83.9685 49.5787 83.5432C49.6079 83.487 49.6391 83.4471 49.6721 83.4235C49.8278 83.3281 49.9382 83.2822 50.0033 83.2859C50.2249 83.3368 50.4464 83.3877 50.6679 83.4387C50.6887 83.4416 50.741 83.3943 50.8247 83.2968L50.9059 83.1854L50.9976 83.0427L50.9942 83.0436V83.0427Z" fill="black"/>
<path d="M46.2703 79.3329L46.2592 79.3557C46.2546 79.3636 46.2444 79.3862 46.2289 79.4232C46.2234 79.4377 46.218 79.4522 46.2126 79.4668L46.1992 79.5093L46.1888 79.5507L46.1813 79.5912L46.1768 79.6306C46.1763 79.6434 46.1758 79.6562 46.1752 79.6689C46.1757 79.6817 46.1761 79.6944 46.1766 79.7071C46.1963 79.6247 46.2117 79.5619 46.2228 79.5189C46.2515 79.41 46.2684 79.348 46.2737 79.3329L46.2703 79.3339V79.3329Z" fill="black"/>
<path d="M46.6461 79.0006L46.6378 79.0007C46.451 78.9826 46.3324 79.0822 46.282 79.2993C46.3343 79.1895 46.5095 79.5865 46.8076 80.4901C46.724 80.4203 46.6322 80.327 46.5322 80.21L46.4635 80.1767C46.388 80.1636 46.3209 80.2154 46.2621 80.3322C46.2577 80.2871 46.2295 80.0818 46.1775 79.7163C46.1402 79.8168 46.1219 79.9677 46.1226 80.169C46.1364 80.7433 46.1695 81.1719 46.2218 81.4547C46.226 81.4819 46.2537 81.5138 46.3049 81.5502C46.3659 81.5631 46.4258 81.5722 46.4846 81.5776L46.6159 83.4232C46.6319 83.3985 46.6428 83.3069 46.6485 83.1486C46.6549 82.8257 46.6539 82.5236 46.6456 82.2421L46.5171 81.5807C46.7667 81.6076 47.0178 81.5403 47.2704 81.3787C47.4243 81.2704 47.5895 81.062 47.7658 80.7535C47.5724 80.7887 47.3435 80.7522 47.079 80.6439C46.9856 80.3568 46.8563 79.9848 46.6911 79.5281C46.6717 79.3918 46.6834 79.3073 46.7262 79.2744C46.8724 79.2328 47.0788 79.3752 47.3456 79.7015L47.7765 80.7363L47.9103 80.4966L48.0286 80.6719C47.9866 80.6901 47.9044 80.7159 47.7818 80.7493L47.7763 80.7377L47.7667 80.7529L47.7822 80.75C47.7807 80.7827 47.9074 81.0403 48.1623 81.5226C48.3026 81.7782 48.3847 81.9137 48.4084 81.929C48.496 82.0146 48.5952 81.9945 48.7061 81.8688C48.779 81.7844 48.8153 81.6572 48.8151 81.4868C48.786 81.1782 48.6721 80.8047 48.4734 80.3666C48.3797 80.4752 48.2572 80.5658 48.106 80.6383L47.9451 80.4274L48.1963 79.9212C48.3012 80.0564 48.3931 80.2043 48.4721 80.3649L48.5242 80.2934C48.6 80.1673 48.6408 80.0543 48.6464 79.9545C48.6531 79.7725 48.6518 79.6594 48.6425 79.6153C48.6338 79.5768 48.6067 79.528 48.5611 79.469C48.4633 79.3814 48.3924 79.3681 48.3484 79.4288C48.3436 79.4339 48.337 79.4468 48.3286 79.4676C48.3034 79.5803 48.2732 79.6988 48.2381 79.8229C48.2199 79.8829 48.2064 79.9151 48.1976 79.9196C47.9673 79.6285 47.7228 79.4127 47.4642 79.2722C47.1046 79.0916 46.8319 79.0011 46.6461 79.0006ZM46.3608 80.8274L46.3644 80.8314C46.3826 80.8521 46.4051 80.8751 46.4319 80.9003L46.4601 81.2874L46.3978 80.9667L46.3575 80.8274L46.3608 80.8284V80.8274Z" fill="black"/>
<path d="M66.6727 80.0142C66.6727 79.8843 66.6823 79.7449 66.7015 79.5959C66.7111 79.5215 66.7232 79.4446 66.7376 79.3652L66.761 79.2445C66.7778 79.1627 66.7971 79.0786 66.8187 78.9921L66.6727 80.0142Z" fill="black"/>
<path d="M44.0698 79.2454L43.9913 79.2534C42.2879 79.8307 41.3214 80.4208 41.0916 81.0239C40.9801 81.2266 40.9695 81.3373 41.0599 81.3559C41.1482 81.3922 41.4717 81.4104 42.0305 81.4106C42.4393 81.4752 42.6419 81.5343 42.6383 81.588C42.9648 81.7882 43.1523 82.0233 43.2009 82.2933C41.9402 83.3878 41.2123 84.0787 41.0172 84.366C40.5323 85.2425 40.3708 85.7584 40.5325 85.9136L42.7366 85.0232C43.3749 84.8897 43.9683 84.7934 44.5166 84.7344L46.2293 84.6475C46.773 84.7 47.352 84.7175 47.9662 84.7L50.105 84.5527L50.444 84.5618C51.087 84.5806 51.5184 84.603 51.7383 84.629C52.4244 84.7474 53.0618 84.8673 53.6503 84.989L44.1 79.3953C44.1747 79.3071 44.1646 79.2572 44.0698 79.2454Z" fill="black"/>
<path d="M53.6522 84.9892L59.91 88.6539C59.8299 88.41 59.5654 88.0958 59.1165 87.7112C58.892 87.5189 58.6215 87.309 58.3048 87.0815C58.2041 86.9897 57.6255 86.609 56.5688 85.939L54.4265 85.1597L53.6522 84.9892Z" fill="black"/>
<path d="M35.2013 85.5053C35.4479 84.0531 35.8989 82.7869 36.5542 81.7068C36.8356 81.2196 36.9682 81.1911 36.952 81.6213L36.3267 83.3944C36.2504 83.628 36.2174 83.7668 36.2277 83.811C36.1979 83.792 36.4844 83.1967 37.0871 82.0251C37.1658 81.8575 37.2998 81.548 37.489 81.0967C37.6874 80.7986 37.8293 80.6311 37.9144 80.5942C37.9606 80.5617 37.9593 80.6332 37.9106 80.8085C37.3398 82.3048 37.0393 83.1672 37.0092 83.3955C37.0045 83.4664 37.2334 83.1698 37.6961 82.5056C38.3129 81.5192 38.6942 80.8855 38.8399 80.6046C38.9829 80.3852 39.0639 80.2879 39.083 80.3126C39.1309 80.3087 39.1123 80.4199 39.0272 80.6462C38.8212 81.1681 38.6185 81.6428 38.4192 82.0703L38.2979 82.7077C38.2844 82.7844 38.2855 82.8362 38.3013 82.8633C38.3202 82.8976 38.3601 82.9218 38.4209 82.9356C39.1008 83.0119 39.6506 83.1214 40.0706 83.264L40.8028 83.3445L35.2013 85.5053Z" fill="black"/>
<path d="M36.0016 82.2127L36 82.2132L35.3527 82.9036C35.2116 83.0995 35.1298 83.219 35.1072 83.2622C35.1835 82.88 35.2204 82.6075 35.218 82.4447C35.1931 82.3804 35.1166 82.4217 34.9883 82.5684L34.9294 82.6449L34.6456 83.088C34.4487 83.351 34.2479 83.6332 34.0431 83.9348C33.7936 84.3038 33.6298 84.5572 33.5517 84.695C33.0928 85.4466 32.832 85.9512 32.7693 86.2089L36.1673 85.059C35.969 84.9727 35.861 84.916 35.8431 84.8889C35.7847 84.8448 35.7353 84.7966 35.6951 84.7442C35.6146 84.6395 35.5703 84.5181 35.5624 84.3801C35.5575 84.2314 35.569 84.0887 35.597 83.9519C35.9271 82.7849 36.062 82.2052 36.0016 82.2127Z" fill="black"/>
<path d="M40.2083 51.5895L40.1952 51.6244L40.1793 51.6753L40.1668 51.7257C40.1638 51.7424 40.1608 51.759 40.1577 51.7756C40.1558 51.7921 40.154 51.8086 40.1521 51.8251L40.192 51.8225C40.1929 51.8061 40.1941 51.7898 40.1957 51.7736C40.1973 51.7573 40.1993 51.7412 40.2017 51.7252L40.2055 51.7013L40.2099 51.6775C40.2131 51.6617 40.2166 51.6459 40.2204 51.6303L40.2265 51.6069L40.2298 51.6079C40.2251 51.6028 40.219 51.5966 40.2116 51.5895L40.2083 51.5905V51.5895Z" fill="black"/>
<path d="M37.9877 50.994L37.8087 50.9969C37.5231 50.9802 37.088 51.0597 36.5036 51.2353L36.9547 54.6296C37.5658 54.8221 37.9647 54.9666 38.1512 55.063C38.3895 54.9028 38.6592 54.8143 38.9605 54.7975C38.9984 54.7951 39.037 54.7966 39.0762 54.8018C39.5095 54.8864 39.8761 54.9465 40.176 54.9822C40.4221 54.3325 40.6228 53.8616 40.778 53.5696C40.7368 53.3732 40.5823 52.9682 40.3144 52.3545L39.5219 51.7599C39.2522 51.509 39.096 51.2853 39.0533 51.089C38.8539 51.0318 38.4987 51.0002 37.9877 50.994Z" fill="black"/>
<path d="M40.1515 51.8335L40.1507 51.8596L40.1499 51.8857C40.1507 51.9029 40.1515 51.9201 40.1522 51.9373C40.1543 51.9544 40.1563 51.9715 40.1584 51.9885L40.1686 52.039L40.1826 52.0891L40.2006 52.1385L40.2225 52.1874C40.2311 52.2035 40.2397 52.2196 40.2483 52.2358L40.278 52.2836C40.2463 52.2121 40.2233 52.1388 40.2089 52.0638C40.2041 52.0389 40.2003 52.0139 40.1974 51.9888C40.1962 51.9762 40.195 51.9636 40.1937 51.951C40.1918 51.926 40.1908 51.9008 40.1908 51.8756C40.1909 51.863 40.1911 51.8505 40.1913 51.8379L40.1946 51.8378L40.1515 51.8335Z" fill="black"/>
<path d="M28.7074 49.2958L28.6871 49.2958L28.0154 49.3395L27.2714 49.5015L25.8794 49.9052C25.6856 49.9849 25.5485 50.0548 25.4683 50.1149L25.4847 51.8041C25.5134 51.9944 25.5344 52.0964 25.5478 52.1102C25.5624 52.1397 25.608 52.1555 25.6845 52.1578L39.265 51.4843C38.7605 51.3178 38.2451 51.122 37.7189 50.8968C37.3851 50.8271 36.8821 50.7009 36.2097 50.5181C35.5732 50.3429 34.7567 50.0989 33.7601 49.7862C33.5512 49.7468 33.1968 49.7143 32.697 49.6888C32.4745 49.6583 32.2506 49.6208 32.0251 49.5763L31.7776 49.5836L30.6984 49.4517L29.8631 49.3996C29.7683 49.3869 29.6429 49.3635 29.4868 49.3295C29.2565 49.3122 28.9967 49.301 28.7074 49.2958Z" fill="black"/>
<path d="M38.6186 51.1557L26.7334 51.4271C26.402 51.3727 26.0622 51.3805 25.714 51.4503L26.7306 51.4271L26.8553 51.4499C27.2469 51.5958 27.6184 51.7152 27.9697 51.808C28.728 51.9142 29.1361 51.9788 29.1942 52.0021C30.103 52.3065 30.6232 52.4751 30.7548 52.508C31.2774 52.5971 31.9472 52.737 32.764 52.9275C33.0091 52.9443 33.1818 52.9617 33.2821 52.98C33.4366 53.0428 33.7702 53.1184 34.2828 53.2066C34.6558 53.3161 34.9243 53.4231 35.0882 53.5276L36.0067 54.3623C36.3649 54.4573 36.6324 54.5317 36.8093 54.5856C37.1739 54.3286 37.5682 54.0191 37.9922 53.6572C38.301 52.8483 38.5581 52.3389 38.7634 52.129C38.6617 51.7123 38.6135 51.3879 38.6186 51.1557Z" fill="black"/>
<path d="M36.5111 53.4463L36.5075 53.4473C36.3719 53.4487 36.2371 53.4706 36.1032 53.5129C36.0133 53.5515 35.9205 53.6102 35.8248 53.689C35.8037 53.7347 35.8 53.7852 35.8139 53.8406C35.8952 54.0168 35.9685 54.1932 36.0338 54.3696C36.4813 54.4878 36.8644 54.5981 37.183 54.7005C37.2828 54.7285 37.4854 54.8009 37.791 54.9175C37.9019 54.9629 37.9967 55.0062 38.0754 55.0474L38.1523 55.0624C38.2955 54.9786 38.4221 54.9166 38.5322 54.8766C38.662 54.8424 38.7594 54.8216 38.8244 54.8139L39.0378 54.3096C38.8572 54.134 38.6661 53.9905 38.4647 53.879C38.1503 53.7997 37.7747 53.7365 37.338 53.6894C37.0651 53.6252 36.8538 53.5501 36.704 53.4639C36.6001 53.4509 36.5357 53.445 36.5111 53.4463Z" fill="black"/>
<path d="M25.8154 50.0564L25.7195 50.065C25.4099 50.111 24.6693 50.3406 23.4979 50.7539C22.7884 51.0478 22.3114 51.2596 22.0671 51.3896C21.3188 51.8335 20.5602 52.3443 19.7912 52.9223L19.1221 53.502C19.0501 53.6026 19.0623 53.6469 19.1587 53.6349L19.8684 53.5263C20.7855 53.2966 21.7026 53.0671 22.6196 52.8376L23.8436 52.6183L25.4933 52.1445C25.6809 52.0346 25.8409 51.9574 25.9735 51.9127C26.0433 51.8872 26.1695 51.8795 26.3518 51.8897L25.8509 50.059C25.8384 50.0571 25.8266 50.0562 25.8154 50.0564Z" fill="black"/>
<path d="M52.851 48.7301L52.5495 48.7774C52.0079 48.8513 51.5047 48.9659 51.0401 49.1211C49.8798 49.212 49.0211 49.3055 48.4638 49.4017C47.3592 50.0843 46.3431 50.8958 45.4155 51.8362L45.2855 51.9681L44.995 53.1835C45.2784 53.7324 45.535 54.1399 45.7649 54.4056L46.1342 54.584L46.5912 54.68L50.1002 52.7005C50.3792 52.5721 50.6021 52.4757 50.7691 52.4112C51.0682 52.2761 51.5197 52.1367 52.1236 51.993C52.6189 51.8886 53.094 51.8643 53.549 51.92L53.6069 51.876C53.7716 51.7301 54.017 51.3565 54.343 50.7552C54.45 50.522 54.4732 50.2844 54.4126 50.0423C54.3525 49.7318 54.0988 49.357 53.6514 48.918C53.399 48.7936 53.1322 48.731 52.851 48.7301Z" fill="black"/>
<path d="M52.0827 49.5422C52.3351 49.1853 52.6831 48.8954 53.1268 48.6721L54.1592 48.218C54.6134 48.12 54.8781 48.0812 54.9531 48.1016C55.3105 48.1347 55.6499 48.156 55.9714 48.1655C57.3577 48.3719 58.1698 48.4653 58.4076 48.4457C58.9186 48.45 59.1555 48.4493 59.1182 48.4435C59.5901 48.4128 59.937 48.3705 60.1589 48.3168L60.5409 48.3364C60.7588 48.2945 61.0564 48.2873 61.4334 48.3146C61.9657 48.472 62.3599 48.6407 62.6159 48.8209C62.8383 49.0328 63.032 49.2649 63.1971 49.5173C63.2777 49.606 63.477 49.7317 63.795 49.8945C64.0046 50.1801 63.9996 50.4816 63.7799 50.7989C63.4609 51.2219 63.1436 51.4442 62.8282 51.4658C62.7587 51.499 62.3811 51.4825 61.6956 51.4163L60.9958 51.2632L59.5772 51.0533C59.5233 51.0435 59.3699 51.0337 59.117 51.0238C58.9047 50.9521 58.5596 50.8892 58.0816 50.8351L57.6537 50.8375C57.4315 50.8753 57.2237 50.8935 57.0302 50.8922C56.6014 50.9641 56.267 50.9997 56.0269 50.999L55.5718 51.0757L55.2259 51.0944L53.972 51.332L52.0827 49.5422Z" fill="black"/>
<path d="M61.0415 48.7752C61.6633 48.6424 62.1728 48.7238 62.5698 49.0194L63.8445 49.7261L65.8962 51.2852L66.8074 52.5454C67.2401 53.577 67.4294 54.0978 67.3752 54.1076C67.4298 54.1231 67.5135 54.8604 67.6266 56.3194C67.5873 56.6123 67.5035 56.7333 67.3753 56.6825C67.2074 56.611 67.0288 56.4512 66.8393 56.203L66.2079 54.8853C66.0673 54.6259 65.894 54.4005 65.688 54.2091L65.2724 53.8511C65.0472 53.755 64.7575 53.541 64.4034 53.2091L63.0735 51.7935C62.4605 51.308 61.9409 51.0234 61.5148 50.9397L61.0415 48.7752Z" fill="black"/>
<path d="M8.33527 25.3543L9.39011 22.192L10.0276 21.1342C10.6375 20.4008 11.1606 19.6177 11.5971 18.7848C12.6345 17.5176 13.45 16.6614 14.0436 16.2161C15.1306 15.5139 15.9663 15.2798 16.5505 15.5138C17.2566 15.5102 17.8723 16.2754 18.3976 17.8096C18.7402 19.129 18.8784 20.0667 18.8125 20.6226C18.8631 21.8528 18.6941 23.142 18.3054 24.4902L16.107 28.7764L14.6383 32.0055C14.107 32.9601 13.75 33.4949 13.5673 33.61L12.068 36.4194L8.33527 25.3543Z" fill="black"/>
<path d="M45.0403 15.2404L45.1427 15.248C45.243 15.2553 45.3431 15.2647 45.4429 15.276C45.5261 15.2857 45.576 15.2918 45.5926 15.2943C45.6742 15.3053 45.7253 15.3127 45.7458 15.3165C45.7517 15.3166 45.7566 15.317 45.7603 15.3177C45.9704 15.2925 46.1828 15.2754 46.3974 15.2664L46.3941 15.2674C46.3469 15.2685 46.2995 15.27 46.2519 15.272L46.1803 15.2757C46.1325 15.2785 46.0844 15.2818 46.0362 15.2855C45.9397 15.2931 45.8424 15.303 45.7443 15.3152C45.6096 15.2953 45.5294 15.2841 45.5037 15.2817C45.451 15.2751 45.3988 15.2692 45.3472 15.264C45.245 15.2536 45.1427 15.2458 45.0403 15.2404Z" fill="black"/>
<path d="M45.7403 15.3157L45.6228 15.3314C45.3085 15.3755 44.986 15.4426 44.6551 15.5327C44.8964 15.4672 45.1401 15.4136 45.3862 15.3719C45.5092 15.3512 45.6326 15.3333 45.7565 15.3182L45.8165 15.3271C45.821 15.3276 45.8234 15.3282 45.8239 15.329C45.8077 15.3257 45.787 15.322 45.7617 15.3179L45.7582 15.319C45.7528 15.317 45.7469 15.3159 45.7403 15.3157Z" fill="black"/>
<path d="M35.8921 15.6468L34.7782 16.1526L33.8053 16.7465L32.9732 17.4287L32.2821 18.199L31.7319 19.0576L31.3226 20.0043L31.0543 21.0391L30.9268 22.1622L30.942 23.3745L30.9443 22.5477L31.0319 21.7348L31.2016 20.9418L31.4501 20.1741L31.7743 19.4379L32.1709 18.7386L32.6369 18.0823L33.169 17.4747L33.7642 16.9215L34.419 16.4287L35.1305 16.0018L35.8921 15.6468Z" fill="black"/>
<path d="M36.0841 6.7207L35.3458 6.75238C34.0435 6.75269 31.497 7.17631 27.7061 8.02319C26.7814 8.32133 25.7814 8.80151 24.7063 9.46375C21.579 11.343 18.9478 13.2471 16.8125 15.1763C15.6209 16.2569 14.8431 17.0118 14.4793 17.4407C13.5219 18.95 12.6842 20.0958 11.9664 20.8779C16.7492 23.3453 20.7922 24.9035 24.0954 25.5526C23.5997 21.4175 25.7296 18.354 30.4853 16.3623C31.0359 16.1313 31.6262 15.9556 32.256 15.8352L34.7724 15.4243L37.1057 15.1516L38.6326 15.0768C39.3919 15.1409 40.5465 15.1277 42.0962 15.0371L46.5413 15.2591C47.3236 15.2532 48.1299 15.1782 48.9604 15.0343L50.4959 12.3859L50.6034 11.9081C50.8415 10.6843 50.6916 9.86317 50.1537 9.4447L48.4352 9.05609C46.1837 8.94022 44.9397 8.83232 44.7031 8.73236C43.9462 8.57969 43.0191 8.23516 41.9218 7.69879C39.2666 7.13286 37.3207 6.80684 36.0841 6.7207Z" fill="black"/>
<path d="M30.9521 23.5265L30.9719 23.8148C30.9868 24.005 31.0051 24.1915 31.027 24.3741L31.0623 24.6451C31.113 25.0026 31.1775 25.3448 31.2558 25.6717L31.3171 25.915L31.4796 25.8807C31.3275 25.4912 31.2056 25.0867 31.1139 24.6673C31.0706 24.4684 31.0352 24.2696 31.0077 24.0709C30.9939 23.9717 30.982 23.8725 30.972 23.7733C30.9726 23.7736 30.9731 23.7739 30.9737 23.7742L30.9553 23.5265L30.9521 23.5275V23.5265Z" fill="black"/>
<path d="M54.9874 14.6136L54.9807 14.6137L54.9739 14.6138L54.9673 14.6147L54.9337 14.6141L54.927 14.6143L54.9304 14.6153L54.9424 14.6151L54.9544 14.6149L54.9665 14.6158L54.9785 14.6147L54.9906 14.6149L55.0026 14.6158L55.0387 14.6153L55.0748 14.6159L55.0655 14.6156L55.0562 14.6153L55.0469 14.6151C55.0407 14.6149 55.0344 14.6147 55.0282 14.6145L54.9908 14.6136L54.9874 14.6146V14.6136Z" fill="black"/>
<path d="M45.0403 15.2404L45.1427 15.248C45.243 15.2553 45.3431 15.2647 45.4429 15.276C45.5261 15.2857 45.576 15.2918 45.5926 15.2943C45.6742 15.3053 45.7253 15.3127 45.7458 15.3165C45.7517 15.3166 45.7566 15.317 45.7603 15.3177C45.9704 15.2925 46.1828 15.2754 46.3974 15.2664L46.3941 15.2674C46.3469 15.2685 46.2995 15.27 46.2519 15.272L46.1803 15.2757C46.1325 15.2785 46.0844 15.2818 46.0362 15.2855C45.9397 15.2931 45.8424 15.303 45.7443 15.3152C45.6096 15.2953 45.5294 15.2841 45.5037 15.2817C45.451 15.2751 45.3988 15.2692 45.3472 15.264C45.245 15.2536 45.1427 15.2458 45.0403 15.2404Z" fill="black"/>
<path d="M45.7403 15.3157L45.6228 15.3314C45.3085 15.3755 44.986 15.4426 44.6551 15.5327C44.8964 15.4672 45.1401 15.4136 45.3862 15.3719C45.5092 15.3512 45.6326 15.3333 45.7565 15.3182L45.8165 15.3271C45.821 15.3276 45.8234 15.3282 45.8239 15.329C45.8077 15.3257 45.787 15.322 45.7617 15.3179L45.7582 15.319C45.7528 15.317 45.7469 15.3159 45.7403 15.3157Z" fill="black"/>
<path d="M46.0162 9.68286L41.1846 15.065L42.2914 15.0419C44.3427 15.2195 45.7593 15.2919 46.5413 15.259C47.2854 15.2568 48.13 15.1782 49.075 15.0234L50.6089 14.9375C52.4192 14.6337 53.5873 14.5052 54.1132 14.5521L56.522 14.6588C57.198 14.7487 57.8431 14.9187 58.4572 15.169C60.3475 15.9627 61.7435 17.284 62.6455 19.1327C63.6252 21.2986 63.6465 23.498 62.7095 25.7309C64.3276 26.6976 65.8611 27.5017 67.31 28.143C69.2302 28.4488 70.3131 28.4188 70.5585 28.0529C70.7497 27.8428 70.7949 27.5062 70.6939 27.043L69.597 24.6398C70.5705 23.5024 70.9311 22.5951 70.679 21.918C70.421 21.5478 69.4681 20.66 67.8201 19.2545C67.1434 18.3812 66.5678 17.7092 66.0932 17.2384C65.8645 17.156 65.5365 16.9308 65.1092 16.5627C64.3116 15.8776 63.4113 15.0468 62.4083 14.0703C60.2871 12.9899 59.0039 12.282 58.5588 11.9467L56.4422 11.2467L53.4167 10.4798C52.968 10.4182 52.0235 10.3947 50.5832 10.4094L46.0162 9.68286Z" fill="black"/>
<path d="M54.8705 14.6124L54.7645 14.6133L54.657 14.616L54.5479 14.6204L54.4372 14.6267L54.325 14.6346C54.1743 14.6465 54.0194 14.6631 53.8604 14.6844C54.0242 14.6625 54.188 14.6457 54.3519 14.634C54.4065 14.6302 54.4612 14.6269 54.5157 14.6241L54.5977 14.6205C54.6522 14.6182 54.7068 14.6166 54.7614 14.6156L54.8432 14.6145L54.8466 14.6155C54.8563 14.6144 54.8703 14.6134 54.8883 14.6124C54.8895 14.6128 54.8906 14.6131 54.8917 14.6134C54.8831 14.6126 54.876 14.6123 54.8705 14.6124Z" fill="black"/>
<path d="M51.5049 14.898L51.4369 14.8983L51.3694 14.8991L51.3026 14.9006L51.2364 14.9026L51.1707 14.905L51.1056 14.9082L51.0412 14.9118C50.9984 14.9145 50.956 14.9175 50.914 14.9208C51.0794 14.9117 51.1665 14.9071 51.1754 14.9069C51.1994 14.9058 51.2234 14.9047 51.2473 14.9039C51.2713 14.9032 51.2953 14.9024 51.3193 14.9016C51.3433 14.901 51.3673 14.9004 51.3913 14.9C51.4153 14.8996 51.4393 14.8993 51.4633 14.899C51.4731 14.8988 51.5114 14.8987 51.5779 14.8987C51.5922 14.8989 51.6063 14.899 51.6205 14.8991L51.7056 14.9005C51.7624 14.9019 51.7908 14.9026 51.7908 14.9028C51.7692 14.9021 51.7478 14.9014 51.7264 14.9009C51.6731 14.8996 51.6412 14.899 51.6307 14.8989C51.5884 14.8984 51.5465 14.8981 51.5049 14.898Z" fill="black"/>
<path d="M55.1884 14.6151L55.1952 14.6158C56.5756 14.6817 57.8339 15.0544 58.9703 15.734L58.5721 15.5071L58.1686 15.3058L57.7596 15.1302L57.3452 14.9802L56.9254 14.856L56.5001 14.7573L56.0694 14.6843L55.6333 14.6368L55.1884 14.6151Z" fill="black"/>
<path d="M47.7138 9.37242C47.9032 9.30109 48.189 9.29566 48.5714 9.35613C49.6941 9.6283 50.2466 9.77598 50.2287 9.79918C50.3617 9.84768 50.7503 10.0249 51.3946 10.331C51.3362 10.3423 52.0132 10.6907 53.4257 11.3761C54.3894 12.0164 55.2038 12.5023 55.8688 12.8338C56.083 12.9662 56.5765 13.0978 57.3492 13.2287L47.7138 9.37242Z" fill="black"/>
<path d="M20.1748 24.1227C20.455 24.1017 20.7831 24.1446 21.1591 24.2514C21.4301 24.4213 22.7302 24.8939 25.0594 25.6694C25.1189 25.7174 25.5263 25.7602 26.2817 25.7975L27.7755 25.6197C28.4868 25.451 30.1667 25.1131 32.8151 24.606L39.9358 23.8985C42.506 23.4552 44.8734 22.9196 47.0379 22.2919L50.3975 21.9123L54.0298 21.1722C56.7217 20.3721 58.7246 19.4095 60.0386 18.2844C60.1337 16.6676 58.8421 15.4939 56.164 14.7633C55.1122 14.4788 53.877 14.2411 52.4584 14.0505L48.3007 13.7282C47.8063 13.5612 46.4462 13.3821 44.2203 13.1911L42.7281 12.8984L40.6366 12.8675C34.3537 13.4192 28.9279 15.5106 24.3592 19.1418L20.1748 24.1227Z" fill="black"/>
<path d="M64.3441 26.3674C63.6062 26.3999 62.9454 26.0363 62.3616 25.2766C61.6785 24.5041 61.1753 23.813 60.8521 23.203C60.7356 23.0073 60.5134 22.3921 60.1854 21.3575C60.0751 21.1133 59.9934 20.9509 59.9401 20.8705C59.5445 20.4094 59.102 20.0023 58.6128 19.6491C58.4663 19.5213 58.3919 19.3685 58.3896 19.1909C58.3781 19.0478 58.401 18.9204 58.4586 18.8087C58.6736 18.3776 58.8743 18.0682 59.0605 17.8806C59.4342 17.4583 59.8453 17.1567 60.2936 16.9757C61.5539 16.6463 62.6698 16.5838 63.6415 16.7882L64.3441 26.3674Z" fill="black"/>
<path d="M54.029 15.2877C54.128 15.3287 54.2456 15.3898 54.3817 15.471L56.7396 17.0034C56.9479 17.1774 57.6974 17.4718 58.9883 17.8868C60.008 18.2228 60.8135 18.0747 61.4046 17.4423C61.9021 16.5233 61.5755 15.6751 60.4248 14.8976C59.6602 14.5354 59.0326 14.3279 58.5421 14.2753C57.9021 14.197 57.5716 14.1661 57.5506 14.1827C57.294 14.1802 56.9822 14.2086 56.6153 14.2677C56.2895 14.2828 56.1233 14.285 56.1166 14.2743C55.5674 14.2028 55.2144 14.0989 55.0576 13.9626L54.029 15.2877Z" fill="black"/>
<path d="M10.7353 53.0853L10.7062 54.6987C10.7276 54.869 10.7517 55.2494 10.7784 55.8399L10.6761 57.5047L10.8198 59.055C10.9152 59.4259 11.0012 60.0944 11.0779 61.0605L11.0648 62.1653C11.013 62.6421 10.9952 62.9379 11.0113 63.0526L10.8616 63.9458L10.8444 65.0318C10.8984 65.8114 10.9749 66.4693 11.0741 67.0053L11.1305 67.7817C11.1598 68.4774 11.1336 69.0749 11.0517 69.5743C10.9113 69.7916 10.6813 69.6765 10.3619 69.229L9.89083 68.4297C9.69769 68.0482 9.56596 67.6122 9.49563 67.1219L9.31569 65.5535C9.32913 65.2332 9.34917 65.0311 9.37587 64.9472C9.53689 64.4311 9.62396 64.1875 9.63707 64.2164C9.75842 64.1287 10.0415 63.7205 10.4862 62.9918C10.6449 62.5999 10.7007 62.2874 10.6536 62.0542C10.567 61.657 10.4647 61.3129 10.3466 61.022C10.0322 60.2393 9.73395 59.7368 9.45174 59.5146C9.21431 59.3479 8.87067 59.3787 8.42083 59.6071L7.47799 60.5659C7.40005 60.6439 7.28466 60.8808 7.13179 61.2765C7.10153 61.3015 7.01293 61.6576 6.86602 62.3447C6.8454 63.3585 6.79499 64.177 6.71477 64.8001C6.77457 65.2769 6.77182 65.704 6.70653 66.0815L6.45379 66.8499C6.42304 66.9008 6.39139 66.9145 6.35885 66.8911C6.19523 66.4888 6.11197 66.1915 6.10906 65.9991C6.0137 65.0305 5.99191 64.1719 6.04369 63.4232L6.31933 61.7739C6.3791 61.4922 6.50588 61.0139 6.69967 60.339C6.71523 60.3131 6.73333 60.1393 6.75399 59.8176C6.73945 59.524 6.69065 59.1588 6.60756 58.7217L6.60454 57.2867L6.45458 55.4752L6.467 54.6512C6.35389 53.9082 6.29931 53.1968 6.30327 52.5169C6.32533 52.2312 6.34118 52.0842 6.35085 52.0756C6.48604 51.6877 6.6043 51.1983 6.70562 50.6074C6.73622 50.4617 6.78606 50.3429 6.85512 50.2509L10.7353 53.0853Z" fill="black"/>
<path d="M28.8595 55.0349L28.3891 55.046L27.9912 55.0692C27.7293 55.0907 27.474 55.1242 27.2255 55.1697C26.977 55.2152 26.7352 55.2727 26.5001 55.3422C26.0432 55.4731 25.5867 55.6678 25.1307 55.9265C25.0275 55.9892 24.9423 56.0467 24.8752 56.0989L23.1629 57.6655L22.0971 58.8717L22.883 58.6648C22.9334 58.6495 23.0254 58.605 23.1588 58.5311C24.2434 57.541 25.2677 56.8306 26.2316 56.3999L26.922 56.1749C27.0582 56.1881 27.3855 56.138 27.9038 56.0248C27.9525 56.0198 28.0975 56.0186 28.3388 56.0211C28.4336 56.0271 28.5088 56.0388 28.5642 56.0561C28.7279 56.1278 28.9856 56.219 29.3372 56.3298L30.6396 56.5497C31.4667 56.7564 31.9686 56.8969 32.1453 56.9713C32.3748 57.0515 32.8611 57.4092 33.6044 58.0443C34.0586 58.2801 34.4941 58.5494 34.9109 58.8521C35.2045 59.0064 35.3717 59.0763 35.4125 59.0616C35.4816 59.0415 35.5026 59.0037 35.4756 58.948C35.1836 58.482 34.9873 58.1911 34.8864 58.0754C34.1291 57.2534 33.4864 56.6487 32.9583 56.2615L32.6306 56.0876L31.3373 55.5919L29.9819 55.1651C29.9768 55.1454 29.6026 55.102 28.8595 55.0349Z" fill="black"/>
<path d="M53.1067 57.673L53.0598 57.8325C53.092 57.7722 53.1187 57.7228 53.1401 57.6846L53.1435 57.6855C53.1388 57.6834 53.1286 57.6796 53.1129 57.674C53.1112 57.673 53.1092 57.6727 53.1067 57.673Z" fill="black"/>
<path d="M63.7657 57.9318L63.7659 57.9318L63.766 57.9319C63.7659 57.9318 63.7658 57.9318 63.7657 57.9318L63.7657 57.9327V57.9318Z" fill="black"/>
<path d="M63.5905 57.8804L63.5889 57.8809C63.5872 57.881 63.5866 57.8814 63.5872 57.8823C63.5955 57.9379 63.6032 57.9942 63.6102 58.0511C63.6278 58.0773 63.6464 58.0879 63.6659 58.0827C63.6828 58.0784 63.6992 58.063 63.7151 58.0365C63.728 58.0173 63.7437 57.9824 63.7622 57.9318L63.7657 57.9327C63.7646 57.9322 63.7636 57.9316 63.7625 57.9309C63.7626 57.9312 63.7627 57.9316 63.7627 57.9319L63.5905 57.8804Z" fill="black"/>
<path d="M63.587 57.8803V57.8809V57.8813L63.5871 57.8823L63.5872 57.8812C63.5872 57.8816 63.5872 57.8819 63.5872 57.8822L63.5871 57.8813L63.587 57.8803Z" fill="black"/>
<path d="M23.0803 58.6057C24.7282 59.7879 25.781 60.4032 26.2387 60.4518C26.6105 60.5544 26.857 60.6115 26.9783 60.6229L28.2678 60.6141C28.2343 60.6366 28.8899 60.7062 30.2347 60.8229C30.2522 60.8302 30.4166 60.8242 30.7277 60.8051L31.2561 60.7123C31.6444 60.6983 31.8528 60.6849 31.8812 60.6721C31.9316 60.6779 32.1956 60.6047 32.6731 60.4526L33.5071 60.0261C33.9737 59.7488 34.3895 59.4443 34.7544 59.1127C34.7915 59.087 34.8127 59.0912 34.8181 59.1252C34.8487 59.7184 34.3547 60.3488 33.336 61.0165C33.1332 61.1789 32.8058 61.3428 32.3539 61.5082C31.9274 61.6 31.5796 61.6383 31.3106 61.6229L29.2398 61.4331C28.9861 61.4377 28.783 61.4319 28.6304 61.416C28.3693 61.4124 28.1124 61.4415 27.8595 61.5035L27.0795 61.5333L25.1498 61.0746C23.3359 60.564 22.6805 59.873 23.1833 59.0015L23.0803 58.6057Z" fill="black"/>
<path d="M52.1946 58.1085C53.2889 58.9357 54.2125 59.4208 54.9653 59.5639L56.1516 59.754L56.4866 59.7794C56.6362 59.8255 56.9374 59.8793 57.3904 59.9407L59.3913 59.9487C59.9946 59.8816 60.5961 59.7082 61.1959 59.4285L62.4979 58.8181C63.091 58.4812 63.4681 58.2408 63.6289 58.0969C63.6241 58.2942 63.1285 58.8821 62.142 59.8607C61.5648 60.2807 60.851 60.6515 60.0005 60.9732C59.9136 60.9981 59.8053 61.0017 59.6757 60.9839L58.2231 60.6611C57.9421 60.6136 57.6615 60.5879 57.3816 60.5839L56.5725 60.4677C56.1888 60.413 55.4686 60.2247 54.4121 59.903L53.5608 59.5763L52.324 58.8021C52.061 58.631 51.8976 58.436 51.8338 58.2168L52.1946 58.1085Z" fill="black"/>
<path d="M52.3149 58.1636C52.6564 57.4529 53.5906 56.4625 55.1175 55.1925C55.3947 54.9171 56.031 54.6678 57.0264 54.4445C58.4468 54.3329 59.5519 54.4678 60.3415 54.8493C60.4026 54.8602 60.7311 55.0694 61.3271 55.4768L62.7568 56.681C63.5697 57.4829 63.9973 57.9555 64.0394 58.0988C63.9843 57.5852 63.8231 57.0793 63.5557 56.5813C63.4011 56.3465 63.2791 56.1976 63.1897 56.1344C62.679 55.8185 62.248 55.5058 61.8966 55.1964C61.9523 55.1957 61.5995 55.0071 60.8383 54.6307C60.1048 54.3685 59.622 54.2242 59.3899 54.1977C58.9007 54.0803 58.2067 54.0356 57.3079 54.0637C57.1656 54.0639 56.9926 54.093 56.7888 54.1511C56.1132 54.3507 55.6266 54.5138 55.3292 54.6405C54.6672 54.9081 54.1384 55.1699 53.7429 55.4258C53.3328 55.6927 53.1053 55.8567 53.0603 55.918L51.7943 57.3252L52.3149 58.1636Z" fill="black"/>
<path d="M27.6182 56.0548C26.9784 56.7821 26.6228 57.3244 26.5514 57.6817C26.4563 57.9129 26.4792 58.3529 26.6201 59.0017C26.6565 59.248 26.8598 59.4971 27.2301 59.7487L28.5432 60.4131C28.6085 60.4487 28.7294 60.4687 28.9061 60.4732C29.1397 60.4653 29.3771 60.4085 29.6185 60.3026C29.7822 60.2255 29.9295 60.1393 30.0605 60.0438C30.4928 59.8741 30.7325 59.7606 30.7796 59.7033C31.0329 59.543 31.2674 59.1588 31.483 58.5509C31.6815 57.7723 31.6607 57.1154 31.4205 56.5804C31.3928 56.4846 31.2542 56.346 31.0048 56.1645C30.8447 56.0926 30.7585 56.0574 30.7463 56.059C30.3722 56.0173 30.1508 55.9735 30.0822 55.9274L27.6182 56.0548Z" fill="black"/>
<path d="M57.1518 54.5389C56.4029 54.7966 55.9214 55.2047 55.7075 55.7631C55.5996 55.9453 55.5323 56.4456 55.5056 57.264C55.5449 57.6434 55.6235 58.0023 55.7413 58.3406C56.064 58.7946 56.5293 59.1001 57.1372 59.257C57.477 59.3364 57.9209 59.3826 58.469 59.3956C58.9448 59.3016 59.2926 59.1659 59.5123 58.9885C60.095 58.2455 60.4446 57.6977 60.561 57.345C60.5831 57.1944 60.5807 57.0677 60.5538 56.9647C60.4916 56.7704 60.3833 56.5002 60.229 56.1543L60.1338 55.7584C60.1525 55.716 59.9844 55.407 59.6295 54.8314C59.4948 54.6543 59.3894 54.5454 59.3134 54.5046C58.3082 54.2016 57.7528 54.092 57.6473 54.1759L57.1518 54.5389Z" fill="black"/>
<path d="M38.3772 53.4005C38.6764 53.4133 38.9535 53.8919 39.2086 54.8364L39.3549 55.4099C39.3671 56.0105 39.4518 56.5812 39.609 57.1221C39.6344 57.2444 39.6197 57.3973 39.565 57.5806C39.4433 58.1617 39.1173 58.7343 38.587 59.2986C37.7603 60.0701 37.204 60.3581 36.9182 60.1624C36.7511 60.1193 36.5503 60.0003 36.3157 59.8055C34.5204 57.9289 33.6635 57.0135 33.745 57.0592C33.6295 56.9041 33.2394 56.5663 32.5748 56.0457L32.2792 55.6974C32.1886 55.6221 31.9501 55.1149 31.5637 54.1757C31.4271 53.8129 31.2764 53.2412 31.1116 52.4606L30.5793 51.1406L38.3772 53.4005Z" fill="black" fill-opacity="0.207843"/>
<path d="M46.9426 52.8936C46.6884 53.6386 47.0963 55.0557 48.1662 57.1451C49.2283 59.2923 50.0618 60.2374 50.6666 59.9802C50.7464 59.9755 50.8773 59.8758 51.0592 59.6812L51.7734 58.2748C52.3795 57.2572 52.8837 56.5452 53.2858 56.1387C55.0662 54.407 56.6747 53.0662 58.1112 52.1161L59.7626 50.0962C59.8084 49.9518 59.8319 49.771 59.8329 49.5536L46.9426 52.8936Z" fill="black" fill-opacity="0.207843"/>
<path d="M38.4198 73.1936L38.3202 73.1973C37.9349 73.2515 37.6367 73.3684 37.4254 73.5482C37.265 73.6971 37.1194 73.8603 36.9886 74.0376C36.942 74.1021 36.8113 74.3592 36.5963 74.8089L36.5265 75.0852C36.4939 75.2599 36.489 75.4153 36.5117 75.5516C36.5344 75.688 36.5848 75.8052 36.6629 75.9033L36.8008 76.0359L36.9802 76.14C37.1137 76.1998 37.2748 76.2405 37.4637 76.2619C37.5871 76.2523 37.6825 76.2412 37.7498 76.2286C38.2274 76.0931 38.6181 75.9626 38.922 75.8369C39.5418 75.514 39.97 75.31 40.2067 75.2249C40.6616 74.981 40.9496 74.8215 41.0708 74.7463L41.156 74.8936L41.3008 74.5943C41.2826 74.6129 41.2067 74.6634 41.0732 74.7458C40.8466 74.3766 40.6748 74.1328 40.5577 74.0145C40.2959 73.7209 40.0899 73.5414 39.9395 73.476C39.8465 73.43 39.7584 73.398 39.6754 73.3799L38.508 73.1965L38.4198 73.1936Z" fill="black" fill-opacity="0.207843"/>
<path d="M50.0257 72.6078L49.9483 72.6094C49.6744 72.6286 49.4055 72.673 49.1416 72.7425C48.7612 72.8727 48.5216 72.9801 48.4231 73.0649C48.1728 73.2901 47.8287 73.8163 47.3909 74.6437C47.816 74.806 48.1687 74.9574 48.449 75.0977L49.3724 75.6069C49.7533 75.6119 50.0687 75.6056 50.3185 75.5878L51.269 75.7213C51.7359 75.4987 52.1342 75.3318 52.464 75.2205C52.5433 74.8759 52.6317 74.5527 52.7292 74.251C52.7339 74.1445 52.7245 74.0678 52.701 74.0207C52.5332 73.7116 52.2762 73.461 51.9301 73.2687L50.7982 72.8751L50.2499 72.6271C50.1848 72.6144 50.11 72.608 50.0257 72.6078Z" fill="black" fill-opacity="0.207843"/>
<path d="M39.8367 96.1559C39.6846 96.1067 39.4815 96.0665 39.2274 96.0353C38.7414 96.0554 38.1044 96.011 37.3163 95.902C36.4863 95.7184 36.1056 95.6081 36.1742 95.571C35.1449 94.8664 35.0818 94.129 35.985 93.3586C36.1247 93.2678 36.3417 93.1883 36.6359 93.1202C36.9629 93.1663 38.2587 92.948 40.5233 92.4653L42.2398 91.8532L44.1805 91.3784L44.7243 91.1802C46.4996 90.8665 47.5071 90.7196 47.7467 90.7394C50.0562 90.923 51.9268 91.7877 53.3585 93.3334C54.1367 94.2542 54.0077 95.0811 52.9714 95.8139L51.1241 96.616C50.8646 96.7169 50.6548 96.7648 50.4946 96.7595C50.1281 96.7627 49.9261 96.7584 49.8885 96.7466C49.3347 96.6302 48.8776 96.5628 48.5172 96.5443C48.2181 96.5328 47.8908 96.5472 47.5352 96.5872C47.1333 96.5486 46.8931 96.5376 46.8148 96.5542C46.4774 96.5731 45.9921 96.6269 45.3589 96.7156L43.606 96.6668L40.4112 96.4017L39.1906 96.1647C39.1366 96.1549 39.0789 96.1232 39.0174 96.0697L39.8367 96.1559Z" fill="black" fill-opacity="0.501961"/>
<path d="M6.53979 65.8879C6.43666 66.194 6.37369 66.6679 6.35086 67.3095C6.43609 67.921 6.56818 68.378 6.74713 68.6805L8.18857 70.6505L9.31738 72.4469L10.4899 73.5154C10.6572 73.6632 10.9476 73.8407 11.3611 74.0478C11.41 74.075 11.434 74.1161 11.4332 74.1711C11.3285 74.2143 11.1623 74.1422 10.9347 73.9546L9.79828 72.5891C9.68874 72.4636 9.35751 72.1926 8.8046 71.7763C8.76854 71.7606 8.56094 71.5234 8.18179 71.0646C8.04606 70.8147 7.67434 70.2983 7.06662 69.5155L6.89267 69.1963C6.60602 68.6208 6.38248 67.9701 6.22205 67.2442L6.53979 65.8879Z" fill="black"/>
<path d="M11.7834 76.1321C12.9943 82.2485 14.2506 86.324 15.5523 88.3586C15.4212 88.4534 17.7039 91.1893 22.4004 96.5661C25.0054 98.635 26.6464 99.586 27.3235 99.4194C25.1431 98.3414 23.6114 97.3574 22.7282 96.4673C20.7923 94.6522 19.3676 93.411 18.4542 92.7438C17.1215 91.5332 16.3949 90.7548 16.2745 90.4087C15.4693 89.1401 14.8909 88.109 14.5392 87.3154L13.6327 83.5585C13.6159 82.5839 13.2389 80.7238 12.5017 77.978L11.7834 76.1321Z" fill="black"/>
<path d="M77.2208 60.9292C77.2974 61.2707 77.3801 62.0655 77.4688 63.3135C77.4845 63.5965 77.4915 63.7651 77.4899 63.8192C77.4727 64.1874 77.471 64.526 77.485 64.8349L77.4644 65.1888C77.4615 65.1821 77.4674 65.2938 77.4822 65.5236C77.5467 65.7532 77.6276 66.3089 77.7247 67.1906L77.6569 68.0524C77.669 68.6917 77.6799 69.0347 77.6898 69.0812C77.6918 69.2209 77.6901 69.3452 77.6847 69.4539L77.572 70.5703L77.5005 70.8958C77.4157 71.8169 77.3432 72.3639 77.2831 72.5369C77.2642 72.6417 77.1734 72.825 77.0107 73.0869C76.867 73.4912 76.3745 73.7967 75.5331 74.0036C75.5016 74.0074 75.5044 73.9855 75.5416 73.9378C75.7073 73.7695 75.8688 73.5687 76.026 73.3353L76.4497 72.5588C76.5159 72.2755 76.5958 72.0344 76.6894 71.8354L77.0445 70.3991C77.055 70.4129 77.0828 70.1809 77.1278 69.7029L77.1656 68.2969L77.2312 67.5578L77.2372 66.3917C77.2458 66.3443 77.2026 65.9986 77.1076 65.3546C77.101 65.2641 77.0333 65.0696 76.9045 64.7712L76.858 64.4271C76.7668 64.0838 76.7082 63.8176 76.6822 63.6282C76.6784 63.3789 76.6337 62.9192 76.5481 62.2491L76.5307 61.7698C76.4788 61.4483 76.4532 61.1792 76.454 60.9624L77.2208 60.9292Z" fill="black"/>
<path d="M75.8833 74.0643L75.4568 74.4434C74.2367 75.5687 73.4434 76.8258 73.0767 78.2148C73.0322 78.387 72.9967 78.5516 72.9702 78.7085C72.9545 79.1501 72.9453 79.5209 72.9428 79.821C72.9406 80.5468 72.991 81.4197 73.0941 82.4397L72.7252 84.4481C72.7248 84.7112 72.72 84.9733 72.7107 85.2347L73.728 83.4196L75.8833 74.0643Z" fill="black"/>
<path d="M72.7032 85.248L72.1739 86.1924C72.0619 86.4703 71.9506 86.7835 71.8401 87.1321C71.7568 87.3737 71.6198 87.8646 71.4293 88.6046C71.7087 88.7608 71.915 89.0303 72.0483 89.4131C72.1926 88.9313 72.306 88.5364 72.3887 88.2283L72.4522 87.8393C72.5321 87.3302 72.5933 86.8597 72.6357 86.4278C72.657 86.2118 72.6735 86.0055 72.6853 85.809L72.6996 85.5212L72.7068 85.248L72.7032 85.249V85.248Z" fill="black"/>
<path d="M71.4563 91.1584L70.9512 91.8019C70.9168 92.0823 70.8618 92.2809 70.786 92.3974C70.3338 92.9751 70.0324 93.4771 69.8818 93.9034L69.4256 94.5001C69.479 94.5995 69.4319 94.8547 69.2844 95.2657C68.7117 96.0737 68.2556 96.7747 67.9161 97.3688L66.0851 100.847C65.5033 101.455 65.1117 101.73 64.9103 101.672L63.386 103.699L57.7041 109.641C57.89 109.632 58.6568 108.996 60.0045 107.732L61.9241 105.909C62.206 105.503 62.5795 105.055 63.0445 104.567C63.8391 103.817 64.3667 103.381 64.6272 103.262C64.6976 103.205 64.8364 103.045 65.0434 102.78C66.2226 101.291 67.4064 99.6047 68.5949 97.7213C70.4251 94.0042 71.3789 91.8165 71.4563 91.1584Z" fill="black"/>
<path d="M29.2003 106.935L29.2864 107.048L30.5085 108.715C31.0894 109.134 31.9203 109.559 33.0012 109.992C33.3595 110.143 33.9373 110.336 34.7345 110.572C36.6582 110.91 38.1201 111.127 39.1202 111.222C41.0341 111.306 42.2848 111.335 42.8721 111.308L43.962 111.372C44.6148 111.378 45.0938 111.361 45.399 111.321C45.9765 111.395 46.3071 111.433 46.3908 111.434L47.7473 111.429C48.0622 111.39 48.4584 111.368 48.9361 111.363C49.9618 111.428 50.6012 111.451 50.8544 111.432L52.8622 111.25C53.274 111.112 53.691 111.004 54.1133 110.926C54.8559 110.81 55.392 110.76 55.7215 110.776C55.9621 110.714 56.4603 110.556 57.2161 110.302L57.9154 110.157L55.9901 109.473C55.7012 109.565 55.3211 109.78 54.8499 110.119L53.8105 110.536C52.8926 110.748 52.038 110.917 51.2468 111.045L50.1798 111.054L49.6287 111.112C48.9795 111.092 48.397 111.113 47.8813 111.177L46.4604 111.177L44.6552 110.995C44.1941 110.99 43.7331 110.985 43.2721 110.979C42.2447 110.827 41.5815 110.759 41.2824 110.776C40.7499 110.682 40.0928 110.54 39.3111 110.35C37.2162 110.056 35.6307 109.79 34.5544 109.551L31.5862 108.733C31.0605 108.601 30.2652 108.002 29.2003 106.935Z" fill="black"/>
<path d="M28.5231 106.153L28.5219 106.153C28.513 106.146 28.6169 106.268 28.8336 106.52C28.9062 106.603 29.0147 106.723 29.159 106.88C28.7921 106.401 28.5802 106.159 28.5231 106.153Z" fill="black"/>
<path d="M21.5403 98.0804L23.4319 100.374L25.3236 102.668C24.724 101.68 24.4126 101.189 24.3892 101.195C24.3709 101.177 24.3608 101.172 24.3589 101.178L22.738 99.2368C22.569 99.0918 22.1697 98.7063 21.5403 98.0804Z" fill="black"/>
<path d="M25.332 102.682L25.3822 102.765L25.8297 103.513C25.9561 103.649 26.2538 104.056 26.7228 104.733L28.7288 107.22C29.5366 108.096 29.6691 108.072 29.1263 107.149L28.9094 106.792L28.1613 105.857L26.761 104.428C26.6797 104.336 26.6131 104.249 26.5614 104.168L25.332 102.682Z" fill="black"/>
<path d="M73.8568 46.3392L73.7934 46.5037C73.7112 46.699 73.6044 46.8955 73.4727 47.0933C73.2974 47.3411 73.1847 47.4902 73.1348 47.5405C73.0504 47.6404 72.9599 47.7405 72.8631 47.841L73.6055 49.1269C73.6225 48.6818 73.6518 48.2299 73.6934 47.7712C73.7161 47.5245 73.7381 47.3108 73.7596 47.1301C73.7845 46.9039 73.8181 46.6403 73.8604 46.3392L73.8568 46.3401V46.3392Z" fill="black" fill-opacity="0.301961"/>
<path d="M56.1896 110.785L56.1927 110.786C56.1927 110.786 56.1968 110.786 56.205 110.786L56.2118 110.786C56.2192 110.787 56.2284 110.787 56.2394 110.787L56.2506 110.788L56.3537 110.792L56.4171 110.799V110.8L56.2676 110.791C56.2486 110.79 56.2332 110.789 56.2213 110.788L56.1953 110.786C56.1953 110.787 56.1953 110.787 56.1953 110.787L56.1862 110.785L56.1896 110.786V110.785ZM73.6053 49.1325L73.5898 49.7513C73.4795 50.3638 73.6321 51.9064 74.0477 54.3791C74.0432 54.8922 73.5266 55.9235 72.4979 57.4731C72.3244 58.0321 72.2606 58.4636 72.3065 58.7677C72.6304 59.7762 73.6264 61.3124 75.2944 63.3764C75.314 63.8692 75.0333 64.8183 74.4524 66.2238C74.8353 67.3688 75.2303 68.0802 75.6375 68.358C71.9267 72.9866 69.3399 77.8153 67.8771 82.8441C65.7033 85.0169 64.1343 86.9881 63.1702 88.7577C60.7892 90.2429 58.7015 91.9443 56.9071 93.8619C56.6481 94.7835 56.5793 95.5856 56.7006 96.2683C56.8151 96.899 57.1997 97.8447 57.8546 99.1055L57.6931 99.4752C57.5767 99.6934 57.2714 99.8814 56.7771 100.039C54.1448 100.654 52.2024 101.044 50.9498 101.21C48.4374 101.61 44.7852 101.786 39.9932 101.736L36.7655 102.708C34.3802 103.697 33.1468 105.273 33.0652 107.435C33.2185 109.355 33.3674 110.442 33.5117 110.697C34.9388 110.675 36.7418 110.984 38.9208 111.622C39.9448 111.393 40.7646 111.291 41.3803 111.314C42.2659 111.33 43.3193 111.49 44.5406 111.795C45.8416 111.353 47.9046 111.405 50.7295 111.95L54.1932 110.911L55.5038 110.778C56.0226 110.786 56.128 110.786 55.8199 110.776L56.1799 110.784L55.993 110.785L57.0333 110.86L57.5045 110.65C59.9754 107.929 61.2317 106.699 61.2734 106.959C61.707 106.143 62.3291 105.312 63.1397 104.465C63.987 103.676 64.7742 103.107 65.5011 102.758L68.9053 99.1785C68.6262 97.5418 69.7477 94.9797 72.2697 91.4922C72.1694 89.8473 72.322 88.495 72.7275 87.4353C72.7977 87.0141 73.4149 85.8985 74.579 84.0883C74.4155 83.0787 74.527 81.6657 74.9135 79.8495C75.8438 76.3664 76.6846 74.2102 77.436 73.381C77.4516 72.643 77.7701 70.2982 78.3914 66.3464C77.553 63.1711 77.7037 60.4555 78.8435 58.1996L73.6053 49.1325Z" fill="black" fill-opacity="0.301961"/>
<path d="M46.1486 112.252L46.118 112.255C46.0875 112.256 46.0369 112.26 45.9662 112.266L45.8759 112.273C45.8862 112.277 45.8964 112.281 45.9064 112.285L45.9745 112.277C45.9802 112.277 45.9973 112.275 46.0257 112.271L46.0768 112.266L46.111 112.263L46.1143 112.264C46.1296 112.259 46.1421 112.255 46.1519 112.252L46.1486 112.253V112.252Z" fill="black" fill-opacity="0.301961"/>
<path d="M38.7435 67.3373C37.5106 67.5809 36.5906 68.2092 35.9834 69.222L35.0666 71.2496L34.7639 72.3209L34.721 72.7537L34.7496 74.3281C34.8071 74.7422 34.9027 75.0331 35.0362 75.2008C35.3149 75.4996 35.7242 75.7953 36.2642 76.0881C36.6372 76.3005 36.937 76.4474 37.1637 76.5286C37.5994 76.6373 37.9607 76.6976 38.2477 76.7094C38.6866 76.8989 38.9793 76.9972 39.1259 77.0044C39.109 77.0898 39.5846 77.0516 40.5525 76.89C40.5032 76.9478 40.2587 77.0495 39.819 77.195C38.9927 77.4103 37.8913 77.3804 36.5149 77.1055C36.0928 77.0126 35.6451 76.734 35.1718 76.2695C34.9916 76.1271 34.7951 75.7803 34.5825 75.2291C34.4973 74.6796 34.4668 74.2547 34.4908 73.9543C34.4832 73.927 34.5039 73.8433 34.5527 73.7032C34.5436 73.4284 34.5559 73.1871 34.5895 72.9793C34.7244 72.4127 34.7899 71.9361 34.7862 71.5494L35.1301 70.3007C35.2649 70.1518 35.4566 69.7252 35.7052 69.0212C35.7181 68.9814 35.8139 68.8637 35.9927 68.668C36.2728 68.4102 36.8935 68.0724 37.8549 67.6547L38.7435 67.3373Z" fill="black"/>
<path d="M49.3285 66.9022C50.032 67.0133 50.5595 67.2088 50.9111 67.4885C50.9419 67.5561 51.2203 67.82 51.7465 68.2803L52.8742 69.5119C53.2216 69.9586 53.447 70.3094 53.5504 70.5644C53.6992 71.0804 53.803 71.3845 53.8616 71.4766L54.0044 72.0867C54.0063 72.3626 54.0174 72.5347 54.0374 72.6033C53.8962 73.6156 53.794 74.1127 53.731 74.0946C53.6931 74.257 53.5366 74.4573 53.2615 74.6954L52.2363 75.5304C52.1272 75.6233 52.0343 75.7323 51.9577 75.8576L51.0086 76.5067C49.6936 76.8097 48.8773 76.8821 48.5596 76.7237C48.7885 76.7894 49.1999 76.8124 49.7937 76.7928C49.7732 76.8872 50.5198 76.706 52.0334 76.2491C52.4483 76.0784 52.8024 75.8774 53.0958 75.6461C54.0089 74.8194 54.5229 73.8141 54.6379 72.63C54.6626 72.3681 54.6379 72.0776 54.5637 71.7585C54.5011 71.4925 54.2774 71.0518 53.8926 70.4362L53.3767 69.162C53.3128 69.0115 53.1728 68.7638 52.9569 68.4187C52.8283 68.2216 52.6603 68.0487 52.4529 67.9002C51.4917 67.4018 50.9745 67.0458 50.9014 66.8322L49.3285 66.9022Z" fill="black"/>
<path d="M36.2629 73.4501L38.0424 72.3143C38.173 72.2081 38.6841 72.1917 39.5756 72.2651L40.3994 72.6628C40.9299 73.1079 41.2234 73.3363 41.28 73.3483C42.3071 74.4047 42.8263 74.9105 42.8376 74.8657C43.4968 75.1935 43.8404 75.3517 43.8683 75.3403C43.9166 75.3736 44.2386 75.4111 44.8343 75.4526C45.0253 75.4645 45.1824 75.4447 45.3058 75.3934C45.8867 75.1993 46.3892 74.9889 46.8133 74.7623L48.731 72.5267C48.7043 72.4635 49.0383 72.2709 49.7328 71.9489L50.17 71.8294C50.2025 71.8088 50.3781 71.8219 50.6966 71.8689L52.2665 72.6415C52.6465 72.86 52.9466 73.1657 53.1669 73.5583L51.8801 72.0747C51.5917 71.8918 51.2552 71.7682 50.8707 71.7041C50.6024 71.6576 50.3443 71.6556 50.0964 71.6982C49.6837 71.7292 49.204 71.969 48.6572 72.4175C48.1914 72.8085 47.6484 73.3737 47.0282 74.1131L46.5015 74.5387C46.1934 74.7105 45.918 74.8238 45.6755 74.8785L44.696 74.9495L44.1086 75.0454C43.3417 74.8844 42.7998 74.6707 42.4829 74.4045C42.172 74.2623 41.589 73.5833 40.734 72.3673C40.5745 72.1977 40.3433 72.0605 40.0404 71.9559C39.5235 71.8619 39.2879 71.8259 39.3336 71.8478C38.6014 71.8564 38.2216 71.889 38.1943 71.9457L37.1526 72.491C36.9766 72.7662 36.9203 72.9167 36.9838 72.9427L36.2629 73.4501Z" fill="black"/>
<path d="M35.9288 90.9736L39.8339 89.3297C41.2877 88.9623 42.8823 88.4811 44.6176 87.8861C45.372 87.7146 45.9521 87.6122 46.3579 87.5788C46.7944 87.4959 47.8107 87.5842 49.407 87.8436C52.2024 88.3869 53.6392 88.6358 53.7172 88.5903L54.5004 88.8015C55.7384 89.2684 56.3783 89.4859 56.42 89.4543C57.0059 89.5884 57.3242 89.5674 57.3749 89.3913C57.2186 88.2593 56.2765 87.4283 54.5486 86.8982C54.279 86.8145 54.0172 86.7595 53.7632 86.7333C52.4034 86.5996 51.6689 86.5421 51.5596 86.5606C51.1192 86.4682 50.6327 86.3997 50.1 86.3552C48.6889 86.3297 47.9892 86.3315 48.0011 86.3606C47.7474 86.3794 47.4644 86.4243 47.1523 86.4953C46.7507 86.5067 46.4896 86.5282 46.3691 86.5598C45.2037 86.7924 44.0525 87.1067 42.9157 87.5028L37.8426 89.8187C37.7275 89.8465 37.0504 90.2901 35.8114 91.1497L35.9288 90.9736Z" fill="black" fill-opacity="0.501961"/>
</svg>
