<svg width="525" height="538" viewBox="0 0 525 538" fill="none" xmlns="http://www.w3.org/2000/svg">
<circle cx="256" cy="269" r="269" fill="url(#paint0_radial)"/>
<path d="M114.312 185.721L114.312 185.721L114.312 185.722V185.724V185.722L114.312 185.722L114.312 185.725V185.721Z" fill="#FBCD87"/>
<path d="M114.31 185.721V185.722V185.724L114.31 185.724L114.311 185.723C114.311 185.724 114.311 185.725 114.311 185.726C114.31 185.724 114.31 185.723 114.31 185.721Z" fill="#FBCD87"/>
<path d="M114.312 185.722V185.722L114.312 185.723L114.312 185.722L114.312 185.722L114.312 185.722L114.312 185.725V185.722Z" fill="#FBCD87"/>
<path d="M114.311 185.723L114.311 185.723L114.311 185.723L114.311 185.723L114.311 185.727V185.73L114.311 185.726L114.311 185.725L114.311 185.723L114.311 185.723Z" fill="#FBCD87"/>
<path d="M256.015 95.2594L255.95 95.2734L255.432 95.3871L255.525 95.4247C256.433 95.8372 257.34 96.2495 258.248 96.6616C258.469 96.6744 258.691 96.6871 258.913 96.6998C258.205 96.3374 257.63 96.0406 257.19 95.8091L256.343 95.3628C256.347 95.3627 256.35 95.3626 256.354 95.3626L256.015 95.2594Z" fill="#FBCD87"/>
<path d="M251.921 104.549V104.55V104.552L251.924 104.551L251.926 104.55C251.926 104.551 251.926 104.552 251.926 104.553L251.924 104.551L251.921 104.549Z" fill="#FBCD87"/>
<path d="M251.932 104.549L251.929 104.549C251.927 104.549 251.926 104.55 251.927 104.553L251.981 104.564C252.36 104.662 252.712 104.751 253.037 104.832L252.807 104.629L252.809 104.631L252.81 104.632C252.814 104.63 252.817 104.629 252.818 104.629C252.522 104.602 252.227 104.576 251.932 104.549Z" fill="#FBCD87"/>
<path d="M276.105 78L276.155 78.1061L276.204 78.2119C276.381 78.3098 276.558 78.4077 276.734 78.5052C276.473 78.2924 276.268 78.124 276.117 78L276.105 78.0033V78Z" fill="#FBCD87"/>
<path d="M276.985 113.176L277.762 113.606C279.393 114.511 281.66 115.741 284.562 117.296C289.567 118.708 294.948 119.971 300.704 121.083C299.545 120.707 298.339 120.275 297.088 119.786C294.864 118.894 293.233 118.201 292.195 117.707L287.223 116.297C286.813 116.687 286.466 116.891 286.183 116.909C285.903 116.977 285.535 116.943 285.079 116.807C284.375 116.527 284.061 116.372 284.138 116.342C283.958 116.145 283.793 115.78 283.64 115.249C281.703 114.673 279.484 113.982 276.985 113.176Z" fill="#FBCD87"/>
<path d="M359.377 134.938L359.383 134.946L359.39 134.954V134.957L359.394 134.955C359.396 134.954 359.398 134.953 359.399 134.953L359.406 134.95L359.411 134.949C359.415 134.95 359.419 134.951 359.423 134.952C359.411 134.947 359.4 134.943 359.389 134.938V134.938L359.383 134.938L359.377 134.941V134.938Z" fill="#FBCD87"/>
<path d="M304.434 126.05L307.937 127.41C312.454 129.139 316.348 130.535 319.622 131.596C321.259 132.127 322.74 132.575 324.066 132.939C324.996 133.231 326.563 133.584 328.768 133.998C325.318 130.98 322.433 128.361 320.113 126.142C317.791 126.35 315.217 126.442 312.392 126.417C309.897 126.392 307.244 126.27 304.434 126.05Z" fill="#FBCD87"/>
<path d="M144.153 201.428L144.152 201.43L144.151 201.431C144.152 201.432 144.152 201.433 144.153 201.434C144.153 201.432 144.153 201.43 144.153 201.428Z" fill="#FBCD87"/>
<path d="M144.127 201.468V201.471C143.169 202.785 141.629 205.157 139.505 208.588C139.063 209.97 138.621 211.351 138.179 212.732C138.5 212.906 138.878 213.203 139.313 213.622L144.137 201.468L144.127 201.471V201.468Z" fill="#FBCD87"/>
<path d="M123.384 401.588L123.178 401.738L122.972 401.888C122.975 401.889 122.978 401.89 122.982 401.891C122.99 401.902 122.994 401.909 122.993 401.913L123.384 401.588Z" fill="#FBCD87"/>
<path d="M267.389 452.558L267.387 452.561L267.384 452.558L267.381 452.562C267.376 452.56 267.37 452.559 267.362 452.559L267.355 452.563L267.348 452.559L267.342 452.56L267.335 452.56L267.322 452.561L267.316 452.562L267.31 452.562L267.312 452.565L267.354 452.563L267.396 452.56V452.563C267.394 452.561 267.391 452.56 267.389 452.558Z" fill="#FBCD87"/>
<path d="M267.425 452.558L267.411 452.559L267.397 452.56V452.563C267.399 452.562 267.401 452.562 267.403 452.561C267.407 452.561 267.41 452.56 267.414 452.56L267.425 452.563V452.561V452.561L267.499 452.562L267.572 452.562L267.564 452.562L267.556 452.561L267.548 452.561L267.54 452.561L267.532 452.56L267.524 452.56L267.5 452.559L267.477 452.558L267.469 452.558L267.462 452.561C267.452 452.56 267.442 452.56 267.432 452.561V452.558L267.425 452.561V452.558Z" fill="#FBCD87"/>
<path d="M375.915 294.471L375.881 294.496C375.799 294.555 375.74 294.595 375.702 294.617C375.653 294.647 375.602 294.675 375.551 294.702C375.448 294.756 375.34 294.803 375.228 294.844C375.315 294.814 375.42 294.772 375.543 294.719C375.693 294.651 375.809 294.592 375.892 294.542L375.904 294.546L375.927 294.471L375.915 294.474V294.471Z" fill="#FBCD87"/>
<path d="M358.779 358.173V358.173L358.779 358.174V358.176V358.174L358.779 358.174V358.173Z" fill="#FBCD87"/>
<path d="M230.385 102.408L227.583 103.46C227.718 102.646 221.317 105.901 208.381 113.227C205.632 113.519 202.5 112.35 198.984 109.721C191.591 112.781 174.723 125.245 148.379 147.114L139.226 168.149C144.617 163.491 144.752 168.177 139.631 182.207C141.25 178.144 142.907 176.338 144.602 176.789L153.848 160.865C155.377 159.392 156.584 159.981 157.466 162.634L139.779 195.61C140.153 194.941 140.976 195.209 142.25 196.413L155.828 180.401C158.179 179.715 159.575 179.854 160.016 180.817L144.412 200.825L144.218 201.334C145.144 200.328 146.099 199.881 147.081 199.993L148.145 201.365C146.366 208.493 145.969 211.671 146.953 210.898L133.86 245.688L133.094 253.385L142.381 259.781L143.55 264.756L134.379 282.579L133.458 288.475C133.903 288.067 134.601 289.698 135.552 293.365L133.219 305.129L145.139 325.348C145.996 324.854 147.867 326.83 150.751 331.278C150.175 330.584 150.855 333.55 152.792 340.176L164.248 376.253C177.261 391.378 183.424 398.206 182.739 396.737L186.149 408.095L209.798 437.121L209.434 437.459L219.619 445.087C228.099 447.93 236.902 450.283 246.03 452.144L294.043 452.082C295.846 452.041 299.296 451.123 304.393 449.326L308.095 447.847L318.658 438.243C318.587 437.313 319.466 435.722 321.294 433.47L330.846 426.248L346.173 403.926L355.855 377.424L358.671 356.742C358.907 355.765 359.588 355.13 360.714 354.839C360.378 352.334 360.872 350.847 362.198 350.379L362.572 341.371C363.301 339.843 364.41 339.305 365.9 339.758L368.894 324.483C371.075 320.875 372.484 319.329 373.122 319.844C373.744 311.148 374.4 307.286 375.09 308.257L375.354 300.32C371.835 294.351 370.547 290.138 371.491 287.68C371.936 281.571 373.751 275.986 376.936 270.924L375.834 255.744C375.112 255.227 374.349 253.513 373.547 250.601C371.155 249.426 369.706 248.194 369.201 246.905C367.853 243.946 367.209 241.257 367.269 238.839C367.423 231.757 368.039 226.294 369.119 222.452C370.182 217.524 371.855 214.45 374.138 213.228C373.802 210.624 374.339 208.88 375.748 207.997L366.442 178.673L353.128 152.63L350.772 150.242L334.722 138.961C333.359 139.692 322.265 136.766 301.441 130.182L259.798 110.194L230.385 102.408Z" fill="#FBCD87"/>
<path d="M351.746 409.222L351.675 409.391C351.486 409.841 351.297 410.286 351.109 410.725C351.283 410.561 351.511 410.348 351.792 410.087C351.781 409.863 351.77 409.574 351.758 409.222L351.746 409.225V409.222Z" fill="#FBCD87"/>
<path d="M191.495 435.928L191.479 435.96L191.462 435.991L194.415 439.957L191.495 435.928Z" fill="#FBCD87"/>
<path d="M242.306 451.48L242.312 451.482L242.568 451.563C242.704 451.614 242.834 451.675 242.957 451.746L243.135 451.86C243.251 451.941 243.358 452.03 243.458 452.127C243.76 452.424 243.977 452.775 244.109 453.18L244.023 452.88L243.908 452.607L243.766 452.362L243.595 452.146L243.396 451.957L243.169 451.796L242.913 451.663L242.629 451.558L242.306 451.48Z" fill="#FBCD87"/>
<path d="M152.788 344.12V344.123L152.813 344.284C153.369 344.644 153.86 345.066 154.285 345.551C154.714 346.037 155.072 346.572 155.358 347.158L155.155 346.72C155.013 346.437 154.857 346.171 154.688 345.921C154.519 345.671 154.336 345.437 154.139 345.22C153.75 344.787 153.299 344.42 152.788 344.12Z" fill="#FBCD87"/>
<path d="M128.436 399.961L128.318 399.963L128.199 399.965L127.959 399.978L127.715 400L127.467 400.031L127.217 400.07C127.132 400.087 127.047 400.103 126.963 400.118L126.705 400.176L126.444 400.241L126.189 400.313L126.192 400.317C127.19 400.102 128.191 400.101 129.195 400.313C129.155 400.207 129.116 400.102 129.076 399.996L129.086 399.996C128.879 399.973 128.663 399.961 128.436 399.961Z" fill="#FBCD87"/>
<path d="M134.372 162.523L134.371 162.526L134.371 162.523V162.527L134.372 162.525C134.372 162.525 134.373 162.524 134.373 162.523V162.527L134.373 162.524L134.372 162.523Z" fill="#FBCD87"/>
<path d="M134.385 162.52L134.384 162.52L134.382 162.524C134.382 162.522 134.381 162.522 134.38 162.524L134.375 162.521L134.374 162.522L134.373 162.523V162.526L134.377 162.526L134.381 162.526L134.384 162.522C134.384 162.523 134.385 162.525 134.385 162.525V162.52Z" fill="#FBCD87"/>
<path d="M134.318 162.524L134.313 162.525L134.309 162.525L134.306 162.526L134.303 162.528L134.303 162.525L134.301 162.526L134.3 162.527C134.304 162.528 134.308 162.529 134.312 162.53C134.312 162.529 134.313 162.528 134.313 162.527L134.315 162.526L134.318 162.524Z" fill="#FBCD87"/>
<path d="M134.367 162.522L134.366 162.523L134.364 162.525C134.364 162.524 134.363 162.523 134.362 162.522L134.359 162.522L134.356 162.522L134.35 162.523L134.347 162.526L134.345 162.523C134.342 162.523 134.34 162.523 134.337 162.523L134.334 162.526C134.331 162.524 134.329 162.523 134.328 162.524L134.325 162.527C134.323 162.525 134.322 162.524 134.32 162.524L134.319 162.527L134.318 162.524V162.528V162.524V162.528L134.325 162.526L134.332 162.524C134.334 162.525 134.337 162.526 134.34 162.527L134.347 162.526L134.355 162.524L134.358 162.527C134.359 162.525 134.36 162.524 134.361 162.523C134.362 162.524 134.363 162.525 134.365 162.527C134.366 162.525 134.368 162.524 134.37 162.523V162.527L134.367 162.522Z" fill="#FBCD87"/>
<path d="M134.389 162.522L134.388 162.523L134.386 162.526V162.529V162.523V162.524L134.389 162.522Z" fill="#FBCD87"/>
<path d="M134.298 162.525L134.296 162.526L134.293 162.528L134.296 162.529L134.299 162.531L134.298 162.528L134.298 162.525Z" fill="#FBCD87"/>
<path d="M134.291 162.525L134.289 162.528C134.29 162.529 134.292 162.53 134.293 162.531L134.294 162.531L134.295 162.53L134.296 162.529C134.297 162.529 134.297 162.529 134.298 162.529L134.298 162.528L134.299 162.528C134.297 162.529 134.295 162.53 134.293 162.531C134.292 162.529 134.292 162.527 134.291 162.525Z" fill="#FBCD87"/>
<path d="M112.938 185.156L112.937 185.157C112.933 185.159 112.93 185.16 112.929 185.16L112.916 185.211C113.26 185.347 113.451 185.421 113.488 185.433C113.64 185.49 113.828 185.558 114.052 185.634V185.638C113.642 185.478 113.271 185.318 112.938 185.156Z" fill="#FBCD87"/>
<path d="M348.469 271.249C345.747 271.361 343.182 271.89 340.773 272.836C337.478 274.491 335.411 276.076 334.572 277.59C332.253 281.29 332.57 286.181 335.525 292.262L348.469 271.249Z" fill="#FBCD87" fill-opacity="0.423529"/>
<path d="M344.266 269.568C341.85 273.835 340.558 276.677 340.393 278.094C340.209 280.272 340.755 282.004 342.03 283.288C343.057 283.852 344.325 283.467 345.831 282.133C348.677 279.005 350.35 276.504 350.85 274.63C351.419 272.86 351.333 271.737 350.594 271.261C349.951 270.596 348.769 270.573 347.049 271.193C342.933 273.122 339.25 276.083 336.001 280.075C333.219 283.967 331.902 287.042 332.051 289.301C332.241 291.372 332.537 292.576 332.938 292.916C333.578 293.724 334.608 294.234 336.029 294.447L344.266 269.568Z" fill="#FBCD87"/>
<path d="M342.707 271.016V271.02C341.737 271.196 340.587 271.603 339.258 272.242C338.418 272.708 337.755 273.159 337.27 273.594C336.999 273.81 336.468 274.383 335.676 275.31C335.392 275.672 335.155 276.021 334.963 276.358C334.582 277.03 334.386 277.651 334.377 278.22C334.334 278.754 334.474 279.255 334.797 279.722C334.959 279.956 335.166 280.181 335.419 280.398L335.833 280.717C336.132 280.925 336.476 281.126 336.867 281.318C338.814 281.98 340.33 281.869 341.414 280.985C342.251 280.175 342.802 279.469 343.069 278.867C343.41 278.199 343.617 277.5 343.689 276.772C343.763 275.624 343.664 274.723 343.393 274.072C342.722 272.977 342.078 272.352 341.461 272.194L342.719 271.016L342.707 271.02V271.016Z" fill="#FBCD87"/>
<path d="M223.399 376.84C228.258 380.093 232.328 382.109 235.608 382.888C240.564 383.921 244.895 384.882 248.601 385.77L255.197 386.51C258.605 386.261 262.05 385.82 265.531 385.188L272.569 385.351C277.285 385.072 283.597 384.469 291.505 383.54C292.813 383.674 296.426 382.157 302.343 378.99C304.858 377.161 306.477 375.825 307.199 374.981C310.234 371.53 311.44 369.641 310.817 369.314C309.835 363.061 306.258 359.299 300.088 358.026L288.94 355.54L282.804 355.288C276.058 355.944 271.982 356.414 270.577 356.697C265.893 356.821 262.457 357.054 260.271 357.394L254.389 358.63L246.44 361.361L223.399 376.84Z" fill="#9B6E3A"/>
<path d="M230.868 311.214C225.475 317.466 221.531 322.974 219.037 327.739L214.135 337.923C214.263 338.476 213.107 341.206 210.666 346.114C210.526 346.523 210.513 346.927 210.628 347.329C214.133 349.96 218.305 347.818 223.145 340.904C223.496 340.009 224.523 338.071 226.227 335.091L228.426 329.92L230.717 320.399C230.718 320.579 231.004 318.669 231.575 314.669C231.643 314.345 231.75 314.093 231.897 313.915L230.868 311.214Z" fill="#FFB95D"/>
<path d="M292.436 310.873L297.677 321.182C300 324.212 301.429 326.197 301.964 327.139L306.619 335.127L309.457 339.078C310.364 340.999 312.483 344.336 315.815 349.091C317.704 350.431 318.628 349.068 318.585 345.005C318.339 343.682 318.185 342.977 318.124 342.887L312.475 326.66C311.604 324.451 310.813 322.644 310.1 321.239C307.173 315.679 304.761 311.818 302.866 309.656C301.968 308.582 299.926 306.545 296.741 303.544C294.246 301.344 291.248 299.534 287.745 298.114L292.436 310.873Z" fill="#FFB95D"/>
<path d="M148.638 264.32C150.481 265.918 156.539 274.114 166.814 288.91C169.239 293.316 171.049 297.435 172.244 301.266C172.98 303.482 173.429 306.73 173.592 311.012C173.436 313.551 173.418 316.334 173.538 319.361L173.098 329.644L173.178 334.137L172.83 341.98C171.012 348.796 170.097 354.629 170.084 359.477L171.692 372.123C171.352 372.859 170.168 372.514 168.138 371.087C166.852 369.477 164.931 365.881 162.376 360.299L157.441 342.114C156.227 334.277 155.494 330.187 155.243 329.844C154.861 327.465 154.689 325.385 154.725 323.603L152.882 314.469C152.605 312.624 152.497 311.165 152.557 310.093L151.99 307.397C152.209 306.953 151.879 303.864 151.002 298.127C149.748 294.401 149.168 291.389 149.263 289.092L148.638 264.32Z" fill="#FFB95D"/>
<path d="M281.084 129.566L287.783 168.179C288.594 171.084 288.75 182.179 288.25 201.461C289.057 208.862 290.399 214.753 292.275 219.133C293.561 221.306 296.609 222.979 301.417 224.15C320.46 226.745 329.714 228.328 329.18 228.897C333.687 230.75 339.297 233.51 346.01 237.177L356.232 240.473C361.794 240.343 365.807 236.058 368.27 227.62C370.663 222.406 370.413 212.62 367.522 198.263L358.034 170.997L353.478 161.509C349.033 153.287 340.678 145.052 328.412 136.803L281.084 129.566Z" fill="#FBB669"/>
<path d="M267.007 268.992L267.097 269.438C267.305 270.981 267.314 272.646 267.124 274.434C267.081 274.875 266.696 276.94 265.968 280.628L265.666 283.82C265.666 284.17 265.831 285.663 266.16 288.297C266.481 289.72 266.883 291.156 267.368 292.605C268.979 295.412 270.613 298.599 272.27 302.164L273.819 304.503C274.416 305.327 274.899 305.881 275.27 306.167L275.523 306.323L277.237 306.752C278.463 306.949 280.418 306.758 283.101 306.18C285.276 305.494 286.692 304.809 287.35 304.123C288.626 302.538 289.15 301.243 288.924 300.239C288.889 299.831 288.665 299.172 288.254 298.26C286.384 295.141 284.967 292.56 284.002 290.516C282.137 288.5 280.862 286.979 280.175 285.956L279.823 285.354L278.257 282.109C277.107 280.873 275.949 279.704 274.784 278.601C273.89 277.063 273.219 276.03 272.77 275.504C271.167 273.918 269.833 272.719 268.767 271.907L267.007 268.992Z" fill="#FFBA6D"/>
<path d="M229.498 255.235L229.699 255.309C230.734 255.69 232.024 256.174 233.567 256.76L233.84 256.818C232.109 256.089 230.921 255.607 230.275 255.372C229.939 255.305 229.68 255.259 229.498 255.235Z" fill="#B6B2B0"/>
<path d="M231.616 271.64L231.728 271.811C232.033 272.268 232.372 272.727 232.746 273.188L232.74 272.993L232.751 272.993C232.566 272.761 232.337 272.483 232.066 272.159C232.027 272.111 231.88 271.938 231.626 271.64L231.616 271.643V271.64Z" fill="#B6B2B0"/>
<path d="M219.514 282.346L219.536 282.348C219.705 282.368 219.878 282.411 220.054 282.48C220.13 282.51 220.204 282.544 220.275 282.583C220.311 282.602 220.346 282.622 220.38 282.643C220.398 282.653 220.449 282.687 220.532 282.746L220.542 282.749L220.436 282.667L220.328 282.596L220.218 282.534L220.107 282.481L219.994 282.436C219.955 282.425 219.917 282.413 219.879 282.4C219.84 282.392 219.801 282.383 219.762 282.374L219.644 282.355L219.514 282.346Z" fill="#B6B2B0"/>
<path d="M207.982 261.529L206.428 261.944C201.452 263.193 198.734 263.757 198.276 263.636L197.229 264.669L192.769 267.966L192.046 268.798L189.313 272.169C189.217 273.828 189.331 275.337 189.654 276.696L191.607 279.12C193.156 279.365 196.461 280.212 201.524 281.662L204.113 283.114C204.655 282.55 206.339 282.141 209.165 281.888C211.846 281.74 215.261 281.888 219.412 282.334L221.918 281.829C222.425 281.802 222.908 281.913 223.367 282.162C224.026 281.795 224.578 281.668 225.023 281.782L226.075 280.934C226.348 280.292 226.916 279.518 227.779 278.61C228.58 277.781 229.345 277.065 230.074 276.463C228.741 274.913 227.595 273.226 226.636 271.404C226.233 270.563 225.875 269.028 225.561 266.8C222.969 266.837 220.826 266.659 219.131 266.265C215.473 264.942 212.965 263.617 211.609 262.288C209.545 262.203 208.336 261.95 207.982 261.529Z" fill="#B6B2B0"/>
<path d="M334.641 257.236L334.758 257.457C335.062 258.044 335.313 258.614 335.51 259.168L336.986 260.175L336.765 259.816L336.534 259.463L336.294 259.119C336.131 258.892 335.961 258.671 335.785 258.456C335.609 258.241 335.427 258.032 335.238 257.829C335.053 257.625 334.854 257.428 334.641 257.236Z" fill="#B6B2B0"/>
<path d="M312.026 258.177L311.22 258.287C308.829 258.602 307.082 258.995 305.981 259.466C305.359 259.348 304.876 259.119 304.534 258.776L294.825 262.336C293.841 263.012 293.314 263.312 293.243 263.237L289.592 267.096L289.918 272.416L289.901 273.743C292.062 274.672 294.038 275.652 295.83 276.682C296.27 276.176 297.001 275.951 298.025 276.007C299.16 276.77 299.695 277.324 299.631 277.668C299.977 277.516 300.415 277.5 300.945 277.623L310.168 280.611C311.201 279.635 311.888 279.194 312.228 279.286C312.774 279.24 313.392 279.471 314.082 279.979C314.595 279.892 315.184 279.863 315.849 279.893L317.843 280.408C318.878 279.816 320.45 278.738 322.56 277.174L327.683 272.483C327.752 271.071 327.867 269.908 328.03 268.993C327.226 267.599 326.736 266.532 326.56 265.792C321.97 262.901 319.602 261.136 319.457 260.495C319.233 260.453 318.796 260.291 318.147 260.01C317.323 259.869 316.428 259.772 315.461 259.719C315.216 259.709 314.876 259.527 314.443 259.173C313.896 259.21 313.46 259.174 313.133 259.064C312.667 258.875 312.298 258.58 312.026 258.177Z" fill="#B6B2B0"/>
<path d="M328.894 270.334V270.337C328.873 270.35 328.836 270.372 328.785 270.405C328.785 270.404 328.756 270.424 328.698 270.465C328.709 270.458 328.72 270.45 328.73 270.443L328.764 270.422C328.798 270.402 328.832 270.382 328.867 270.363L328.902 270.345C328.906 270.346 328.91 270.347 328.914 270.348C328.911 270.341 328.908 270.336 328.906 270.334L328.894 270.337V270.334Z" fill="#B6B2B0"/>
<path d="M328.046 271.136L328.006 271.203C327.906 271.385 327.838 271.579 327.804 271.787C327.812 271.749 327.821 271.711 327.831 271.672C327.858 271.577 327.875 271.521 327.883 271.504L327.904 271.449C327.918 271.412 327.933 271.377 327.949 271.341C327.982 271.271 328.018 271.202 328.057 271.136L328.046 271.139V271.136Z" fill="#B6B2B0"/>
<path d="M144.835 148.019L144.184 149.202C139.536 158.063 136.565 164.918 135.273 169.766L132.062 180.167C131.596 182.641 131.315 185.639 131.219 189.161C131.091 193.187 131.08 198.746 131.188 205.837C131.416 212.464 131.943 220.872 132.768 231.061L133.271 247.825C133.288 250.486 133.267 253.483 133.208 256.814C135.632 256.762 137.907 256.809 140.033 256.953L157.986 189.309C152.993 186.098 149.47 181.496 147.418 175.502C146.115 171.279 145.426 167.467 145.349 164.068C145.049 160.186 145.397 156.419 146.392 152.767L144.835 148.019Z" fill="black"/>
<path d="M140.642 248.622L139.135 252.728L137.628 256.834C138.452 256.862 139.114 256.893 139.613 256.927C139.729 255.868 140.072 253.099 140.642 248.622Z" fill="black"/>
<path d="M147.722 229.33L143.446 240.981C143.69 239.82 143.811 238.98 143.81 238.459C143.817 238.25 143.599 238.174 143.156 238.231C142.893 238.329 142.646 238.601 142.416 239.047C142.024 239.946 141.761 240.775 141.628 241.534C141.281 243.972 140.957 246.321 140.658 248.579L143.433 241.043L143.271 241.801C142.596 243.778 142.086 245.365 141.742 246.563C141.617 246.943 141.357 247.989 140.962 249.699C140.72 250.779 140.513 251.848 140.34 252.905C140.17 254.463 140.017 255.808 139.88 256.941C141.645 257.053 143.329 257.226 144.933 257.459L147.29 257.858L148.431 258.134L147.642 257.933L149.28 258.315C149.015 255.129 148.839 252.63 148.749 250.817C148.703 247.099 148.712 242.973 148.776 238.439C148.758 237.357 148.73 236.467 148.69 235.768C148.459 232.445 148.136 230.299 147.722 229.33Z" fill="black"/>
<path d="M351.88 150.525L351.464 151.456C350.31 153.941 348.802 156.438 346.938 158.947L358.527 164.481L358.629 163.563L358.522 162.488L358.204 161.254L357.677 159.862L356.94 158.311C355.821 156.138 354.134 153.542 351.88 150.525Z" fill="black"/>
<path d="M344.937 161.484L344.481 162.024C341.201 165.746 338.74 168.148 337.098 169.231C338.302 170.01 339.293 170.757 340.073 171.47C340.895 172.223 341.65 173.181 342.34 174.344C342.327 174.075 342.44 174.098 342.677 174.414C343.272 175.179 345.194 179.414 348.445 187.119C351.951 195.545 354.826 202.743 357.071 208.713C357.442 210.075 357.664 211.064 357.739 211.678C357.885 217.727 358.11 221.575 358.413 223.223L365.64 233.656C366.564 237.792 368.29 243.303 370.816 250.188L374.749 246.781C372.377 242.632 371.219 239.521 371.274 237.447C371.445 234.665 371.683 232.38 371.986 230.591C374.154 222.162 375.302 217.573 375.43 216.824C375.554 216.573 375.704 215.372 375.879 213.219C376.083 209.303 376.06 206.095 375.809 203.596L373.966 194.841C372.021 189.967 368.89 183.986 364.571 176.898C360.74 170.963 357.254 166.066 354.112 162.208L344.937 161.484Z" fill="black"/>
<path d="M381.102 259.745L381.015 259.915L380.928 260.086L381.114 259.807L381.127 259.81L381.114 259.745L381.102 259.748V259.745Z" fill="black"/>
<path d="M349.023 155.912L348.469 156.768C346.956 159.053 345.146 161.348 343.041 163.653C348.103 169.083 352.041 173.765 354.853 177.7C355.904 179.182 357.91 182.866 360.868 188.753C362.043 190.641 363.115 192.103 364.084 193.138C365.462 194.607 368.22 195.969 372.355 197.222L374.836 199.548L374.933 199.519L371.662 183.42C371.617 183.118 371.634 182.845 371.715 182.601C371.252 182.121 370.846 181.673 370.497 181.256L367.8 176.704C365.982 173.318 364.209 169.795 362.483 166.134L361.864 165.072C360.605 162.991 359.249 160.82 357.798 158.559L349.023 155.912Z" fill="black"/>
<path d="M347.714 157.874V157.877C347.568 158.105 347.059 158.791 346.188 159.935C345.831 160.393 345.462 160.852 345.082 161.311C344.321 162.229 343.512 163.148 342.657 164.07C343.355 164.18 343.866 164.167 344.191 164.032C344.664 163.868 345.186 163.475 345.756 162.851C346.292 162.128 346.738 161.335 347.093 160.472C347.262 160.053 347.399 159.628 347.504 159.199C347.591 158.823 347.644 158.553 347.664 158.388L347.725 157.896C347.73 157.874 347.727 157.866 347.714 157.874Z" fill="black"/>
<path d="M372.672 250.991L372.723 251.648L372.774 252.306V252.309C372.771 252.215 372.769 252.159 372.768 252.141L372.763 252.031C372.759 251.958 372.756 251.885 372.751 251.814L372.748 251.746C372.741 251.621 372.736 251.541 372.732 251.507C372.727 251.427 372.711 251.256 372.684 250.991L372.672 250.995V250.991Z" fill="black"/>
<path d="M372.778 252.515L372.785 252.83C372.804 253.694 372.821 254.24 372.835 254.468C372.987 257.046 373.111 259.278 373.206 261.165C373.234 261.726 373.258 262.657 373.279 263.956C373.29 264.281 373.308 264.593 373.331 264.895L373.498 266.559C373.538 267.051 373.568 267.537 373.588 268.018C373.613 268.29 373.63 268.461 373.641 268.53C373.672 268.75 373.707 268.939 373.746 269.099L374.238 271.021L372.791 252.515L372.778 252.518V252.515Z" fill="black"/>
<path d="M375.339 249.793C377.13 251.328 378.154 254.948 378.412 260.653C378.463 262.098 378.065 265.388 377.216 270.522C376.647 273.029 376.312 274.366 376.212 274.535L373.947 278.554C373.783 278.987 373.908 279.486 374.32 280.05C374.34 280.242 374.306 280.446 374.217 280.663C373.956 281.847 372.887 281.605 371.013 279.938C367.684 276.306 365.939 273.727 365.778 272.202C365.44 270.656 365.283 269.653 365.308 269.194L365.778 266.847C365.938 264.522 366.1 263.097 366.266 262.574L366.276 259.853C366.1 258.664 366.019 257.453 366.032 256.22L365.053 251.042C364.654 246.742 364.576 244.062 364.817 243.004C364.842 243.069 364.775 242.535 364.618 241.401C364.504 240.713 363.915 239.732 362.852 238.457L357.226 232.895C356.039 230.821 355.536 228.627 355.718 226.315C355.491 223.798 356.308 221.205 358.169 218.536C358.526 218.042 358.868 217.676 359.195 217.437C360.811 216.947 362.932 215.529 365.558 213.182L375.339 249.793Z" fill="black"/>
<path d="M254.72 335.94L254.577 336.398C254.485 336.708 254.401 337.027 254.324 337.354C254.247 337.681 254.178 338.017 254.115 338.362L254.028 338.885C253.862 339.963 253.766 341.082 253.741 342.241C253.85 341.707 253.944 341.216 254.024 340.767L254.147 340.066C254.226 339.6 254.301 339.136 254.371 338.675C254.441 338.214 254.506 337.756 254.566 337.3C254.626 336.844 254.681 336.391 254.731 335.94L254.72 335.943V335.94ZM245.832 347.795L245.876 347.876L245.91 347.947L245.933 348.008L245.945 348.06L245.948 348.102L245.939 348.135L245.921 348.159L245.892 348.173L245.853 348.178L245.578 348.439L245.822 347.795L245.832 347.799V347.795ZM253.915 337.503L252.2 340.003C251.615 341.889 249.79 345.448 246.726 350.68C247.68 347.551 248.38 344.85 248.828 342.576C247.334 344.212 246.333 345.949 245.826 347.787C245.719 347.609 245.599 347.435 245.466 347.265C244.832 348.129 244.404 348.747 244.184 349.119C243.872 349.613 243.583 350.11 243.319 350.609L245.578 348.442C243.028 353.239 241.56 356.33 241.174 357.714C241.195 355.867 241.906 353.504 243.308 350.627L235.667 357.942C234.463 358.895 232.927 359.918 231.059 361.014C229.949 361.538 229.914 361.053 230.952 359.557C231.89 358.305 232.549 357.491 232.93 357.113C235.373 355.235 236.722 354.111 236.976 353.741C237.168 353.536 237.299 353.364 237.37 353.225L235.982 354.12C234.963 354.732 230.575 358.542 222.819 365.552C222.675 365.634 222.639 365.59 222.712 365.421L225.289 360.735C225.456 360.424 225.529 360.126 225.507 359.84C224.608 359.843 223.506 360.38 222.201 361.452C221.918 361.717 221.643 362.015 221.376 362.344L217.781 366.997L217.417 367.674C216.688 369.604 216.344 372.06 216.386 375.04C216.311 376.4 216.739 378.516 217.672 381.389L253.158 363.627C253.253 362.383 253.457 361.301 253.771 360.382L253.926 351.684L254.259 349.617C253.828 346.364 253.655 343.918 253.74 342.279C253.463 343.078 252.802 344.354 251.755 346.109C251.468 346.549 251.322 346.298 251.319 345.355C251.462 343.496 251.608 342.569 251.758 342.574C252.367 340.747 253.086 339.057 253.915 337.503Z" fill="black"/>
<path d="M287.687 345.234L287.7 345.256L287.807 345.43L287.916 345.575V345.578L287.698 345.234L287.687 345.237V345.234Z" fill="black"/>
<path d="M312.262 351.967L312.256 351.97C312.241 351.969 312.229 351.972 312.22 351.979L314.578 354.575C314.762 354.902 315.078 355.414 315.528 356.11C315.327 355.691 315.085 355.252 314.799 354.792C314.269 353.973 313.845 353.366 313.527 352.971C313.221 352.674 312.968 352.442 312.768 352.277C312.54 352.099 312.419 352.012 312.405 352.016C312.344 351.983 312.296 351.967 312.262 351.967Z" fill="black"/>
<path d="M279.248 342.433L279.386 342.547C280.098 343.131 280.865 343.826 281.687 344.633C281.307 344.535 280.676 344.321 279.794 343.991C280.344 345.458 280.834 346.613 281.266 347.457C280.477 346.476 279.276 345.067 277.665 343.232C277.669 343.191 277.584 343.015 277.411 342.704C278.205 343.23 278.998 343.655 279.791 343.977L279.3 342.614C279.279 342.554 279.258 342.494 279.236 342.433C279.248 342.437 279.251 342.437 279.248 342.433ZM282.098 339.199L281.951 339.319C281.956 340.915 282.88 343.727 284.724 347.755L279.528 341.21C279.301 341.279 279.076 341.315 278.856 341.318L279.232 342.424C277.972 341.397 276.677 340.494 275.346 339.715L277.396 342.678C276.713 342.316 275.849 341.427 274.807 340.011L276.539 348.674C275.989 348.263 275.347 347.559 274.613 346.564C272.807 343.284 271.731 341.422 271.384 340.975C270.777 340.043 270.361 339.561 270.138 339.528C269.996 341.006 270.1 342.515 270.45 344.056C270.775 345.473 271.64 348.063 273.045 351.827C272.991 353.271 273.047 354.161 273.211 354.495L320.499 375.455C320.587 367.511 320.2 362.843 319.336 361.45C317.75 359.332 316.506 357.59 315.605 356.223C316.016 357.235 316.209 357.944 316.185 358.352C315.678 358.037 314.545 356.86 312.787 354.821C311.638 353.389 309.898 350.715 307.565 346.798C306.963 347.045 306.639 347.608 306.595 348.485C304.909 347.273 303.716 346.592 303.017 346.442L307.221 353.862L300.827 346.579C299.484 345.237 298.544 344.566 298.005 344.566C297.766 345.684 299.54 348.918 303.328 354.269C300.021 351.521 296.696 347.645 293.354 342.642C292.869 342.807 293.009 343.673 293.775 345.238C291.792 343.735 290.464 342.837 289.788 342.545C292.358 345.476 294.273 347.47 295.534 348.526L293.808 345.278C294.38 345.685 295.449 346.595 297.015 348.007C297.789 349.399 297.307 349.585 295.567 348.565C296.268 349.881 297.019 351.132 297.818 352.318C293.371 347.47 290.502 344.034 289.211 342.012C288.682 341.586 288.291 341.38 288.039 341.392C290.479 346.439 291.621 349.31 291.463 350.005C291.305 349.971 290.171 348.558 288.06 345.767L289.455 348.011C284.957 342.339 282.504 339.402 282.098 339.199Z" fill="black"/>
<path d="M285.003 341.134L285.002 341.137C284.99 341.147 285.018 341.212 285.087 341.333C285.1 341.337 285.125 341.357 285.16 341.391C285.212 341.446 285.261 341.503 285.309 341.562C285.375 341.648 285.43 341.721 285.473 341.78C285.58 341.929 285.641 342.017 285.657 342.045L285.17 341.275C285.137 341.239 285.098 341.201 285.054 341.162C285.03 341.144 285.013 341.134 285.003 341.134Z" fill="black"/>
<path d="M285.683 342.082L285.684 342.084L285.685 342.085C285.685 342.084 285.685 342.083 285.685 342.082L285.683 342.085V342.082Z" fill="black"/>
<path d="M285.883 342.392L286.572 343.471L287.261 344.55L287.266 344.553L286.905 343.972L286.424 343.208C286.226 342.897 286.05 342.625 285.894 342.392L285.883 342.395V342.392Z" fill="black"/>
<path d="M263.719 336.264L263.809 337.357C263.882 338.66 263.82 339.833 263.622 340.876C263.523 341.397 263.39 341.886 263.224 342.342C262.748 343.426 262.423 344.037 262.246 344.176C260.396 340.786 259.301 339.029 258.96 338.907C258.829 338.853 258.746 338.89 258.71 339.019C258.657 340.622 258.529 341.787 258.328 342.515C257.96 343.881 257.595 344.771 257.231 345.186C257.041 345.211 256.908 345.12 256.832 344.911C256.266 343.141 255.774 341.655 255.356 340.455C255.132 339.813 254.981 339.445 254.905 339.353C254.833 339.257 254.747 339.272 254.648 339.4C254.327 339.935 254.058 340.431 253.84 340.889C253.435 342.093 253.206 343.353 253.151 344.67L253.664 349.139C253.594 348.986 253.471 352.593 253.294 359.96L275.867 357.157L275.144 354.282C274.086 353.444 273.038 352.352 271.999 351.004C271.256 349.888 270.61 348.712 270.063 347.474C269.771 345.181 269.784 342.784 270.103 340.282L271.557 342.685L271.598 342.624C271.722 342.586 271.46 341.537 270.812 339.475C270.474 339.202 270.238 339.467 270.105 340.271C268.977 338.465 268.395 337.652 268.36 337.831L268.278 341.991C268.2 342.349 268.071 342.478 267.893 342.377C266.138 340.64 264.747 338.603 263.719 336.264Z" fill="black"/>
<path d="M284.997 356.019L280.432 356.587L275.867 357.156C276.034 357.933 276.125 358.438 276.141 358.673C276.18 359.021 276.189 359.325 276.168 359.584L277.504 361.19C277.672 361.311 277.878 361.365 278.121 361.35C278.491 361.291 278.847 360.971 279.189 360.391C279.39 360.042 279.731 359.149 280.212 357.711C280.31 357.521 280.416 357.386 280.528 357.306C281.054 356.984 281.427 356.828 281.647 356.841C282.396 357.013 283.145 357.185 283.894 357.357C283.965 357.367 284.141 357.207 284.424 356.878L284.699 356.501L285.009 356.019L284.997 356.022V356.019Z" fill="black"/>
<path d="M269.026 343.476L268.989 343.553C268.973 343.58 268.939 343.656 268.886 343.781C268.868 343.83 268.849 343.88 268.831 343.929L268.786 344.072L268.75 344.213L268.725 344.349L268.71 344.482C268.708 344.526 268.707 344.569 268.705 344.612C268.706 344.655 268.708 344.698 268.709 344.741C268.776 344.462 268.828 344.25 268.866 344.105C268.962 343.737 269.02 343.527 269.037 343.476L269.026 343.48V343.476Z" fill="black"/>
<path d="M270.297 342.353L270.269 342.353C269.637 342.292 269.236 342.628 269.066 343.362C269.243 342.991 269.835 344.333 270.843 347.389C270.56 347.153 270.25 346.837 269.911 346.442L269.679 346.329C269.424 346.285 269.197 346.46 268.998 346.855C268.984 346.702 268.888 346.008 268.712 344.772C268.586 345.112 268.524 345.622 268.527 346.303C268.573 348.245 268.685 349.693 268.862 350.65C268.876 350.742 268.97 350.849 269.143 350.973C269.349 351.016 269.552 351.047 269.751 351.065L270.195 357.305C270.249 357.222 270.286 356.912 270.305 356.377C270.327 355.285 270.323 354.264 270.295 353.312L269.86 351.076C270.704 351.167 271.554 350.939 272.408 350.393C272.928 350.027 273.486 349.322 274.082 348.279C273.429 348.398 272.655 348.275 271.76 347.908C271.445 346.938 271.008 345.68 270.449 344.136C270.383 343.675 270.423 343.389 270.568 343.278C271.062 343.138 271.76 343.619 272.662 344.722L274.119 348.221L274.571 347.41L274.971 348.003C274.829 348.065 274.551 348.152 274.137 348.265L274.118 348.226L274.085 348.277L274.138 348.267C274.133 348.378 274.561 349.249 275.423 350.879C275.897 351.743 276.175 352.201 276.255 352.253C276.551 352.543 276.887 352.475 277.261 352.05C277.508 351.765 277.631 351.334 277.63 350.758C277.532 349.715 277.147 348.452 276.475 346.971C276.158 347.338 275.744 347.644 275.232 347.889L274.689 347.177L275.538 345.465C275.892 345.922 276.203 346.422 276.47 346.965L276.647 346.724C276.903 346.297 277.041 345.915 277.06 345.578C277.082 344.962 277.078 344.58 277.046 344.431C277.017 344.301 276.925 344.136 276.771 343.936C276.44 343.64 276.201 343.595 276.052 343.8C276.036 343.818 276.014 343.861 275.985 343.932C275.9 344.313 275.798 344.713 275.679 345.133C275.618 345.336 275.572 345.445 275.542 345.46C274.763 344.476 273.937 343.746 273.063 343.271C271.847 342.66 270.925 342.354 270.297 342.353ZM269.332 348.529L269.344 348.543C269.406 348.612 269.482 348.69 269.572 348.776L269.668 350.084L269.457 349L269.321 348.529L269.332 348.532V348.529Z" fill="black"/>
<path d="M338.005 345.779C338.005 345.34 338.038 344.869 338.103 344.365C338.135 344.114 338.176 343.854 338.225 343.585L338.304 343.177C338.361 342.901 338.426 342.616 338.499 342.324L338.005 345.779Z" fill="black"/>
<path d="M261.586 343.18L261.321 343.207C255.562 345.159 252.294 347.154 251.517 349.193C251.14 349.879 251.104 350.253 251.41 350.316C251.709 350.438 252.803 350.5 254.692 350.501C256.074 350.719 256.759 350.919 256.747 351.101C257.85 351.777 258.484 352.572 258.649 353.485C254.386 357.186 251.925 359.521 251.266 360.493C249.626 363.456 249.08 365.2 249.627 365.725L257.079 362.715C259.237 362.263 261.243 361.938 263.097 361.738L268.887 361.445C270.726 361.622 272.683 361.681 274.76 361.622L281.991 361.124L283.137 361.155C285.311 361.218 286.77 361.294 287.513 361.382C289.833 361.782 291.988 362.188 293.978 362.599L261.688 343.687C261.941 343.389 261.907 343.22 261.586 343.18Z" fill="black"/>
<path d="M293.984 362.6L315.141 374.99C314.87 374.165 313.976 373.103 312.458 371.803C311.699 371.152 310.785 370.443 309.714 369.674C309.374 369.363 307.417 368.076 303.845 365.811L296.602 363.176L293.984 362.6Z" fill="black"/>
<path d="M231.603 364.345C232.436 359.435 233.961 355.154 236.177 351.502C237.128 349.855 237.576 349.758 237.521 351.213L235.408 357.208C235.149 357.997 235.038 358.467 235.073 358.616C234.972 358.552 235.941 356.539 237.978 352.578C238.244 352.012 238.697 350.965 239.337 349.439C240.008 348.431 240.488 347.865 240.775 347.741C240.931 347.631 240.927 347.872 240.762 348.465C238.833 353.524 237.817 356.44 237.715 357.212C237.699 357.451 238.473 356.448 240.037 354.203C242.123 350.868 243.412 348.725 243.904 347.776C244.388 347.034 244.662 346.705 244.726 346.788C244.888 346.775 244.825 347.151 244.538 347.916C243.841 349.681 243.156 351.286 242.482 352.731L242.072 354.886C242.026 355.145 242.03 355.321 242.083 355.412C242.147 355.528 242.282 355.61 242.488 355.657C244.786 355.915 246.646 356.285 248.065 356.767L250.541 357.039L231.603 364.345Z" fill="black"/>
<path d="M234.308 353.213L234.303 353.214L232.114 355.549C231.637 356.211 231.361 356.615 231.284 356.761C231.542 355.469 231.667 354.547 231.659 353.997C231.575 353.78 231.316 353.919 230.882 354.415L230.683 354.674L229.724 356.172C229.058 357.061 228.379 358.015 227.687 359.035C226.843 360.282 226.289 361.139 226.025 361.605C224.474 364.146 223.592 365.852 223.38 366.723L234.869 362.836C234.198 362.544 233.833 362.352 233.772 362.26C233.575 362.111 233.408 361.948 233.272 361.771C233 361.417 232.85 361.007 232.824 360.54C232.807 360.038 232.846 359.555 232.941 359.093C234.057 355.147 234.512 353.187 234.308 353.213Z" fill="black"/>
<path d="M248.531 249.678L248.487 249.795L248.433 249.968L248.391 250.138C248.381 250.194 248.37 250.251 248.36 250.307C248.354 250.362 248.347 250.418 248.341 250.474L248.476 250.465C248.479 250.41 248.483 250.354 248.488 250.3C248.494 250.245 248.501 250.19 248.508 250.136L248.521 250.055L248.536 249.975C248.547 249.921 248.559 249.868 248.572 249.815L248.593 249.736L248.603 249.74C248.588 249.722 248.567 249.702 248.542 249.678L248.531 249.681V249.678Z" fill="black"/>
<path d="M241.023 247.664L240.418 247.674C239.452 247.618 237.982 247.886 236.006 248.48L237.531 259.956C239.597 260.607 240.945 261.095 241.576 261.421C242.382 260.88 243.294 260.58 244.312 260.524C244.44 260.516 244.571 260.52 244.703 260.538C246.168 260.824 247.408 261.027 248.422 261.148C249.254 258.951 249.932 257.359 250.457 256.372C250.318 255.708 249.795 254.339 248.89 252.264L246.21 250.254C245.298 249.405 244.77 248.649 244.626 247.985C243.952 247.792 242.751 247.685 241.023 247.664Z" fill="black"/>
<path d="M248.339 250.502L248.336 250.591L248.333 250.679C248.336 250.737 248.339 250.795 248.341 250.853C248.348 250.911 248.355 250.969 248.362 251.026L248.397 251.197L248.444 251.366L248.505 251.534L248.579 251.699C248.608 251.753 248.637 251.808 248.666 251.863L248.766 252.024C248.659 251.782 248.581 251.535 248.533 251.281C248.517 251.197 248.504 251.112 248.494 251.028C248.49 250.985 248.486 250.942 248.482 250.9C248.475 250.815 248.472 250.73 248.472 250.645C248.472 250.602 248.473 250.56 248.474 250.517L248.485 250.517L248.339 250.502Z" fill="black"/>
<path d="M209.647 241.923L209.579 241.923L207.308 242.07L204.792 242.618L200.086 243.983C199.431 244.252 198.967 244.489 198.696 244.692L198.752 250.403C198.848 251.046 198.919 251.391 198.965 251.438C199.014 251.538 199.168 251.591 199.427 251.599L245.342 249.322C243.636 248.759 241.893 248.097 240.114 247.335C238.986 247.1 237.285 246.673 235.012 246.055C232.86 245.463 230.099 244.638 226.73 243.581C226.024 243.447 224.826 243.337 223.136 243.251C222.384 243.148 221.626 243.021 220.864 242.871L220.027 242.896L216.379 242.45L213.554 242.274C213.234 242.23 212.81 242.151 212.282 242.036C211.504 241.978 210.625 241.94 209.647 241.923Z" fill="black"/>
<path d="M243.156 248.211L202.973 249.128C201.853 248.944 200.704 248.971 199.527 249.207L202.964 249.128L203.385 249.205C204.709 249.699 205.965 250.102 207.153 250.416C209.717 250.775 211.097 250.994 211.293 251.073C214.366 252.102 216.124 252.672 216.569 252.783C218.336 253.084 220.601 253.557 223.362 254.201C224.191 254.258 224.775 254.317 225.114 254.379C225.636 254.591 226.764 254.847 228.497 255.145C229.758 255.515 230.666 255.877 231.22 256.23L234.326 259.052C235.537 259.373 236.441 259.625 237.039 259.807C238.272 258.938 239.605 257.892 241.039 256.668C242.083 253.933 242.952 252.211 243.646 251.501C243.302 250.093 243.139 248.996 243.156 248.211Z" fill="black"/>
<path d="M236.031 255.955L236.019 255.958C235.56 255.963 235.105 256.037 234.652 256.18C234.348 256.311 234.034 256.509 233.711 256.776C233.639 256.93 233.627 257.101 233.674 257.288C233.949 257.884 234.197 258.48 234.417 259.077C235.93 259.476 237.225 259.849 238.302 260.196C238.64 260.29 239.325 260.535 240.358 260.929C240.733 261.083 241.054 261.229 241.32 261.368L241.58 261.419C242.064 261.136 242.492 260.926 242.864 260.791C243.303 260.675 243.632 260.605 243.852 260.579L244.574 258.874C243.963 258.28 243.317 257.795 242.636 257.418C241.573 257.15 240.303 256.936 238.826 256.777C237.904 256.56 237.189 256.306 236.683 256.015C236.332 255.971 236.114 255.951 236.031 255.955Z" fill="black"/>
<path d="M199.87 244.494L199.545 244.523C198.499 244.679 195.995 245.455 192.034 246.852C189.635 247.846 188.023 248.562 187.197 249.001C184.667 250.502 182.102 252.23 179.502 254.183L177.24 256.144C176.997 256.484 177.038 256.633 177.364 256.593L179.763 256.226C182.864 255.449 185.964 254.673 189.065 253.897L193.203 253.156L198.78 251.554C199.415 251.182 199.956 250.921 200.404 250.77C200.64 250.684 201.067 250.658 201.683 250.692L199.989 244.503C199.947 244.496 199.907 244.494 199.87 244.494Z" fill="black"/>
<path d="M291.275 240.01L290.256 240.17C288.424 240.42 286.723 240.807 285.153 241.332C281.23 241.639 278.326 241.956 276.442 242.281C272.708 244.588 269.272 247.332 266.136 250.512L265.697 250.957L264.714 255.067C265.673 256.923 266.54 258.3 267.318 259.199L268.566 259.802L270.111 260.126L281.975 253.434C282.918 253 283.672 252.674 284.236 252.456C285.248 251.999 286.774 251.528 288.816 251.042C290.49 250.689 292.097 250.606 293.635 250.795L293.831 250.646C294.388 250.153 295.217 248.89 296.319 246.857C296.681 246.068 296.76 245.265 296.555 244.446C296.352 243.397 295.494 242.129 293.981 240.645C293.128 240.225 292.226 240.013 291.275 240.01Z" fill="black"/>
<path d="M288.678 242.756C289.531 241.549 290.708 240.569 292.207 239.814L295.698 238.278C297.234 237.947 298.129 237.816 298.382 237.885C299.591 237.997 300.738 238.069 301.825 238.101C306.512 238.799 309.258 239.115 310.062 239.048C311.789 239.063 312.59 239.061 312.464 239.041C314.06 238.937 315.233 238.794 315.983 238.613L317.274 238.679C318.011 238.537 319.017 238.513 320.292 238.605C322.091 239.137 323.424 239.708 324.29 240.317C325.041 241.033 325.696 241.818 326.255 242.672C326.527 242.971 327.201 243.396 328.276 243.947C328.985 244.912 328.968 245.932 328.225 247.004C327.146 248.434 326.074 249.186 325.007 249.259C324.772 249.371 323.496 249.316 321.178 249.092L318.812 248.574L314.016 247.865C313.834 247.832 313.315 247.798 312.46 247.765C311.742 247.522 310.575 247.31 308.959 247.127L307.513 247.135C306.762 247.263 306.059 247.324 305.405 247.32C303.955 247.563 302.824 247.683 302.013 247.681L300.474 247.94L299.305 248.004L295.065 248.807L288.678 242.756Z" fill="black"/>
<path d="M318.967 240.162C321.069 239.713 322.791 239.989 324.134 240.988L328.443 243.377L335.38 248.649L338.461 252.909C339.924 256.397 340.564 258.158 340.381 258.191C340.565 258.243 340.848 260.736 341.23 265.669C341.098 266.659 340.814 267.068 340.381 266.897C339.813 266.655 339.209 266.115 338.569 265.275L336.434 260.82C335.958 259.943 335.372 259.181 334.676 258.534L333.271 257.324C332.51 256.999 331.53 256.275 330.333 255.153L325.837 250.367C323.764 248.726 322.008 247.763 320.567 247.48L318.967 240.162Z" fill="black"/>
<path d="M140.77 160.978L144.337 150.286L146.492 146.71C148.554 144.23 150.323 141.583 151.798 138.767C155.306 134.483 158.063 131.588 160.07 130.082C163.745 127.708 166.57 126.917 168.546 127.708C170.933 127.696 173.014 130.283 174.791 135.47C175.949 139.931 176.416 143.101 176.193 144.98C176.364 149.14 175.793 153.498 174.479 158.056L167.046 172.548L162.08 183.465C160.284 186.693 159.077 188.501 158.459 188.89L153.39 198.388L140.77 160.978Z" fill="black"/>
<path d="M264.868 126.784L265.214 126.809C265.553 126.834 265.891 126.866 266.229 126.904C266.51 126.937 266.679 126.957 266.735 126.966C267.011 127.003 267.183 127.028 267.253 127.041C267.273 127.041 267.289 127.042 267.302 127.045C268.012 126.96 268.73 126.902 269.456 126.871L269.445 126.875C269.285 126.878 269.125 126.884 268.964 126.89L268.722 126.903C268.56 126.912 268.398 126.923 268.235 126.936C267.908 126.962 267.579 126.995 267.248 127.036C266.793 126.969 266.521 126.931 266.434 126.923C266.256 126.901 266.08 126.881 265.905 126.863C265.56 126.828 265.214 126.802 264.868 126.784Z" fill="black"/>
<path d="M267.234 127.038L266.837 127.091C265.774 127.24 264.684 127.467 263.565 127.772C264.381 127.55 265.205 127.369 266.037 127.228C266.453 127.158 266.87 127.097 267.289 127.047L267.492 127.077C267.507 127.078 267.515 127.081 267.517 127.083C267.462 127.072 267.392 127.06 267.307 127.046L267.295 127.049C267.277 127.042 267.256 127.039 267.234 127.038Z" fill="black"/>
<path d="M233.938 128.157L230.172 129.868L226.883 131.876L224.07 134.182L221.733 136.786L219.873 139.689L218.489 142.89L217.582 146.389L217.151 150.186L217.202 154.284L217.21 151.489L217.506 148.741L218.08 146.059L218.92 143.464L220.016 140.975L221.357 138.611L222.933 136.392L224.732 134.337L226.744 132.467L228.958 130.801L231.363 129.358L233.938 128.157Z" fill="black"/>
<path d="M234.587 97.979L232.091 98.0861C227.688 98.0871 219.078 99.5193 206.262 102.383C203.135 103.391 199.755 105.014 196.12 107.253C185.547 113.607 176.65 120.044 169.431 126.567C165.402 130.22 162.773 132.772 161.543 134.223C158.306 139.326 155.474 143.199 153.047 145.843C169.217 154.186 182.886 159.454 194.054 161.648C192.378 147.668 199.579 137.311 215.658 130.577C217.52 129.796 219.515 129.202 221.645 128.795L230.152 127.405L238.041 126.483L243.204 126.23C245.771 126.447 249.674 126.403 254.914 126.096L269.942 126.847C272.587 126.827 275.313 126.573 278.121 126.087L283.313 117.133L283.676 115.517C284.481 111.38 283.974 108.603 282.156 107.189L276.345 105.875C268.733 105.483 264.527 105.118 263.728 104.78C261.169 104.264 258.034 103.099 254.324 101.286C245.347 99.3724 238.768 98.2702 234.587 97.979Z" fill="black"/>
<path d="M217.236 154.798L217.303 155.773C217.354 156.416 217.416 157.046 217.489 157.664L217.609 158.58C217.78 159.789 217.998 160.946 218.263 162.051L218.47 162.874L219.02 162.758C218.506 161.441 218.093 160.073 217.783 158.655C217.637 157.983 217.517 157.311 217.424 156.639C217.377 156.303 217.337 155.968 217.304 155.633C217.305 155.634 217.307 155.635 217.309 155.636L217.247 154.798L217.236 154.802V154.798Z" fill="black"/>
<path d="M298.498 124.664L298.475 124.665L298.453 124.665L298.43 124.668L298.317 124.666L298.294 124.667L298.305 124.67L298.346 124.669L298.387 124.669L298.427 124.672L298.468 124.668L298.509 124.669L298.55 124.672L298.672 124.67L298.794 124.672L298.762 124.671L298.731 124.67L298.699 124.669C298.678 124.669 298.657 124.668 298.636 124.667L298.509 124.664L298.498 124.668V124.664Z" fill="black"/>
<path d="M264.868 126.784L265.214 126.809C265.553 126.834 265.891 126.866 266.229 126.904C266.51 126.937 266.679 126.957 266.735 126.966C267.011 127.003 267.183 127.028 267.253 127.041C267.273 127.041 267.289 127.042 267.302 127.045C268.012 126.96 268.73 126.902 269.456 126.871L269.445 126.875C269.285 126.878 269.125 126.884 268.964 126.89L268.722 126.903C268.56 126.912 268.398 126.923 268.235 126.936C267.908 126.962 267.579 126.995 267.248 127.036C266.793 126.969 266.521 126.931 266.434 126.923C266.256 126.901 266.08 126.881 265.905 126.863C265.56 126.828 265.214 126.802 264.868 126.784Z" fill="black"/>
<path d="M267.234 127.038L266.837 127.091C265.774 127.24 264.684 127.467 263.565 127.772C264.381 127.55 265.205 127.369 266.037 127.228C266.453 127.158 266.87 127.097 267.289 127.047L267.492 127.077C267.507 127.078 267.515 127.081 267.517 127.083C267.462 127.072 267.392 127.06 267.307 127.046L267.295 127.049C267.277 127.042 267.256 127.039 267.234 127.038Z" fill="black"/>
<path d="M268.167 107.994L251.832 126.191L255.574 126.112C262.509 126.713 267.298 126.958 269.942 126.847C272.458 126.839 275.314 126.573 278.509 126.05L283.695 125.759C289.815 124.732 293.765 124.298 295.542 124.456L303.686 124.817C305.972 125.121 308.153 125.696 310.229 126.542C316.62 129.226 321.34 133.693 324.39 139.943C327.702 147.266 327.774 154.702 324.606 162.251C330.077 165.52 335.261 168.238 340.16 170.406C346.652 171.44 350.313 171.339 351.143 170.102C351.789 169.391 351.942 168.253 351.601 166.687L347.892 158.562C351.184 154.717 352.403 151.649 351.55 149.36C350.678 148.108 347.456 145.107 341.885 140.355C339.597 137.402 337.651 135.13 336.046 133.539C335.273 133.26 334.164 132.499 332.719 131.254C330.023 128.938 326.979 126.129 323.588 122.827C316.416 119.175 312.078 116.781 310.573 115.648L303.417 113.281L293.188 110.688C291.671 110.48 288.477 110.401 283.608 110.45L268.167 107.994Z" fill="black"/>
<path d="M298.103 124.66L297.744 124.663L297.381 124.672L297.012 124.687L296.638 124.708L296.258 124.735C295.749 124.776 295.226 124.832 294.688 124.904C295.242 124.83 295.795 124.773 296.35 124.733C296.534 124.721 296.719 124.709 296.903 124.7L297.18 124.688C297.365 124.68 297.549 124.675 297.734 124.671L298.01 124.667L298.022 124.671C298.055 124.667 298.102 124.664 298.163 124.66C298.167 124.662 298.171 124.663 298.175 124.664C298.145 124.661 298.121 124.66 298.103 124.66Z" fill="black"/>
<path d="M286.724 125.626L286.494 125.627L286.266 125.63L286.04 125.635L285.816 125.641L285.594 125.65L285.374 125.66L285.156 125.673C285.012 125.682 284.868 125.692 284.726 125.703C285.286 125.672 285.58 125.657 285.61 125.656C285.691 125.652 285.772 125.649 285.853 125.646C285.934 125.643 286.016 125.641 286.097 125.638C286.178 125.636 286.259 125.634 286.34 125.633C286.421 125.631 286.502 125.63 286.583 125.629C286.617 125.629 286.746 125.628 286.971 125.628C287.019 125.629 287.067 125.629 287.115 125.63L287.403 125.634C287.595 125.639 287.691 125.642 287.691 125.642C287.618 125.64 287.545 125.637 287.473 125.636C287.293 125.631 287.185 125.629 287.149 125.629C287.006 125.627 286.865 125.626 286.724 125.626Z" fill="black"/>
<path d="M299.178 124.669L299.201 124.672C303.868 124.895 308.122 126.155 311.964 128.452L310.618 127.685L309.253 127.005L307.871 126.411L306.47 125.904L305.05 125.484L303.612 125.15L302.156 124.903L300.682 124.743L299.178 124.669Z" fill="black"/>
<path d="M273.907 106.944C274.547 106.703 275.513 106.685 276.806 106.889C280.602 107.809 282.47 108.309 282.409 108.387C282.859 108.551 284.173 109.15 286.351 110.185C286.154 110.223 288.443 111.401 293.218 113.719C296.476 115.883 299.23 117.526 301.478 118.647C302.202 119.094 303.871 119.539 306.483 119.982L273.907 106.944Z" fill="black"/>
<path d="M180.799 156.814C181.746 156.743 182.855 156.888 184.127 157.249C185.043 157.823 189.439 159.421 197.314 162.043C197.515 162.206 198.892 162.35 201.446 162.477L206.496 161.875C208.901 161.305 214.581 160.162 223.535 158.448L247.61 156.056C256.299 154.557 264.303 152.747 271.621 150.624L282.98 149.341L295.261 146.839C304.362 144.133 311.133 140.879 315.576 137.075C315.897 131.609 311.531 127.64 302.476 125.17C298.92 124.208 294.744 123.405 289.948 122.76L275.891 121.671C274.219 121.106 269.621 120.501 262.095 119.855L257.05 118.865L249.979 118.761C228.737 120.626 210.393 127.697 194.946 139.974L180.799 156.814Z" fill="black"/>
<path d="M330.132 164.403C327.638 164.513 325.404 163.284 323.43 160.715C321.12 158.104 319.419 155.767 318.326 153.705C317.932 153.043 317.181 150.963 316.072 147.465C315.699 146.639 315.423 146.09 315.243 145.819C313.905 144.259 312.409 142.883 310.755 141.689C310.26 141.257 310.009 140.74 310.001 140.14C309.962 139.656 310.039 139.225 310.234 138.848C310.961 137.39 311.639 136.344 312.269 135.71C313.533 134.282 314.922 133.262 316.438 132.651C320.699 131.537 324.472 131.325 327.757 132.017L330.132 164.403Z" fill="black"/>
<path d="M295.258 126.943C295.593 127.082 295.99 127.289 296.45 127.563L304.422 132.744C305.126 133.332 307.66 134.328 312.025 135.731C315.472 136.867 318.196 136.366 320.194 134.228C321.876 131.121 320.772 128.253 316.882 125.625C314.297 124.4 312.175 123.698 310.516 123.52C308.353 123.256 307.235 123.151 307.164 123.207C306.296 123.199 305.242 123.295 304.002 123.495C302.9 123.546 302.338 123.553 302.316 123.517C300.459 123.275 299.266 122.924 298.735 122.463L295.258 126.943Z" fill="black"/>
<path d="M148.885 254.735L148.786 260.189C148.859 260.765 148.94 262.051 149.03 264.048L148.684 269.676L149.17 274.918C149.493 276.172 149.784 278.432 150.043 281.698L149.999 285.433C149.824 287.046 149.763 288.046 149.818 288.434L149.312 291.453L149.254 295.125C149.436 297.761 149.695 299.985 150.03 301.797L150.221 304.422C150.32 306.774 150.231 308.795 149.954 310.483C149.48 311.218 148.702 310.828 147.622 309.315L146.03 306.613C145.377 305.323 144.931 303.849 144.693 302.191L144.085 296.889C144.13 295.806 144.198 295.123 144.288 294.839C144.833 293.094 145.127 292.271 145.172 292.368C145.582 292.072 146.539 290.692 148.043 288.228C148.579 286.903 148.768 285.846 148.609 285.058C148.316 283.715 147.97 282.552 147.57 281.568C146.508 278.922 145.499 277.223 144.545 276.472C143.742 275.908 142.58 276.012 141.06 276.785L137.872 280.026C137.608 280.29 137.218 281.091 136.701 282.429C136.599 282.513 136.3 283.717 135.803 286.04C135.733 289.468 135.563 292.235 135.291 294.342C135.494 295.954 135.484 297.398 135.264 298.674L134.409 301.272C134.305 301.444 134.198 301.49 134.088 301.411C133.535 300.051 133.253 299.046 133.244 298.395C132.921 295.121 132.848 292.218 133.023 289.686L133.954 284.11C134.157 283.158 134.585 281.541 135.24 279.259C135.293 279.171 135.354 278.584 135.424 277.496C135.375 276.504 135.21 275.269 134.929 273.791L134.919 268.939L134.412 262.815L134.454 260.029C134.071 257.517 133.887 255.112 133.9 252.813C133.975 251.847 134.028 251.35 134.061 251.321C134.518 250.009 134.918 248.355 135.261 246.357C135.364 245.864 135.532 245.463 135.766 245.152L148.885 254.735Z" fill="black"/>
<path d="M210.161 261.326L208.571 261.364L207.226 261.442C206.34 261.515 205.477 261.628 204.637 261.782C203.797 261.936 202.979 262.13 202.184 262.365C200.64 262.808 199.096 263.466 197.555 264.34C197.206 264.553 196.917 264.747 196.691 264.923L190.901 270.22L187.298 274.298L189.955 273.599C190.126 273.547 190.437 273.396 190.888 273.146C194.555 269.799 198.018 267.397 201.277 265.941L203.611 265.18C204.071 265.225 205.178 265.056 206.93 264.673C207.095 264.656 207.585 264.652 208.401 264.66C208.721 264.681 208.976 264.72 209.163 264.779C209.717 265.021 210.588 265.33 211.777 265.704L216.18 266.448C218.976 267.146 220.673 267.622 221.27 267.873C222.046 268.144 223.691 269.353 226.203 271.501C227.739 272.298 229.212 273.208 230.621 274.232C231.613 274.754 232.179 274.99 232.317 274.94C232.55 274.872 232.621 274.744 232.53 274.556C231.543 272.981 230.879 271.997 230.538 271.606C227.978 268.827 225.805 266.782 224.019 265.473L222.911 264.885L218.539 263.209L213.956 261.766C213.939 261.7 212.674 261.553 210.161 261.326Z" fill="black"/>
<path d="M292.14 270.246L291.981 270.785C292.09 270.581 292.18 270.414 292.253 270.285L292.264 270.288C292.248 270.281 292.214 270.268 292.16 270.249C292.155 270.245 292.148 270.244 292.14 270.246Z" fill="black"/>
<path d="M328.177 271.12L328.177 271.12L328.178 271.121C328.178 271.12 328.177 271.12 328.177 271.12L328.177 271.123V271.12Z" fill="black"/>
<path d="M327.585 270.947L327.579 270.948C327.573 270.949 327.571 270.95 327.573 270.953C327.602 271.141 327.628 271.331 327.651 271.524C327.711 271.612 327.773 271.648 327.84 271.631C327.897 271.616 327.952 271.564 328.006 271.474C328.05 271.409 328.103 271.291 328.165 271.12L328.177 271.124C328.173 271.122 328.17 271.12 328.166 271.117C328.167 271.118 328.167 271.12 328.167 271.121L327.585 270.947Z" fill="black"/>
<path d="M327.573 270.946V270.948V270.949L327.573 270.952L327.573 270.949C327.573 270.95 327.573 270.951 327.573 270.952L327.573 270.949L327.573 270.946Z" fill="black"/>
<path d="M190.622 273.399C196.194 277.396 199.753 279.476 201.301 279.64C202.558 279.987 203.391 280.18 203.801 280.219L208.161 280.189C208.047 280.265 210.264 280.501 214.811 280.895C214.87 280.92 215.426 280.9 216.478 280.835L218.264 280.521C219.577 280.474 220.281 280.428 220.378 280.385C220.548 280.405 221.44 280.157 223.055 279.643L225.874 278.201C227.452 277.263 228.858 276.234 230.092 275.113C230.217 275.026 230.289 275.04 230.307 275.155C230.41 277.161 228.74 279.292 225.296 281.549C224.61 282.099 223.503 282.653 221.976 283.212C220.534 283.522 219.358 283.652 218.448 283.6L211.447 282.958C210.59 282.973 209.903 282.954 209.387 282.9C208.504 282.888 207.635 282.987 206.78 283.196L204.143 283.297L197.619 281.746C191.487 280.02 189.27 277.683 190.971 274.737L190.622 273.399Z" fill="black"/>
<path d="M289.056 271.718C292.756 274.514 295.878 276.154 298.424 276.638L302.434 277.281L303.567 277.367C304.073 277.523 305.091 277.705 306.622 277.912L313.387 277.939C315.427 277.712 317.461 277.126 319.489 276.181L323.891 274.117C325.896 272.978 327.171 272.165 327.715 271.679C327.698 272.346 326.023 274.333 322.687 277.642C320.736 279.062 318.322 280.316 315.447 281.403C315.153 281.487 314.787 281.5 314.349 281.439L309.438 280.348C308.488 280.187 307.539 280.1 306.593 280.087L303.857 279.694C302.56 279.509 300.125 278.873 296.553 277.785L293.675 276.68L289.493 274.063C288.604 273.484 288.052 272.825 287.836 272.084L289.056 271.718Z" fill="black"/>
<path d="M289.463 271.904C290.617 269.501 293.776 266.153 298.938 261.859C299.875 260.928 302.026 260.085 305.392 259.33C310.194 258.953 313.93 259.409 316.6 260.699C316.806 260.735 317.917 261.443 319.932 262.82L324.766 266.891C327.514 269.603 328.96 271.201 329.102 271.685C328.916 269.948 328.371 268.238 327.467 266.554C326.944 265.761 326.532 265.257 326.23 265.044C324.503 263.975 323.046 262.918 321.858 261.872C322.046 261.87 320.853 261.232 318.28 259.96C315.8 259.073 314.167 258.585 313.383 258.495C311.729 258.099 309.382 257.948 306.344 258.043C305.863 258.043 305.278 258.142 304.589 258.338C302.304 259.013 300.659 259.564 299.654 259.993C297.416 260.898 295.628 261.783 294.291 262.648C292.904 263.55 292.135 264.105 291.983 264.312L287.703 269.069L289.463 271.904Z" fill="black"/>
<path d="M205.965 264.774C203.801 267.233 202.599 269.067 202.358 270.275C202.036 271.056 202.114 272.544 202.59 274.738C202.713 275.57 203.401 276.412 204.653 277.263L209.092 279.51C209.313 279.63 209.722 279.698 210.319 279.713C211.109 279.686 211.912 279.494 212.728 279.136C213.281 278.875 213.779 278.584 214.222 278.261C215.683 277.687 216.494 277.303 216.653 277.11C217.51 276.568 218.302 275.269 219.031 273.214C219.703 270.581 219.632 268.36 218.82 266.551C218.726 266.228 218.258 265.759 217.415 265.145C216.873 264.902 216.582 264.783 216.54 264.789C215.276 264.648 214.527 264.499 214.295 264.344L205.965 264.774Z" fill="black"/>
<path d="M305.816 259.649C303.284 260.52 301.656 261.9 300.933 263.788C300.568 264.404 300.34 266.095 300.25 268.863C300.383 270.145 300.649 271.359 301.047 272.503C302.138 274.037 303.711 275.07 305.766 275.601C306.915 275.869 308.416 276.026 310.269 276.07C311.878 275.752 313.054 275.293 313.797 274.693C315.767 272.181 316.948 270.329 317.342 269.137C317.417 268.627 317.409 268.199 317.318 267.851C317.107 267.194 316.741 266.28 316.22 265.111L315.898 263.772C315.961 263.629 315.393 262.584 314.193 260.638C313.737 260.039 313.381 259.671 313.124 259.533C309.726 258.509 307.848 258.138 307.491 258.422L305.816 259.649Z" fill="black"/>
<path d="M242.34 255.8C243.352 255.844 244.289 257.462 245.151 260.655L245.646 262.594C245.687 264.625 245.973 266.554 246.505 268.383C246.59 268.796 246.541 269.313 246.356 269.933C245.944 271.898 244.842 273.834 243.05 275.741C240.254 278.35 238.374 279.323 237.407 278.662C236.842 278.516 236.163 278.114 235.37 277.455C229.301 271.111 226.403 268.016 226.679 268.17C226.288 267.646 224.97 266.504 222.723 264.744L221.723 263.566C221.417 263.312 220.61 261.597 219.304 258.421C218.842 257.195 218.333 255.262 217.776 252.623L215.976 248.16L242.34 255.8Z" fill="black" fill-opacity="0.207843"/>
<path d="M271.299 254.086C270.44 256.605 271.819 261.396 275.436 268.461C279.027 275.72 281.845 278.916 283.89 278.046C284.16 278.03 284.602 277.693 285.217 277.035L287.632 272.28C289.681 268.84 291.386 266.432 292.745 265.058C298.765 259.203 304.203 254.67 309.06 251.458L314.643 244.629C314.798 244.141 314.877 243.529 314.881 242.794L271.299 254.086Z" fill="black" fill-opacity="0.207843"/>
<path d="M242.484 322.72L242.147 322.732C240.845 322.915 239.836 323.311 239.122 323.918C238.58 324.422 238.088 324.973 237.646 325.573C237.488 325.791 237.046 326.66 236.319 328.181L236.083 329.115C235.973 329.705 235.956 330.231 236.033 330.692C236.11 331.153 236.28 331.549 236.544 331.881L237.01 332.329L237.617 332.681C238.068 332.883 238.613 333.021 239.252 333.093C239.669 333.061 239.991 333.023 240.219 332.981C241.834 332.523 243.155 332.081 244.182 331.656C246.278 330.565 247.725 329.875 248.526 329.587C250.064 328.763 251.037 328.223 251.447 327.969L251.735 328.467L252.225 327.455C252.163 327.518 251.906 327.689 251.455 327.968C250.689 326.719 250.108 325.895 249.712 325.495C248.827 324.502 248.131 323.895 247.622 323.674C247.308 323.519 247.01 323.411 246.729 323.35L242.782 322.729L242.484 322.72Z" fill="black" fill-opacity="0.207843"/>
<path d="M281.723 320.739L281.461 320.745C280.535 320.809 279.626 320.959 278.734 321.194C277.448 321.635 276.638 321.998 276.305 322.284C275.458 323.046 274.295 324.825 272.815 327.622C274.252 328.171 275.445 328.683 276.392 329.157L279.514 330.879C280.802 330.896 281.868 330.874 282.713 330.814L285.926 331.265C287.505 330.513 288.852 329.949 289.967 329.572C290.235 328.407 290.534 327.315 290.863 326.294C290.879 325.934 290.847 325.675 290.768 325.516C290.201 324.471 289.332 323.623 288.162 322.974L284.335 321.643L282.481 320.804C282.261 320.761 282.008 320.74 281.723 320.739Z" fill="black" fill-opacity="0.207843"/>
<path d="M247.275 400.354C246.76 400.187 246.074 400.051 245.214 399.946C243.571 400.014 241.418 399.864 238.753 399.495C235.947 398.874 234.66 398.501 234.892 398.376C231.412 395.994 231.199 393.501 234.252 390.896C234.725 390.589 235.458 390.32 236.453 390.09C237.558 390.246 241.939 389.508 249.596 387.876L255.399 385.806L261.961 384.201L263.799 383.531C269.802 382.471 273.208 381.974 274.018 382.041C281.826 382.662 288.151 385.585 292.991 390.811C295.622 393.924 295.186 396.72 291.682 399.197L285.437 401.909C284.559 402.25 283.85 402.412 283.308 402.394C282.069 402.405 281.386 402.391 281.259 402.351C279.387 401.957 277.841 401.729 276.623 401.667C275.612 401.628 274.505 401.676 273.303 401.812C271.944 401.681 271.132 401.644 270.867 401.7C269.726 401.764 268.085 401.946 265.945 402.246L260.018 402.081L249.217 401.185L245.09 400.383C244.908 400.35 244.712 400.243 244.505 400.062L247.275 400.354Z" fill="black" fill-opacity="0.501961"/>
<path d="M134.7 298.019C134.351 299.054 134.138 300.657 134.061 302.826C134.349 304.893 134.796 306.438 135.401 307.461L140.274 314.122L144.091 320.195L148.055 323.807C148.621 324.307 149.602 324.907 151 325.607C151.166 325.699 151.247 325.838 151.244 326.024C150.89 326.171 150.328 325.927 149.559 325.292L145.717 320.676C145.346 320.251 144.226 319.335 142.357 317.928C142.235 317.875 141.533 317.073 140.251 315.522C139.792 314.677 138.536 312.931 136.481 310.284L135.893 309.205C134.924 307.259 134.168 305.059 133.626 302.605L134.7 298.019Z" fill="black"/>
<path d="M152.428 332.654C156.522 353.333 160.77 367.112 165.171 373.991C164.727 374.312 172.445 383.562 188.324 401.74C197.131 408.735 202.679 411.951 204.968 411.387C197.597 407.742 192.418 404.416 189.432 401.407C182.887 395.27 178.07 391.073 174.982 388.817C170.476 384.724 168.019 382.093 167.612 380.923C164.89 376.634 162.934 373.147 161.745 370.464L158.681 357.762C158.624 354.467 157.349 348.179 154.857 338.895L152.428 332.654Z" fill="black"/>
<path d="M373.668 281.254C373.927 282.409 374.206 285.096 374.506 289.315C374.559 290.272 374.583 290.842 374.578 291.025C374.519 292.27 374.514 293.415 374.561 294.459L374.491 295.656C374.482 295.633 374.502 296.011 374.551 296.788C374.77 297.564 375.043 299.443 375.372 302.424L375.142 305.337C375.183 307.499 375.22 308.658 375.253 308.816C375.26 309.288 375.254 309.708 375.236 310.076L374.855 313.85L374.613 314.951C374.327 318.065 374.082 319.914 373.878 320.499C373.815 320.854 373.508 321.473 372.957 322.359C372.472 323.726 370.806 324.759 367.962 325.458C367.855 325.471 367.865 325.397 367.99 325.236C368.551 324.667 369.097 323.988 369.628 323.199L371.061 320.573C371.285 319.616 371.555 318.8 371.871 318.128L373.072 313.272C373.107 313.318 373.201 312.534 373.353 310.918L373.481 306.164L373.703 303.665L373.723 299.723C373.752 299.562 373.606 298.394 373.285 296.216C373.263 295.91 373.034 295.253 372.598 294.244L372.441 293.08C372.133 291.92 371.935 291.02 371.847 290.38C371.834 289.537 371.683 287.982 371.394 285.717L371.335 284.097C371.159 283.01 371.073 282.1 371.075 281.367L373.668 281.254Z" fill="black"/>
<path d="M369.146 325.663L367.704 326.945C363.579 330.75 360.897 335 359.657 339.696C359.506 340.278 359.386 340.835 359.297 341.365C359.244 342.858 359.213 344.112 359.204 345.126C359.197 347.58 359.367 350.531 359.716 353.98L358.468 360.77C358.467 361.66 358.451 362.546 358.419 363.43L361.859 357.293L369.146 325.663Z" fill="black"/>
<path d="M358.394 363.475L356.605 366.668C356.226 367.607 355.85 368.666 355.476 369.845C355.194 370.662 354.731 372.321 354.087 374.823C355.032 375.351 355.729 376.262 356.18 377.557C356.668 375.928 357.051 374.592 357.331 373.551L357.545 372.236C357.816 370.514 358.023 368.924 358.166 367.463C358.238 366.733 358.294 366.036 358.334 365.371L358.382 364.398L358.406 363.475L358.394 363.478V363.475Z" fill="black"/>
<path d="M354.178 383.457L352.471 385.633C352.354 386.581 352.168 387.252 351.912 387.646C350.383 389.6 349.364 391.297 348.855 392.738L347.313 394.755C347.493 395.092 347.334 395.954 346.835 397.344C344.899 400.076 343.357 402.446 342.209 404.454L336.019 416.214C334.052 418.268 332.728 419.198 332.047 419.002L326.893 425.857L307.683 445.946C308.312 445.917 310.904 443.766 315.461 439.492L321.951 433.33C322.904 431.955 324.166 430.442 325.739 428.792C328.425 426.254 330.209 424.783 331.09 424.378C331.328 424.188 331.797 423.645 332.497 422.75C336.483 417.715 340.486 412.014 344.504 405.646C350.692 393.079 353.917 385.682 354.178 383.457Z" fill="black"/>
<path d="M211.314 436.796L211.605 437.178L215.736 442.817C217.7 444.231 220.51 445.669 224.164 447.132C225.376 447.643 227.329 448.296 230.024 449.093C236.528 450.238 241.471 450.971 244.852 451.292C251.323 451.576 255.551 451.673 257.537 451.583L261.222 451.798C263.429 451.818 265.049 451.761 266.08 451.624C268.033 451.877 269.151 452.004 269.434 452.007L274.02 451.992C275.084 451.861 276.424 451.785 278.039 451.766C281.507 451.987 283.669 452.065 284.525 452.001L291.313 451.386C292.705 450.919 294.115 450.553 295.543 450.29C298.054 449.899 299.866 449.73 300.98 449.782C301.794 449.574 303.478 449.04 306.033 448.182L308.398 447.692L301.888 445.379C300.911 445.688 299.626 446.415 298.033 447.562L294.519 448.973C291.416 449.687 288.526 450.261 285.851 450.693L282.244 450.722L280.381 450.918C278.186 450.851 276.216 450.924 274.473 451.138L269.669 451.138L263.566 450.524C262.007 450.506 260.448 450.488 258.889 450.47C255.416 449.955 253.174 449.725 252.162 449.782C250.362 449.465 248.14 448.986 245.498 448.344C238.415 447.35 233.054 446.449 229.415 445.641L219.38 442.876C217.603 442.431 214.914 440.404 211.314 436.796Z" fill="black"/>
<path d="M209.024 434.152L209.02 434.153C208.99 434.129 209.341 434.543 210.074 435.393C210.319 435.676 210.686 436.082 211.174 436.612C209.934 434.992 209.217 434.172 209.024 434.152Z" fill="black"/>
<path d="M185.416 406.86L191.811 414.614L198.207 422.369C196.18 419.029 195.127 417.369 195.048 417.389C194.986 417.33 194.952 417.311 194.945 417.333L189.465 410.77C188.894 410.28 187.544 408.976 185.416 406.86Z" fill="black"/>
<path d="M198.235 422.416L198.405 422.698L199.918 425.227C200.345 425.687 201.352 427.062 202.937 429.352L209.72 437.76C212.451 440.723 212.899 440.642 211.064 437.519L210.33 436.314L207.801 433.153L203.067 428.322C202.792 428.008 202.567 427.715 202.392 427.444L198.235 422.416Z" fill="black"/>
<path d="M362.294 231.926L362.08 232.483C361.802 233.143 361.441 233.808 360.996 234.476C360.403 235.314 360.022 235.818 359.853 235.988C359.568 236.326 359.262 236.664 358.935 237.004L361.445 241.352C361.502 239.847 361.601 238.319 361.742 236.768C361.819 235.934 361.893 235.211 361.966 234.601C362.05 233.836 362.164 232.944 362.307 231.926L362.294 231.93V231.926Z" fill="black" fill-opacity="0.301961"/>
<path d="M302.563 449.815L302.573 449.816C302.573 449.816 302.587 449.816 302.615 449.817L302.638 449.818C302.663 449.819 302.694 449.82 302.731 449.822L302.769 449.823L303.117 449.838L303.332 449.86V449.863L302.826 449.834C302.762 449.83 302.71 449.826 302.67 449.824L302.582 449.818C302.582 449.819 302.582 449.821 302.582 449.822L302.551 449.815L302.563 449.818V449.815ZM361.444 241.371L361.392 243.463C361.019 245.533 361.535 250.749 362.94 259.109C362.924 260.844 361.178 264.331 357.7 269.57C357.113 271.46 356.898 272.918 357.053 273.946C358.148 277.356 361.515 282.55 367.155 289.528C367.221 291.194 366.272 294.403 364.308 299.155C365.602 303.026 366.938 305.432 368.315 306.371C355.769 322.02 347.023 338.345 342.077 355.347C334.728 362.693 329.423 369.358 326.163 375.341C318.114 380.362 311.055 386.114 304.988 392.598C304.113 395.713 303.88 398.426 304.29 400.734C304.677 402.866 305.978 406.063 308.192 410.326L307.646 411.576C307.252 412.313 306.22 412.949 304.549 413.483C295.649 415.561 289.082 416.88 284.847 417.44C276.353 418.794 264.005 419.387 247.804 419.219L236.891 422.505C228.827 425.849 224.656 431.176 224.381 438.486C224.899 444.977 225.402 448.654 225.89 449.517C230.715 449.442 236.811 450.485 244.178 452.645C247.64 451.87 250.412 451.523 252.493 451.604C255.487 451.657 259.049 452.198 263.178 453.227C267.577 451.733 274.552 451.908 284.102 453.752L295.813 450.24L300.244 449.791C301.998 449.819 302.354 449.816 301.313 449.783L302.53 449.812L301.898 449.813L305.415 450.068L307.008 449.356C315.362 440.157 319.61 435.997 319.751 436.878C321.217 434.118 323.32 431.308 326.061 428.447C328.925 425.78 331.586 423.856 334.044 422.676L345.554 410.573C344.61 405.039 348.402 396.377 356.928 384.586C356.589 379.024 357.105 374.452 358.476 370.87C358.714 369.446 360.8 365.674 364.736 359.554C364.183 356.14 364.56 351.363 365.867 345.223C369.012 333.446 371.855 326.156 374.395 323.353C374.448 320.858 375.525 312.93 377.625 299.57C374.791 288.834 375.301 279.653 379.154 272.026L361.444 241.371Z" fill="black" fill-opacity="0.301961"/>
<path d="M268.615 454.775L268.511 454.782C268.408 454.789 268.237 454.801 267.998 454.82L267.693 454.845C267.728 454.856 267.762 454.87 267.796 454.885L268.026 454.858C268.045 454.856 268.103 454.85 268.199 454.839L268.372 454.821L268.488 454.81L268.499 454.813C268.55 454.796 268.593 454.783 268.626 454.775L268.615 454.778V454.775Z" fill="black" fill-opacity="0.301961"/>
<path d="M243.579 302.92C239.41 303.743 236.3 305.868 234.247 309.292L231.147 316.147L230.124 319.769L229.979 321.232L230.075 326.555C230.27 327.955 230.593 328.939 231.044 329.506C231.987 330.516 233.371 331.516 235.196 332.506C236.457 333.224 237.471 333.72 238.237 333.995C239.71 334.363 240.932 334.566 241.902 334.606C243.386 335.247 244.376 335.579 244.871 335.604C244.814 335.892 246.422 335.763 249.695 335.217C249.528 335.412 248.701 335.756 247.215 336.248C244.421 336.976 240.697 336.875 236.044 335.945C234.617 335.631 233.103 334.689 231.503 333.119C230.893 332.637 230.229 331.465 229.51 329.601C229.222 327.744 229.119 326.307 229.2 325.292C229.175 325.199 229.245 324.916 229.41 324.442C229.379 323.513 229.42 322.697 229.534 321.995C229.99 320.08 230.212 318.468 230.199 317.161L231.362 312.939C231.817 312.435 232.466 310.993 233.306 308.613C233.35 308.478 233.674 308.08 234.278 307.419C235.225 306.547 237.324 305.405 240.574 303.993L243.579 302.92Z" fill="black"/>
<path d="M279.366 301.449C281.744 301.824 283.528 302.485 284.716 303.431C284.82 303.659 285.762 304.552 287.541 306.108L291.354 310.272C292.528 311.782 293.29 312.968 293.64 313.83C294.143 315.575 294.494 316.603 294.692 316.914L295.175 318.977C295.181 319.91 295.218 320.492 295.286 320.724C294.809 324.146 294.463 325.827 294.25 325.766C294.122 326.315 293.593 326.992 292.663 327.797L289.197 330.62C288.828 330.934 288.514 331.303 288.255 331.726L285.046 333.921C280.6 334.945 277.84 335.19 276.766 334.655C277.54 334.877 278.931 334.954 280.939 334.888C280.869 335.207 283.393 334.595 288.511 333.05C289.913 332.473 291.111 331.793 292.103 331.011C295.19 328.216 296.928 324.817 297.316 320.814C297.4 319.929 297.316 318.946 297.065 317.867C296.854 316.968 296.098 315.478 294.797 313.397L293.053 309.089C292.836 308.58 292.363 307.743 291.633 306.576C291.198 305.909 290.63 305.325 289.929 304.823C286.679 303.138 284.931 301.934 284.684 301.212L279.366 301.449Z" fill="black"/>
<path d="M235.192 323.587L241.208 319.747C241.65 319.388 243.378 319.332 246.392 319.58L249.177 320.925C250.97 322.43 251.963 323.202 252.154 323.242C255.627 326.814 257.382 328.524 257.42 328.373C259.649 329.481 260.811 330.016 260.905 329.977C261.068 330.09 262.157 330.217 264.171 330.357C264.817 330.397 265.348 330.33 265.765 330.157C267.729 329.501 269.428 328.789 270.862 328.023L277.346 320.465C277.255 320.251 278.384 319.6 280.733 318.511L282.211 318.107C282.321 318.037 282.914 318.082 283.991 318.241L289.299 320.853C290.584 321.592 291.598 322.625 292.343 323.953L287.993 318.937C287.017 318.318 285.88 317.9 284.58 317.684C283.673 317.526 282.8 317.52 281.962 317.664C280.567 317.768 278.945 318.579 277.096 320.096C275.521 321.417 273.685 323.328 271.589 325.828L269.808 327.267C268.766 327.848 267.835 328.231 267.015 328.416L263.703 328.656L261.718 328.98C259.125 328.436 257.293 327.713 256.221 326.813C255.17 326.333 253.199 324.037 250.308 319.926C249.769 319.352 248.987 318.889 247.963 318.535C246.216 318.217 245.419 318.096 245.574 318.17C243.098 318.199 241.814 318.309 241.722 318.501L238.2 320.344C237.605 321.274 237.415 321.783 237.629 321.871L235.192 323.587Z" fill="black"/>
<path d="M234.062 382.833L247.265 377.275C252.18 376.032 257.571 374.405 263.438 372.394C265.989 371.814 267.95 371.468 269.322 371.355C270.798 371.075 274.234 371.373 279.631 372.25C289.082 374.087 293.94 374.928 294.204 374.775L296.851 375.489C301.037 377.067 303.201 377.803 303.342 377.696C305.323 378.149 306.399 378.078 306.57 377.483C306.042 373.656 302.857 370.846 297.014 369.054C296.103 368.771 295.218 368.585 294.359 368.496C289.762 368.045 287.278 367.85 286.909 367.912C285.42 367.6 283.775 367.369 281.974 367.218C277.203 367.132 274.838 367.138 274.878 367.236C274.02 367.3 273.063 367.452 272.008 367.692C270.65 367.73 269.768 367.803 269.36 367.91C265.42 368.696 261.528 369.759 257.684 371.098L240.533 378.928C240.143 379.022 237.854 380.522 233.665 383.428L234.062 382.833Z" fill="black" fill-opacity="0.501961"/>
<path d="M432.78 266.335C437.578 371.337 363.216 460.033 266.688 464.444C170.159 468.855 88.0179 387.31 83.2197 282.308C78.4216 177.306 152.784 88.61 249.312 84.1989C345.841 79.7878 427.982 161.333 432.78 266.335Z" fill="url(#paint1_radial)" fill-opacity="0.505882"/>
<defs>
<radialGradient id="paint0_radial" cx="0" cy="0" r="1" gradientUnits="userSpaceOnUse" gradientTransform="translate(256 269) rotate(90) scale(269)">
<stop stop-color="#FFF500"/>
<stop offset="0.255208" stop-color="#FFF500"/>
<stop offset="0.505208" stop-color="#FFF500"/>
<stop offset="0.692708" stop-color="#FFF500" stop-opacity="0.742857"/>
<stop offset="0.802083" stop-color="#FFF500" stop-opacity="0.5"/>
<stop offset="0.963542" stop-color="#FFF500" stop-opacity="0.1"/>
<stop offset="1" stop-color="#FFF500" stop-opacity="0"/>
</radialGradient>
<radialGradient id="paint1_radial" cx="0" cy="0" r="1" gradientUnits="userSpaceOnUse" gradientTransform="translate(41.9298 299.662) scale(432.577)">
<stop stop-color="#FF8500"/>
<stop offset="0.519737" stop-color="#FFC400"/>
<stop offset="1" stop-color="#FFE300"/>
</radialGradient>
</defs>
</svg>
